#N canvas 81 373 834 620 10;
#X floatatom 509 116 5 0 0 0 - - -, f 5;
#X obj 244 132 inlet;
#X text 206 106 connect to bang;
#X text 341 512 connect to right side of a *~;
#X obj 506 74 inlet;
#X floatatom 582 117 5 0 0 0 - - -, f 5;
#X obj 580 73 inlet;
#X text 563 133 Decay Time;
#X obj 338 426 outlet~;
#X text 489 134 Attack Time;
#X obj 352 302 pack f f;
#X msg 339 330 1 \$1 \, 0 \$2 \$1;
#X obj 299 390 vline~;
#X connect 0 0 10 0;
#X connect 1 0 10 0;
#X connect 4 0 0 0;
#X connect 5 0 10 1;
#X connect 6 0 5 0;
#X connect 10 0 11 0;
#X connect 11 0 12 0;
#X connect 12 0 8 0;
#X coords 0 -1 1 1 150 50 1 480 100;
