#N canvas 297 150 834 620 10;
#X floatatom 472 113 5 0 0 0 - - -, f 5;
#X obj 244 132 inlet;
#X text 206 106 connect to bang;
#X text 341 512 connect to right side of a *~;
#X obj 498 76 inlet;
#X floatatom 609 113 5 0 0 0 - - -, f 5;
#X obj 609 76 inlet;
#X text 592 129 Decay Time;
#X text 466 128 Attack Time;
#X floatatom 540 113 5 0 0 0 - - -, f 5;
#X obj 540 76 inlet;
#X text 541 127 S-Level;
#X obj 447 375 print;
#X obj 361 223 bng 15 250 50 0 empty empty empty 17 7 0 10 -262144
-1 -1;
#X floatatom 659 113 5 0 0 0 - - -, f 5;
#X text 660 127 s-time;
#X obj 629 178 t b f;
#X obj 629 202 +;
#X obj 629 257 +;
#X obj 629 222 t b f;
#X floatatom 629 287 5 0 0 0 - - -, f 5;
#X obj 659 76 inlet;
#X floatatom 707 113 5 0 0 0 - - -, f 5;
#X obj 707 76 inlet;
#X text 708 129 R-time;
#X obj 351 302 pack f f f f f f;
#X floatatom 411 113 5 0 0 0 - - -, f 5;
#X obj 433 76 inlet;
#X text 407 129 Atk level;
#X obj 339 489 outlet~;
#X msg 255 302 stop;
#X obj 228 241 t b b;
#X msg 340 329 \$0 \, 1 \$2 10 \, \$3 \$4 \$2 \, 0 \$5 \$6;
#X obj 338 445 vline~;
#X connect 0 0 18 0;
#X connect 0 0 25 1;
#X connect 1 0 31 0;
#X connect 4 0 0 0;
#X connect 5 0 17 0;
#X connect 5 0 25 3;
#X connect 6 0 5 0;
#X connect 9 0 25 2;
#X connect 10 0 9 0;
#X connect 13 0 25 0;
#X connect 14 0 16 0;
#X connect 16 0 17 0;
#X connect 16 1 17 1;
#X connect 17 0 19 0;
#X connect 18 0 20 0;
#X connect 19 0 18 0;
#X connect 19 1 18 1;
#X connect 20 0 25 5;
#X connect 21 0 14 0;
#X connect 22 0 25 4;
#X connect 23 0 22 0;
#X connect 25 0 32 0;
#X connect 26 0 25 0;
#X connect 27 0 26 0;
#X connect 31 0 25 0;
#X connect 31 1 30 0;
#X connect 32 0 33 0;
#X connect 33 0 29 0;
#X coords 0 -1 1 1 350 50 1 400 100;
