#N canvas -8 -8 1920 997 10;
#X obj 763 1315 dac~;
#X obj 1319 416 bng 15 250 50 0 bang1 empty empty 17 7 0 10 -204786
-1 -1;
#X obj 916 661 vsl 15 128 0 1 0 1 empty empty empty 0 -9 0 10 -262144
-1 -1 12700 1;
#X obj 973 661 vsl 15 128 0 1000 0 1 empty empty empty 0 -9 0 10 -262144
-1 -1 300 1;
#X obj 1087 661 vsl 15 128 0 10000 0 1 empty empty empty 0 -9 0 10
-262144 -1 -1 0 1;
#X obj 1144 661 vsl 15 128 0 10000 0 1 empty empty empty 0 -9 0 10
-262144 -1 -1 635 1;
#X obj 1202 661 vsl 15 128 0 1000 0 1 empty empty empty 0 -9 0 10 -262144
-1 -1 600 1;
#X obj 1030 661 vsl 15 128 0 1 0 1 empty empty empty 0 -9 0 10 -262144
-1 -1 12700 1;
#X obj 466 559 *~;
#X obj 561 385 line~;
#X obj 561 332 sqrt;
#X obj 561 358 sqrt;
#X obj 561 417 *~;
#X obj 560 488 *~;
#X obj 560 300 line;
#X obj 467 601 *~;
#X obj 741 260 snapshot~;
#X obj 49 629 vsl 15 128 0 1 0 1 empty empty empty 0 -9 0 10 -262144
-1 -1 12700 1;
#X obj 105 629 vsl 15 128 0 1000 0 1 empty empty empty 0 -9 0 10 -262144
-1 -1 500 1;
#X obj 219 629 vsl 15 128 0 1000 0 1 empty empty empty 0 -9 0 10 -262144
-1 -1 0 1;
#X obj 274 626 vsl 15 128 0 1000 0 1 empty empty empty 0 -9 0 10 -262144
-1 -1 0 1;
#X floatatom 334 734 5 0 0 0 - - -, f 5;
#X obj 334 597 vsl 15 128 300 5000 0 1 FL fartLength empty 0 -9 0 10
-257985 -1 -1 540 1;
#X obj 162 629 vsl 15 128 0 1 0 1 empty empty empty 0 -9 0 10 -262144
-1 -1 12700 1;
#X obj 466 482 -~ 0.5;
#X floatatom 829 -17 5 0 0 0 - - -, f 5;
#X msg 771 387 -1000;
#X obj 771 357 loadbang;
#X text 493 103 2) pitch envelope randomization;
#X text 539 149 1) quartic envelope;
#X obj 1302 606 tgl 25 0 randomToggle empty empty 17 7 0 10 -260097
-1 -1 0 1;
#X obj 1288 535 bng 15 250 50 0 empty fartRandomOn empty 17 7 0 10
-262144 -1 -1;
#X text 1334 613 random? y/n;
#X obj 1414 545 loadbang;
#X msg 1414 583 1;
#X obj 334 555 spigot 0;
#X obj 377 534 tgl 15 1 empty randomToggle empty 17 7 0 10 -262144
-1 -1 0 1;
#X obj 829 2 spigot 0;
#X obj 885 -13 tgl 15 1 empty randomToggle empty 17 7 0 10 -262144
-1 -1 0 1;
#X obj 829 26 vsl 15 128 25 500 0 1 p2i p2 empty 0 -9 0 10 -257985
-1 -1 668 1;
#X text 653 -77 first Fart Pitch;
#X text 345 366 fart Length;
#X obj 1457 568 bng 15 250 50 0 resetToggle resetToggle empty 17 7
0 10 -262130 -1 -1;
#X msg 1734 368 \; pd dsp 1;
#X obj 1755 334 loadbang;
#X text 714 -88 \$1;
#X obj 1394 315 r fartSynth;
#X text 759 307 3) signal reducer;
#X obj 468 632 *~ 0.9;
#X text 945 624 dry timbre;
#X floatatom 678 -15 5 0 0 0 - - -, f 5;
#X text 824 -79 second pitch;
#X floatatom 4 1142 5 0 0 0 - - -, f 5;
#X obj 4 1005 vsl 15 128 0 200 0 1 empty empty empty 0 -9 0 10 -262144
-1 -1 9652 1;
#X floatatom 37 1141 5 0 0 0 - - -, f 5;
#X obj 37 1004 vsl 15 128 0 100 0 1 empty empty empty 0 -9 0 10 -262144
-1 -1 2540 1;
#X floatatom 71 1141 5 0 0 0 - - -, f 5;
#X obj 71 1004 vsl 15 128 0 10000 0 1 empty empty empty 0 -9 0 10 -262144
-1 -1 616 1;
#X floatatom 104 1140 5 0 0 0 - - -, f 5;
#X obj 104 1003 vsl 15 128 0 120 0 1 empty empty empty 0 -9 0 10 -262144
-1 -1 10100 1;
#X obj 626 353 snapshot~;
#X text 194 -51 netreceive 32000 here;
#X text 762 315 former log~;
#X msg 408 113 stop;
#X obj 17 787 ADSREnv-amp;
#X obj 860 819 ADSREnv-amp;
#X msg 196 -24 \; stopAll bang \;;
#X obj 771 434 sig~;
#X obj 467 659 *~ 0.9;
#X obj 220 -75 netreceive 32000;
#X obj 861 1303 env~;
#X obj 861 1365 vu 15 120 empty empty -1 -8 0 10 -66577 -1 1 0;
#X obj 861 1325 - 101;
#X obj 475 1032 hsl 128 15 0 1 0 1 empty empty empty -2 -8 0 10 -262144
-1 -1 10160 1;
#X obj 678 4 spigot 0;
#X obj 736 -11 tgl 15 1 empty randomToggle empty 17 7 0 10 -262144
-1 -1 0 1;
#X obj 678 28 vsl 15 128 25 500 0 1 p1i p1 empty 0 -9 0 10 -257985
-1 -1 668 1;
#X text 847 -97 \$3;
#X obj 1463 510 s metro;
#X obj 350 226 r metro;
#X text 280 352 cause of high pitch shriek;
#X obj 467 383 line~;
#X obj 448 268 sqrt;
#X obj 449 290 sqrt;
#X obj 467 415 *~;
#X obj 466 440 *~;
#X obj 850 351 hsl 128 15 1.2 12 0 1 empty empty empty -2 -8 0 10 -262144
-1 -1 1646 1;
#X obj 738 235 vline~;
#X obj 414 1098 hsl 128 15 0 1 0 1 empty wetnessVolume empty -2 -8
0 10 -262144 -1 -1 2540 1;
#X obj 95 1317 hsl 128 15 0 8000 0 1 empty empty empty -2 -8 0 10 -262144
-1 -1 317 1;
#X text 926 288 2 - 3;
#X obj 820 398 * 2.7;
#X obj 500 214 +;
#X obj 318 250 snapshot~;
#X obj 318 206 osc~ 33;
#X obj 318 226 *~ 5;
#X obj 627 287 *~ 1500;
#X floatatom 409 1115 5 0 0 0 - - -, f 5;
#X obj 334 509 + 400;
#X obj 339 1275 line;
#X obj 342 1301 hsl 128 15 0 5000 0 0 empty empty empty -2 -8 0 10
-262144 -1 -1 8890 1;
#X msg 847 327 2.6;
#X text 297 -32 a fast jump of > 400 sounds unrealistic;
#X obj 394 1148 *~;
#X obj 759 1132 *~;
#X obj 475 945 hsl 128 15 0 1 0 1 empty pinch empty -2 -8 0 10 -4032
-1 -1 10160 1;
#X obj 414 992 -;
#X obj 411 1030 * -1;
#X msg 449 975 1;
#X text 467 962 crossfade bt gassy and pinchy;
#X text 463 1076 rev volume;
#X text 504 998 dry volume;
#X obj 755 1083 lop~ 2000;
#X obj 817 1128 hsl 128 15 0 20000 0 1 empty empty empty -2 -8 0 10
-204786 -1 -1 952 1;
#X obj 435 1164 hsl 128 15 0 1000 0 1 empty empty empty -2 -8 0 10
-204786 -1 -1 6350 1;
#X obj 41 1357 lop~ 1000;
#X obj 931 557 *~ 1;
#X obj 393 1207 hip~ 20;
#X obj 1024 1177 *~ 1;
#X obj 659 330 r metro;
#X obj 741 204 r metro;
#X text 1486 566 r resetToggle;
#X text 928 125 \$4 ramp;
#X obj 891 78 r FL;
#X obj 339 40 bng 25 250 50 0 empty bang1 empty 17 7 0 15 -204786 -1
-1;
#X text 847 1148 to lop;
#X obj 303 1199 r FL;
#X obj 1144 615 r FL;
#X obj 866 770 bng 25 250 50 0 empty bang1 empty 17 7 0 15 -204786
-1 -1;
#X obj 818 378 r FL;
#N canvas 498 64 958 988 lowEnd 0;
#X obj 109 172 s clusterMode;
#X obj 188 224 tgl 15 0 empty empty empty 17 7 0 10 -203904 -1 -1 1
1;
#X text 139 127 clusterMode;
#X text 140 141 on = rip;
#X text 141 153 off = clusters;
#X obj 34 135 spigot 0;
#X obj 167 224 tgl 15 0 lowEndStatus empty empty 17 7 0 10 -204786
-1 -1 0 1;
#X text 43 84 clusterToggle;
#X text 43 102 on or off;
#X floatatom 110 -17 5 0 0 0 - - -, f 5;
#X msg 170 28 0;
#X msg 113 49 1;
#X obj 323 54 select 0;
#X msg 323 85 0;
#X obj 113 3 select 0 1;
#X msg 143 49 0;
#X msg 170 49 1;
#X text 227 -90 0 = clusters \, 1 = rip 2+ = off;
#X obj 110 -69 spigot 0;
#X obj 178 -79 tgl 15 1 empty randomToggle empty 17 7 0 10 -262144
-1 -1 0 1;
#X obj 34 65 spigot 0;
#X obj 85 42 tgl 15 0 empty empty empty 17 7 0 10 -262144 -1 -1 1 1
;
#X msg 355 85 1;
#X obj 171 243 bng 15 250 50 0 empty lowEndToggle0 empty 17 7 0 10
-204800 -1 -1;
#X floatatom 237 -32 5 0 0 0 - - -, f 5;
#X msg 344 -24 2;
#X obj 229 9 select 0 1;
#X msg 286 32 0;
#X msg 229 53 1;
#X msg 259 53 0;
#X msg 286 53 1;
#X obj 33 224 hsl 128 15 500 6000 0 1 empty empty empty -2 -8 0 10
-261234 -1 -1 0 1;
#X floatatom 30 244 5 0 0 0 - - -, f 5;
#X text 64 241 low end length;
#X obj 30 202 r lowEndLength;
#X obj 34 -94 bng 25 250 50 0 empty bangX empty 17 7 0 15 -204786 -1
-1;
#X obj 21 320 outlet;
#X obj 129 311 outlet;
#X obj 203 -11 s n1;
#X obj 209 202 r n1;
#X floatatom 209 224 5 0 0 0 - - -, f 5;
#X obj 191 243 bng 15 250 50 0 empty lowEndToggle1 empty 17 7 0 10
-204800 -1 -1;
#X obj 212 243 bng 15 250 50 0 empty lowEndToggle2 empty 17 7 0 10
-204800 -1 -1;
#X msg 272 -22 0;
#X msg 306 -22 1;
#X msg 198 29 2;
#X msg 390 83 0;
#X obj 365 -58 bng 15 250 50 0 resetToggle resetToggle empty 17 7 0
10 -262130 -1 -1;
#X obj 230 284 s stopLE;
#X obj 10 1 + 500;
#X obj 86 128 spigot 0;
#X obj 153 114 tgl 15 1 empty randomToggle empty 17 7 0 10 -262144
-1 -1 0 1;
#X obj 30 -39 random 2000;
#X obj 110 -39 random 8;
#X connect 1 0 0 0;
#X connect 5 0 37 0;
#X connect 6 0 5 1;
#X connect 9 0 14 0;
#X connect 10 0 6 0;
#X connect 11 0 6 0;
#X connect 11 0 5 0;
#X connect 12 0 13 0;
#X connect 12 0 22 0;
#X connect 12 0 25 0;
#X connect 12 1 46 0;
#X connect 13 0 6 0;
#X connect 14 0 11 0;
#X connect 14 0 15 0;
#X connect 14 1 11 0;
#X connect 14 1 16 0;
#X connect 14 2 10 0;
#X connect 14 2 45 0;
#X connect 15 0 1 0;
#X connect 15 0 24 0;
#X connect 16 0 1 0;
#X connect 16 0 24 0;
#X connect 18 0 52 0;
#X connect 18 0 53 0;
#X connect 19 0 18 1;
#X connect 19 0 12 0;
#X connect 20 0 5 0;
#X connect 21 0 20 1;
#X connect 22 0 21 0;
#X connect 23 0 43 0;
#X connect 24 0 26 0;
#X connect 24 0 38 0;
#X connect 25 0 26 0;
#X connect 25 0 24 0;
#X connect 26 0 28 0;
#X connect 26 0 29 0;
#X connect 26 1 28 0;
#X connect 26 1 30 0;
#X connect 26 2 27 0;
#X connect 27 0 6 0;
#X connect 28 0 6 0;
#X connect 29 0 1 0;
#X connect 30 0 1 0;
#X connect 31 0 32 0;
#X connect 32 0 36 0;
#X connect 34 0 31 0;
#X connect 35 0 20 0;
#X connect 35 0 18 0;
#X connect 39 0 40 0;
#X connect 41 0 44 0;
#X connect 42 0 25 0;
#X connect 42 0 48 0;
#X connect 43 0 26 0;
#X connect 43 0 24 0;
#X connect 44 0 26 0;
#X connect 44 0 24 0;
#X connect 45 0 24 0;
#X connect 45 0 48 0;
#X connect 46 0 21 0;
#X connect 47 0 25 0;
#X connect 49 0 31 0;
#X connect 50 0 9 0;
#X connect 51 0 50 1;
#X connect 52 0 49 0;
#X connect 53 0 9 0;
#X coords 0 -1 1 1 225 40 2 25 220;
#X restore 1265 1071 pd lowEnd;
#X obj 1305 1256 *~ 1;
#N canvas 0 50 1916 997 squeek 0;
#X obj 181 298 tgl 15 0 empty empty empty 17 7 0 10 -203904 -1 -1 1
1;
#X obj 66 205 spigot 0;
#X obj 161 298 tgl 15 0 squeekX empty empty 17 7 0 10 -204786 -1 -1
0 1;
#X text -2 159 clusterToggle;
#X text -2 177 on or off;
#X floatatom 98 49 5 0 0 0 - - -, f 5;
#X msg 158 94 0;
#X msg 101 115 1;
#X obj 319 113 select 0;
#X msg 319 146 0;
#X obj 101 69 select 0 1;
#X msg 131 115 0;
#X msg 158 115 1;
#X obj 98 -3 spigot 0;
#X obj 166 -13 tgl 15 1 empty randomToggle empty 17 7 0 10 -262144
-1 -1 0 1;
#X obj 34 140 spigot 0;
#X obj 79 117 tgl 15 0 empty empty empty 17 7 0 10 -262144 -1 -1 1
1;
#X msg 351 144 1;
#X msg 385 146 0;
#X obj 160 319 bng 15 250 50 0 empty squeekToggle0 empty 17 7 0 10
-204800 -1 -1;
#X floatatom 201 298 5 0 0 0 - - -, f 5;
#X obj 213 66 select 0 1;
#X msg 256 94 0;
#X msg 200 115 1;
#X msg 229 115 0;
#X msg 257 115 1;
#X obj 23 298 hsl 128 15 200 450 0 1 empty empty empty -2 -8 0 10 -260097
-1 -1 2540 1;
#X floatatom 20 320 5 0 0 0 - - -, f 5;
#X obj 28 268 r squeekPitch;
#X text 189 -25 0 = wobbly squeek \, 1 = rip squeek \, 2 = off;
#X text 196 187 squeekMode;
#X text 199 201 on = wobblySqueek;
#X text 196 214 off = ripSqueek;
#X obj 35 -155 bng 25 250 50 0 empty bangX empty 17 7 0 15 -204786
-1 -1;
#X obj 20 428 outlet;
#X obj 94 372 outlet;
#X obj 178 319 bng 15 250 50 0 empty squeekToggle1 empty 17 7 0 10
-204800 -1 -1;
#X obj 204 319 bng 15 250 50 0 empty squeekToggle2 empty 17 7 0 10
-204800 -1 -1;
#X msg 215 23 0;
#X msg 264 23 1;
#X msg 309 24 2;
#X msg 167 71 2;
#X obj 308 276 s squeekMode;
#X obj 343 -1 bng 15 250 50 0 empty resetToggle empty 17 7 0 10 -262130
-1 -1;
#X obj 111 -84 spigot 0;
#X obj 159 -141 tgl 15 1 empty toot empty 17 7 0 10 -262144 -1 -1 1
1;
#X obj 157 -106 tgl 15 0 empty empty empty 17 7 0 10 -262144 -1 -1
0 1;
#X text 190 -144 toot toggle;
#X msg 218 -84 0;
#X msg 182 -84 1;
#X obj 180 -120 select 0;
#X obj 17 -76 r bang, f 8;
#X obj 29 -25 bng 15 250 50 0 empty empty empty 17 7 0 10 -262144 -1
-1;
#X obj 17 -76 r bang3;
#X floatatom 284 346 5 0 0 0 - - -, f 5;
#X obj 217 367 s stopSqueek;
#X obj 127 269 bng 15 250 50 0 empty empty empty 17 7 0 10 -262144
-1 -1;
#X obj 108 147 spigot 0;
#X obj 154 125 tgl 15 0 empty empty empty 17 7 0 10 -262144 -1 -1 0
1;
#X obj 105 -31 spigot 0;
#X obj 173 -41 tgl 15 1 empty empty empty 17 7 0 10 -262144 -1 -1 1
1;
#X text 217 -52 don't squeek when tooting;
#X obj 295 -88 select 0;
#X msg 292 -62 1;
#X msg 343 -61 0;
#X obj 413 -93 loadbang;
#X obj 20 50 + 200;
#X obj 20 26 random 150;
#X obj 98 27 random 6;
#X connect 0 0 42 0;
#X connect 1 0 56 0;
#X connect 1 0 34 0;
#X connect 2 0 1 1;
#X connect 5 0 10 0;
#X connect 6 0 2 0;
#X connect 7 0 2 0;
#X connect 7 0 1 0;
#X connect 8 0 9 0;
#X connect 8 0 17 0;
#X connect 8 0 40 0;
#X connect 8 1 18 0;
#X connect 9 0 2 0;
#X connect 10 0 7 0;
#X connect 10 0 11 0;
#X connect 10 1 7 0;
#X connect 10 1 12 0;
#X connect 10 2 6 0;
#X connect 10 2 41 0;
#X connect 11 0 0 0;
#X connect 11 0 20 0;
#X connect 12 0 0 0;
#X connect 12 0 20 0;
#X connect 13 0 67 0;
#X connect 13 0 68 0;
#X connect 14 0 13 1;
#X connect 14 0 8 0;
#X connect 14 0 62 0;
#X connect 15 0 1 0;
#X connect 16 0 15 1;
#X connect 17 0 16 0;
#X connect 18 0 16 0;
#X connect 19 0 38 0;
#X connect 20 0 21 0;
#X connect 20 0 54 0;
#X connect 21 0 23 0;
#X connect 21 0 24 0;
#X connect 21 1 23 0;
#X connect 21 1 25 0;
#X connect 21 2 22 0;
#X connect 22 0 2 0;
#X connect 23 0 2 0;
#X connect 24 0 0 0;
#X connect 25 0 0 0;
#X connect 26 0 27 0;
#X connect 27 0 35 0;
#X connect 28 0 26 0;
#X connect 33 0 44 0;
#X connect 36 0 39 0;
#X connect 37 0 40 0;
#X connect 37 0 55 0;
#X connect 38 0 21 0;
#X connect 38 0 20 0;
#X connect 39 0 21 0;
#X connect 39 0 20 0;
#X connect 40 0 21 0;
#X connect 40 0 20 0;
#X connect 41 0 20 0;
#X connect 41 0 55 0;
#X connect 43 0 40 0;
#X connect 44 0 15 0;
#X connect 44 0 13 0;
#X connect 45 0 50 0;
#X connect 46 0 44 1;
#X connect 48 0 46 0;
#X connect 49 0 46 0;
#X connect 50 0 49 0;
#X connect 50 1 48 0;
#X connect 51 0 59 0;
#X connect 53 0 15 0;
#X connect 53 0 15 0;
#X connect 53 0 52 0;
#X connect 57 0 5 0;
#X connect 58 0 57 1;
#X connect 59 0 13 0;
#X connect 60 0 59 1;
#X connect 62 0 63 0;
#X connect 62 1 64 0;
#X connect 63 0 60 0;
#X connect 64 0 60 0;
#X connect 65 0 64 0;
#X connect 66 0 26 0;
#X connect 67 0 66 0;
#X connect 68 0 5 0;
#X coords 0 -1 1 1 225 50 2 15 290;
#X restore 1019 1063 pd squeek;
#X text 1652 1022 squeek;
#X text 1330 1051 Low End;
#N canvas 0 50 1916 997 gassy 0;
#X msg 333 480 55;
#X obj 97 499 pack f f f;
#X obj 53 389 bng 15 250 50 0 empty empty empty 17 7 0 10 -262144 -1
-1;
#X obj 113 390 bng 15 250 50 0 empty empty empty 17 7 0 10 -262144
-1 -1;
#X text 287 502 gassy;
#X floatatom 39 216 5 0 0 0 - - -, f 5;
#X msg 118 286 stop;
#X obj 91 176 t b b;
#X obj 53 434 t f b;
#X obj 114 431 t f b;
#X obj 91 152 spigot 0;
#X obj 137 129 tgl 15 0 empty empty empty 17 7 0 10 -191407 -1 -1 0
1;
#X obj 197 131 tgl 15 0 empty empty empty 17 7 0 10 -99865 -1 -1 1
1;
#X obj 152 152 spigot 0;
#X obj 246 80 bng 15 250 50 0 empty empty empty 17 7 0 10 -262144 -1
-1;
#X obj 238 259 spigot 0;
#X obj 340 283 bng 15 250 50 0 empty empty empty 17 7 0 10 -262144
-1 -1;
#X obj 269 281 bng 15 250 50 0 empty empty empty 17 7 0 10 -262144
-1 -1;
#X obj 281 241 tgl 15 0 empty empty empty 17 7 0 10 -262144 -1 -1 1
1;
#X obj 327 239 bng 15 250 50 0 empty empty empty 17 7 0 10 -262144
-1 -1;
#X obj 350 241 tgl 15 0 empty empty empty 17 7 0 10 -262144 -1 -1 0
1;
#X obj 305 258 spigot 0;
#X obj 142 550 tgl 15 1 empty empty empty 17 7 0 10 -262144 -1 -1 1
1;
#X obj 97 569 spigot 0;
#X obj 172 350 bng 15 250 50 0 empty empty empty 17 7 0 10 -262144
-1 -1;
#X obj 167 372 t b b;
#X msg 194 532 0;
#X msg 166 533 1;
#X obj 53 366 t b b;
#X obj 113 364 t b b;
#X obj 414 240 tgl 15 0 empty empty empty 17 7 0 10 -262144 -1 -1 0
1;
#X obj 369 258 spigot 0;
#X obj 77 249 bng 15 250 50 0 empty gassyToggle0 empty 17 7 0 10 -260097
-1 -1;
#X msg 292 206 0;
#X msg 267 206 1;
#X msg 339 206 0;
#X msg 315 206 1;
#X msg 392 206 0;
#X msg 365 206 1;
#X obj 309 145 select 0 1;
#X floatatom 161 244 5 0 0 0 - - -, f 5;
#X obj 182 48 del 10;
#X obj 182 27 bng 15 250 50 0 empty resetToggle empty 17 7 0 10 -262130
-1 -1;
#X msg 153 72 1;
#X msg 182 71 0;
#X msg 97 523 \$1 \, \$2 \$3;
#X obj 97 547 line;
#X msg 108 72 1;
#X msg 108 49 0;
#X obj 402 281 bng 15 250 50 0 empty empty empty 17 7 0 10 -262144
-1 -1;
#X obj 108 5 tgl 15 1 empty randomToggle empty 17 7 0 10 -262144 -1
-1 0 1;
#X obj 108 26 select 0;
#X msg 300 481 125;
#X obj 19 127 bng 25 250 50 0 empty bang1 empty 17 7 0 15 -204786 -1
-1;
#X obj 227 461 r FL;
#X floatatom 227 504 5 0 0 0 - - -, f 5;
#X obj 300 540 f;
#X text 328 539 to hip, f 4;
#X obj 54 314 select 0 1;
#X obj 96 596 outlet;
#X obj 257 561 outlet;
#X floatatom 300 562 5 0 0 0 - - -, f 5;
#X msg 305 281 1;
#X obj 243 373 s wetToggle;
#X msg 240 307 0;
#X msg 247 330 1;
#X text 425 161 set default;
#X text 386 110 0 pinched \, 1 gassy 2 even;
#X obj 101 248 bng 15 250 50 0 empty gassyToggle1 empty 17 7 0 10 -260097
-1 -1;
#X obj 132 247 bng 15 250 50 0 empty gassyToggle2 empty 17 7 0 10 -260097
-1 -1;
#X msg 302 83 0;
#X msg 339 85 1;
#X msg 371 84 2;
#X msg 377 472 65;
#X msg 238 281 2;
#X obj 225 482 * 0.5;
#X msg 369 279 0.8;
#X msg 114 411 0.7;
#X msg 80 456 0.8;
#X msg 167 392 0.5;
#X msg 143 459 0.4;
#X msg 54 412 0.6;
#X obj 555 37 bng 15 250 50 0 empty bangMusic empty 17 7 0 10 -262144
-1 -1;
#X obj 560 93 select 0;
#X obj 555 58 random 12;
#X obj 91 200 random 5;
#X connect 0 0 56 0;
#X connect 1 0 45 0;
#X connect 2 0 81 0;
#X connect 2 0 64 0;
#X connect 2 0 0 0;
#X connect 3 0 52 0;
#X connect 3 0 64 0;
#X connect 3 0 77 0;
#X connect 5 0 58 0;
#X connect 5 0 40 0;
#X connect 6 0 46 0;
#X connect 7 0 85 0;
#X connect 7 1 6 0;
#X connect 8 0 1 0;
#X connect 8 1 78 0;
#X connect 9 0 1 0;
#X connect 9 1 80 0;
#X connect 10 0 7 0;
#X connect 11 0 10 1;
#X connect 12 0 13 1;
#X connect 12 0 14 0;
#X connect 13 0 15 0;
#X connect 13 0 21 0;
#X connect 13 0 31 0;
#X connect 14 0 69 0;
#X connect 15 0 74 0;
#X connect 15 0 17 0;
#X connect 16 0 52 0;
#X connect 16 0 64 0;
#X connect 17 0 64 0;
#X connect 17 0 0 0;
#X connect 18 0 15 1;
#X connect 19 0 18 0;
#X connect 19 0 20 0;
#X connect 20 0 21 1;
#X connect 21 0 62 0;
#X connect 21 0 16 0;
#X connect 22 0 23 1;
#X connect 23 0 59 0;
#X connect 24 0 25 0;
#X connect 24 0 65 0;
#X connect 24 0 73 0;
#X connect 25 0 79 0;
#X connect 25 1 26 0;
#X connect 26 0 22 0;
#X connect 27 0 22 0;
#X connect 28 0 2 0;
#X connect 28 1 27 0;
#X connect 29 0 3 0;
#X connect 29 1 27 0;
#X connect 30 0 31 1;
#X connect 31 0 76 0;
#X connect 31 0 49 0;
#X connect 32 0 70 0;
#X connect 33 0 20 0;
#X connect 33 0 30 0;
#X connect 34 0 18 0;
#X connect 35 0 30 0;
#X connect 35 0 18 0;
#X connect 36 0 20 0;
#X connect 37 0 20 0;
#X connect 37 0 18 0;
#X connect 38 0 30 0;
#X connect 39 0 38 0;
#X connect 39 0 37 0;
#X connect 39 1 36 0;
#X connect 39 1 35 0;
#X connect 39 2 34 0;
#X connect 39 2 33 0;
#X connect 41 0 44 0;
#X connect 42 0 43 0;
#X connect 42 0 41 0;
#X connect 43 0 11 0;
#X connect 44 0 12 0;
#X connect 45 0 46 0;
#X connect 46 0 23 0;
#X connect 47 0 12 0;
#X connect 48 0 11 0;
#X connect 49 0 65 0;
#X connect 49 0 73 0;
#X connect 50 0 51 0;
#X connect 51 0 48 0;
#X connect 51 0 47 0;
#X connect 51 1 43 0;
#X connect 51 1 41 0;
#X connect 52 0 56 0;
#X connect 53 0 13 0;
#X connect 53 0 10 0;
#X connect 54 0 75 0;
#X connect 56 0 60 0;
#X connect 56 0 61 0;
#X connect 58 0 24 0;
#X connect 58 1 29 0;
#X connect 58 2 28 0;
#X connect 62 0 58 0;
#X connect 64 0 63 0;
#X connect 65 0 63 0;
#X connect 68 0 71 0;
#X connect 69 0 72 0;
#X connect 70 0 39 0;
#X connect 70 0 40 0;
#X connect 71 0 39 0;
#X connect 71 0 40 0;
#X connect 72 0 39 0;
#X connect 72 0 40 0;
#X connect 73 0 56 0;
#X connect 74 0 58 0;
#X connect 75 0 1 2;
#X connect 75 0 55 0;
#X connect 76 0 59 0;
#X connect 77 0 9 0;
#X connect 78 0 1 1;
#X connect 79 0 59 0;
#X connect 80 0 1 1;
#X connect 81 0 8 0;
#X connect 82 0 84 0;
#X connect 83 0 32 0;
#X connect 83 1 69 0;
#X connect 84 0 83 0;
#X connect 85 0 5 0;
#X coords 0 -1 1 1 125 25 2 75 240;
#X restore 562 911 pd gassy;
#X text 613 877 gassy;
#X text 961 966 Muffle;
#N canvas 953 50 958 988 wobble 0;
#X obj 42 30 bng 25 250 50 0 empty bang1 empty 17 7 0 15 -204786 -1
-1;
#X text 252 174 wobble;
#X obj 174 206 hsl 128 15 0 5 0 1 empty empty empty -2 -8 0 10 -262144
-1 -1 2540 1;
#X obj 175 254 hsl 128 15 0 60 0 1 empty empty empty -2 -8 0 10 -262144
-1 -1 1482 1;
#X text 136 203 freq;
#X text 126 253 amount;
#X obj 171 181 line;
#X obj 17 138 vsl 15 128 -0.01 1 0 1 empty fartWobble empty 0 -9 0
10 -232576 -1 -1 126 1;
#X obj 171 138 pack f f;
#X msg 171 158 0.1 \, \$1 \$2;
#X obj 45 132 / 10;
#X obj 87 59 tgl 15 0 empty randomToggle empty 17 7 0 10 -262144 -1
-1 0 1;
#X obj 42 84 spigot 0;
#X obj 105 85 spigot 0;
#X obj 150 64 tgl 15 0 empty empty empty 17 7 0 10 -262144 -1 -1 1
1;
#X obj 52 269 * 30;
#X floatatom 46 173 5 0 0 0 - - -, f 5;
#X obj 46 151 + 0.01;
#X obj 42 111 random 8;
#X msg 133 10 0;
#X obj 105 9 bng 15 250 50 0 empty resetToggle empty 17 7 0 10 -262130
-1 -1;
#X msg 87 34 1;
#X obj 216 90 r FL;
#X obj 314 204 outlet;
#X obj 362 205 outlet;
#X obj 163 40 select 0;
#X msg 167 68 1;
#X msg 198 67 0;
#X obj 56 241 + 1;
#X obj 216 113 * 0.75;
#X obj 329 164 snapshot~;
#X obj 407 142 r metro;
#X obj 422 187 +;
#X obj 423 166 t b f;
#X obj 328 123 *~ 1;
#X obj 328 99 osc~ 2;
#X obj 48 347 + 0.1;
#X obj 263 549 snapshot~;
#X obj 341 527 r metro;
#X obj 356 572 +;
#X obj 357 551 t b f;
#X obj 262 508 *~ 1;
#X obj 261 484 osc~ 2;
#X obj 45 435 + 0.1;
#X obj 44 412 * 2;
#X obj 47 381 * 3;
#X obj 48 322 * 3;
#X obj 56 221 * 2;
#X obj 42 468 * 10;
#X obj 52 288 + 7;
#X floatatom -6 315 5 0 0 0 - - -, f 5;
#X obj 8 71 inlet;
#X obj 263 417 spigot 0;
#X obj 307 379 tgl 15 0 empty mainCalc empty 17 7 0 10 -262144 -1 -1
0 1;
#X obj 321 413 select 0;
#X msg 322 436 0;
#X obj 263 444 sig~;
#X obj 328 45 spigot 0;
#X obj 372 7 tgl 15 0 empty mainCalc empty 17 7 0 10 -262144 -1 -1
0 1;
#X obj 386 41 select 0;
#X msg 387 64 0;
#X obj 328 72 sig~;
#X connect 0 0 12 0;
#X connect 0 0 13 0;
#X connect 2 0 23 0;
#X connect 3 0 24 0;
#X connect 6 0 32 0;
#X connect 7 0 15 0;
#X connect 7 0 44 0;
#X connect 7 0 45 0;
#X connect 7 0 46 0;
#X connect 7 0 47 0;
#X connect 7 0 48 0;
#X connect 7 0 50 0;
#X connect 8 0 9 0;
#X connect 9 0 6 0;
#X connect 10 0 17 0;
#X connect 11 0 12 1;
#X connect 11 0 25 0;
#X connect 12 0 18 0;
#X connect 13 0 7 0;
#X connect 14 0 13 1;
#X connect 15 0 49 0;
#X connect 17 0 7 0;
#X connect 17 0 16 0;
#X connect 18 0 10 0;
#X connect 19 0 14 0;
#X connect 20 0 21 0;
#X connect 20 0 19 0;
#X connect 21 0 11 0;
#X connect 22 0 29 0;
#X connect 25 0 26 0;
#X connect 25 1 27 0;
#X connect 26 0 14 0;
#X connect 27 0 14 0;
#X connect 28 0 8 0;
#X connect 29 0 8 1;
#X connect 30 0 33 0;
#X connect 31 0 30 0;
#X connect 32 0 2 0;
#X connect 33 0 32 0;
#X connect 33 1 32 1;
#X connect 34 0 30 0;
#X connect 35 0 34 0;
#X connect 36 0 57 0;
#X connect 37 0 40 0;
#X connect 38 0 37 0;
#X connect 39 0 3 0;
#X connect 40 0 39 0;
#X connect 40 1 39 1;
#X connect 41 0 37 0;
#X connect 42 0 41 0;
#X connect 43 0 52 0;
#X connect 44 0 43 0;
#X connect 45 0 34 1;
#X connect 46 0 36 0;
#X connect 47 0 28 0;
#X connect 48 0 41 1;
#X connect 49 0 39 0;
#X connect 51 0 7 0;
#X connect 52 0 56 0;
#X connect 53 0 52 1;
#X connect 53 0 54 0;
#X connect 54 0 55 0;
#X connect 54 1 44 0;
#X connect 55 0 56 0;
#X connect 56 0 42 0;
#X connect 57 0 61 0;
#X connect 58 0 57 1;
#X connect 58 0 59 0;
#X connect 59 0 60 0;
#X connect 59 1 46 0;
#X connect 60 0 61 0;
#X connect 61 0 35 0;
#X coords 0 -1 1 1 50 150 2 -5 125;
#X restore 123 80 pd wobble;
#X text 198 63 Wobble;
#N canvas 953 50 958 988 whoopie 0;
#X obj 157 454 osc~ 5000;
#X obj 157 379 line;
#X floatatom 157 401 5 0 0 0 - - -, f 5;
#X obj 157 331 pack f f;
#X text 176 13 whoopie / warble;
#X obj 305 210 bng 25 250 50 0 empty bang1 empty 17 7 0 15 -204786
-1 -1;
#X obj 157 673 outlet~;
#X obj 305 395 metro;
#X obj 305 417 bng 15 250 50 0 empty empty empty 17 7 0 10 -262144
-1 -1;
#X obj 158 535 bp~ 2000 3;
#X obj 21 501 hsl 128 15 0 5000 0 0 empty empty empty -2 -8 0 10 -262144
-1 -1 0 1;
#X obj 240 510 hsl 128 15 0 10 0 0 empty empty empty -2 -8 0 10 -262144
-1 -1 0 1;
#X floatatom 18 521 5 0 0 0 - - -, f 5;
#X floatatom 237 530 5 0 0 0 - - -, f 5;
#X msg 265 328 3000;
#X floatatom 345 400 5 0 0 0 - - -, f 5;
#X obj 345 378 + 10;
#X obj 159 152 r FL;
#X obj 157 245 spigot 0;
#X obj 208 154 tgl 15 0 empty empty empty 17 7 0 10 -262144 -1 -1 1
1;
#X obj 305 311 spigot 0;
#X obj 350 289 tgl 15 0 empty empty empty 17 7 0 10 -262144 -1 -1 0
1;
#X obj 345 357 random 225;
#X msg 235 204 0, f 2;
#X msg 206 204 1;
#X floatatom 202 299 5 0 0 0 - - -, f 5;
#X msg 255 366 stop;
#X obj 207 175 select 0 1;
#X floatatom 231 156 5 0 0 0 - - -, f 5;
#X obj 269 155 s n_wet;
#X floatatom 155 82 5 0 0 0 - - -, f 5;
#X obj 139 51 r n_wet;
#X text 198 84 0 = on;
#X text 198 96 1 = off;
#X obj 36 114 r wetToggle;
#X floatatom 36 136 5 0 0 0 - - -, f 5;
#X obj 36 160 select 0 1;
#X msg 37 193 1;
#X msg 66 194 0;
#X msg 15 472 2150;
#X obj 235 674 s~ warble;
#X obj 158 479 *~ 1;
#X msg 234 487 0;
#X obj 159 637 *~ 4;
#X obj 156 203 * 0.75;
#X msg 157 297 1100;
#X msg 157 357 0 \, \$1 \$2;
#X obj 158 600 lop~ 3000;
#X obj 157 429 spigot 0;
#X obj 201 405 tgl 15 0 empty mainCalc empty 17 7 0 10 -262144 -1 -1
0 1;
#X obj 101 418 select 0;
#X msg 113 438 0;
#X obj 360 325 r stop;
#X connect 0 0 41 0;
#X connect 1 0 2 0;
#X connect 2 0 48 0;
#X connect 3 0 46 0;
#X connect 5 0 18 0;
#X connect 5 0 20 0;
#X connect 7 0 8 0;
#X connect 8 0 3 0;
#X connect 8 0 22 0;
#X connect 9 0 47 0;
#X connect 10 0 12 0;
#X connect 10 0 9 1;
#X connect 11 0 13 0;
#X connect 11 0 9 2;
#X connect 14 0 3 0;
#X connect 16 0 15 0;
#X connect 16 0 3 1;
#X connect 16 0 7 1;
#X connect 17 0 44 0;
#X connect 18 0 45 0;
#X connect 18 0 25 0;
#X connect 19 0 18 1;
#X connect 19 0 27 0;
#X connect 19 0 28 0;
#X connect 20 0 7 0;
#X connect 20 0 14 0;
#X connect 21 0 20 1;
#X connect 22 0 16 0;
#X connect 23 0 21 0;
#X connect 24 0 21 0;
#X connect 25 0 3 1;
#X connect 26 0 7 0;
#X connect 27 0 24 0;
#X connect 27 1 23 0;
#X connect 27 1 26 0;
#X connect 28 0 29 0;
#X connect 31 0 30 0;
#X connect 34 0 35 0;
#X connect 35 0 36 0;
#X connect 36 0 37 0;
#X connect 36 1 38 0;
#X connect 37 0 19 0;
#X connect 37 0 5 0;
#X connect 38 0 19 0;
#X connect 38 0 5 0;
#X connect 39 0 10 0;
#X connect 41 0 9 0;
#X connect 42 0 11 0;
#X connect 43 0 6 0;
#X connect 43 0 40 0;
#X connect 44 0 18 0;
#X connect 45 0 3 0;
#X connect 46 0 1 0;
#X connect 47 0 43 0;
#X connect 48 0 0 0;
#X connect 49 0 48 1;
#X connect 49 0 50 0;
#X connect 50 0 51 0;
#X connect 51 0 0 0;
#X connect 52 0 7 0;
#X coords 0 -1 1 1 150 50 2 150 75;
#X restore 1059 507 pd whoopie;
#X text 1083 481 whoopie;
#X text 1218 581 r fartRandom;
#X text 1089 1041 0 = wobbly \, 1 = rip \, 2 = off;
#X obj 1025 1151 fartPatch2_long;
#X obj 1449 855 snapshot~;
#X floatatom 975 923 8 0 0 0 - - -, f 8;
#X obj 1397 869 r metro;
#X obj 1391 894 select 0;
#X msg 1911 1101 stop;
#X obj 1972 1089 bng 15 250 50 0 empty empty empty 17 7 0 10 -262144
-1 -1;
#X obj 1439 502 bng 15 250 50 0 empty empty empty 17 7 0 10 -262144
-1 -1;
#X obj 1449 912 spigot 0;
#X obj 1511 897 tgl 15 0 empty empty empty 17 7 0 10 -262144 -1 -1
0 1;
#X msg 1934 1160 0;
#X msg 1735 736 1;
#X obj 1440 472 metro 30;
#X text 1235 759 save CPU by turning off metro when fart ends;
#X obj 1717 840 r fp2volume;
#X obj 1708 939 bng 15 250 50 0 empty empty empty 17 7 0 10 -262144
-1 -1;
#X obj 1712 893 select 0;
#X obj 1624 939 bng 15 250 50 0 empty empty empty 17 7 0 10 -262144
-1 -1;
#X obj 1626 881 select 0;
#X obj 1625 836 r fp1volume;
#X obj 1623 971 spigot 0;
#X obj 1668 944 tgl 15 0 empty empty empty 17 7 0 10 -262144 -1 -1
0 1;
#X obj 1709 960 spigot 0;
#X obj 1775 942 tgl 15 0 empty empty empty 17 7 0 10 -262144 -1 -1
0 1;
#X obj 1974 851 spigot 0;
#X obj 2035 835 tgl 15 0 empty empty empty 17 7 0 10 -262144 -1 -1
0 1;
#X obj 1974 899 spigot 0;
#X obj 2036 884 tgl 15 0 empty empty empty 17 7 0 10 -262144 -1 -1
0 1;
#X obj 1974 959 spigot 0;
#X obj 2037 946 tgl 15 0 empty empty empty 17 7 0 10 -262144 -1 -1
0 1;
#X msg 1624 1005 1;
#X msg 1708 1001 1;
#X msg 1391 921 1;
#X obj 1977 1062 select 0;
#X text 1951 878 from squeek;
#X text 1944 936 from low end;
#X text 1956 814 main fart;
#X obj 1379 216 bng 15 250 50 0 bangMusic empty empty 17 7 0 10 -262144
-1 -1;
#X obj 1491 182 unpack f f f;
#X obj 1464 152 t b a;
#X obj 1458 124 r pack;
#X obj 1561 211 s release;
#X obj 289 574 r release;
#X obj 1486 210 s pitch;
#X obj 525 -139 r pitch;
#X text 340 291 toggle for music;
#X obj 517 -109 t b f;
#X obj 1293 -6 bng 15 250 50 0 musicOn fartMusicOn empty 17 7 0 10
-261682 -1 -1;
#X msg 1330 90 0;
#X msg 1288 92 1;
#X obj 1293 42 tgl 15 0 empty empty empty 17 7 0 10 -262144 -1 -1 0
1;
#X obj 1293 62 select 0 1;
#X obj 1424 -98 bng 15 250 50 0 Saints Saints empty 17 7 0 10 -262144
-1 -1;
#X msg 1288 553 1;
#X obj 1323 537 bng 15 250 50 0 empty fartRandomOff empty 17 7 0 10
-262144 -1 -1;
#X msg 1323 555 0;
#X msg 1292 16 1;
#X obj 1326 -6 bng 15 250 50 0 empty fartMusicOff empty 17 7 0 10 -261682
-1 -1;
#X msg 1325 16 0;
#X msg 496 171 0;
#X obj 197 165 s bangX;
#X text 260 134 send bang to squeek/rumble PD objets last;
#X obj 899 1170 loadbang;
#X obj 899 1195 del 1500;
#X msg 855 1187 0;
#X obj 762 1216 *~ 1;
#X obj 845 1234 line;
#X msg 899 1218 0 \, 1 100;
#X obj 1290 324 loadbang;
#X obj 234 21 tgl 15 1 empty randomToggle empty 17 7 0 10 -262144 -1
-1 0 1;
#X obj 234 40 select 0;
#X obj 339 -4 del 10;
#X obj 276 75 del 25;
#X obj 197 128 spigot;
#X obj 246 97 tgl 15 0 empty empty empty 17 7 0 10 -262144 -1 -1 1
1;
#X msg 277 104 1;
#X msg 244 65 0;
#X text 716 -185 setting bangX here will cause squeek to play first
fart in build every time. Don't know why. BUT it sounds ok now when
switching b/t design and player. The first fart will be randomized
each time you switch so the squeek won't stand out.;
#X obj 1690 -151 bng 15 250 50 0 empty songStop empty 17 7 0 10 -262144
-1 -1;
#X obj 996 1320 fartPatch3_puff;
#X obj 1975 1025 spigot 0;
#X obj 2037 1010 tgl 15 0 empty empty empty 17 7 0 10 -262144 -1 -1
0 1;
#X obj 1835 907 select 0;
#X obj 1833 962 spigot 0;
#X obj 1901 947 tgl 15 0 empty empty empty 17 7 0 10 -262144 -1 -1
0 1;
#X msg 1833 992 1;
#X obj 1838 848 r fp3volume;
#X obj 1836 943 bng 15 250 50 0 empty empty empty 17 7 0 10 -262144
-1 -1;
#X obj 1491 345 spigot 0;
#X obj 1537 321 tgl 15 0 toot empty empty 17 7 0 10 -204800 -1 -1 1
1;
#X obj 1393 339 bng 50 250 50 0 empty empty empty 17 7 0 10 -4034 -1
-1;
#X obj 1529 375 select 0;
#X msg 1570 395 0;
#X msg 1529 398 1;
#X obj 1393 416 spigot 0;
#X obj 1438 389 tgl 15 0 empty empty empty 17 7 0 10 -262144 -1 -1
0 1;
#X obj 1320 292 r bang;
#X msg 1291 352 0;
#X msg 1288 375 1;
#X obj 330 84 t b b b b b;
#X msg 1662 350 0;
#X msg 1617 347 1;
#X obj 1617 321 select 0;
#X text 1966 1004 from toot;
#X obj 1690 653 r metro;
#X msg 1403 968 0;
#X msg 1679 917 0;
#X msg 1757 915 0;
#X msg 1881 929 0;
#X obj 1539 284 spigot 0;
#X obj 1588 261 tgl 15 1 empty randomToggle empty 17 7 0 10 -262144
-1 -1 0 1;
#X obj 759 1018 clip~ -1 1;
#X obj 931 533 *~ 1;
#X msg 104 972 80;
#X obj 1454 249 bng 15 250 50 0 empty tootOn empty 17 7 0 10 -262144
-1 -1;
#X obj 1481 252 bng 15 250 50 0 empty tootOff empty 17 7 0 10 -262144
-1 -1;
#X msg 1481 276 0;
#X msg 1453 275 1;
#X text 546 890 0 wet \, 1 gassy 2 pinched;
#X obj 465 461 osc~;
#X obj 467 528 clip~ -1 1;
#X obj 628 309 +~ 4000;
#X msg 593 361 1000;
#X obj 625 520 clip~ -0.9 0.9;
#X obj 625 492 -~ 0.4;
#X obj 755 873 *~ 10;
#X obj 757 739 hip~ 100;
#X floatatom 802 720 5 0 0 0 - - -, f 5;
#X obj 802 577 vsl 15 128 0 200 0 1 empty empty empty 0 -9 0 10 -257985
-1 -1 5524 1;
#X floatatom 758 719 5 0 0 0 - - -, f 5;
#X obj 757 585 vsl 15 128 0 7000 0 1 empty empty empty 0 -9 0 10 -257985
-1 -1 7257 1;
#X obj 626 442 phasor~ 200;
#X obj 625 470 *~ 3;
#X text 692 664 duck;
#X text 838 635 crackles;
#X msg 71 971 800;
#X msg 798 536 87;
#X msg 1627 447 clear;
#X obj 466 505 *~ 1000;
#X obj 875 1078 line;
#X obj 920 968 tgl 15 1 empty empty empty 17 7 0 10 -262144 -1 -1 1
1;
#X msg 910 1079 stop;
#X obj 875 1032 t f b;
#X obj 875 982 spigot 0;
#X obj 875 954 r FL;
#X obj 392 29 bng 15 250 50 0 empty empty empty 17 7 0 10 -262144 -1
-1;
#X obj 755 919 *~ 0.3;
#X msg 875 1055 3000 \, 1500 \$1;
#X obj 374 55 s tootRandom;
#X msg 577 276 9 10;
#X obj 1461 369 t b b;
#X obj 1822 1119 s stop;
#X obj 457 108 s metro;
#X obj 977 891 env~;
#X obj 1690 686 t b b;
#X msg 1672 735 0;
#X obj 334 488 random 400;
#X obj 303 1368 lop~ 1000;
#X obj 337 761 + 0;
#X obj 395 440 select 0;
#X obj 395 389 random 5;
#X obj 311 372 t b b;
#X msg 392 465 1500;
#X msg 433 463 400;
#X obj 762 1245 clip~ -1 1;
#X obj 1144 637 * 1;
#X obj 339 1217 * 0.5;
#X msg 35 949 35;
#X msg 432 1143 500;
#X msg 1294 654 0;
#X msg 1342 654 1;
#X obj 1573 653 s stopSqueek;
#X obj 1482 666 s stopLE;
#X obj 1577 604 bng 20 250 50 0 empty stopAll empty 17 7 0 10 -261234
-1 -1;
#X obj 678 -37 + 50;
#X obj 681 -60 random 50;
#X obj 829 -39 + 50;
#X obj 829 -58 random 50;
#X obj 1616 301 random 2;
#X obj 771 467 *~ 1;
#X obj 875 1004 * 0.1;
#X obj 1023 1238 lop~ 1500;
#X obj 41 1220 *~ 1;
#X obj 759 1040 *~;
#X obj 34 1184 _rev3_half~;
#X obj 929 580 *~ 0.7;
#X text 1087 169 CPU load in percent;
#X obj 832 237 pack f f f;
#X obj 891 105 * 0.6;
#X msg 742 548 4000;
#X msg 338 1257 1000 \, 3500 \$1;
#X obj 1305 1231 fartPatch1_long;
#X msg 1613 626 stop;
#X obj 544 1306 hip~ 6000;
#X obj 575 1176 r FL;
#X obj 545 1279 line;
#X msg 37 970 20;
#X obj 754 897 clip~ -1 1;
#X obj 752 1062 *~ 3;
#X msg 5 970 152;
#X obj 277 1326 hip~ 1000;
#X obj 309 1437 *~ 1;
#X obj 308 1404 *~ 0.05;
#X obj 224 1198 * 1000;
#X obj 48 1302 hip~ 100;
#X obj 191 1394 *~ 0.5;
#X obj 536 1343 *~ 0.1;
#X msg 553 1235 80000 \, 4000 \$1;
#X obj 757 785 lop~ 4000;
#X obj 756 823 bp~ 500 4;
#X obj 757 1107 *~ 0.5;
#X text 1526 1071 main;
#X text 1608 1076 LE;
#X text 1699 1067 Squeek;
#X text 1770 1087 toot;
#X obj 611 1194 * 0.25;
#X obj 763 1159 *~ 0.4;
#X obj 1308 1279 *~ 0.6;
#X obj 1710 132 r pack2;
#X obj 1708 167 t b a;
#X obj 1817 234 s release;
#X obj 1708 196 unpack f f f;
#X obj 1687 230 s pitch1;
#X obj 1748 233 s pitch2;
#X obj 883 19 r pitch2;
#X obj 738 58 r pitch1;
#X floatatom 883 41 5 0 0 0 - - -, f 5;
#X floatatom 738 80 5 0 0 0 - - -, f 5;
#X obj 1424 -75 SongSaints;
#X obj 940 1293 *~ 0.3;
#X obj 1498 -75 LaCucaracha;
#X obj 1500 -101 bng 15 250 50 0 LaCuca LaCuca empty 17 7 0 10 -262144
-1 -1;
#X msg 831 278 \$1 \, \$2 \$3 0;
#X obj 1630 -74 TwinkleTwinkle;
#X obj 1628 -100 bng 15 250 50 0 Twinkle Twinkle empty 17 7 0 10 -262144
-1 -1;
#X obj 1577 28 HappyBirthday;
#X obj 1565 -1 bng 15 250 50 0 HappyBirthday HappyBirthday empty 17
7 0 10 -262144 -1 -1;
#X obj 1720 19 TheWheels;
#X obj 1716 -23 bng 15 250 50 0 Wheels Wheels empty 17 7 0 10 -262144
-1 -1;
#X obj 1770 -46 Kumbaya;
#X obj 1753 -69 bng 15 250 50 0 Kumbaya Kumbaya empty 17 7 0 10 -262144
-1 -1;
#X obj 1818 15 ThisLand;
#X obj 1816 -18 bng 15 250 50 0 ThisLand ThisLand empty 17 7 0 10 -262144
-1 -1;
#X obj 1857 -35 HotCrossBuns;
#X obj 1850 -62 bng 15 250 50 0 HotCross HotCross empty 17 7 0 10 -262144
-1 -1;
#X obj 1946 -51 RowRow;
#X obj 1933 -87 bng 15 250 50 0 Row Row empty 17 7 0 10 -262144 -1
-1;
#X obj 1967 56 Ballgame;
#X obj 1948 10 bng 15 250 50 0 Ballgame Ballgame empty 17 7 0 10 -262144
-1 -1;
#X obj 841 531 + 2000;
#X obj 832 492 random 1500;
#X obj 110 -190 bng 15 250 50 0 empty LaCuca empty 17 7 0 10 -261682
-1 -1;
#X obj 62 -188 bng 15 250 50 0 empty Saints empty 17 7 0 10 -262144
-1 -1;
#X obj 168 -199 bng 15 250 50 0 empty Twinkle empty 17 7 0 10 -262144
-1 -1;
#X obj 195 -200 bng 15 250 50 0 empty HappyBirthday empty 17 7 0 10
-262144 -1 -1;
#X obj 261 -196 bng 15 250 50 0 empty Wheels empty 17 7 0 10 -262144
-1 -1;
#X obj 201 -185 bng 15 250 50 0 empty Kumbaya empty 17 7 0 10 -262144
-1 -1;
#X obj 10 -180 bng 15 250 50 0 empty ThisLand empty 17 7 0 10 -262144
-1 -1;
#X obj 17 -162 bng 15 250 50 0 empty HotCross empty 17 7 0 10 -262144
-1 -1;
#X obj 32 -185 bng 15 250 50 0 empty Row empty 17 7 0 10 -262144 -1
-1;
#X obj 95 -188 bng 15 250 50 0 empty Ballgame empty 17 7 0 10 -262144
-1 -1;
#X msg 46 -146 -0.25;
#X msg 105 -150 -0.25;
#X msg 171 -148 -0.25;
#X obj 1934 1192 tgl 15 0 calc empty empty 17 7 0 10 -262144 -1 -1
0 1;
#X msg 1895 1153 1;
#X msg 942 371 10000;
#X obj 1505 450 s on;
#X obj 1556 454 s off;
#X obj 929 473 osc~ 1000;
#X obj 1384 444 tgl 15 0 mainCalc empty empty 17 7 0 10 -262144 -1
-1 0 1;
#X msg 1340 444 1;
#X obj 1583 929 s zero1;
#X msg 1583 906 0;
#X msg 2099 1063 0;
#X obj 2053 1043 select 0;
#X msg 2056 1068 1;
#X floatatom 1838 870 5 0 0 0 - - -, f 5;
#X obj 2097 1089 s calc3;
#X msg 2118 966 0;
#X obj 2072 946 select 0;
#X msg 2075 971 1;
#X obj 2116 992 s calc1;
#X msg 2112 899 0;
#X obj 2066 879 select 0;
#X msg 2069 904 1;
#X obj 2110 925 s calc2;
#X obj 979 426 spigot 0;
#X obj 1023 388 tgl 15 0 empty mainCalc empty 17 7 0 10 -262144 -1
-1 0 1;
#X obj 1037 422 select 0;
#X msg 1038 445 0;
#X obj 976 454 sig~;
#X msg 1077 449 1000;
#X obj 628 259 osc~ 0.3;
#X obj 658 171 tgl 15 0 empty mainCalc empty 17 7 0 10 -262144 -1 -1
0 1;
#X obj 659 193 select 0;
#X msg 660 216 0;
#X obj 627 232 sig~;
#X msg 697 219 0.3;
#X obj 625 409 spigot 0;
#X obj 697 377 tgl 15 0 empty mainCalc empty 17 7 0 10 -262144 -1 -1
0 1;
#X obj 702 396 select 0;
#X msg 703 419 0;
#X msg 1812 366 \; pd dsp 0;
#X obj 449 331 spigot 0;
#X obj 502 312 tgl 15 0 empty mainCalc empty 17 7 0 10 -262144 -1 -1
0 1;
#X obj 505 331 select 0;
#X msg 505 355 0;
#X msg 532 362 1000;
#X text 22 352 0.9.7;
#X text 30 391 optimizations - calculation blocker for each voice;
#X obj 1023 1201 *~ 0.35;
#X obj 762 1274 *~ 1.2;
#X connect 2 0 65 1;
#X connect 3 0 65 2;
#X connect 4 0 65 4;
#X connect 5 0 65 5;
#X connect 6 0 65 6;
#X connect 7 0 65 3;
#X connect 8 0 15 0;
#X connect 9 0 12 0;
#X connect 9 0 12 1;
#X connect 10 0 11 0;
#X connect 11 0 9 0;
#X connect 12 0 13 0;
#X connect 12 0 13 1;
#X connect 13 0 8 1;
#X connect 14 0 10 0;
#X connect 15 0 48 0;
#X connect 16 0 92 0;
#X connect 17 0 64 1;
#X connect 18 0 64 2;
#X connect 19 0 64 4;
#X connect 20 0 64 5;
#X connect 21 0 302 0;
#X connect 22 0 21 0;
#X connect 23 0 64 3;
#X connect 24 0 282 0;
#X connect 25 0 37 0;
#X connect 26 0 67 0;
#X connect 27 0 26 0;
#X connect 27 0 266 0;
#X connect 27 0 293 0;
#X connect 30 0 313 0;
#X connect 30 0 315 0;
#X connect 30 0 316 0;
#X connect 31 0 197 0;
#X connect 33 0 34 0;
#X connect 34 0 30 0;
#X connect 35 0 22 0;
#X connect 36 0 35 1;
#X connect 37 0 39 0;
#X connect 38 0 37 1;
#X connect 39 0 331 1;
#X connect 42 0 34 0;
#X connect 44 0 43 0;
#X connect 46 0 234 0;
#X connect 48 0 68 0;
#X connect 50 0 74 0;
#X connect 52 0 328 2;
#X connect 53 0 52 0;
#X connect 54 0 328 3;
#X connect 55 0 54 0;
#X connect 56 0 328 4;
#X connect 57 0 56 0;
#X connect 58 0 328 5;
#X connect 59 0 58 0;
#X connect 60 0 443 0;
#X connect 63 0 87 0;
#X connect 64 0 15 1;
#X connect 65 0 145 0;
#X connect 65 0 297 0;
#X connect 65 0 104 1;
#X connect 67 0 323 0;
#X connect 68 0 270 0;
#X connect 69 0 66 0;
#X connect 70 0 72 0;
#X connect 72 0 71 0;
#X connect 72 0 71 1;
#X connect 73 0 327 1;
#X connect 74 0 76 0;
#X connect 75 0 74 1;
#X connect 76 0 331 0;
#X connect 79 0 93 0;
#X connect 81 0 84 0;
#X connect 81 0 84 1;
#X connect 82 0 83 0;
#X connect 83 0 448 0;
#X connect 84 0 85 0;
#X connect 84 0 85 1;
#X connect 85 0 263 0;
#X connect 86 0 91 1;
#X connect 87 0 16 0;
#X connect 88 0 97 0;
#X connect 88 0 347 0;
#X connect 89 0 115 1;
#X connect 91 0 67 0;
#X connect 92 0 82 0;
#X connect 93 0 92 1;
#X connect 94 0 95 0;
#X connect 95 0 93 0;
#X connect 96 0 265 0;
#X connect 97 0 103 1;
#X connect 98 0 35 0;
#X connect 99 0 100 0;
#X connect 100 0 301 1;
#X connect 101 0 86 0;
#X connect 103 0 117 0;
#X connect 104 0 360 0;
#X connect 105 0 73 0;
#X connect 105 0 108 0;
#X connect 105 0 106 0;
#X connect 106 0 107 0;
#X connect 107 0 88 0;
#X connect 108 0 106 1;
#X connect 112 0 354 0;
#X connect 113 0 112 1;
#X connect 114 0 117 1;
#X connect 115 0 349 0;
#X connect 116 0 329 0;
#X connect 117 0 354 0;
#X connect 118 0 455 0;
#X connect 119 0 60 0;
#X connect 120 0 16 0;
#X connect 123 0 332 0;
#X connect 124 0 243 0;
#X connect 126 0 310 0;
#X connect 127 0 309 0;
#X connect 128 0 65 0;
#X connect 129 0 91 0;
#X connect 130 0 335 0;
#X connect 130 1 335 1;
#X connect 131 0 361 0;
#X connect 132 0 144 0;
#X connect 132 1 144 1;
#X connect 135 0 105 0;
#X connect 138 0 94 0;
#X connect 138 1 95 1;
#X connect 140 0 116 0;
#X connect 144 0 118 0;
#X connect 146 0 152 0;
#X connect 147 0 145 0;
#X connect 148 0 176 0;
#X connect 148 1 249 0;
#X connect 149 0 156 0;
#X connect 149 0 295 0;
#X connect 152 0 148 0;
#X connect 153 0 152 1;
#X connect 154 0 169 0;
#X connect 154 0 171 0;
#X connect 154 0 173 0;
#X connect 154 0 225 0;
#X connect 154 0 228 0;
#X connect 154 0 167 0;
#X connect 154 0 165 0;
#X connect 154 0 153 0;
#X connect 154 0 408 0;
#X connect 154 0 447 0;
#X connect 154 0 412 0;
#X connect 154 0 414 0;
#X connect 154 0 427 0;
#X connect 154 0 418 0;
#X connect 154 0 423 0;
#X connect 155 0 153 0;
#X connect 155 0 165 0;
#X connect 155 0 167 0;
#X connect 155 0 228 0;
#X connect 156 0 78 0;
#X connect 156 0 151 0;
#X connect 158 0 160 0;
#X connect 159 0 166 0;
#X connect 160 0 159 0;
#X connect 160 1 251 0;
#X connect 161 0 164 0;
#X connect 162 0 161 0;
#X connect 162 0 417 0;
#X connect 162 1 250 0;
#X connect 163 0 162 0;
#X connect 164 0 174 0;
#X connect 165 0 164 1;
#X connect 166 0 175 0;
#X connect 167 0 166 1;
#X connect 168 0 170 0;
#X connect 169 0 168 1;
#X connect 170 0 172 0;
#X connect 171 0 170 1;
#X connect 171 0 428 0;
#X connect 172 0 224 0;
#X connect 173 0 172 1;
#X connect 173 0 424 0;
#X connect 174 0 173 0;
#X connect 175 0 171 0;
#X connect 176 0 169 0;
#X connect 177 0 154 0;
#X connect 177 0 149 0;
#X connect 177 0 150 0;
#X connect 181 0 1 0;
#X connect 181 0 314 0;
#X connect 181 0 156 0;
#X connect 181 0 394 0;
#X connect 181 0 234 0;
#X connect 182 0 187 0;
#X connect 182 2 185 0;
#X connect 183 0 181 0;
#X connect 183 1 182 0;
#X connect 184 0 183 0;
#X connect 186 0 22 0;
#X connect 188 0 190 0;
#X connect 190 0 203 0;
#X connect 190 1 76 0;
#X connect 190 1 39 0;
#X connect 191 0 200 0;
#X connect 192 0 233 0;
#X connect 194 0 195 0;
#X connect 195 0 193 0;
#X connect 195 1 192 0;
#X connect 196 0 372 0;
#X connect 197 0 30 0;
#X connect 197 0 201 0;
#X connect 198 0 199 0;
#X connect 199 0 30 0;
#X connect 200 0 194 0;
#X connect 200 0 198 0;
#X connect 201 0 202 0;
#X connect 202 0 194 0;
#X connect 203 0 92 1;
#X connect 206 0 207 0;
#X connect 206 0 208 0;
#X connect 207 0 211 0;
#X connect 208 0 209 1;
#X connect 209 0 308 0;
#X connect 210 0 209 1;
#X connect 211 0 210 0;
#X connect 212 0 1 0;
#X connect 212 0 241 0;
#X connect 212 0 242 0;
#X connect 213 0 214 0;
#X connect 214 1 215 0;
#X connect 214 1 216 0;
#X connect 214 1 220 0;
#X connect 215 0 289 0;
#X connect 216 0 219 0;
#X connect 217 0 204 0;
#X connect 218 0 217 1;
#X connect 219 0 218 0;
#X connect 220 0 218 0;
#X connect 222 0 372 1;
#X connect 222 0 374 1;
#X connect 222 0 377 1;
#X connect 222 0 379 1;
#X connect 222 0 381 1;
#X connect 222 0 383 1;
#X connect 222 0 385 1;
#X connect 222 0 387 1;
#X connect 222 0 389 1;
#X connect 222 0 391 1;
#X connect 223 0 373 0;
#X connect 224 0 177 0;
#X connect 225 0 224 1;
#X connect 225 0 419 0;
#X connect 226 0 231 0;
#X connect 226 1 252 0;
#X connect 227 0 229 0;
#X connect 228 0 227 1;
#X connect 229 0 225 0;
#X connect 230 0 226 0;
#X connect 230 0 421 0;
#X connect 231 0 227 0;
#X connect 232 0 223 0;
#X connect 233 0 232 1;
#X connect 233 0 235 0;
#X connect 234 0 253 0;
#X connect 234 0 293 0;
#X connect 234 0 266 0;
#X connect 234 0 281 0;
#X connect 234 0 238 0;
#X connect 234 0 294 0;
#X connect 234 0 314 0;
#X connect 234 0 287 0;
#X connect 234 0 310 0;
#X connect 234 0 359 0;
#X connect 234 0 333 0;
#X connect 234 0 156 0;
#X connect 234 0 409 0;
#X connect 234 0 43 0;
#X connect 234 0 411 0;
#X connect 234 0 415 0;
#X connect 235 0 237 0;
#X connect 235 1 236 0;
#X connect 236 0 239 0;
#X connect 237 0 239 0;
#X connect 238 0 1 0;
#X connect 239 0 238 1;
#X connect 240 0 1 0;
#X connect 241 0 233 0;
#X connect 242 0 239 0;
#X connect 243 0 64 0;
#X connect 243 0 217 0;
#X connect 243 0 319 0;
#X connect 243 2 321 0;
#X connect 243 3 76 0;
#X connect 243 3 39 0;
#X connect 243 3 305 0;
#X connect 243 4 63 0;
#X connect 243 4 156 0;
#X connect 244 0 233 0;
#X connect 245 0 233 0;
#X connect 246 0 245 0;
#X connect 246 1 244 0;
#X connect 248 0 298 0;
#X connect 249 0 169 0;
#X connect 250 0 173 0;
#X connect 251 0 171 0;
#X connect 252 0 225 0;
#X connect 253 0 322 0;
#X connect 254 0 253 1;
#X connect 255 0 327 0;
#X connect 255 0 328 1;
#X connect 256 0 116 0;
#X connect 257 0 59 0;
#X connect 258 0 261 0;
#X connect 259 0 260 0;
#X connect 260 0 233 0;
#X connect 261 0 233 0;
#X connect 263 0 24 0;
#X connect 264 0 8 0;
#X connect 265 0 60 0;
#X connect 266 0 9 1;
#X connect 266 0 81 1;
#X connect 267 0 13 1;
#X connect 268 0 267 0;
#X connect 269 0 341 0;
#X connect 270 0 352 0;
#X connect 271 0 270 1;
#X connect 272 0 271 0;
#X connect 273 0 353 1;
#X connect 274 0 273 0;
#X connect 275 0 276 0;
#X connect 276 0 268 0;
#X connect 279 0 57 0;
#X connect 280 0 272 0;
#X connect 282 0 264 0;
#X connect 283 0 113 0;
#X connect 284 0 287 1;
#X connect 285 0 283 0;
#X connect 286 0 291 0;
#X connect 286 1 285 0;
#X connect 287 0 324 0;
#X connect 288 0 287 0;
#X connect 289 0 22 0;
#X connect 289 0 292 0;
#X connect 289 0 319 0;
#X connect 289 0 321 0;
#X connect 290 0 255 0;
#X connect 291 0 283 0;
#X connect 293 0 14 0;
#X connect 294 0 238 0;
#X connect 294 1 232 0;
#X connect 297 0 146 0;
#X connect 298 0 299 0;
#X connect 298 1 155 0;
#X connect 299 0 168 0;
#X connect 300 0 98 0;
#X connect 301 0 346 0;
#X connect 302 0 64 6;
#X connect 303 0 306 0;
#X connect 303 1 307 0;
#X connect 304 0 303 0;
#X connect 305 0 300 0;
#X connect 305 1 304 0;
#X connect 306 0 300 1;
#X connect 307 0 300 1;
#X connect 308 0 456 0;
#X connect 309 0 5 0;
#X connect 310 0 334 0;
#X connect 312 0 114 0;
#X connect 313 0 209 1;
#X connect 314 0 209 1;
#X connect 317 0 315 0;
#X connect 317 0 316 0;
#X connect 317 0 313 0;
#X connect 317 0 336 0;
#X connect 317 0 154 0;
#X connect 318 0 50 0;
#X connect 319 0 318 0;
#X connect 320 0 25 0;
#X connect 321 0 320 0;
#X connect 322 0 246 0;
#X connect 323 0 15 0;
#X connect 324 0 286 0;
#X connect 325 0 209 0;
#X connect 326 0 337 0;
#X connect 326 0 344 0;
#X connect 326 0 348 0;
#X connect 327 0 342 0;
#X connect 328 0 326 0;
#X connect 329 0 15 0;
#X connect 331 0 376 0;
#X connect 332 0 331 2;
#X connect 333 0 274 0;
#X connect 334 0 99 0;
#X connect 335 0 131 0;
#X connect 336 0 156 0;
#X connect 337 0 350 0;
#X connect 338 0 359 0;
#X connect 339 0 337 0;
#X connect 340 0 55 0;
#X connect 341 0 290 0;
#X connect 342 0 112 0;
#X connect 343 0 53 0;
#X connect 344 0 301 0;
#X connect 345 0 103 0;
#X connect 346 0 345 0;
#X connect 347 0 89 0;
#X connect 348 0 115 0;
#X connect 349 0 345 0;
#X connect 350 0 103 0;
#X connect 351 0 339 0;
#X connect 352 0 353 0;
#X connect 353 0 269 0;
#X connect 354 0 104 0;
#X connect 359 0 351 0;
#X connect 360 0 209 0;
#X connect 361 0 325 0;
#X connect 362 0 363 0;
#X connect 363 0 181 0;
#X connect 363 1 365 0;
#X connect 365 0 366 0;
#X connect 365 1 367 0;
#X connect 365 2 364 0;
#X connect 368 0 39 0;
#X connect 368 0 370 0;
#X connect 369 0 76 0;
#X connect 369 0 371 0;
#X connect 373 0 209 0;
#X connect 375 0 374 0;
#X connect 376 0 87 0;
#X connect 378 0 377 0;
#X connect 380 0 379 0;
#X connect 382 0 381 0;
#X connect 384 0 383 0;
#X connect 386 0 385 0;
#X connect 388 0 387 0;
#X connect 390 0 389 0;
#X connect 392 0 391 0;
#X connect 393 0 274 0;
#X connect 394 0 393 0;
#X connect 395 0 406 0;
#X connect 396 0 405 0;
#X connect 397 0 405 0;
#X connect 398 0 407 0;
#X connect 399 0 405 0;
#X connect 400 0 407 0;
#X connect 401 0 405 0;
#X connect 402 0 405 0;
#X connect 403 0 405 0;
#X connect 404 0 405 0;
#X connect 405 0 138 0;
#X connect 406 0 138 0;
#X connect 407 0 138 0;
#X connect 409 0 408 0;
#X connect 413 0 256 0;
#X connect 415 0 414 0;
#X connect 417 0 416 0;
#X connect 418 0 422 0;
#X connect 419 0 420 0;
#X connect 419 1 418 0;
#X connect 420 0 422 0;
#X connect 423 0 426 0;
#X connect 424 0 425 0;
#X connect 424 1 423 0;
#X connect 425 0 426 0;
#X connect 427 0 430 0;
#X connect 428 0 429 0;
#X connect 428 1 427 0;
#X connect 429 0 430 0;
#X connect 431 0 435 0;
#X connect 432 0 431 1;
#X connect 432 0 433 0;
#X connect 433 0 434 0;
#X connect 433 1 436 0;
#X connect 434 0 435 0;
#X connect 435 0 413 0;
#X connect 436 0 435 0;
#X connect 437 0 96 0;
#X connect 438 0 439 0;
#X connect 439 0 440 0;
#X connect 439 1 442 0;
#X connect 440 0 441 0;
#X connect 441 0 437 0;
#X connect 442 0 441 0;
#X connect 443 0 275 0;
#X connect 444 0 443 1;
#X connect 444 0 445 0;
#X connect 445 0 446 0;
#X connect 446 0 275 0;
#X connect 448 0 81 0;
#X connect 449 0 448 1;
#X connect 449 0 450 0;
#X connect 450 0 451 0;
#X connect 450 1 452 0;
#X connect 451 0 282 1;
#X connect 452 0 282 1;
#X connect 455 0 325 0;
#X connect 456 0 0 0;
#X connect 456 0 0 1;
