#N canvas -7 0 958 988 10;
#X obj 1005 166 bng 50 250 50 0 bang3 empty empty 17 7 0 10 -4034 -1
-1;
#X obj 916 661 vsl 15 128 0 1 0 1 empty empty empty 0 -9 0 10 -262144
-1 -1 12700 1;
#X obj 973 661 vsl 15 128 0 1000 0 1 empty empty empty 0 -9 0 10 -262144
-1 -1 0 1;
#X obj 1087 661 vsl 15 128 0 10000 0 1 empty empty empty 0 -9 0 10
-262144 -1 -1 0 1;
#X obj 1144 661 vsl 15 128 0 10000 0 1 empty empty empty 0 -9 0 10
-262144 -1 -1 1175 1;
#X obj 1202 661 vsl 15 128 0 1000 0 1 empty empty empty 0 -9 0 10 -262144
-1 -1 10200 1;
#X obj 1030 661 vsl 15 128 0 1 0 1 empty empty empty 0 -9 0 10 -262144
-1 -1 12700 1;
#X obj 759 1064 *~;
#X obj 483 559 *~;
#X obj 561 385 line~;
#X obj 561 332 sqrt;
#X obj 561 358 sqrt;
#X obj 561 417 *~;
#X obj 560 488 *~;
#X obj 560 300 line;
#X obj 484 601 *~;
#X obj 725 245 snapshot~;
#X obj 49 629 vsl 15 128 0 1 0 1 empty empty empty 0 -9 0 10 -262144
-1 -1 12700 1;
#X obj 105 629 vsl 15 128 0 1000 0 1 empty empty empty 0 -9 0 10 -262144
-1 -1 100 1;
#X obj 219 629 vsl 15 128 0 1000 0 1 empty empty empty 0 -9 0 10 -262144
-1 -1 0 1;
#X obj 274 626 vsl 15 128 0 1000 0 1 empty empty empty 0 -9 0 10 -262144
-1 -1 0 1;
#X floatatom 334 763 5 0 0 0 - - -, f 5;
#X obj 335 613 vsl 15 128 500 1500 0 1 FLT tootLength empty 0 -9 0
10 -257985 -1 -1 5397 1;
#X obj 162 629 vsl 15 128 0 1 0 1 empty empty empty 0 -9 0 10 -262144
-1 -1 12700 1;
#X obj 760 994 *~ 10;
#X obj 483 490 -~ 0.5;
#X msg 771 387 -1000;
#X obj 771 357 loadbang;
#X text 455 44 2) pitch envelope randomization;
#X text 539 149 1) quartic envelope;
#X obj 1302 606 tgl 25 0 randomToggle empty empty 17 7 0 10 -260097
-1 -1 0 1;
#X obj 1288 535 bng 15 250 50 0 empty fartRandomOn empty 17 7 0 10
-262144 -1 -1;
#X text 1334 613 random? y/n;
#X obj 437 456 tgl 15 1 empty randomToggle empty 17 7 0 10 -262144
-1 -1 0 1;
#X floatatom 830 163 5 0 0 0 - - -, f 5;
#X obj 829 26 vsl 15 128 25 400 0 1 empty empty empty 0 -9 0 10 -257985
-1 -1 9110 1;
#X text 653 -77 first Fart Pitch;
#X text 345 366 fart Length;
#X text 714 -88 \$1;
#X text 759 307 3) signal reducer;
#X obj 760 1040 *~ 0.25;
#X obj 485 632 *~ 0.9;
#X text 945 624 dry timbre;
#X text 824 -79 second pitch;
#X floatatom 4 1142 5 0 0 0 - - -, f 5;
#X obj 4 1005 vsl 15 128 0 200 0 1 empty empty empty 0 -9 0 10 -262144
-1 -1 8255 1;
#X floatatom 37 1141 5 0 0 0 - - -, f 5;
#X obj 37 1004 vsl 15 128 0 100 0 1 empty empty empty 0 -9 0 10 -262144
-1 -1 5080 1;
#X floatatom 71 1141 5 0 0 0 - - -, f 5;
#X obj 71 1004 vsl 15 128 0 10000 0 1 empty empty empty 0 -9 0 10 -262144
-1 -1 3810 1;
#X floatatom 104 1140 5 0 0 0 - - -, f 5;
#X obj 104 1003 vsl 15 128 0 120 0 1 empty empty empty 0 -9 0 10 -262144
-1 -1 3175 1;
#X obj 759 1018 clip~ -0.9 0.9;
#X floatatom 255 1136 5 0 0 0 - - -, f 5;
#X obj 255 999 vsl 15 128 0 5000 0 1 empty empty empty 0 -9 0 10 -262144
-1 -1 2349 1;
#X floatatom 214 1133 5 0 0 0 - - -, f 5;
#X obj 214 996 vsl 15 128 0 2000 0 1 empty empty empty 0 -9 0 10 -262144
-1 -1 0 1;
#X obj 41 1220 *~;
#X text 762 315 former log~;
#X msg 412 113 stop;
#X obj 145 1170 ADEnv-Amp;
#X obj 771 434 sig~;
#X obj 484 659 *~ 0.9;
#X obj 484 536 clip~ -0.9 0.9;
#X obj 587 1036 hsl 128 15 0 1 0 1 empty empty empty -2 -8 0 10 -262144
-1 -1 3810 1;
#X floatatom 583 1053 5 0 0 0 - - -, f 5;
#X floatatom 678 164 5 0 0 0 - - -, f 5;
#X obj 678 28 vsl 15 128 25 500 0 1 empty empty empty 0 -9 0 10 -257985
-1 -1 6363 1;
#X text 847 -97 \$3;
#X obj 762 860 hip~ 100;
#X floatatom 807 841 5 0 0 0 - - -, f 5;
#X obj 807 698 vsl 15 128 0 500 0 1 empty empty empty 0 -9 0 10 -257985
-1 -1 3048 1;
#X floatatom 763 840 5 0 0 0 - - -, f 5;
#X obj 762 706 vsl 15 128 0 7000 0 1 empty empty empty 0 -9 0 10 -257985
-1 -1 7257 1;
#X obj 379 175 r metro;
#X text 280 352 cause of high pitch shriek;
#X obj 484 389 line~;
#X obj 483 268 sqrt;
#X obj 484 290 sqrt;
#X obj 484 421 *~;
#X obj 483 446 *~;
#X msg 591 358 1000;
#X obj 482 469 osc~;
#X obj 882 344 hsl 128 15 1.2 5 0 1 empty empty empty -2 -8 0 10 -262144
-1 -1 4679 1;
#X obj 725 221 vline~;
#X obj 526 1102 hsl 128 15 0 1 0 1 empty wetnessVolume empty -2 -8
0 10 -262144 -1 -1 8890 1;
#X obj 95 1317 hsl 128 15 0 8000 0 1 empty empty empty -2 -8 0 10 -262144
-1 -1 571 1;
#X text 926 288 2 - 3;
#X obj 821 382 * 2.7;
#X obj 483 201 +;
#X obj 318 250 snapshot~;
#X obj 319 199 osc~ 33;
#X obj 318 226 *~ 5;
#X obj 304 1267 line;
#X obj 307 1293 hsl 128 15 0 5000 0 0 empty empty empty -2 -8 0 10
-262144 -1 -1 10160 1;
#X text 1196 -102 \$8;
#X msg 879 320 2.6;
#X obj 506 1152 *~;
#X obj 759 1092 *~;
#X obj 587 949 hsl 128 15 0 1 0 1 empty pinch empty -2 -8 0 10 -4032
-1 -1 3810 1;
#X floatatom 526 965 5 0 0 0 - - -, f 5;
#X obj 526 996 -;
#X obj 523 1034 * -1;
#X msg 561 979 1;
#X text 579 966 crossfade bt gassy and pinchy;
#X text 575 1080 rev volume;
#X text 616 1002 dry volume;
#X obj 311 1433 clip~ -0.9 9;
#X obj 762 1186 lop~ 2000;
#X obj 817 1128 hsl 128 15 0 20000 0 1 empty empty empty -2 -8 0 10
-204786 -1 -1 1587 1;
#X obj 41 1357 lop~ 1000;
#X obj 762 906 lop~ 4000;
#X msg 35 949 20;
#X obj 931 557 *~ 1;
#X msg 71 971 3000;
#X obj 762 1245 clip~ -1 1;
#X msg 4 970 130;
#X msg 104 972 30;
#X obj 339 40 bng 25 250 50 0 empty bang3 empty 17 7 0 15 -204786 -1
-1;
#X text 869 1157 to lop;
#X obj 874 732 bng 25 250 50 0 empty bang3 empty 17 7 0 15 -204786
-1 -1;
#N canvas 0 50 1916 997 muffle 0;
#X msg 16 -43 4000;
#X obj 310 -179 spigot 0;
#X obj 355 -204 tgl 15 1 empty randomToggle empty 17 7 0 10 -262144
-1 -1 0 1;
#X floatatom 261 -242 5 0 0 0 - - -, f 5;
#X obj 310 -120 select 0;
#X obj 241 -271 bng 15 250 50 0 empty muffleToggleOff empty 17 7 0
10 -203904 -1 -1;
#X obj 170 -28 line;
#X msg 309 -210 0;
#X obj 170 -131 spigot 0;
#X obj 371 -177 select 0;
#X msg 312 -237 1;
#X obj 66 -32 line;
#X obj 111 -142 tgl 15 0 empty empty empty 17 7 0 10 -262144 -1 -1
0 1;
#X msg 377 -137 0;
#X msg 310 -85 1;
#X obj 215 -160 tgl 15 0 empty empty empty 17 7 0 10 -262144 -1 -1
1 1;
#X msg 355 -91 1;
#X msg 355 -70 0;
#X msg 311 -64 0;
#X msg 16 -67 7000;
#X msg 101 -31 stop;
#X obj 66 -78 t f b;
#X obj 170 -87 t f b;
#X msg 66 -55 1500 \, 4000 \$1;
#X obj 66 -128 spigot 0;
#X obj 378 -256 bng 25 250 50 0 empty bang3 empty 17 7 0 15 -204786
-1 -1;
#X obj 16 -18 f;
#X text 15 -86 to bp;
#X floatatom 16 4 5 0 0 0 - - -, f 5;
#X obj 196 76 outlet;
#X obj 0 63 outlet;
#X obj 272 -269 bng 15 250 50 0 empty muffleToggleOn empty 17 7 0 10
-203904 -1 -1;
#X text 374 -204 randomToggle;
#X msg 114 -230 0;
#X msg 188 -232 1;
#X msg 189 -212 0;
#X msg 116 -209 1;
#X text 35 -275 off = 1 / left On = 0 / right;
#X text 43 -259 defaults to On;
#X obj 310 -147 random 1;
#X obj 170 -157 r FL2;
#X msg 169 -58 4500 \, 2500 \$1;
#X obj 66 -156 r FLT;
#X obj 66 -106 * 2;
#X obj 170 -109 * 0.15;
#X connect 0 0 26 0;
#X connect 1 0 39 0;
#X connect 2 0 1 1;
#X connect 2 0 9 0;
#X connect 4 0 12 0;
#X connect 4 0 14 0;
#X connect 4 0 18 0;
#X connect 4 1 16 0;
#X connect 4 1 17 0;
#X connect 5 0 33 0;
#X connect 5 0 36 0;
#X connect 6 0 30 0;
#X connect 8 0 0 0;
#X connect 8 0 44 0;
#X connect 9 0 10 0;
#X connect 9 0 13 0;
#X connect 9 1 7 0;
#X connect 9 1 13 0;
#X connect 11 0 30 0;
#X connect 12 0 24 1;
#X connect 13 0 12 0;
#X connect 13 0 31 0;
#X connect 14 0 15 0;
#X connect 15 0 8 1;
#X connect 16 0 12 0;
#X connect 17 0 15 0;
#X connect 18 0 12 0;
#X connect 19 0 26 0;
#X connect 20 0 11 0;
#X connect 20 0 6 0;
#X connect 21 0 23 0;
#X connect 21 1 20 0;
#X connect 22 0 41 0;
#X connect 22 1 20 0;
#X connect 23 0 11 0;
#X connect 24 0 19 0;
#X connect 24 0 43 0;
#X connect 25 0 1 0;
#X connect 25 0 8 0;
#X connect 25 0 24 0;
#X connect 26 0 28 0;
#X connect 28 0 29 0;
#X connect 31 0 34 0;
#X connect 31 0 35 0;
#X connect 33 0 15 0;
#X connect 34 0 15 0;
#X connect 35 0 12 0;
#X connect 35 0 3 0;
#X connect 36 0 12 0;
#X connect 36 0 3 0;
#X connect 39 0 3 0;
#X connect 39 0 4 0;
#X connect 40 0 8 0;
#X connect 41 0 6 0;
#X connect 42 0 24 0;
#X connect 43 0 21 0;
#X connect 44 0 22 0;
#X coords 0 -1 1 1 60 50 2 235 -275;
#X restore 982 1072 pd muffle;
#X text 825 1041 Muffle;
#N canvas 0 50 958 988 wobble 0;
#X obj 42 30 bng 25 250 50 0 empty bang3 empty 17 7 0 15 -204786 -1
-1;
#X text 252 174 wobble;
#X obj 174 206 hsl 128 15 0 5 0 1 empty empty empty -2 -8 0 10 -262144
-1 -1 2908 1;
#X obj 175 254 hsl 128 15 10 60 0 1 empty empty empty -2 -8 0 10 -262144
-1 -1 0 1;
#X text 136 203 freq;
#X text 126 253 amount;
#X obj 171 181 line;
#X obj 17 138 vsl 15 128 0.05 1 0 1 empty empty empty 0 -9 0 10 -232576
-1 -1 300 1;
#X obj 171 138 pack f f;
#X obj 56 241 + 1;
#X msg 171 158 0.1 \, \$1 \$2;
#X obj 52 269 * 30;
#X obj 314 204 outlet;
#X obj 362 205 outlet;
#X obj 52 294 + 5;
#X obj 56 221 * 2;
#X obj 216 90 r FLT;
#X obj 216 113 * 0.5;
#X floatatom 17 274 5 0 0 0 - - -, f 5;
#X msg 21 93 0.075;
#X obj 313 161 spigot 0;
#X obj 357 123 tgl 15 0 empty TootCalc empty 17 7 0 10 -262144 -1 -1
0 1;
#X obj 371 157 select 0;
#X msg 372 180 0;
#X connect 0 0 8 0;
#X connect 2 0 20 0;
#X connect 3 0 13 0;
#X connect 6 0 2 0;
#X connect 7 0 11 0;
#X connect 7 0 15 0;
#X connect 7 0 18 0;
#X connect 8 0 10 0;
#X connect 9 0 8 0;
#X connect 10 0 6 0;
#X connect 11 0 14 0;
#X connect 14 0 3 0;
#X connect 15 0 9 0;
#X connect 16 0 17 0;
#X connect 17 0 8 1;
#X connect 19 0 7 0;
#X connect 20 0 12 0;
#X connect 21 0 20 1;
#X connect 21 0 22 0;
#X connect 22 0 23 0;
#X connect 23 0 12 0;
#X coords 0 -1 1 1 50 150 2 -5 125;
#X restore 123 80 pd wobble;
#N canvas 953 0 958 988 whoopie 1;
#X obj 158 455 osc~ 5000;
#X obj 157 379 line;
#X floatatom 157 401 5 0 0 0 - - -, f 5;
#X obj 157 331 pack f f;
#X text 176 13 whoopie / warble;
#X obj 115 192 bng 25 250 50 0 empty bang3 empty 17 7 0 15 -204786
-1 -1;
#X obj 157 673 outlet~;
#X obj 21 501 hsl 128 15 0 5000 0 0 empty empty empty -2 -8 0 10 -262144
-1 -1 0 1;
#X obj 240 510 hsl 128 15 0 10 0 0 empty empty empty -2 -8 0 10 -262144
-1 -1 0 1;
#X floatatom 18 521 5 0 0 0 - - -, f 5;
#X floatatom 237 530 5 0 0 0 - - -, f 5;
#X floatatom 201 271 5 0 0 0 - - -, f 5;
#X msg 234 488 1;
#X obj 158 535 hip~ 2000;
#X obj 158 479 *~ 1;
#X msg 157 357 0 \, \$1 \$2;
#X obj 202 228 r FLT;
#X obj 218 312 * 0.33;
#X msg 15 475 1000;
#X obj 154 426 spigot 0;
#X obj 198 402 tgl 15 0 empty TootCalc empty 17 7 0 10 -262144 -1 -1
0 1;
#X obj 98 415 select 0;
#X msg 110 435 0;
#X obj 157 635 *~ 1;
#X obj 161 599 lop~ 4000;
#X msg 156 296 3000;
#X connect 0 0 14 0;
#X connect 1 0 2 0;
#X connect 2 0 19 0;
#X connect 3 0 15 0;
#X connect 5 0 25 0;
#X connect 7 0 9 0;
#X connect 7 0 13 1;
#X connect 8 0 10 0;
#X connect 11 0 17 0;
#X connect 12 0 8 0;
#X connect 13 0 24 0;
#X connect 14 0 13 0;
#X connect 15 0 1 0;
#X connect 16 0 11 0;
#X connect 17 0 3 1;
#X connect 18 0 7 0;
#X connect 19 0 0 0;
#X connect 20 0 19 1;
#X connect 20 0 21 0;
#X connect 21 0 22 0;
#X connect 22 0 0 0;
#X connect 23 0 6 0;
#X connect 24 0 23 0;
#X connect 25 0 3 0;
#X coords 0 -1 1 1 150 50 2 150 75;
#X restore 1065 505 pd whoopie;
#X text 1083 481 whoopie;
#X obj 483 513 *~ 100;
#X text 1218 581 r fartRandom;
#X text 868 1039 off = 1 / left On = 0 / right;
#X text 876 1055 defaults to On;
#X text 375 291 toggle for music;
#X obj 402 261 spigot 0;
#X obj 417 239 tgl 15 1 empty empty empty 17 7 0 10 -262144 -1 -1 1
1;
#X msg 1288 553 1;
#X obj 1323 537 bng 15 250 50 0 empty fartRandomOff empty 17 7 0 10
-262144 -1 -1;
#X msg 1323 555 0;
#X text 260 134 send bang to squeek/rumble PD objets last;
#X obj 763 1215 *~ 1;
#X obj 339 14 del 10;
#X text 31 412 0.8.0;
#X text 40 451 More fart sound refinement;
#X text 54 472 muffle always on;
#X text 61 498 reverb added to rumble;
#X text 58 529 more tweaks to rumble patch;
#X obj 764 1317 outlet~;
#X obj 829 -59 random 20;
#X obj 437 -110 vsl 15 128 100 250 0 0 empty tootPitch empty 0 -9 0
10 -4032 -1 -1 12615 1;
#X floatatom 488 -45 5 0 0 0 - - -, f 5;
#X obj 931 533 *~ 1;
#X obj 944 456 osc~ 10000;
#X obj 981 1300 s fp3volume;
#X obj 1069 223 s bang;
#X text 371 690 700 - 1500;
#X text 491 -97 200 - 350;
#X obj 347 -17 spigot 0;
#X obj 398 -45 tgl 15 1 empty randomToggle empty 17 7 0 10 -262144
-1 -1 0 1;
#X obj 337 77 t b b b b b b f;
#X obj 677 -19 + 300;
#X obj 677 -39 random 20;
#X obj 832 237 pack f f f;
#X obj 997 117 inlet;
#X obj 17 787 ADSREnv-amp;
#X obj 860 819 ADSREnv-amp;
#X obj 280 -115 r tootRandom;
#X msg 577 276 9 20;
#X obj 664 644 + 700;
#X obj 661 618 random 1000;
#X obj 761 944 bp~ 500 3;
#X obj 878 1307 env~;
#X obj 434 177 tgl 15 0 empty toot empty 17 7 0 10 -204786 -1 -1 1
1;
#X obj 381 207 spigot 0;
#X obj 918 130 * 0.5;
#X obj 380 1067 * 0.5;
#X obj 256 1338 hip~ 1000;
#X obj 310 1409 *~ 0.4;
#X msg 302 1249 1000 \, 4000 \$1;
#X obj 600 -60 t b f;
#X msg 831 261 \$1 \, \$2 \$3 0;
#X obj 348 -65 + 75;
#X obj 350 -87 random 150;
#X obj 386 484 spigot 0;
#X obj 35 1184 _rev3_half~;
#X msg 37 970 40;
#X msg 84 1285 360;
#X obj 505 1211 hip~ 50;
#X obj 357 1022 r FLT;
#X obj 854 105 r FLT;
#X obj 1145 594 r FLT;
#X obj 1145 616 * 1;
#X obj 397 621 random 500;
#X obj 818 360 r FLT;
#X obj 772 455 *~ 1;
#X obj 931 580 *~ 1;
#X obj 394 655 + 750;
#X obj 501 1372 hip~ 6000;
#X obj 470 905 * 0.5;
#X obj 502 1345 line;
#X obj 434 887 r FLT;
#X obj 320 933 s fartSynth;
#X obj 339 887 bng 15 250 50 0 empty empty empty 17 7 0 10 -262144
-1 -1;
#X obj 763 1160 *~ 2;
#X obj 41 1393 *~ 0.2;
#X obj 443 1187 *~ 0.6;
#X obj 829 -39 + 300;
#X obj 835 3 + 30;
#X obj 586 862 line;
#X obj 595 706 bng 25 250 50 0 empty bang3 empty 17 7 0 15 -204786
-1 -1;
#X obj 644 786 / 4;
#X obj 641 743 r FLT;
#X msg 580 821 0 \, 0.3 \$1;
#X msg 510 1301 10000 \, 4000 \$1;
#X obj 493 1409 *~ 1.75;
#X obj 1087 177 del 50;
#X obj 1086 308 tgl 15 0 TootCalc empty empty 17 7 0 10 -262144 -1
-1 0 1;
#X obj 1077 254 r calc3;
#X obj 619 372 snapshot~;
#X obj 620 306 *~ 1500;
#X obj 652 349 r metro;
#X obj 621 328 +~ 4000;
#X obj 618 539 clip~ -0.9 0.9;
#X obj 618 511 -~ 0.4;
#X obj 619 461 phasor~ 200;
#X obj 618 489 *~ 3;
#X obj 621 278 osc~ 0.3;
#X obj 651 190 tgl 15 0 empty TootCalc empty 17 7 0 10 -262144 -1 -1
0 1;
#X obj 652 212 select 0;
#X msg 653 235 0;
#X obj 620 251 sig~;
#X msg 690 238 0.3;
#X obj 618 428 spigot 0;
#X obj 690 396 tgl 15 0 empty TootCalc empty 17 7 0 10 -262144 -1 -1
0 1;
#X obj 695 415 select 0;
#X msg 696 438 0;
#X floatatom 619 394 5 0 0 0 - - -, f 5;
#X obj 444 332 spigot 0;
#X obj 497 313 tgl 15 0 empty TootCalc empty 17 7 0 10 -262144 -1 -1
0 1;
#X obj 500 332 select 0;
#X msg 500 356 0;
#X msg 528 363 100;
#X msg 813 658 120;
#X msg 761 645 4000;
#X obj 763 1274 *~ 0.5;
#X connect 0 0 166 0;
#X connect 0 0 212 0;
#X connect 1 0 162 1;
#X connect 2 0 162 2;
#X connect 3 0 162 4;
#X connect 4 0 162 5;
#X connect 5 0 162 6;
#X connect 6 0 162 3;
#X connect 7 0 98 0;
#X connect 7 0 181 0;
#X connect 7 0 181 1;
#X connect 8 0 15 0;
#X connect 9 0 12 0;
#X connect 9 0 12 1;
#X connect 10 0 11 0;
#X connect 11 0 9 0;
#X connect 12 0 13 0;
#X connect 12 0 13 1;
#X connect 13 0 8 1;
#X connect 14 0 10 0;
#X connect 15 0 41 0;
#X connect 16 0 89 0;
#X connect 17 0 161 1;
#X connect 18 0 161 2;
#X connect 19 0 161 4;
#X connect 20 0 161 5;
#X connect 21 0 54 0;
#X connect 21 0 161 6;
#X connect 22 0 21 0;
#X connect 23 0 161 3;
#X connect 24 0 52 0;
#X connect 25 0 126 0;
#X connect 26 0 61 0;
#X connect 27 0 26 0;
#X connect 27 0 81 0;
#X connect 27 0 164 0;
#X connect 31 0 133 0;
#X connect 33 0 180 1;
#X connect 34 0 159 1;
#X connect 35 0 34 0;
#X connect 40 0 7 0;
#X connect 41 0 62 0;
#X connect 44 0 181 2;
#X connect 45 0 44 0;
#X connect 46 0 181 3;
#X connect 47 0 46 0;
#X connect 48 0 181 4;
#X connect 49 0 48 0;
#X connect 50 0 181 5;
#X connect 51 0 50 0;
#X connect 52 0 40 0;
#X connect 53 0 60 2;
#X connect 54 0 53 0;
#X connect 55 0 60 1;
#X connect 56 0 55 0;
#X connect 57 0 110 0;
#X connect 57 0 173 0;
#X connect 57 0 194 0;
#X connect 59 0 84 0;
#X connect 60 0 57 1;
#X connect 61 0 191 0;
#X connect 62 0 69 0;
#X connect 63 0 8 0;
#X connect 64 0 65 0;
#X connect 65 0 98 1;
#X connect 66 0 159 0;
#X connect 66 0 89 0;
#X connect 67 0 66 0;
#X connect 69 0 111 0;
#X connect 70 0 69 1;
#X connect 71 0 70 0;
#X connect 72 0 167 1;
#X connect 73 0 72 0;
#X connect 74 0 170 0;
#X connect 76 0 79 0;
#X connect 76 0 79 1;
#X connect 77 0 78 0;
#X connect 78 0 234 0;
#X connect 79 0 80 0;
#X connect 79 0 80 1;
#X connect 80 0 82 0;
#X connect 81 0 9 1;
#X connect 81 0 76 1;
#X connect 82 0 25 0;
#X connect 83 0 88 1;
#X connect 84 0 16 0;
#X connect 85 0 97 1;
#X connect 86 0 110 1;
#X connect 88 0 61 0;
#X connect 89 0 77 0;
#X connect 90 0 131 0;
#X connect 91 0 92 0;
#X connect 92 0 90 0;
#X connect 93 0 94 0;
#X connect 94 0 173 1;
#X connect 96 0 83 0;
#X connect 97 0 184 0;
#X connect 98 0 200 0;
#X connect 99 0 100 0;
#X connect 99 0 64 0;
#X connect 100 0 101 0;
#X connect 100 0 103 0;
#X connect 101 0 102 0;
#X connect 102 0 85 0;
#X connect 103 0 101 1;
#X connect 107 0 202 0;
#X connect 108 0 137 0;
#X connect 109 0 108 1;
#X connect 110 0 201 0;
#X connect 111 0 167 0;
#X connect 113 0 192 0;
#X connect 114 0 49 0;
#X connect 115 0 241 0;
#X connect 116 0 45 0;
#X connect 117 0 51 0;
#X connect 118 0 156 0;
#X connect 121 0 109 0;
#X connect 123 0 91 0;
#X connect 123 1 92 1;
#X connect 124 0 113 0;
#X connect 126 0 63 0;
#X connect 131 0 89 1;
#X connect 132 0 131 1;
#X connect 133 0 30 0;
#X connect 134 0 135 0;
#X connect 135 0 30 0;
#X connect 137 0 115 0;
#X connect 138 0 118 0;
#X connect 145 0 203 0;
#X connect 146 0 147 0;
#X connect 147 0 176 0;
#X connect 148 0 113 0;
#X connect 154 0 146 0;
#X connect 155 0 154 1;
#X connect 156 0 60 0;
#X connect 156 0 161 0;
#X connect 156 0 162 0;
#X connect 156 1 159 0;
#X connect 156 2 22 0;
#X connect 156 2 180 0;
#X connect 156 2 158 0;
#X connect 156 2 145 0;
#X connect 156 4 146 0;
#X connect 156 4 179 0;
#X connect 156 5 59 0;
#X connect 157 0 67 0;
#X connect 158 0 157 0;
#X connect 159 0 177 0;
#X connect 160 0 0 0;
#X connect 161 0 15 1;
#X connect 162 0 7 1;
#X connect 163 0 179 0;
#X connect 164 0 14 0;
#X connect 166 0 165 0;
#X connect 167 0 24 0;
#X connect 168 0 150 0;
#X connect 169 0 170 1;
#X connect 170 0 90 0;
#X connect 170 0 16 0;
#X connect 172 0 175 0;
#X connect 173 0 174 0;
#X connect 174 0 107 0;
#X connect 175 0 93 0;
#X connect 176 0 158 0;
#X connect 176 0 145 0;
#X connect 176 1 157 1;
#X connect 176 1 203 1;
#X connect 177 0 84 0;
#X connect 178 0 154 0;
#X connect 179 0 178 0;
#X connect 180 0 189 0;
#X connect 181 0 57 0;
#X connect 182 0 47 0;
#X connect 183 0 86 0;
#X connect 184 0 200 0;
#X connect 185 0 172 0;
#X connect 186 0 171 0;
#X connect 186 0 159 2;
#X connect 187 0 188 0;
#X connect 188 0 4 0;
#X connect 189 0 193 0;
#X connect 190 0 88 0;
#X connect 191 0 15 0;
#X connect 192 0 15 0;
#X connect 193 0 22 0;
#X connect 194 0 211 0;
#X connect 195 0 210 0;
#X connect 196 0 194 0;
#X connect 197 0 195 0;
#X connect 199 0 198 0;
#X connect 200 0 108 0;
#X connect 201 0 107 0;
#X connect 202 0 97 0;
#X connect 203 0 35 0;
#X connect 203 0 204 0;
#X connect 204 0 35 0;
#X connect 205 0 99 0;
#X connect 206 0 207 0;
#X connect 207 0 209 0;
#X connect 208 0 207 0;
#X connect 209 0 205 0;
#X connect 210 0 196 0;
#X connect 211 0 107 0;
#X connect 212 0 151 0;
#X connect 214 0 213 0;
#X connect 215 0 229 0;
#X connect 215 0 233 0;
#X connect 216 0 218 0;
#X connect 217 0 215 0;
#X connect 218 0 215 0;
#X connect 219 0 13 1;
#X connect 220 0 219 0;
#X connect 221 0 222 0;
#X connect 222 0 220 0;
#X connect 223 0 216 0;
#X connect 224 0 225 0;
#X connect 225 0 226 0;
#X connect 225 1 228 0;
#X connect 226 0 227 0;
#X connect 227 0 223 0;
#X connect 228 0 227 0;
#X connect 229 0 221 0;
#X connect 230 0 229 1;
#X connect 230 0 231 0;
#X connect 231 0 232 0;
#X connect 232 0 221 0;
#X connect 234 0 76 0;
#X connect 235 0 234 1;
#X connect 235 0 236 0;
#X connect 236 0 237 0;
#X connect 236 1 238 0;
#X connect 237 0 126 1;
#X connect 238 0 126 1;
#X connect 239 0 71 0;
#X connect 240 0 73 0;
#X connect 241 0 144 0;
#X connect 241 0 168 0;
#X coords 0 0 1 1 85 60 0;
