#N canvas 953 0 958 988 10;
#X obj 914 378 bng 50 250 50 0 bang2 empty empty 17 7 0 10 -4034 -1
-1;
#X obj 913 771 vsl 15 128 0 1 0 1 empty empty empty 0 -9 0 10 -262144
-1 -1 12700 1;
#X obj 970 771 vsl 15 128 0 1000 0 1 empty empty empty 0 -9 0 10 -262144
-1 -1 200 1;
#X obj 1084 771 vsl 15 128 0 10000 0 1 empty empty empty 0 -9 0 10
-262144 -1 -1 0 1;
#X obj 1141 771 vsl 15 128 0 10000 0 1 empty empty empty 0 -9 0 10
-262144 -1 -1 343 1;
#X obj 1199 771 vsl 15 128 0 1000 0 1 empty empty empty 0 -9 0 10 -262144
-1 -1 7200 1;
#X obj 1027 771 vsl 15 128 0 1 0 1 empty empty empty 0 -9 0 10 -262144
-1 -1 12700 1;
#X obj 759 1064 *~;
#X obj 800 1053 r masterVolume;
#X obj 483 559 *~;
#X obj 505 386 line~;
#X obj 505 333 sqrt;
#X obj 505 359 sqrt;
#X obj 505 418 *~;
#X obj 504 489 *~;
#X obj 504 301 line;
#X obj 447 230 bng 15 250 50 0 empty bang2 empty 17 7 0 10 -262144
-1 -1;
#X obj 484 601 *~;
#X obj 399 267 snapshot~;
#X obj 49 629 vsl 15 128 0 1 0 1 empty empty empty 0 -9 0 10 -262144
-1 -1 12700 1;
#X obj 105 629 vsl 15 128 0 1000 0 1 empty empty empty 0 -9 0 10 -262144
-1 -1 300 1;
#X obj 219 629 vsl 15 128 0 1000 0 1 empty empty empty 0 -9 0 10 -262144
-1 -1 0 1;
#X obj 274 600 vsl 15 128 0 1000 0 1 empty empty empty 0 -9 0 10 -262144
-1 -1 0 1;
#X floatatom 339 752 5 0 0 0 - - -, f 5;
#X obj 372 590 vsl 15 128 300 5000 0 1 empty squeekLength empty 0 -9
0 10 -257985 -1 -1 0 1;
#X obj 162 629 vsl 15 128 0 1 0 1 empty empty empty 0 -9 0 10 -262144
-1 -1 12700 1;
#X text 1310 64 parameters;
#X text 1502 -8 wetness (BP filter amp length and osc~ volume);
#X text 1504 19 rip factor - (phasor~ pitch 1000 - 3000);
#X obj 367 54 bng 15 250 50 0 empty bang2 empty 17 7 0 10 -262144 -1
-1;
#X obj 400 512 -~ 0.5;
#X msg 771 387 -1000;
#X obj 771 357 loadbang;
#X text 404 15 2) pitch envelope randomization;
#X text 446 256 1) quartic envelope;
#X obj 337 562 spigot 0;
#X obj 377 550 tgl 15 1 empty randomToggle empty 17 7 0 10 -262144
-1 -1 0 1;
#X floatatom 830 169 5 0 0 0 - - -, f 5;
#X obj 823 33 vsl 15 128 25 500 0 1 empty empty empty 0 -9 0 10 -257985
-1 -1 10681 1;
#X text 688 -77 first Fart Pitch;
#X text 345 322 fart Length;
#X floatatom 970 169 5 0 0 0 - - -, f 5;
#X obj 970 31 vsl 15 128 20 750 0 1 empty empty empty 0 -9 0 10 -257985
-1 -1 7698 1;
#X text 913 -91 last Fart Pitch;
#X text 773 109 \$2;
#X text 902 80 \$4;
#X text 994 155 \$3;
#X text 749 -88 \$1;
#X text 676 300 3) signal reducer;
#X text 931 682 (unfinished);
#X obj 760 1040 *~ 0.25;
#X obj 485 632 *~ 0.9;
#X msg 521 277 7 20;
#X text 945 624 dry timbre;
#X text 824 -73 second pitch;
#X text 1068 101 first curve time;
#X text 922 -101 \$5;
#X text 736 314 former log~;
#X msg 581 219 stop;
#X obj 17 787 ADSREnv-amp;
#X obj 855 932 ADSREnv-amp;
#X obj 771 450 sig~;
#X obj 772 487 *~ 1;
#X obj 486 659 *~ 0.9;
#X obj 406 572 clip~ -0.9 0.9;
#X text 810 790 essential;
#X floatatom 713 164 5 0 0 0 - - -, f 5;
#X obj 713 28 vsl 15 128 25 500 0 1 empty empty empty 0 -9 0 10 -257985
-1 -1 11296 1;
#X text 847 -91 \$3;
#X obj 762 860 hip~ 100;
#X floatatom 807 841 5 0 0 0 - - -, f 5;
#X obj 807 700 vsl 15 128 0 500 0 1 empty empty empty 0 -9 0 10 -257985
-1 -1 1270 1;
#X floatatom 763 840 5 0 0 0 - - -, f 5;
#X obj 762 706 vsl 15 128 0 7000 0 1 empty empty empty 0 -9 0 10 -257985
-1 -1 12700 1;
#X obj 432 188 r metro;
#X text 245 325 cause of high pitch shriek;
#X obj 615 76 t b b b b f;
#X obj 404 404 line~;
#X obj 404 307 sqrt;
#X obj 404 333 sqrt;
#X obj 404 436 *~;
#X obj 403 461 *~;
#X msg 549 339 1000;
#X obj 399 488 osc~;
#X obj 850 331 hsl 128 15 1.2 5 0 1 empty empty empty -2 -8 0 10 -262144
-1 -1 3008 1;
#X obj 399 243 vline~;
#X obj 398 541 *~ 5;
#X text 926 288 2 - 3;
#X obj 820 398 * 2.7;
#X obj 561 530 clip~ -1 1;
#X obj 399 291 +;
#X obj 324 250 snapshot~;
#X obj 316 203 osc~ 33;
#X text 252 174 wobble;
#X obj 173 195 hsl 128 15 0 10 0 1 empty empty empty -2 -8 0 10 -262144
-1 -1 8890 1;
#X obj 315 226 *~ 5;
#X obj 165 374 hsl 128 15 0 60 0 1 empty empty empty -2 -8 0 10 -262144
-1 -1 5816 1;
#X text 92 210 freq;
#X text 101 253 amount;
#X msg 167 168 0.7;
#X obj 215 167 line;
#X obj 12 184 vsl 15 128 0 1 0 1 empty fartWobble empty 0 -9 0 10 -232576
-1 -1 6223 1;
#X obj 52 271 + 10;
#X obj 115 125 pack f f;
#X obj 60 218 + 1;
#X obj 60 198 * 4;
#X obj 9 -48 tgl 15 0 empty randomToggle empty 17 7 0 10 -262144 -1
-1 0 1;
#X obj -11 12 spigot 0;
#X obj 124 62 bng 15 250 50 0 empty empty empty 17 7 0 10 -262144 -1
-1;
#X obj 121 17 spigot 0;
#X obj 83 -44 tgl 15 0 empty empty empty 17 7 0 10 -262144 -1 -1 1
1;
#X obj 56 242 * 30;
#X obj 611 577 -~ 0.3;
#X msg 624 255 \$1 \$2 0 \, \$3 \$4 \$2 \, \$5 \$6 \$7 \, \$8 \$9 \$10
;
#X floatatom 1175 174 5 0 0 0 - - -, f 5;
#X obj 1175 36 vsl 15 128 20 750 0 1 empty empty empty 0 -9 0 10 -257985
-1 -1 6933 1;
#X text 1161 -72 last Fart Pitch;
#X text 1199 160 \$3;
#X obj 1059 218 +;
#X obj 1016 209 t b f;
#X text 1050 82 \$6;
#X text 1090 180 \$7;
#X obj 1107 367 pack f f f f f f f f f f;
#X text 1118 -36 \$8;
#X text 1254 101 \$9;
#X obj 1310 221 +;
#X obj 1296 173 t b f;
#X text 328 -58 a fast jump of > 400 sounds unrealistic;
#X obj 1 133 + 0.01;
#X text 433 753 pinchy;
#X text 661 607 1 gassy \, 2 pinch. 3 even;
#X msg 99 -69 0;
#X obj 37 -89 bng 15 250 50 0 empty resetToggle empty 17 7 0 10 -262144
-1 -1;
#X msg -11 -73 1;
#X text 39 420 Added Standard Whoopie sound to fart;
#X text 41 453 tweaked muffle to be dynamic moving filter;
#X text 28 352 0.6 6;
#X obj 877 283 inlet;
#X obj 755 1310 outlet~;
#X obj 759 1092 *~ 1;
#X obj 762 906 lop~ 5000;
#X obj 668 551 phasor~ 5000;
#X obj -3 93 random 10;
#X msg 241 147 8 \, \$1 \$2;
#X obj 680 -58 random 40;
#X obj 1042 -89 random 40;
#X obj 250 105 spigot 0;
#X obj 293 79 tgl 15 0 empty empty empty 17 7 0 10 -262144 -1 -1 0
1;
#X obj 184 103 spigot 0;
#X obj 229 78 tgl 15 0 empty empty empty 17 7 0 10 -262144 -1 -1 1
1;
#X obj 236 -31 tgl 15 0 empty empty empty 17 7 0 10 -262130 -1 -1 0
1;
#X msg 233 15 0;
#X obj 234 -9 select 0;
#X msg 232 35 1;
#X msg 289 19 0;
#X msg 288 39 1;
#X msg 253 65 12 \, 1 \$1;
#X obj 336 128 random 4;
#X obj 762 1185 lop~ 3000;
#X text 264 -35 on = rip \, off = clusters;
#X obj 1300 -39 hsl 128 15 250 500 0 1 empty empty empty -2 -8 0 10
-262144 -1 -1 8255 1;
#X floatatom 1296 -4 5 0 0 0 - - -, f 5;
#X obj 1307 -80 inlet;
#X obj 1034 -66 + 20;
#X obj 99 361 snapshot~;
#X obj 99 338 osc~ 0.5;
#X obj 99 407 + 40;
#X obj 99 384 * 20;
#X obj 206 -40 bng 15 250 50 0 empty empty empty 17 7 0 10 -262144
-1 -1;
#X obj 359 77 metro 100;
#X msg 265 342 5;
#X obj 227 -97 r squeekMode;
#X obj 943 1025 s fp2volume;
#X obj 39 -16 select 0;
#X msg 47 12 1;
#X msg 79 13 0;
#X obj 377 732 spigot 0;
#X obj 432 713 tgl 15 0 empty squeekX empty 17 7 0 10 -262144 -1 -1
1 1;
#X obj 238 -56 spigot 0;
#X obj 291 -66 tgl 15 0 empty squeekX empty 17 7 0 10 -262144 -1 -1
1 1;
#X obj -7 48 spigot 0;
#X obj 50 45 tgl 15 0 empty squeekX empty 17 7 0 10 -262144 -1 -1 1
1;
#X obj 763 1159 *~ 1;
#X obj 1019 500 tgl 15 0 empty squeekX empty 17 7 0 10 -262144 -1 -1
1 1;
#X obj 916 513 spigot 0;
#X obj 767 943 bp~ 500 5;
#X obj 760 994 *~ 5;
#X obj 759 1018 clip~ -1 1;
#X obj 1150 905 s FP2;
#X obj 71 79 bng 15 250 50 0 empty empty empty 17 7 0 10 -262144 -1
-1;
#X msg 572 644 0;
#X msg 583 671 1;
#X obj 491 132 r stopSqueek;
#X obj 846 1249 env~;
#X obj 427 224 tgl 15 0 empty squeekX empty 17 7 0 10 -204786 -1 -1
1 1;
#X obj 367 223 spigot 0;
#X obj 762 135 * 0.06;
#X obj 1265 131 * 0.125;
#X obj 158 87 * 0.5;
#X obj 901 102 * 0.33;
#X obj 1057 124 * 0.33;
#X obj 0 114 * 0.1;
#X obj 423 109 tgl 15 0 empty squeekX empty 17 7 0 10 -204786 -1 -1
1 1;
#X obj 363 108 spigot 0;
#X obj 769 -55 random 40;
#X obj 1151 -56 random 40;
#X obj 183 27 * 0.5;
#X obj 1146 -35 + 30;
#X obj 1026 -45 + 30;
#X obj 764 -34 + 30;
#X obj 675 -37 + 30;
#X obj 623 392 bng 15 250 50 0 empty empty empty 17 7 0 10 -262144
-1 -1;
#X obj 623 412 s fartSynth;
#X msg 38 300 20;
#X msg 266 309 10;
#X obj 1130 739 * 0.9;
#X msg 825 308 2.1;
#X obj 312 482 random 2000;
#X msg 809 672 50;
#X obj 1037 429 r calc2;
#X obj 1029 464 tgl 15 0 SqueekCalc empty empty 17 7 0 10 -262144 -1
-1 0 1;
#X obj 101 282 spigot 0;
#X obj 145 244 tgl 15 0 empty SqueekCalc empty 17 7 0 10 -262144 -1
-1 0 1;
#X obj 159 278 select 0;
#X msg 160 301 0;
#X obj 101 309 sig~;
#X msg 202 306 0.5;
#X obj 322 178 spigot 0;
#X obj 369 156 tgl 15 0 empty SqueekCalc empty 17 7 0 10 -262144 -1
-1 0 1;
#X obj 378 179 select 0;
#X msg 379 202 0;
#X obj 699 447 tgl 15 0 empty SqueekCalc empty 17 7 0 10 -262144 -1
-1 0 1;
#X obj 713 481 select 0;
#X msg 696 505 0;
#X obj 655 512 sig~;
#X obj 384 366 spigot 0;
#X obj 437 347 tgl 15 0 empty SqueekCalc empty 17 7 0 10 -262144 -1
-1 0 1;
#X obj 440 366 select 0;
#X msg 440 390 0;
#X msg 468 397 100;
#X msg 726 510 3000;
#X obj 761 1226 *~ 0.9;
#X msg 776 680 7000;
#X msg 183 57 1 \, 7 \$1;
#X obj 667 580 *~ 0.04;
#X obj 315 514 + 1500;
#X connect 0 0 107 0;
#X connect 0 0 109 0;
#X connect 0 0 76 0;
#X connect 0 0 184 0;
#X connect 0 0 191 0;
#X connect 1 0 60 1;
#X connect 2 0 60 2;
#X connect 3 0 60 4;
#X connect 4 0 60 5;
#X connect 4 0 188 0;
#X connect 5 0 60 6;
#X connect 6 0 60 3;
#X connect 7 0 139 0;
#X connect 9 0 17 0;
#X connect 10 0 13 0;
#X connect 10 0 13 1;
#X connect 11 0 12 0;
#X connect 12 0 10 0;
#X connect 13 0 14 0;
#X connect 13 0 14 1;
#X connect 14 0 9 1;
#X connect 15 0 11 0;
#X connect 17 0 51 0;
#X connect 18 0 90 0;
#X connect 19 0 59 1;
#X connect 20 0 59 2;
#X connect 21 0 59 4;
#X connect 22 0 59 5;
#X connect 23 0 88 0;
#X connect 23 0 59 6;
#X connect 23 0 196 0;
#X connect 23 0 197 0;
#X connect 23 0 198 0;
#X connect 23 0 199 0;
#X connect 23 0 200 0;
#X connect 23 0 206 0;
#X connect 23 0 215 0;
#X connect 24 0 176 0;
#X connect 25 0 59 3;
#X connect 29 0 169 0;
#X connect 30 0 86 0;
#X connect 31 0 61 0;
#X connect 32 0 31 0;
#X connect 32 0 82 0;
#X connect 32 0 52 0;
#X connect 35 0 24 0;
#X connect 36 0 35 1;
#X connect 37 0 122 2;
#X connect 38 0 37 0;
#X connect 41 0 122 4;
#X connect 42 0 41 0;
#X connect 50 0 7 0;
#X connect 51 0 63 0;
#X connect 52 0 15 0;
#X connect 58 0 85 0;
#X connect 58 0 169 0;
#X connect 59 0 17 1;
#X connect 60 0 7 1;
#X connect 61 0 62 0;
#X connect 62 0 17 0;
#X connect 63 0 69 0;
#X connect 64 0 9 0;
#X connect 66 0 122 0;
#X connect 67 0 66 0;
#X connect 69 0 140 0;
#X connect 70 0 69 1;
#X connect 71 0 70 0;
#X connect 72 0 185 1;
#X connect 73 0 72 0;
#X connect 74 0 195 0;
#X connect 76 0 59 0;
#X connect 76 0 144 0;
#X connect 76 3 58 0;
#X connect 76 3 24 0;
#X connect 76 3 145 0;
#X connect 76 3 204 0;
#X connect 76 3 205 0;
#X connect 76 3 217 0;
#X connect 77 0 80 0;
#X connect 77 0 80 1;
#X connect 78 0 79 0;
#X connect 79 0 235 0;
#X connect 80 0 81 0;
#X connect 80 0 81 1;
#X connect 81 0 83 0;
#X connect 82 0 10 1;
#X connect 82 0 77 1;
#X connect 83 0 30 0;
#X connect 84 0 88 1;
#X connect 85 0 18 0;
#X connect 86 0 64 0;
#X connect 88 0 61 0;
#X connect 89 0 14 1;
#X connect 90 0 78 0;
#X connect 91 0 90 1;
#X connect 92 0 95 0;
#X connect 95 0 91 0;
#X connect 96 0 95 1;
#X connect 100 0 94 0;
#X connect 101 0 105 0;
#X connect 101 0 111 0;
#X connect 104 0 103 0;
#X connect 105 0 104 0;
#X connect 106 0 107 1;
#X connect 106 0 173 0;
#X connect 107 0 180 0;
#X connect 109 0 108 0;
#X connect 109 0 101 0;
#X connect 110 0 109 1;
#X connect 111 0 102 0;
#X connect 112 0 89 0;
#X connect 113 0 85 0;
#X connect 114 0 122 7;
#X connect 115 0 114 0;
#X connect 118 0 126 0;
#X connect 118 0 122 6;
#X connect 119 0 200 0;
#X connect 119 1 118 1;
#X connect 122 0 113 0;
#X connect 125 0 122 9;
#X connect 126 0 197 0;
#X connect 126 1 125 1;
#X connect 128 0 101 0;
#X connect 131 0 110 0;
#X connect 132 0 133 0;
#X connect 132 0 131 0;
#X connect 133 0 106 0;
#X connect 137 0 0 0;
#X connect 139 0 182 0;
#X connect 140 0 185 0;
#X connect 141 0 244 0;
#X connect 142 0 201 0;
#X connect 144 0 210 0;
#X connect 145 0 163 0;
#X connect 146 0 100 0;
#X connect 146 0 170 0;
#X connect 147 0 146 1;
#X connect 148 0 100 0;
#X connect 148 0 213 0;
#X connect 148 0 214 0;
#X connect 149 0 148 1;
#X connect 150 0 152 0;
#X connect 151 0 147 0;
#X connect 152 0 151 0;
#X connect 152 0 153 0;
#X connect 152 1 154 0;
#X connect 152 1 155 0;
#X connect 153 0 149 0;
#X connect 154 0 149 0;
#X connect 155 0 147 0;
#X connect 156 0 146 0;
#X connect 157 0 227 0;
#X connect 158 0 241 0;
#X connect 160 0 161 0;
#X connect 161 0 76 0;
#X connect 161 0 207 1;
#X connect 161 0 208 1;
#X connect 161 0 209 1;
#X connect 161 0 210 1;
#X connect 162 0 160 0;
#X connect 163 0 208 0;
#X connect 164 0 167 0;
#X connect 165 0 164 0;
#X connect 166 0 96 0;
#X connect 167 0 166 0;
#X connect 168 0 150 0;
#X connect 169 0 203 0;
#X connect 170 0 166 1;
#X connect 170 0 167 1;
#X connect 171 0 178 0;
#X connect 173 0 174 0;
#X connect 173 1 175 0;
#X connect 174 0 110 0;
#X connect 175 0 110 0;
#X connect 176 0 23 0;
#X connect 177 0 176 1;
#X connect 178 0 150 0;
#X connect 179 0 178 1;
#X connect 180 0 142 0;
#X connect 181 0 180 1;
#X connect 181 0 189 0;
#X connect 182 0 158 0;
#X connect 183 0 184 1;
#X connect 184 0 60 0;
#X connect 185 0 186 0;
#X connect 186 0 187 0;
#X connect 187 0 50 0;
#X connect 189 0 191 0;
#X connect 190 0 63 1;
#X connect 191 0 63 1;
#X connect 192 0 190 0;
#X connect 192 0 58 0;
#X connect 193 0 172 0;
#X connect 194 0 195 1;
#X connect 195 0 91 0;
#X connect 195 0 18 0;
#X connect 195 0 164 0;
#X connect 196 0 119 0;
#X connect 196 0 122 1;
#X connect 197 0 125 0;
#X connect 197 0 122 8;
#X connect 198 0 103 1;
#X connect 199 0 122 3;
#X connect 200 0 118 0;
#X connect 200 0 122 5;
#X connect 201 0 128 0;
#X connect 202 0 203 1;
#X connect 203 0 157 0;
#X connect 204 0 209 0;
#X connect 205 0 207 0;
#X connect 206 0 156 0;
#X connect 206 0 243 0;
#X connect 207 0 115 0;
#X connect 208 0 42 0;
#X connect 209 0 38 0;
#X connect 210 0 67 0;
#X connect 211 0 212 0;
#X connect 213 0 166 1;
#X connect 214 0 167 1;
#X connect 215 0 4 0;
#X connect 216 0 84 0;
#X connect 217 0 245 0;
#X connect 218 0 71 0;
#X connect 219 0 220 0;
#X connect 221 0 225 0;
#X connect 222 0 221 1;
#X connect 222 0 223 0;
#X connect 223 0 224 0;
#X connect 223 1 226 0;
#X connect 224 0 225 0;
#X connect 225 0 165 0;
#X connect 226 0 225 0;
#X connect 227 0 92 0;
#X connect 228 0 227 1;
#X connect 228 0 229 0;
#X connect 229 0 230 0;
#X connect 230 0 92 0;
#X connect 231 0 232 0;
#X connect 232 0 233 0;
#X connect 232 1 240 0;
#X connect 233 0 234 0;
#X connect 234 0 141 0;
#X connect 235 0 77 0;
#X connect 236 0 235 1;
#X connect 236 0 237 0;
#X connect 237 0 238 0;
#X connect 237 1 239 0;
#X connect 238 0 86 1;
#X connect 239 0 86 1;
#X connect 240 0 234 0;
#X connect 241 0 138 0;
#X connect 241 0 193 0;
#X connect 242 0 73 0;
#X connect 243 0 148 0;
#X connect 244 0 112 0;
#X connect 245 0 35 0;
