#N canvas -7 0 958 988 10;
#X obj 763 1159 *~;
#X obj 915 377 bng 50 250 50 0 bang2 empty empty 17 7 0 10 -4034 -1
-1;
#X obj 913 771 vsl 15 128 0 1 0 1 empty empty empty 0 -9 0 10 -262144
-1 -1 12700 1;
#X obj 970 771 vsl 15 128 0 1000 0 1 empty empty empty 0 -9 0 10 -262144
-1 -1 0 1;
#X obj 1084 771 vsl 15 128 0 10000 0 1 empty empty empty 0 -9 0 10
-262144 -1 -1 0 1;
#X obj 1141 771 vsl 15 128 0 10000 0 1 empty empty empty 0 -9 0 10
-262144 -1 -1 5105 1;
#X obj 1198 771 vsl 15 128 0 1000 0 1 empty empty empty 0 -9 0 10 -262144
-1 -1 600 1;
#X obj 1027 771 vsl 15 128 0 1 0 1 empty empty empty 0 -9 0 10 -262144
-1 -1 12700 1;
#X obj 759 1064 *~;
#X obj 800 1053 r masterVolume;
#X obj 483 559 *~;
#X obj 505 386 line~;
#X obj 505 333 sqrt;
#X obj 505 359 sqrt;
#X obj 505 418 *~;
#X obj 504 489 *~;
#X obj 504 301 line;
#X obj 484 601 *~;
#X obj 433 296 snapshot~;
#X obj 49 629 vsl 15 128 0 1 0 1 empty empty empty 0 -9 0 10 -262144
-1 -1 12700 1;
#X obj 105 629 vsl 15 128 0 1000 0 1 empty empty empty 0 -9 0 10 -262144
-1 -1 300 1;
#X obj 333 594 vsl 15 128 0 1000 0 1 empty empty empty 0 -9 0 10 -262144
-1 -1 600 1;
#X obj 274 600 vsl 15 128 0 1000 0 1 empty empty empty 0 -9 0 10 -262144
-1 -1 0 1;
#X floatatom 211 735 8 0 0 0 - - -, f 8;
#X obj 210 586 vsl 15 128 300 10000 0 1 FL1 empty empty 0 -9 0 10 -257985
-1 -1 7463 1;
#X obj 162 629 vsl 15 128 0 1 0 1 empty empty empty 0 -9 0 10 -262144
-1 -1 1400 1;
#X text 1310 64 parameters;
#X text 1502 -8 wetness (BP filter amp length and osc~ volume);
#X text 1504 19 rip factor - (phasor~ pitch 1000 - 3000);
#X msg 917 1051 1;
#X obj 444 145 loadbang;
#X obj 400 512 -~ 0.5;
#X msg 771 387 -1000;
#X obj 771 357 loadbang;
#X text 446 256 1) quartic envelope;
#X obj 337 562 spigot 0;
#X obj 377 550 tgl 15 1 empty randomToggle empty 17 7 0 10 -262144
-1 -1 0 1;
#X floatatom 830 169 5 0 0 0 - - -, f 5;
#X obj 823 33 vsl 15 128 25 400 0 1 empty empty empty 0 -9 0 10 -257985
-1 -1 711 1;
#X text 688 -77 first Fart Pitch;
#X text 345 341 fart Length;
#X floatatom 970 169 5 0 0 0 - - -, f 5;
#X obj 970 31 vsl 15 128 20 750 0 1 empty empty empty 0 -9 0 10 -257985
-1 -1 383 1;
#X text 773 109 \$2;
#X text 902 80 \$4;
#X text 994 155 \$3;
#X text 749 -88 \$1;
#X text 676 300 3) signal reducer;
#X text 931 682 (unfinished);
#X obj 485 632 *~ 0.9;
#X text 1604 784 beep after last pitch reaches 500;
#X text 945 624 dry timbre;
#X text 1068 101 first curve time;
#X obj 759 1018 clip~ -0.9 0.9;
#X text 736 314 former log~;
#X msg 581 219 stop;
#X obj 17 787 ADSREnv-amp;
#X obj 855 932 ADSREnv-amp;
#X obj 771 450 sig~;
#X obj 772 487 *~ 1;
#X obj 509 658 *~ 0.9;
#X obj 406 572 clip~ -0.9 0.9;
#X text 810 790 essential;
#X floatatom 713 164 5 0 0 0 - - -, f 5;
#X obj 713 28 vsl 15 128 25 400 0 1 empty p1i empty 0 -9 0 10 -257985
-1 -1 2100 1;
#X obj 762 860 hip~ 100;
#X floatatom 807 841 5 0 0 0 - - -, f 5;
#X obj 807 700 vsl 15 128 0 500 0 1 empty empty empty 0 -9 0 10 -257985
-1 -1 1416 1;
#X floatatom 763 840 5 0 0 0 - - -, f 5;
#X obj 762 706 vsl 15 128 0 7000 0 1 empty empty empty 0 -9 0 10 -257985
-1 -1 12700 1;
#X obj 399 207 r metro;
#X text 247 345 cause of high pitch shriek;
#X obj 615 76 t b b b b f;
#X obj 406 405 line~;
#X obj 409 338 sqrt;
#X obj 407 360 sqrt;
#X obj 406 437 *~;
#X obj 405 462 *~;
#X msg 549 339 1000;
#X obj 401 489 osc~;
#X obj 850 331 hsl 128 15 1.2 5 0 1 empty empty empty -2 -8 0 10 -262144
-1 -1 4011 1;
#X obj 434 270 vline~;
#X obj 398 541 *~ 5;
#X text 926 288 2 - 3;
#X obj 820 398 * 2.7;
#X obj 561 530 clip~ -1 1;
#X obj 668 580 *~ 5;
#X obj 355 300 +;
#X obj 324 250 snapshot~;
#X obj 316 200 osc~ 33;
#X obj 315 226 *~ 5;
#X obj 611 577 -~ 0.3;
#X text 1661 911 Main Fart with Sub fart concurrently could be funny
'squeek' effect;
#X text 1667 863 want to add - reverb vs dry mix control;
#X text 1681 884 want to add - 4th note;
#X text 1672 977 fartPatch straight to verb has a nice ' Pinch' GI
sound;
#X msg 624 255 \$1 \$2 0 \, \$3 \$4 \$2 \, \$5 \$6 \$7 \, \$8 \$9 \$10
;
#X floatatom 1175 174 5 0 0 0 - - -, f 5;
#X obj 1175 36 vsl 15 128 20 750 0 1 empty empty empty 0 -9 0 10 -257985
-1 -1 383 1;
#X text 1161 -72 last Fart Pitch;
#X text 1199 160 \$3;
#X obj 1059 218 +;
#X floatatom 1059 240 5 0 0 0 - - -, f 5;
#X obj 1009 102 t b f;
#X text 1050 82 \$6;
#X text 1090 180 \$7;
#X obj 1057 329 pack f f f f f f f f f f;
#X text 1118 -36 \$8;
#X text 1254 101 \$9;
#X obj 1292 198 +;
#X obj 1267 82 t b f;
#X text 433 753 pinchy;
#X text 661 607 1 gassy \, 2 pinch. 3 even;
#X text 39 420 Added Standard Whoopie sound to fart;
#X text 41 453 tweaked muffle to be dynamic moving filter;
#X text 28 352 0.6 6;
#X obj 931 557 *~ 1;
#X obj 932 503 osc~ 10000;
#X obj 931 529 *~ 1.5;
#X obj 877 283 inlet;
#X obj 762 1272 outlet~;
#X obj 666 539 phasor~ 5000;
#X floatatom 174 1064 5 0 0 0 - - -, f 5;
#X obj 174 927 vsl 15 128 0 200 0 1 empty empty empty 0 -9 0 10 -262144
-1 -1 6985 1;
#X floatatom 207 1063 5 0 0 0 - - -, f 5;
#X obj 207 926 vsl 15 128 0 100 0 1 empty empty empty 0 -9 0 10 -262144
-1 -1 6350 1;
#X floatatom 241 1063 5 0 0 0 - - -, f 5;
#X obj 241 926 vsl 15 128 0 10000 0 1 empty empty empty 0 -9 0 10 -262144
-1 -1 635 1;
#X floatatom 274 1062 5 0 0 0 - - -, f 5;
#X obj 274 925 vsl 15 128 0 120 0 1 empty empty empty 0 -9 0 10 -262144
-1 -1 6350 1;
#X obj 584 1061 hsl 128 15 0 1 0 1 empty wetnessVolume empty -2 -8
0 10 -262144 -1 -1 10160 1;
#X obj 381 1158 hsl 128 15 0 8000 0 1 empty empty empty -2 -8 0 10
-262144 -1 -1 939 1;
#X floatatom 555 1089 5 0 0 0 - - -, f 5;
#X obj 330 1028 line;
#X obj 534 1299 *~;
#X text 596 1083 rev volume;
#X obj 206 1141 *~ 1;
#X obj 63 490 inlet;
#X obj 680 -58 random 20;
#X obj 1050 -68 random 20;
#X obj 981 559 r~ warble;
#X obj 590 953 loadbang;
#X obj 428 1037 snapshot~;
#X obj 406 922 r metro;
#X obj 425 965 osc~ 1;
#X msg 241 893 500;
#X msg 274 894 60;
#X obj 762 1185 lop~ 8000;
#X obj 763 906 lop~ 8000;
#X obj 761 943 bp~ 500 1;
#X obj 760 994 *~ 5;
#X obj 760 1040 *~ 0.5;
#X obj 424 323 spigot 0;
#X obj 485 326 tgl 15 0 empty lowEndStatus empty 17 7 0 10 -262144
-1 -1 1 1;
#X msg 567 643 0;
#X msg 601 641 1;
#X obj 660 202 bng 15 250 50 0 empty empty empty 17 7 0 10 -262144
-1 -1;
#X obj 639 169 r stopLE;
#X obj 906 1230 env~;
#X obj 899 1264 s fp1volume;
#X obj 327 1211 lop~ 1000;
#X obj 213 1276 lop~ 2000;
#X obj 464 863 bng 15 250 50 0 empty empty empty 17 7 0 10 -262144
-1 -1;
#X floatatom 395 1107 5 0 0 0 - - -, f 5;
#X obj 484 879 random 10;
#X obj 484 898 + 1;
#X msg 328 1008 2000 \, 5000 \$1;
#X obj 267 1226 +;
#X obj 448 222 tgl 15 0 empty lowEndStatus empty 17 7 0 10 -204786
-1 -1 1 1;
#X obj 387 235 spigot 0;
#X obj 762 135 * 0.04;
#X obj 901 101 * 0.06;
#X obj 1057 125 * 0.5;
#X obj 1265 132 * 1;
#X obj 1130 739 * 0.67;
#X obj 328 984 * 0.5;
#X obj 484 922 * 0.1;
#X obj 192 1235 hip~ 1000;
#X msg 809 672 40;
#X obj 1172 545 osc~ 5000;
#X obj 1172 479 line;
#X obj 1217 408 r FL;
#X obj 1173 571 *~ 1;
#X obj 1172 434 pack f f;
#X msg 1172 406 1500;
#X msg 1172 457 0 \, \$1 \$2;
#X obj 476 1242 clip~ -1 1;
#X obj 579 784 bng 15 250 50 0 empty empty empty 17 7 0 10 -262144
-1 -1;
#X obj 571 825 s fartSynth;
#X msg 547 280 8 20;
#X obj 394 1081 clip 100 100.5;
#X obj 395 1130 select 100.5;
#X msg 825 308 2.4;
#X msg 553 979 0.8;
#X obj 426 991 *~ 300;
#X obj 428 1017 +~ 400;
#X obj 205 1106 _rev3_half~;
#X obj 645 1298 hip~ 50;
#X msg 758 674 4000;
#N canvas -8 -8 1920 997 wobble 0;
#X text 252 174 wobble;
#X obj 174 206 hsl 128 15 0 5 0 1 empty empty empty -2 -8 0 10 -262144
-1 -1 12700 1;
#X obj 175 269 hsl 128 15 10 60 0 1 empty empty empty -2 -8 0 10 -262144
-1 -1 11411 1;
#X text 136 203 freq;
#X text 126 253 amount;
#X obj 171 181 line;
#X obj 17 138 vsl 15 128 0 1 0 1 empty empty empty 0 -9 0 10 -232576
-1 -1 12700 1;
#X obj 171 138 pack f f;
#X msg 171 158 0.1 \, \$1 \$2;
#X obj 52 269 * 30;
#X floatatom 229 135 5 0 0 0 - - -, f 5;
#X obj 314 204 outlet;
#X obj 362 205 outlet;
#X obj 56 241 + 1;
#X obj 52 294 + 10;
#X obj 216 113 * 0.75;
#X obj 56 221 * 4;
#X obj 329 164 snapshot~;
#X obj 407 142 r metro;
#X obj 422 187 +;
#X obj 423 166 t b f;
#X obj 328 123 *~ 1;
#X obj 328 99 osc~ 2;
#X obj 48 347 + 0.1;
#X obj 328 444 snapshot~;
#X obj 406 422 r metro;
#X obj 421 467 +;
#X obj 422 446 t b f;
#X obj 327 403 *~ 1;
#X obj 327 379 osc~ 2;
#X obj 43 434 + 0.1;
#X obj 43 409 * 2;
#X obj 47 381 * 3;
#X obj -4 -38 line;
#X text 188 -258 a fast jump of > 400 sounds unrealistic;
#X obj 106 -99 spigot 0;
#X obj 157 -113 tgl 15 0 empty empty empty 17 7 0 10 -262144 -1 -1
0 1;
#X obj 44 -97 spigot 0;
#X obj 89 -122 tgl 15 0 empty empty empty 17 7 0 10 -262144 -1 -1 1
1;
#X obj 96 -231 tgl 15 0 empty empty empty 17 7 0 10 -262130 -1 -1 0
1;
#X msg 93 -185 0;
#X obj 94 -209 select 0;
#X msg 92 -165 1;
#X msg 149 -181 0;
#X msg 148 -161 1;
#X obj 94 -264 r clusterMode;
#X text 124 -235 on = rip \, off = clusters;
#X obj 172 -201 bng 15 250 50 0 empty empty empty 17 7 0 10 -262144
-1 -1;
#X obj 43 -240 r FL1;
#X obj 233 -171 r bang2;
#X obj 216 90 r FL1;
#X obj 271 -105 bng 15 250 50 0 empty empty empty 17 7 0 10 -262144
-1 -1;
#X obj 43 -207 * 0.25;
#X msg 43 -142 0 \, 1 \$1;
#X text 92 346 freq freq;
#X text 96 381 freq amount;
#X text 103 433 amount freq;
#X text 96 470 amount amount;
#X obj 48 322 * 2;
#X obj 42 468 * 20;
#X msg 114 -138 0.5 \, 0.05 \$1;
#X obj 328 45 spigot 0;
#X obj 372 7 tgl 15 0 empty LECalc empty 17 7 0 10 -262144 -1 -1 0
1;
#X obj 386 41 select 0;
#X msg 387 64 0;
#X obj 328 72 sig~;
#X obj 329 324 spigot 0;
#X obj 373 286 tgl 15 0 empty LECalc empty 17 7 0 10 -262144 -1 -1
0 1;
#X obj 387 320 select 0;
#X msg 388 343 0;
#X obj 329 351 sig~;
#X connect 1 0 11 0;
#X connect 2 0 12 0;
#X connect 5 0 19 0;
#X connect 6 0 9 0;
#X connect 6 0 16 0;
#X connect 6 0 31 0;
#X connect 6 0 32 0;
#X connect 6 0 58 0;
#X connect 6 0 59 0;
#X connect 7 0 8 0;
#X connect 8 0 5 0;
#X connect 9 0 14 0;
#X connect 13 0 7 0;
#X connect 14 0 26 0;
#X connect 15 0 7 1;
#X connect 15 0 10 0;
#X connect 16 0 13 0;
#X connect 17 0 20 0;
#X connect 18 0 17 0;
#X connect 19 0 1 0;
#X connect 20 0 19 0;
#X connect 20 1 19 1;
#X connect 21 0 17 0;
#X connect 22 0 21 0;
#X connect 23 0 61 0;
#X connect 24 0 27 0;
#X connect 25 0 24 0;
#X connect 26 0 2 0;
#X connect 27 0 26 0;
#X connect 27 1 26 1;
#X connect 28 0 24 0;
#X connect 29 0 28 0;
#X connect 30 0 66 0;
#X connect 31 0 30 0;
#X connect 32 0 21 1;
#X connect 33 0 6 0;
#X connect 35 0 33 0;
#X connect 36 0 35 1;
#X connect 37 0 33 0;
#X connect 38 0 37 1;
#X connect 39 0 41 0;
#X connect 39 0 47 0;
#X connect 40 0 36 0;
#X connect 41 0 40 0;
#X connect 41 0 42 0;
#X connect 41 1 43 0;
#X connect 41 1 44 0;
#X connect 42 0 38 0;
#X connect 43 0 38 0;
#X connect 44 0 36 0;
#X connect 45 0 39 0;
#X connect 48 0 52 0;
#X connect 49 0 51 0;
#X connect 49 0 52 0;
#X connect 50 0 15 0;
#X connect 52 0 60 0;
#X connect 52 0 53 0;
#X connect 53 0 37 0;
#X connect 58 0 23 0;
#X connect 59 0 28 1;
#X connect 60 0 35 0;
#X connect 61 0 65 0;
#X connect 62 0 61 1;
#X connect 62 0 63 0;
#X connect 63 0 64 0;
#X connect 63 1 58 0;
#X connect 64 0 65 0;
#X connect 65 0 22 0;
#X connect 66 0 70 0;
#X connect 67 0 66 1;
#X connect 67 0 68 0;
#X connect 68 0 69 0;
#X connect 68 1 31 0;
#X connect 69 0 70 0;
#X connect 70 0 29 0;
#X coords 0 -1 1 1 50 150 2 -5 125;
#X restore 23 -11 pd wobble;
#X obj 672 -37 + 40;
#X obj 1026 -45 + 40;
#X obj 326 1243 *~ 1.2;
#X obj 759 1092 *~ 0.5;
#X obj 212 1309 *~ 1.5, f 9;
#X msg 174 892 110;
#X msg 207 892 50;
#X obj 761 1226 *~ 0.6;
#X obj 1174 521 spigot 0;
#X obj 1218 494 tgl 15 0 empty LECalc empty 17 7 0 10 -262144 -1 -1
0 1;
#X obj 1119 500 select 0;
#X msg 1132 531 0;
#X obj 1011 438 tgl 15 0 LECalc empty empty 17 7 0 10 -262144 -1 -1
0 1;
#X obj 980 593 *~ 0.6;
#X obj 1009 389 r calc1;
#X obj 708 436 tgl 15 0 empty LECalc empty 17 7 0 10 -262144 -1 -1
0 1;
#X obj 722 470 select 0;
#X msg 705 494 0;
#X obj 664 501 sig~;
#X msg 735 499 5000;
#X obj 388 384 spigot 0;
#X obj 441 365 tgl 15 0 empty LECalc empty 17 7 0 10 -262144 -1 -1
0 1;
#X obj 444 384 select 0;
#X msg 444 408 0;
#X msg 472 415 100;
#X connect 0 0 147 0;
#X connect 1 0 29 0;
#X connect 1 0 57 0;
#X connect 1 0 72 0;
#X connect 1 0 184 0;
#X connect 1 0 155 0;
#X connect 2 0 57 1;
#X connect 3 0 57 2;
#X connect 4 0 57 4;
#X connect 5 0 57 5;
#X connect 6 0 57 6;
#X connect 7 0 57 3;
#X connect 8 0 196 0;
#X connect 8 0 196 1;
#X connect 8 0 203 0;
#X connect 10 0 17 0;
#X connect 11 0 14 0;
#X connect 11 0 14 1;
#X connect 12 0 13 0;
#X connect 13 0 11 0;
#X connect 14 0 15 0;
#X connect 14 0 15 1;
#X connect 15 0 10 1;
#X connect 16 0 12 0;
#X connect 17 0 49 0;
#X connect 18 0 87 0;
#X connect 19 0 56 1;
#X connect 20 0 56 2;
#X connect 21 0 56 6;
#X connect 22 0 56 5;
#X connect 23 0 84 0;
#X connect 23 0 56 4;
#X connect 23 0 170 0;
#X connect 23 0 171 0;
#X connect 23 0 172 0;
#X connect 23 0 173 0;
#X connect 23 0 174 0;
#X connect 23 0 175 0;
#X connect 24 0 23 0;
#X connect 25 0 56 3;
#X connect 29 0 0 1;
#X connect 31 0 82 0;
#X connect 32 0 58 0;
#X connect 33 0 32 0;
#X connect 33 0 78 0;
#X connect 33 0 189 0;
#X connect 36 0 35 1;
#X connect 37 0 106 2;
#X connect 38 0 37 0;
#X connect 41 0 106 4;
#X connect 42 0 41 0;
#X connect 49 0 60 0;
#X connect 53 0 151 0;
#X connect 55 0 81 0;
#X connect 56 0 17 1;
#X connect 57 0 8 1;
#X connect 58 0 59 0;
#X connect 59 0 17 0;
#X connect 60 0 65 0;
#X connect 61 0 10 0;
#X connect 63 0 106 0;
#X connect 64 0 63 0;
#X connect 65 0 148 0;
#X connect 66 0 65 1;
#X connect 67 0 66 0;
#X connect 68 0 149 1;
#X connect 69 0 68 0;
#X connect 70 0 169 0;
#X connect 72 0 56 0;
#X connect 72 0 64 0;
#X connect 72 0 138 0;
#X connect 72 3 55 0;
#X connect 72 3 24 0;
#X connect 72 3 139 0;
#X connect 73 0 76 0;
#X connect 73 0 76 1;
#X connect 74 0 75 0;
#X connect 75 0 220 0;
#X connect 76 0 77 0;
#X connect 76 0 77 1;
#X connect 77 0 79 0;
#X connect 78 0 11 1;
#X connect 78 0 73 1;
#X connect 79 0 31 0;
#X connect 80 0 84 1;
#X connect 81 0 18 0;
#X connect 82 0 61 0;
#X connect 84 0 58 0;
#X connect 85 0 15 1;
#X connect 86 0 91 0;
#X connect 87 0 152 0;
#X connect 88 0 87 1;
#X connect 89 0 90 0;
#X connect 90 0 88 0;
#X connect 91 0 85 0;
#X connect 96 0 81 0;
#X connect 97 0 106 7;
#X connect 98 0 97 0;
#X connect 101 0 102 0;
#X connect 102 0 106 6;
#X connect 102 0 110 0;
#X connect 103 0 172 0;
#X connect 103 1 101 1;
#X connect 106 0 96 0;
#X connect 109 0 106 9;
#X connect 110 0 173 0;
#X connect 110 1 109 1;
#X connect 116 0 213 0;
#X connect 117 0 118 0;
#X connect 118 0 116 0;
#X connect 119 0 1 0;
#X connect 121 0 86 0;
#X connect 122 0 196 2;
#X connect 123 0 122 0;
#X connect 124 0 196 3;
#X connect 125 0 124 0;
#X connect 126 0 196 4;
#X connect 127 0 126 0;
#X connect 128 0 196 5;
#X connect 129 0 128 0;
#X connect 130 0 132 0;
#X connect 131 0 160 1;
#X connect 131 0 167 0;
#X connect 132 0 134 1;
#X connect 133 0 167 1;
#X connect 134 0 197 0;
#X connect 136 0 160 0;
#X connect 136 0 177 0;
#X connect 137 0 24 0;
#X connect 138 0 200 0;
#X connect 139 0 201 0;
#X connect 140 0 213 0;
#X connect 141 0 193 0;
#X connect 142 0 131 0;
#X connect 142 0 190 0;
#X connect 143 0 142 0;
#X connect 144 0 194 0;
#X connect 145 0 127 0;
#X connect 146 0 129 0;
#X connect 147 0 207 0;
#X connect 148 0 149 0;
#X connect 149 0 150 0;
#X connect 150 0 53 0;
#X connect 151 0 8 0;
#X connect 152 0 74 0;
#X connect 153 0 152 1;
#X connect 154 0 60 1;
#X connect 155 0 60 1;
#X connect 157 0 156 0;
#X connect 157 0 154 0;
#X connect 158 0 159 0;
#X connect 160 0 202 0;
#X connect 161 0 204 0;
#X connect 162 0 164 0;
#X connect 163 0 191 0;
#X connect 164 0 165 0;
#X connect 165 0 176 0;
#X connect 166 0 133 0;
#X connect 167 0 161 1;
#X connect 168 0 169 1;
#X connect 169 0 88 0;
#X connect 169 0 18 0;
#X connect 170 0 103 0;
#X connect 170 0 106 1;
#X connect 171 0 106 3;
#X connect 172 0 101 0;
#X connect 172 0 106 5;
#X connect 173 0 106 8;
#X connect 173 0 109 0;
#X connect 174 0 5 0;
#X connect 175 0 166 0;
#X connect 176 0 144 1;
#X connect 177 0 161 0;
#X connect 178 0 67 0;
#X connect 179 0 182 0;
#X connect 180 0 208 0;
#X connect 181 0 183 1;
#X connect 182 0 213 0;
#X connect 183 0 185 0;
#X connect 184 0 183 0;
#X connect 185 0 180 0;
#X connect 186 0 134 0;
#X connect 187 0 188 0;
#X connect 189 0 16 0;
#X connect 190 0 163 0;
#X connect 191 1 162 0;
#X connect 191 1 184 0;
#X connect 192 0 80 0;
#X connect 193 0 130 0;
#X connect 194 0 195 0;
#X connect 195 0 142 0;
#X connect 196 0 136 0;
#X connect 197 0 0 0;
#X connect 198 0 69 0;
#X connect 199 0 89 0;
#X connect 199 1 90 1;
#X connect 200 0 38 0;
#X connect 201 0 42 0;
#X connect 201 0 98 0;
#X connect 202 0 186 0;
#X connect 203 0 0 0;
#X connect 204 0 186 0;
#X connect 205 0 123 0;
#X connect 206 0 125 0;
#X connect 207 0 120 0;
#X connect 207 0 158 0;
#X connect 208 0 179 0;
#X connect 209 0 208 1;
#X connect 209 0 210 0;
#X connect 210 0 211 0;
#X connect 211 0 179 0;
#X connect 213 0 17 0;
#X connect 214 0 212 0;
#X connect 215 0 216 0;
#X connect 216 0 217 0;
#X connect 216 1 219 0;
#X connect 217 0 218 0;
#X connect 218 0 121 0;
#X connect 219 0 218 0;
#X connect 220 0 73 0;
#X connect 221 0 220 1;
#X connect 221 0 222 0;
#X connect 222 0 223 0;
#X connect 222 1 224 0;
#X connect 223 0 82 1;
#X connect 224 0 82 1;
#X coords 0 0 1 1 85 60 0;
