#N canvas -8 -8 1920 997 10;
#X obj 543 1041 makenote 1 100;
#X obj 250 341 select 0;
#X obj 250 365 bng 15 250 50 0 empty empty empty 17 7 0 10 -262144
-1 -1;
#X obj 302 364 float;
#X obj 341 365 + 1;
#X floatatom 302 386 5 0 0 0 - - -, f 5;
#X msg 471 159 0;
#X obj 20 322 inlet;
#X msg 72 335 99;
#X obj 68 273 inlet;
#X obj 677 285 s pack;
#X obj 642 207 +;
#X obj 642 186 t b b;
#X obj 641 246 -;
#X obj 671 207 random 80;
#X obj 671 228 random 80;
#X obj 698 186 * 0.1;
#X msg 680 252 65 1 \$1;
#X obj 739 205 +;
#X obj 739 184 t b b;
#X obj 738 244 -;
#X obj 768 205 random 80;
#X obj 768 226 random 80;
#X obj 795 184 * 0.1;
#X obj 774 283 s pack2;
#X msg 777 250 110 130 \$1;
#X msg 643 229 700;
#X msg 740 227 350;
#X obj 856 207 +;
#X obj 856 186 t b b;
#X obj 855 246 -;
#X obj 885 207 random 80;
#X obj 885 228 random 80;
#X obj 912 186 * 0.1;
#X msg 857 229 350;
#X obj 891 285 s pack;
#X msg 894 252 110 1 \$1;
#X obj 963 214 +;
#X obj 963 193 t b b;
#X obj 962 253 -;
#X obj 992 214 random 80;
#X obj 992 235 random 80;
#X obj 1019 193 * 0.1;
#X msg 964 236 350;
#X obj 998 292 s pack;
#X obj 1062 218 +;
#X obj 1062 197 t b b;
#X obj 1061 257 -;
#X obj 1091 218 random 80;
#X obj 1091 239 random 80;
#X obj 1118 197 * 0.1;
#X msg 1063 240 350;
#X obj 1097 296 s pack;
#X msg 999 264 98 1 \$1;
#X obj 1169 227 +;
#X obj 1169 206 t b b;
#X obj 1168 266 -;
#X obj 1198 227 random 80;
#X obj 1198 248 random 80;
#X obj 1225 206 * 0.1;
#X obj 1204 305 s pack;
#X msg 1207 272 98 1 \$1;
#X msg 1170 249 1050;
#X msg 1092 272 82 1 \$1;
#X obj 1277 231 +;
#X obj 1277 210 t b b;
#X obj 1276 270 -;
#X obj 1306 231 random 80;
#X obj 1306 252 random 80;
#X obj 1333 210 * 0.1;
#X obj 1312 309 s pack;
#X msg 1278 253 1050;
#X msg 1315 276 72 1 \$1;
#X obj 1443 306 s pack;
#X obj 1408 228 +;
#X obj 1408 207 t b b;
#X obj 1407 267 -;
#X obj 1437 228 random 80;
#X obj 1437 249 random 80;
#X obj 1464 207 * 0.1;
#X msg 1446 273 65 1 \$1;
#X obj 1505 226 +;
#X obj 1505 205 t b b;
#X obj 1504 265 -;
#X obj 1534 226 random 80;
#X obj 1534 247 random 80;
#X obj 1561 205 * 0.1;
#X obj 1540 304 s pack2;
#X msg 1543 271 110 130 \$1;
#X msg 1409 250 700;
#X msg 1506 248 350;
#X obj 1622 228 +;
#X obj 1622 207 t b b;
#X obj 1621 267 -;
#X obj 1651 228 random 80;
#X obj 1651 249 random 80;
#X obj 1678 207 * 0.1;
#X msg 1623 250 350;
#X obj 1657 306 s pack;
#X msg 1660 273 110 1 \$1;
#X obj 1729 235 +;
#X obj 1729 214 t b b;
#X obj 1728 274 -;
#X obj 1758 235 random 80;
#X obj 1758 256 random 80;
#X obj 1785 214 * 0.1;
#X msg 1730 257 350;
#X obj 1764 313 s pack;
#X obj 1828 239 +;
#X obj 1828 218 t b b;
#X obj 1827 278 -;
#X obj 1857 239 random 80;
#X obj 1857 260 random 80;
#X obj 1884 218 * 0.1;
#X msg 1829 261 350;
#X obj 1863 317 s pack;
#X msg 1765 285 98 1 \$1;
#X obj 1935 248 +;
#X obj 1935 227 t b b;
#X obj 1934 287 -;
#X obj 1964 248 random 80;
#X obj 1964 269 random 80;
#X obj 1991 227 * 0.1;
#X msg 1858 293 82 1 \$1;
#X msg 1936 270 2010;
#X obj 1970 326 s pack2;
#X msg 1973 293 88 98 \$1;
#X obj 637 514 +;
#X obj 637 493 t b b;
#X obj 636 553 -;
#X obj 666 514 random 80;
#X obj 666 535 random 80;
#X obj 693 493 * 0.1;
#X msg 638 536 350;
#X obj 672 592 s pack;
#X msg 675 559 110 1 \$1;
#X obj 750 518 +;
#X obj 750 497 t b b;
#X obj 749 557 -;
#X obj 779 518 random 80;
#X obj 779 539 random 80;
#X obj 806 497 * 0.1;
#X msg 751 540 350;
#X obj 785 596 s pack;
#X msg 788 563 110 1 \$1;
#X obj 855 519 +;
#X obj 855 498 t b b;
#X obj 854 558 -;
#X obj 884 519 random 80;
#X obj 884 540 random 80;
#X obj 911 498 * 0.1;
#X msg 856 541 350;
#X obj 890 597 s pack;
#X msg 893 564 110 1 \$1;
#X obj 966 521 +;
#X obj 966 500 t b b;
#X obj 965 560 -;
#X obj 995 521 random 80;
#X obj 995 542 random 80;
#X obj 1022 500 * 0.1;
#X msg 967 543 350;
#X obj 1001 599 s pack;
#X obj 1077 523 +;
#X obj 1077 502 t b b;
#X obj 1076 562 -;
#X obj 1106 523 random 80;
#X obj 1106 544 random 80;
#X obj 1133 502 * 0.1;
#X msg 1078 545 350;
#X obj 1112 601 s pack;
#X obj 1201 525 +;
#X obj 1201 504 t b b;
#X obj 1200 564 -;
#X obj 1230 525 random 80;
#X obj 1230 546 random 80;
#X obj 1257 504 * 0.1;
#X msg 1202 547 350;
#X obj 1236 603 s pack;
#X msg 1006 569 82 1 \$1;
#X msg 1115 568 87 1 \$1;
#X msg 1238 570 98 1 \$1;
#X obj 1322 537 +;
#X obj 1322 516 t b b;
#X obj 1321 576 -;
#X obj 1351 537 random 80;
#X obj 1351 558 random 80;
#X obj 1378 516 * 0.1;
#X obj 1426 525 +;
#X obj 1426 504 t b b;
#X obj 1425 564 -;
#X obj 1455 525 random 80;
#X obj 1455 546 random 80;
#X obj 1482 504 * 0.1;
#X msg 1427 547 350;
#X obj 1461 603 s pack;
#X obj 1540 544 +;
#X obj 1540 523 t b b;
#X obj 1539 583 -;
#X obj 1569 544 random 80;
#X obj 1569 565 random 80;
#X obj 1596 523 * 0.1;
#X obj 1575 622 s pack;
#X msg 1323 559 700;
#X obj 1357 615 s pack2;
#X msg 1361 582 98 110 \$1;
#X msg 1577 588 72 1 \$1;
#X msg 1541 566 1050;
#X msg 1462 569 87 1 \$1;
#X obj 510 693 +;
#X obj 510 672 t b b;
#X obj 509 732 -;
#X obj 539 693 random 80;
#X obj 539 714 random 80;
#X obj 566 672 * 0.1;
#X obj 607 691 +;
#X obj 607 670 t b b;
#X obj 606 730 -;
#X obj 636 691 random 80;
#X obj 636 712 random 80;
#X obj 663 670 * 0.1;
#X msg 511 715 700;
#X msg 608 713 350;
#X obj 724 693 +;
#X obj 724 672 t b b;
#X obj 723 732 -;
#X obj 753 693 random 80;
#X obj 753 714 random 80;
#X obj 780 672 * 0.1;
#X msg 725 715 350;
#X obj 759 771 s pack;
#X msg 762 738 110 1 \$1;
#X obj 831 700 +;
#X obj 831 679 t b b;
#X obj 830 739 -;
#X obj 860 700 random 80;
#X obj 860 721 random 80;
#X obj 887 679 * 0.1;
#X msg 832 722 350;
#X obj 930 704 +;
#X obj 930 683 t b b;
#X obj 929 743 -;
#X obj 959 704 random 80;
#X obj 959 725 random 80;
#X obj 986 683 * 0.1;
#X msg 931 726 350;
#X obj 545 771 s pack2;
#X obj 642 769 s pack;
#X msg 645 736 110 1 \$1;
#X obj 866 778 s pack2;
#X msg 867 750 98 123 \$1;
#X obj 965 782 s pack2;
#X obj 1053 705 +;
#X obj 1053 684 t b b;
#X obj 1052 744 -;
#X obj 1082 705 random 80;
#X obj 1082 726 random 80;
#X obj 1109 684 * 0.1;
#X msg 1054 727 350;
#X obj 1088 783 s pack2;
#X msg 1083 759 130 146 \$1;
#X obj 1197 709 +;
#X obj 1197 688 t b b;
#X obj 1196 748 -;
#X obj 1226 709 random 80;
#X obj 1226 730 random 80;
#X obj 1253 688 * 0.1;
#X msg 1198 731 350;
#X obj 1314 711 +;
#X obj 1314 690 t b b;
#X obj 1313 750 -;
#X obj 1343 711 random 80;
#X obj 1343 732 random 80;
#X obj 1370 690 * 0.1;
#X msg 1315 733 350;
#X obj 1349 789 s pack;
#X obj 1232 787 s pack;
#X obj 1430 712 +;
#X obj 1430 691 t b b;
#X obj 1429 751 -;
#X obj 1459 712 random 80;
#X obj 1459 733 random 80;
#X obj 1486 691 * 0.1;
#X msg 1431 734 350;
#X obj 1547 714 +;
#X obj 1547 693 t b b;
#X obj 1546 753 -;
#X obj 1576 714 random 80;
#X obj 1576 735 random 80;
#X obj 1603 693 * 0.1;
#X msg 1548 736 350;
#X obj 1582 792 s pack;
#X obj 1465 790 s pack;
#X obj 1667 701 +;
#X obj 1667 680 t b b;
#X obj 1666 740 -;
#X obj 1696 701 random 80;
#X obj 1696 722 random 80;
#X obj 1723 680 * 0.1;
#X msg 1668 723 350;
#X obj 1702 779 s pack;
#X msg 1235 754 123 1 \$1;
#X msg 1352 756 110 1 \$1;
#X msg 1468 757 98 1 \$1;
#X msg 1586 760 82 1 \$1;
#X msg 1706 746 72 1 \$1;
#X obj 560 934 s pack;
#X obj 525 856 +;
#X obj 525 835 t b b;
#X obj 524 895 -;
#X obj 554 856 random 80;
#X obj 554 877 random 80;
#X obj 581 835 * 0.1;
#X msg 563 901 65 1 \$1;
#X obj 622 854 +;
#X obj 622 833 t b b;
#X obj 621 893 -;
#X obj 651 854 random 80;
#X obj 651 875 random 80;
#X obj 678 833 * 0.1;
#X obj 657 932 s pack2;
#X msg 660 899 110 130 \$1;
#X msg 526 878 700;
#X msg 623 876 350;
#X obj 739 856 +;
#X obj 739 835 t b b;
#X obj 738 895 -;
#X obj 768 856 random 80;
#X obj 768 877 random 80;
#X obj 795 835 * 0.1;
#X msg 740 878 350;
#X obj 774 934 s pack;
#X msg 777 901 110 1 \$1;
#X obj 846 863 +;
#X obj 846 842 t b b;
#X obj 845 902 -;
#X obj 875 863 random 80;
#X obj 875 884 random 80;
#X obj 902 842 * 0.1;
#X msg 847 885 350;
#X obj 881 941 s pack;
#X obj 945 867 +;
#X obj 945 846 t b b;
#X obj 944 906 -;
#X obj 974 867 random 80;
#X obj 974 888 random 80;
#X obj 1001 846 * 0.1;
#X msg 946 889 350;
#X obj 980 945 s pack;
#X msg 882 913 98 1 \$1;
#X obj 1052 876 +;
#X obj 1052 855 t b b;
#X obj 1051 915 -;
#X obj 1081 876 random 80;
#X obj 1081 897 random 80;
#X obj 1108 855 * 0.1;
#X obj 1087 954 s pack;
#X msg 1090 921 98 1 \$1;
#X msg 1053 898 1050;
#X msg 975 921 82 1 \$1;
#X obj 1160 880 +;
#X obj 1160 859 t b b;
#X obj 1159 919 -;
#X obj 1189 880 random 80;
#X obj 1189 901 random 80;
#X obj 1216 859 * 0.1;
#X obj 1195 958 s pack;
#X msg 1198 925 72 1 \$1;
#X msg 1161 902 700;
#X obj 1295 878 +;
#X obj 1295 857 t b b;
#X obj 1294 917 -;
#X obj 1324 878 random 80;
#X obj 1324 899 random 80;
#X obj 1351 857 * 0.1;
#X msg 1296 900 350;
#X obj 1330 956 s pack;
#X msg 1333 923 72 1 \$1;
#X obj 1461 947 s pack;
#X obj 1426 869 +;
#X obj 1426 848 t b b;
#X obj 1425 908 -;
#X obj 1455 869 random 80;
#X obj 1455 890 random 80;
#X obj 1482 848 * 0.1;
#X msg 1464 914 65 1 \$1;
#X obj 1523 867 +;
#X obj 1523 846 t b b;
#X obj 1522 906 -;
#X obj 1552 867 random 80;
#X obj 1552 888 random 80;
#X obj 1579 846 * 0.1;
#X msg 1427 891 700;
#X msg 1524 889 350;
#X obj 1640 869 +;
#X obj 1640 848 t b b;
#X obj 1639 908 -;
#X obj 1669 869 random 80;
#X obj 1669 890 random 80;
#X obj 1696 848 * 0.1;
#X msg 1641 891 350;
#X obj 1675 947 s pack;
#X obj 1747 876 +;
#X obj 1747 855 t b b;
#X obj 1746 915 -;
#X obj 1776 876 random 80;
#X obj 1776 897 random 80;
#X obj 1803 855 * 0.1;
#X msg 1748 898 350;
#X obj 1782 954 s pack;
#X obj 1846 880 +;
#X obj 1846 859 t b b;
#X obj 1845 919 -;
#X obj 1875 880 random 80;
#X obj 1875 901 random 80;
#X obj 1902 859 * 0.1;
#X msg 1847 902 350;
#X obj 1881 958 s pack;
#X obj 1953 889 +;
#X obj 1953 868 t b b;
#X obj 1952 928 -;
#X obj 1982 889 random 80;
#X obj 1982 910 random 80;
#X obj 2009 868 * 0.1;
#X msg 1954 911 1400;
#X obj 1558 945 s pack;
#X msg 1561 912 72 1 \$1;
#X msg 1678 914 82 1 \$1;
#X msg 1783 926 87 1 \$1;
#X msg 1876 934 98 1 \$1;
#X obj 1988 967 s pack2;
#X msg 1991 935 105 110 \$1;
#X msg 548 738 114 110 \$1;
#X msg 960 758 160 130 \$1;
#X obj 393 1186 +;
#X obj 395 1152 t b b;
#X obj 392 1225 -;
#X obj 422 1186 random 80;
#X obj 422 1207 random 80;
#X obj 449 1165 * 0.1;
#X msg 392 1205 350;
#X obj 428 1264 s pack;
#X msg 431 1231 110 1 \$1;
#X obj 519 1187 +;
#X obj 519 1166 t b b;
#X obj 518 1226 -;
#X obj 548 1187 random 80;
#X obj 548 1208 random 80;
#X obj 575 1166 * 0.1;
#X msg 520 1209 350;
#X obj 554 1265 s pack;
#X msg 557 1232 123 1 \$1;
#X obj 652 1191 +;
#X obj 657 1256 -;
#X obj 679 1187 random 80;
#X obj 679 1208 random 80;
#X obj 706 1166 * 0.1;
#X msg 651 1214 1050;
#X obj 706 1251 pack f f;
#X obj 744 1229 + 100;
#X obj 795 1190 +;
#X obj 800 1255 -;
#X obj 822 1186 random 80;
#X obj 822 1207 random 80;
#X obj 849 1165 * 0.1;
#X msg 796 1212 1050;
#X obj 849 1250 pack f f;
#X obj 887 1228 + 100;
#X obj 692 1324 s pack2;
#X obj 835 1323 s pack2;
#X msg 695 1300 \$2 130 \$1;
#X msg 838 1299 \$2 130 \$1;
#X obj 649 1166 t b b;
#X obj 790 1168 t b b;
#X obj 990 1198 +;
#X obj 990 1177 t b b;
#X obj 989 1237 -;
#X obj 1019 1198 random 80;
#X obj 1019 1219 random 80;
#X obj 1046 1177 * 0.1;
#X msg 991 1220 350;
#X obj 1107 1200 +;
#X obj 1107 1179 t b b;
#X obj 1106 1239 -;
#X obj 1136 1200 random 80;
#X obj 1136 1221 random 80;
#X obj 1163 1179 * 0.1;
#X msg 1108 1222 350;
#X obj 1142 1278 s pack;
#X obj 1214 1207 +;
#X obj 1214 1186 t b b;
#X obj 1213 1246 -;
#X obj 1243 1207 random 80;
#X obj 1243 1228 random 80;
#X obj 1270 1186 * 0.1;
#X msg 1215 1229 350;
#X obj 1313 1211 +;
#X obj 1313 1190 t b b;
#X obj 1312 1250 -;
#X obj 1342 1211 random 80;
#X obj 1342 1232 random 80;
#X obj 1369 1190 * 0.1;
#X msg 1314 1233 350;
#X obj 1025 1276 s pack;
#X obj 1436 1212 +;
#X obj 1436 1191 t b b;
#X obj 1435 1251 -;
#X obj 1465 1212 random 80;
#X obj 1465 1233 random 80;
#X obj 1492 1191 * 0.1;
#X msg 1437 1234 350;
#X obj 1580 1216 +;
#X obj 1580 1195 t b b;
#X obj 1579 1255 -;
#X obj 1609 1216 random 80;
#X obj 1609 1237 random 80;
#X obj 1636 1195 * 0.1;
#X msg 1581 1238 350;
#X obj 1615 1294 s pack;
#X msg 1028 1243 130 1 \$1;
#X msg 1145 1245 123 1 \$1;
#X msg 1618 1261 98 1 \$1;
#X obj 1702 1183 +;
#X obj 1707 1248 -;
#X obj 1729 1179 random 80;
#X obj 1729 1200 random 80;
#X obj 1756 1158 * 0.1;
#X msg 1701 1206 1050;
#X obj 1756 1243 pack f f;
#X obj 1845 1182 +;
#X obj 1850 1247 -;
#X obj 1872 1178 random 80;
#X obj 1872 1199 random 80;
#X obj 1899 1157 * 0.1;
#X msg 1846 1204 1050;
#X obj 1899 1242 pack f f;
#X obj 1742 1316 s pack2;
#X obj 1885 1315 s pack2;
#X obj 1699 1158 t b b;
#X obj 1840 1160 t b b;
#X obj 1986 1180 +;
#X obj 1991 1245 -;
#X obj 2013 1176 random 80;
#X obj 2013 1197 random 80;
#X obj 2040 1155 * 0.1;
#X obj 2040 1240 pack f f;
#X obj 2078 1218 + 100;
#X obj 2026 1313 s pack2;
#X msg 2029 1289 \$2 130 \$1;
#X obj 1981 1158 t b b;
#X obj 176 1071 select 0 1 2 3 4 5 6 7 8 9 10 11 12 13 14 15 16 17
18 19 20 21 22 23 24 25 26 27 28 29 30 31 32 33 34 35 36 37 38 39 40
41 42 43 44 45 46 47 48 49 50 51 52 53 54 55 56 57 58 59, f 182;
#X msg 1987 1202 2100;
#X msg 1745 1292 \$2 110 \$1;
#X msg 1888 1291 \$2 123 \$1;
#X obj 1794 1221 + 80;
#X obj 1937 1220 + 93;
#X obj 825 1227 random 40;
#X obj 681 1229 random 40;
#X obj 1731 1221 random 40;
#X obj 1874 1220 random 40;
#X obj 2015 1218 random 40;
#X obj 1471 1290 s pack;
#X msg 1468 1266 91 1 \$1;
#X obj 1349 1290 s pack;
#X msg 1343 1265 98 1 \$1;
#X obj 1249 1285 s pack;
#X msg 1250 1257 110 1 \$1;
#X connect 0 1 1 0;
#X connect 1 0 2 0;
#X connect 2 0 3 0;
#X connect 3 0 4 0;
#X connect 3 0 5 0;
#X connect 4 0 3 1;
#X connect 5 0 549 0;
#X connect 6 0 3 0;
#X connect 7 0 6 0;
#X connect 8 0 3 0;
#X connect 9 0 8 0;
#X connect 11 0 13 0;
#X connect 12 0 26 0;
#X connect 12 1 14 0;
#X connect 12 1 15 0;
#X connect 13 0 17 0;
#X connect 14 0 11 1;
#X connect 15 0 13 1;
#X connect 16 0 14 1;
#X connect 16 0 15 1;
#X connect 17 0 10 0;
#X connect 17 0 0 0;
#X connect 18 0 20 0;
#X connect 19 0 27 0;
#X connect 19 1 21 0;
#X connect 19 1 22 0;
#X connect 20 0 25 0;
#X connect 21 0 18 1;
#X connect 22 0 20 1;
#X connect 23 0 21 1;
#X connect 23 0 22 1;
#X connect 25 0 0 0;
#X connect 25 0 24 0;
#X connect 26 0 11 0;
#X connect 26 0 16 0;
#X connect 27 0 18 0;
#X connect 27 0 23 0;
#X connect 28 0 30 0;
#X connect 29 0 34 0;
#X connect 29 1 31 0;
#X connect 29 1 32 0;
#X connect 30 0 36 0;
#X connect 31 0 28 1;
#X connect 32 0 30 1;
#X connect 33 0 31 1;
#X connect 33 0 32 1;
#X connect 34 0 28 0;
#X connect 34 0 33 0;
#X connect 36 0 0 0;
#X connect 36 0 35 0;
#X connect 37 0 39 0;
#X connect 38 0 43 0;
#X connect 38 1 40 0;
#X connect 38 1 41 0;
#X connect 39 0 53 0;
#X connect 40 0 37 1;
#X connect 41 0 39 1;
#X connect 42 0 40 1;
#X connect 42 0 41 1;
#X connect 43 0 37 0;
#X connect 43 0 42 0;
#X connect 45 0 47 0;
#X connect 46 0 51 0;
#X connect 46 1 48 0;
#X connect 46 1 49 0;
#X connect 47 0 63 0;
#X connect 48 0 45 1;
#X connect 49 0 47 1;
#X connect 50 0 48 1;
#X connect 50 0 49 1;
#X connect 51 0 45 0;
#X connect 51 0 50 0;
#X connect 53 0 44 0;
#X connect 53 0 0 0;
#X connect 54 0 56 0;
#X connect 55 0 62 0;
#X connect 55 1 57 0;
#X connect 55 1 58 0;
#X connect 56 0 61 0;
#X connect 57 0 54 1;
#X connect 58 0 56 1;
#X connect 59 0 57 1;
#X connect 59 0 58 1;
#X connect 61 0 60 0;
#X connect 61 0 0 0;
#X connect 62 0 54 0;
#X connect 62 0 59 0;
#X connect 63 0 52 0;
#X connect 63 0 0 0;
#X connect 64 0 66 0;
#X connect 65 0 71 0;
#X connect 65 1 67 0;
#X connect 65 1 68 0;
#X connect 66 0 72 0;
#X connect 67 0 64 1;
#X connect 68 0 66 1;
#X connect 69 0 67 1;
#X connect 69 0 68 1;
#X connect 71 0 64 0;
#X connect 71 0 69 0;
#X connect 72 0 70 0;
#X connect 72 0 0 0;
#X connect 74 0 76 0;
#X connect 75 0 89 0;
#X connect 75 1 77 0;
#X connect 75 1 78 0;
#X connect 76 0 80 0;
#X connect 77 0 74 1;
#X connect 78 0 76 1;
#X connect 79 0 77 1;
#X connect 79 0 78 1;
#X connect 80 0 73 0;
#X connect 80 0 0 0;
#X connect 81 0 83 0;
#X connect 82 0 90 0;
#X connect 82 1 84 0;
#X connect 82 1 85 0;
#X connect 83 0 88 0;
#X connect 84 0 81 1;
#X connect 85 0 83 1;
#X connect 86 0 84 1;
#X connect 86 0 85 1;
#X connect 88 0 87 0;
#X connect 88 0 0 0;
#X connect 89 0 74 0;
#X connect 89 0 79 0;
#X connect 90 0 81 0;
#X connect 90 0 86 0;
#X connect 91 0 93 0;
#X connect 92 0 97 0;
#X connect 92 1 94 0;
#X connect 92 1 95 0;
#X connect 93 0 99 0;
#X connect 94 0 91 1;
#X connect 95 0 93 1;
#X connect 96 0 94 1;
#X connect 96 0 95 1;
#X connect 97 0 91 0;
#X connect 97 0 96 0;
#X connect 99 0 98 0;
#X connect 99 0 0 0;
#X connect 100 0 102 0;
#X connect 101 0 106 0;
#X connect 101 1 103 0;
#X connect 101 1 104 0;
#X connect 102 0 116 0;
#X connect 103 0 100 1;
#X connect 104 0 102 1;
#X connect 105 0 103 1;
#X connect 105 0 104 1;
#X connect 106 0 100 0;
#X connect 106 0 105 0;
#X connect 108 0 110 0;
#X connect 109 0 114 0;
#X connect 109 1 111 0;
#X connect 109 1 112 0;
#X connect 110 0 123 0;
#X connect 111 0 108 1;
#X connect 112 0 110 1;
#X connect 113 0 111 1;
#X connect 113 0 112 1;
#X connect 114 0 108 0;
#X connect 114 0 113 0;
#X connect 116 0 107 0;
#X connect 116 0 0 0;
#X connect 117 0 119 0;
#X connect 118 0 124 0;
#X connect 118 1 120 0;
#X connect 118 1 121 0;
#X connect 119 0 126 0;
#X connect 120 0 117 1;
#X connect 121 0 119 1;
#X connect 122 0 120 1;
#X connect 122 0 121 1;
#X connect 123 0 115 0;
#X connect 123 0 0 0;
#X connect 124 0 117 0;
#X connect 124 0 122 0;
#X connect 126 0 0 0;
#X connect 126 0 125 0;
#X connect 127 0 129 0;
#X connect 128 0 133 0;
#X connect 128 1 130 0;
#X connect 128 1 131 0;
#X connect 129 0 135 0;
#X connect 130 0 127 1;
#X connect 131 0 129 1;
#X connect 132 0 130 1;
#X connect 132 0 131 1;
#X connect 133 0 127 0;
#X connect 133 0 132 0;
#X connect 135 0 134 0;
#X connect 135 0 0 0;
#X connect 136 0 138 0;
#X connect 137 0 142 0;
#X connect 137 1 139 0;
#X connect 137 1 140 0;
#X connect 138 0 144 0;
#X connect 139 0 136 1;
#X connect 140 0 138 1;
#X connect 141 0 139 1;
#X connect 141 0 140 1;
#X connect 142 0 136 0;
#X connect 142 0 141 0;
#X connect 144 0 143 0;
#X connect 144 0 0 0;
#X connect 145 0 147 0;
#X connect 146 0 151 0;
#X connect 146 1 148 0;
#X connect 146 1 149 0;
#X connect 147 0 153 0;
#X connect 148 0 145 1;
#X connect 149 0 147 1;
#X connect 150 0 148 1;
#X connect 150 0 149 1;
#X connect 151 0 145 0;
#X connect 151 0 150 0;
#X connect 153 0 152 0;
#X connect 153 0 0 0;
#X connect 154 0 156 0;
#X connect 155 0 160 0;
#X connect 155 1 157 0;
#X connect 155 1 158 0;
#X connect 156 0 178 0;
#X connect 157 0 154 1;
#X connect 158 0 156 1;
#X connect 159 0 157 1;
#X connect 159 0 158 1;
#X connect 160 0 154 0;
#X connect 160 0 159 0;
#X connect 162 0 164 0;
#X connect 163 0 168 0;
#X connect 163 1 165 0;
#X connect 163 1 166 0;
#X connect 164 0 179 0;
#X connect 165 0 162 1;
#X connect 166 0 164 1;
#X connect 167 0 165 1;
#X connect 167 0 166 1;
#X connect 168 0 162 0;
#X connect 168 0 167 0;
#X connect 170 0 172 0;
#X connect 171 0 176 0;
#X connect 171 1 173 0;
#X connect 171 1 174 0;
#X connect 172 0 180 0;
#X connect 173 0 170 1;
#X connect 174 0 172 1;
#X connect 175 0 173 1;
#X connect 175 0 174 1;
#X connect 176 0 170 0;
#X connect 176 0 175 0;
#X connect 178 0 161 0;
#X connect 178 0 0 0;
#X connect 179 0 169 0;
#X connect 179 0 0 0;
#X connect 180 0 177 0;
#X connect 180 0 0 0;
#X connect 181 0 183 0;
#X connect 182 0 202 0;
#X connect 182 1 184 0;
#X connect 182 1 185 0;
#X connect 183 0 204 0;
#X connect 184 0 181 1;
#X connect 185 0 183 1;
#X connect 186 0 184 1;
#X connect 186 0 185 1;
#X connect 187 0 189 0;
#X connect 188 0 193 0;
#X connect 188 1 190 0;
#X connect 188 1 191 0;
#X connect 189 0 207 0;
#X connect 190 0 187 1;
#X connect 191 0 189 1;
#X connect 192 0 190 1;
#X connect 192 0 191 1;
#X connect 193 0 187 0;
#X connect 193 0 192 0;
#X connect 195 0 197 0;
#X connect 196 0 206 0;
#X connect 196 1 198 0;
#X connect 196 1 199 0;
#X connect 197 0 205 0;
#X connect 198 0 195 1;
#X connect 199 0 197 1;
#X connect 200 0 198 1;
#X connect 200 0 199 1;
#X connect 202 0 181 0;
#X connect 202 0 186 0;
#X connect 204 0 0 0;
#X connect 204 0 203 0;
#X connect 205 0 201 0;
#X connect 205 0 0 0;
#X connect 206 0 195 0;
#X connect 206 0 200 0;
#X connect 207 0 194 0;
#X connect 207 0 0 0;
#X connect 208 0 210 0;
#X connect 209 0 220 0;
#X connect 209 1 211 0;
#X connect 209 1 212 0;
#X connect 210 0 431 0;
#X connect 211 0 208 1;
#X connect 212 0 210 1;
#X connect 213 0 211 1;
#X connect 213 0 212 1;
#X connect 214 0 216 0;
#X connect 215 0 221 0;
#X connect 215 1 217 0;
#X connect 215 1 218 0;
#X connect 216 0 247 0;
#X connect 217 0 214 1;
#X connect 218 0 216 1;
#X connect 219 0 217 1;
#X connect 219 0 218 1;
#X connect 220 0 208 0;
#X connect 220 0 213 0;
#X connect 221 0 214 0;
#X connect 221 0 219 0;
#X connect 222 0 224 0;
#X connect 223 0 228 0;
#X connect 223 1 225 0;
#X connect 223 1 226 0;
#X connect 224 0 230 0;
#X connect 225 0 222 1;
#X connect 226 0 224 1;
#X connect 227 0 225 1;
#X connect 227 0 226 1;
#X connect 228 0 222 0;
#X connect 228 0 227 0;
#X connect 230 0 229 0;
#X connect 230 0 0 0;
#X connect 231 0 233 0;
#X connect 232 0 237 0;
#X connect 232 1 234 0;
#X connect 232 1 235 0;
#X connect 233 0 249 0;
#X connect 234 0 231 1;
#X connect 235 0 233 1;
#X connect 236 0 234 1;
#X connect 236 0 235 1;
#X connect 237 0 231 0;
#X connect 237 0 236 0;
#X connect 238 0 240 0;
#X connect 239 0 244 0;
#X connect 239 1 241 0;
#X connect 239 1 242 0;
#X connect 240 0 432 0;
#X connect 241 0 238 1;
#X connect 242 0 240 1;
#X connect 243 0 241 1;
#X connect 243 0 242 1;
#X connect 244 0 238 0;
#X connect 244 0 243 0;
#X connect 247 0 0 0;
#X connect 247 0 246 0;
#X connect 249 0 0 0;
#X connect 249 0 248 0;
#X connect 251 0 253 0;
#X connect 252 0 257 0;
#X connect 252 1 254 0;
#X connect 252 1 255 0;
#X connect 253 0 259 0;
#X connect 254 0 251 1;
#X connect 255 0 253 1;
#X connect 256 0 254 1;
#X connect 256 0 255 1;
#X connect 257 0 251 0;
#X connect 257 0 256 0;
#X connect 259 0 258 0;
#X connect 259 0 0 0;
#X connect 260 0 262 0;
#X connect 261 0 266 0;
#X connect 261 1 263 0;
#X connect 261 1 264 0;
#X connect 262 0 300 0;
#X connect 263 0 260 1;
#X connect 264 0 262 1;
#X connect 265 0 263 1;
#X connect 265 0 264 1;
#X connect 266 0 260 0;
#X connect 266 0 265 0;
#X connect 267 0 269 0;
#X connect 268 0 273 0;
#X connect 268 1 270 0;
#X connect 268 1 271 0;
#X connect 269 0 301 0;
#X connect 270 0 267 1;
#X connect 271 0 269 1;
#X connect 272 0 270 1;
#X connect 272 0 271 1;
#X connect 273 0 267 0;
#X connect 273 0 272 0;
#X connect 276 0 278 0;
#X connect 277 0 282 0;
#X connect 277 1 279 0;
#X connect 277 1 280 0;
#X connect 278 0 302 0;
#X connect 279 0 276 1;
#X connect 280 0 278 1;
#X connect 281 0 279 1;
#X connect 281 0 280 1;
#X connect 282 0 276 0;
#X connect 282 0 281 0;
#X connect 283 0 285 0;
#X connect 284 0 289 0;
#X connect 284 1 286 0;
#X connect 284 1 287 0;
#X connect 285 0 303 0;
#X connect 286 0 283 1;
#X connect 287 0 285 1;
#X connect 288 0 286 1;
#X connect 288 0 287 1;
#X connect 289 0 283 0;
#X connect 289 0 288 0;
#X connect 292 0 294 0;
#X connect 293 0 298 0;
#X connect 293 1 295 0;
#X connect 293 1 296 0;
#X connect 294 0 304 0;
#X connect 295 0 292 1;
#X connect 296 0 294 1;
#X connect 297 0 295 1;
#X connect 297 0 296 1;
#X connect 298 0 292 0;
#X connect 298 0 297 0;
#X connect 300 0 275 0;
#X connect 300 0 0 0;
#X connect 301 0 274 0;
#X connect 301 0 0 0;
#X connect 302 0 291 0;
#X connect 302 0 0 0;
#X connect 303 0 290 0;
#X connect 303 0 0 0;
#X connect 304 0 299 0;
#X connect 304 0 0 0;
#X connect 306 0 308 0;
#X connect 307 0 321 0;
#X connect 307 1 309 0;
#X connect 307 1 310 0;
#X connect 308 0 312 0;
#X connect 309 0 306 1;
#X connect 310 0 308 1;
#X connect 311 0 309 1;
#X connect 311 0 310 1;
#X connect 312 0 305 0;
#X connect 312 0 0 0;
#X connect 313 0 315 0;
#X connect 314 0 322 0;
#X connect 314 1 316 0;
#X connect 314 1 317 0;
#X connect 315 0 320 0;
#X connect 316 0 313 1;
#X connect 317 0 315 1;
#X connect 318 0 316 1;
#X connect 318 0 317 1;
#X connect 320 0 319 0;
#X connect 320 0 0 0;
#X connect 321 0 306 0;
#X connect 321 0 311 0;
#X connect 322 0 313 0;
#X connect 322 0 318 0;
#X connect 323 0 325 0;
#X connect 324 0 329 0;
#X connect 324 1 326 0;
#X connect 324 1 327 0;
#X connect 325 0 331 0;
#X connect 326 0 323 1;
#X connect 327 0 325 1;
#X connect 328 0 326 1;
#X connect 328 0 327 1;
#X connect 329 0 323 0;
#X connect 329 0 328 0;
#X connect 331 0 330 0;
#X connect 331 0 0 0;
#X connect 332 0 334 0;
#X connect 333 0 338 0;
#X connect 333 1 335 0;
#X connect 333 1 336 0;
#X connect 334 0 348 0;
#X connect 335 0 332 1;
#X connect 336 0 334 1;
#X connect 337 0 335 1;
#X connect 337 0 336 1;
#X connect 338 0 332 0;
#X connect 338 0 337 0;
#X connect 340 0 342 0;
#X connect 341 0 346 0;
#X connect 341 1 343 0;
#X connect 341 1 344 0;
#X connect 342 0 358 0;
#X connect 343 0 340 1;
#X connect 344 0 342 1;
#X connect 345 0 343 1;
#X connect 345 0 344 1;
#X connect 346 0 340 0;
#X connect 346 0 345 0;
#X connect 348 0 339 0;
#X connect 348 0 0 0;
#X connect 349 0 351 0;
#X connect 350 0 357 0;
#X connect 350 1 352 0;
#X connect 350 1 353 0;
#X connect 351 0 356 0;
#X connect 352 0 349 1;
#X connect 353 0 351 1;
#X connect 354 0 352 1;
#X connect 354 0 353 1;
#X connect 356 0 355 0;
#X connect 356 0 0 0;
#X connect 357 0 349 0;
#X connect 357 0 354 0;
#X connect 358 0 347 0;
#X connect 358 0 0 0;
#X connect 359 0 361 0;
#X connect 360 0 367 0;
#X connect 360 1 362 0;
#X connect 360 1 363 0;
#X connect 361 0 366 0;
#X connect 362 0 359 1;
#X connect 363 0 361 1;
#X connect 364 0 362 1;
#X connect 364 0 363 1;
#X connect 366 0 365 0;
#X connect 366 0 0 0;
#X connect 367 0 359 0;
#X connect 367 0 364 0;
#X connect 368 0 370 0;
#X connect 369 0 374 0;
#X connect 369 1 371 0;
#X connect 369 1 372 0;
#X connect 370 0 376 0;
#X connect 371 0 368 1;
#X connect 372 0 370 1;
#X connect 373 0 371 1;
#X connect 373 0 372 1;
#X connect 374 0 368 0;
#X connect 374 0 373 0;
#X connect 376 0 375 0;
#X connect 376 0 0 0;
#X connect 378 0 380 0;
#X connect 379 0 391 0;
#X connect 379 1 381 0;
#X connect 379 1 382 0;
#X connect 380 0 384 0;
#X connect 381 0 378 1;
#X connect 382 0 380 1;
#X connect 383 0 381 1;
#X connect 383 0 382 1;
#X connect 384 0 377 0;
#X connect 384 0 0 0;
#X connect 385 0 387 0;
#X connect 386 0 392 0;
#X connect 386 1 388 0;
#X connect 386 1 389 0;
#X connect 387 0 425 0;
#X connect 388 0 385 1;
#X connect 389 0 387 1;
#X connect 390 0 388 1;
#X connect 390 0 389 1;
#X connect 391 0 378 0;
#X connect 391 0 383 0;
#X connect 392 0 385 0;
#X connect 392 0 390 0;
#X connect 393 0 395 0;
#X connect 394 0 399 0;
#X connect 394 1 396 0;
#X connect 394 1 397 0;
#X connect 395 0 426 0;
#X connect 396 0 393 1;
#X connect 397 0 395 1;
#X connect 398 0 396 1;
#X connect 398 0 397 1;
#X connect 399 0 393 0;
#X connect 399 0 398 0;
#X connect 401 0 403 0;
#X connect 402 0 407 0;
#X connect 402 1 404 0;
#X connect 402 1 405 0;
#X connect 403 0 427 0;
#X connect 404 0 401 1;
#X connect 405 0 403 1;
#X connect 406 0 404 1;
#X connect 406 0 405 1;
#X connect 407 0 401 0;
#X connect 407 0 406 0;
#X connect 409 0 411 0;
#X connect 410 0 415 0;
#X connect 410 1 412 0;
#X connect 410 1 413 0;
#X connect 411 0 428 0;
#X connect 412 0 409 1;
#X connect 413 0 411 1;
#X connect 414 0 412 1;
#X connect 414 0 413 1;
#X connect 415 0 409 0;
#X connect 415 0 414 0;
#X connect 417 0 419 0;
#X connect 418 0 423 0;
#X connect 418 1 420 0;
#X connect 418 1 421 0;
#X connect 419 0 430 0;
#X connect 420 0 417 1;
#X connect 421 0 419 1;
#X connect 422 0 420 1;
#X connect 422 0 421 1;
#X connect 423 0 417 0;
#X connect 423 0 422 0;
#X connect 425 0 0 0;
#X connect 425 0 424 0;
#X connect 426 0 400 0;
#X connect 426 0 0 0;
#X connect 427 0 408 0;
#X connect 427 0 0 0;
#X connect 428 0 416 0;
#X connect 428 0 0 0;
#X connect 430 0 0 0;
#X connect 430 0 429 0;
#X connect 431 0 0 0;
#X connect 431 0 245 0;
#X connect 432 0 0 0;
#X connect 432 0 250 0;
#X connect 433 0 435 0;
#X connect 434 0 439 0;
#X connect 434 1 436 0;
#X connect 434 1 437 0;
#X connect 435 0 441 0;
#X connect 436 0 433 1;
#X connect 437 0 435 1;
#X connect 438 0 436 1;
#X connect 438 0 437 1;
#X connect 439 0 433 0;
#X connect 439 0 438 0;
#X connect 441 0 440 0;
#X connect 441 0 0 0;
#X connect 442 0 444 0;
#X connect 443 0 448 0;
#X connect 443 1 445 0;
#X connect 443 1 446 0;
#X connect 444 0 450 0;
#X connect 445 0 442 1;
#X connect 446 0 444 1;
#X connect 447 0 445 1;
#X connect 447 0 446 1;
#X connect 448 0 442 0;
#X connect 448 0 447 0;
#X connect 450 0 449 0;
#X connect 450 0 0 0;
#X connect 451 0 452 0;
#X connect 452 0 457 0;
#X connect 453 0 451 1;
#X connect 454 0 452 1;
#X connect 455 0 453 1;
#X connect 455 0 454 1;
#X connect 456 0 451 0;
#X connect 456 0 455 0;
#X connect 457 0 469 0;
#X connect 458 0 457 1;
#X connect 459 0 460 0;
#X connect 460 0 465 0;
#X connect 461 0 459 1;
#X connect 462 0 460 1;
#X connect 463 0 461 1;
#X connect 463 0 462 1;
#X connect 464 0 459 0;
#X connect 464 0 463 0;
#X connect 465 0 470 0;
#X connect 466 0 465 1;
#X connect 469 0 0 0;
#X connect 469 0 467 0;
#X connect 470 0 0 0;
#X connect 470 0 468 0;
#X connect 471 0 456 0;
#X connect 471 1 453 0;
#X connect 471 1 454 0;
#X connect 471 1 556 0;
#X connect 472 0 464 0;
#X connect 472 1 461 0;
#X connect 472 1 462 0;
#X connect 472 1 555 0;
#X connect 473 0 475 0;
#X connect 474 0 479 0;
#X connect 474 1 476 0;
#X connect 474 1 477 0;
#X connect 475 0 518 0;
#X connect 476 0 473 1;
#X connect 477 0 475 1;
#X connect 478 0 476 1;
#X connect 478 0 477 1;
#X connect 479 0 473 0;
#X connect 479 0 478 0;
#X connect 480 0 482 0;
#X connect 481 0 486 0;
#X connect 481 1 483 0;
#X connect 481 1 484 0;
#X connect 482 0 519 0;
#X connect 483 0 480 1;
#X connect 484 0 482 1;
#X connect 485 0 483 1;
#X connect 485 0 484 1;
#X connect 486 0 480 0;
#X connect 486 0 485 0;
#X connect 488 0 490 0;
#X connect 489 0 494 0;
#X connect 489 1 491 0;
#X connect 489 1 492 0;
#X connect 490 0 565 0;
#X connect 491 0 488 1;
#X connect 492 0 490 1;
#X connect 493 0 491 1;
#X connect 493 0 492 1;
#X connect 494 0 488 0;
#X connect 494 0 493 0;
#X connect 495 0 497 0;
#X connect 496 0 501 0;
#X connect 496 1 498 0;
#X connect 496 1 499 0;
#X connect 497 0 563 0;
#X connect 498 0 495 1;
#X connect 499 0 497 1;
#X connect 500 0 498 1;
#X connect 500 0 499 1;
#X connect 501 0 495 0;
#X connect 501 0 500 0;
#X connect 503 0 505 0;
#X connect 504 0 509 0;
#X connect 504 1 506 0;
#X connect 504 1 507 0;
#X connect 505 0 561 0;
#X connect 506 0 503 1;
#X connect 507 0 505 1;
#X connect 508 0 506 1;
#X connect 508 0 507 1;
#X connect 509 0 503 0;
#X connect 509 0 508 0;
#X connect 510 0 512 0;
#X connect 511 0 516 0;
#X connect 511 1 513 0;
#X connect 511 1 514 0;
#X connect 512 0 520 0;
#X connect 513 0 510 1;
#X connect 514 0 512 1;
#X connect 515 0 513 1;
#X connect 515 0 514 1;
#X connect 516 0 510 0;
#X connect 516 0 515 0;
#X connect 518 0 502 0;
#X connect 518 0 0 0;
#X connect 519 0 487 0;
#X connect 519 0 0 0;
#X connect 520 0 517 0;
#X connect 520 0 0 0;
#X connect 521 0 522 0;
#X connect 522 0 527 0;
#X connect 523 0 521 1;
#X connect 524 0 522 1;
#X connect 525 0 523 1;
#X connect 525 0 524 1;
#X connect 526 0 521 0;
#X connect 526 0 525 0;
#X connect 527 0 551 0;
#X connect 528 0 529 0;
#X connect 529 0 534 0;
#X connect 530 0 528 1;
#X connect 531 0 529 1;
#X connect 532 0 530 1;
#X connect 532 0 531 1;
#X connect 533 0 528 0;
#X connect 533 0 532 0;
#X connect 534 0 552 0;
#X connect 537 0 526 0;
#X connect 537 1 523 0;
#X connect 537 1 524 0;
#X connect 537 1 557 0;
#X connect 538 0 533 0;
#X connect 538 1 530 0;
#X connect 538 1 531 0;
#X connect 538 1 558 0;
#X connect 539 0 540 0;
#X connect 540 0 544 0;
#X connect 541 0 539 1;
#X connect 542 0 540 1;
#X connect 543 0 541 1;
#X connect 543 0 542 1;
#X connect 544 0 547 0;
#X connect 545 0 544 1;
#X connect 547 0 546 0;
#X connect 547 0 0 0;
#X connect 548 0 550 0;
#X connect 548 1 541 0;
#X connect 548 1 542 0;
#X connect 548 1 559 0;
#X connect 549 0 12 0;
#X connect 549 1 19 0;
#X connect 549 2 29 0;
#X connect 549 3 38 0;
#X connect 549 4 46 0;
#X connect 549 5 55 0;
#X connect 549 6 65 0;
#X connect 549 7 75 0;
#X connect 549 8 82 0;
#X connect 549 9 92 0;
#X connect 549 10 101 0;
#X connect 549 11 109 0;
#X connect 549 12 118 0;
#X connect 549 13 128 0;
#X connect 549 14 137 0;
#X connect 549 15 146 0;
#X connect 549 16 155 0;
#X connect 549 17 163 0;
#X connect 549 18 171 0;
#X connect 549 19 182 0;
#X connect 549 20 188 0;
#X connect 549 21 196 0;
#X connect 549 22 209 0;
#X connect 549 23 215 0;
#X connect 549 24 223 0;
#X connect 549 25 232 0;
#X connect 549 26 239 0;
#X connect 549 27 252 0;
#X connect 549 28 261 0;
#X connect 549 29 268 0;
#X connect 549 30 277 0;
#X connect 549 31 284 0;
#X connect 549 32 293 0;
#X connect 549 33 307 0;
#X connect 549 34 314 0;
#X connect 549 35 324 0;
#X connect 549 36 333 0;
#X connect 549 37 341 0;
#X connect 549 38 350 0;
#X connect 549 39 360 0;
#X connect 549 40 369 0;
#X connect 549 41 379 0;
#X connect 549 42 386 0;
#X connect 549 43 394 0;
#X connect 549 44 402 0;
#X connect 549 45 410 0;
#X connect 549 46 418 0;
#X connect 549 47 434 0;
#X connect 549 48 443 0;
#X connect 549 49 471 0;
#X connect 549 50 472 0;
#X connect 549 51 474 0;
#X connect 549 52 481 0;
#X connect 549 53 489 0;
#X connect 549 54 496 0;
#X connect 549 55 504 0;
#X connect 549 56 511 0;
#X connect 549 57 537 0;
#X connect 549 58 538 0;
#X connect 549 59 548 0;
#X connect 550 0 539 0;
#X connect 550 0 543 0;
#X connect 551 0 535 0;
#X connect 551 0 0 0;
#X connect 552 0 536 0;
#X connect 552 0 0 0;
#X connect 553 0 527 1;
#X connect 554 0 534 1;
#X connect 555 0 466 0;
#X connect 556 0 458 0;
#X connect 557 0 553 0;
#X connect 558 0 554 0;
#X connect 559 0 545 0;
#X connect 561 0 0 0;
#X connect 561 0 560 0;
#X connect 563 0 0 0;
#X connect 563 0 562 0;
#X connect 565 0 0 0;
#X connect 565 0 564 0;
