#N canvas 0 50 1916 997 10;
#X obj 168 310 makenote 1 100;
#X obj 250 341 select 0;
#X obj 250 365 bng 15 250 50 0 empty empty empty 17 7 0 10 -262144
-1 -1;
#X obj 302 364 float;
#X obj 341 365 + 1;
#X floatatom 302 386 5 0 0 0 - - -, f 5;
#X msg 16 363 0;
#X obj 20 322 inlet;
#X msg 72 335 99;
#X obj 68 273 inlet;
#X obj 777 285 s pack;
#X obj 742 207 +;
#X obj 742 186 t b b;
#X obj 741 246 -;
#X obj 771 207 random 80;
#X obj 771 228 random 80;
#X obj 798 186 * 0.1;
#X obj 715 90 select 0 1 2 3 4 5 6 7 8 9 10 11 12 13 14 15 16 17 18
19 20 21 22 23 24, f 134;
#X obj 881 293 s pack;
#X obj 846 215 +;
#X obj 846 194 t b b;
#X obj 845 254 -;
#X obj 875 215 random 80;
#X obj 875 236 random 80;
#X obj 902 194 * 0.1;
#X obj 991 298 s pack;
#X obj 956 220 +;
#X obj 956 199 t b b;
#X obj 955 259 -;
#X obj 985 220 random 80;
#X obj 985 241 random 80;
#X obj 1012 199 * 0.1;
#X msg 743 229 576;
#X msg 847 237 192;
#X msg 957 242 769;
#X obj 1099 297 s pack;
#X obj 1064 219 +;
#X obj 1064 198 t b b;
#X obj 1063 258 -;
#X obj 1093 219 random 80;
#X obj 1093 240 random 80;
#X obj 1120 198 * 0.1;
#X msg 1065 241 769;
#X obj 1200 291 s pack;
#X obj 1165 213 +;
#X obj 1165 192 t b b;
#X obj 1164 252 -;
#X obj 1194 213 random 80;
#X obj 1194 234 random 80;
#X obj 1221 192 * 0.1;
#X msg 1166 235 769;
#X obj 1316 292 s pack;
#X obj 1281 214 +;
#X obj 1281 193 t b b;
#X obj 1280 253 -;
#X obj 1310 214 random 80;
#X obj 1310 235 random 80;
#X obj 1337 193 * 0.1;
#X msg 1282 236 1538;
#X obj 764 440 s pack;
#X obj 729 362 +;
#X obj 729 341 t b b;
#X obj 728 401 -;
#X obj 758 362 random 80;
#X obj 758 383 random 80;
#X obj 785 341 * 0.1;
#X obj 868 448 s pack;
#X obj 833 370 +;
#X obj 833 349 t b b;
#X obj 832 409 -;
#X obj 862 370 random 80;
#X obj 862 391 random 80;
#X obj 889 349 * 0.1;
#X obj 978 453 s pack;
#X obj 943 375 +;
#X obj 943 354 t b b;
#X obj 942 414 -;
#X obj 972 375 random 80;
#X obj 972 396 random 80;
#X obj 999 354 * 0.1;
#X msg 730 384 576;
#X msg 834 392 192;
#X msg 944 397 769;
#X obj 1086 452 s pack;
#X obj 1051 374 +;
#X obj 1051 353 t b b;
#X obj 1050 413 -;
#X obj 1080 374 random 80;
#X obj 1080 395 random 80;
#X obj 1107 353 * 0.1;
#X msg 1052 396 769;
#X obj 1187 446 s pack;
#X obj 1152 368 +;
#X obj 1152 347 t b b;
#X obj 1151 407 -;
#X obj 1181 368 random 80;
#X obj 1181 389 random 80;
#X obj 1208 347 * 0.1;
#X msg 1153 390 769;
#X obj 1303 447 s pack;
#X obj 1268 369 +;
#X obj 1268 348 t b b;
#X obj 1267 408 -;
#X obj 1297 369 random 80;
#X obj 1297 390 random 80;
#X obj 1324 348 * 0.1;
#X msg 1269 391 1538;
#X obj 758 604 s pack;
#X obj 723 526 +;
#X obj 723 505 t b b;
#X obj 722 565 -;
#X obj 752 526 random 80;
#X obj 752 547 random 80;
#X obj 779 505 * 0.1;
#X obj 862 612 s pack;
#X obj 827 534 +;
#X obj 827 513 t b b;
#X obj 826 573 -;
#X obj 856 534 random 80;
#X obj 856 555 random 80;
#X obj 883 513 * 0.1;
#X msg 724 548 576;
#X msg 828 556 192;
#X obj 1080 616 s pack;
#X obj 1045 538 +;
#X obj 1045 517 t b b;
#X obj 1044 577 -;
#X obj 1074 538 random 80;
#X obj 1074 559 random 80;
#X obj 1101 517 * 0.1;
#X msg 1046 560 769;
#X obj 1181 610 s pack;
#X obj 1146 532 +;
#X obj 1146 511 t b b;
#X obj 1145 571 -;
#X obj 1175 532 random 80;
#X obj 1175 553 random 80;
#X obj 1202 511 * 0.1;
#X msg 1147 554 769;
#X obj 1297 611 s pack;
#X obj 1262 533 +;
#X obj 1262 512 t b b;
#X obj 1261 572 -;
#X obj 1291 533 random 80;
#X obj 1291 554 random 80;
#X obj 1318 512 * 0.1;
#X obj 715 734 +;
#X obj 715 713 t b b;
#X obj 714 773 -;
#X obj 744 734 random 80;
#X obj 744 755 random 80;
#X obj 771 713 * 0.1;
#X obj 854 820 s pack;
#X obj 819 742 +;
#X obj 819 721 t b b;
#X obj 818 781 -;
#X obj 848 742 random 80;
#X obj 848 763 random 80;
#X obj 875 721 * 0.1;
#X obj 964 825 s pack;
#X obj 929 747 +;
#X obj 929 726 t b b;
#X obj 928 786 -;
#X obj 958 747 random 80;
#X obj 958 768 random 80;
#X obj 985 726 * 0.1;
#X msg 716 756 576;
#X msg 820 764 192;
#X msg 930 769 769;
#X obj 1072 824 s pack;
#X obj 1037 746 +;
#X obj 1037 725 t b b;
#X obj 1036 785 -;
#X obj 1066 746 random 80;
#X obj 1066 767 random 80;
#X obj 1093 725 * 0.1;
#X msg 1038 768 769;
#X obj 1173 818 s pack;
#X obj 1138 740 +;
#X obj 1138 719 t b b;
#X obj 1137 779 -;
#X obj 1167 740 random 80;
#X obj 1167 761 random 80;
#X obj 1194 719 * 0.1;
#X msg 1139 762 769;
#X obj 1289 819 s pack;
#X obj 1254 741 +;
#X obj 1254 720 t b b;
#X obj 1253 780 -;
#X obj 1283 741 random 80;
#X obj 1283 762 random 80;
#X obj 1310 720 * 0.1;
#X msg 1265 556 769;
#X obj 1397 608 s pack;
#X obj 1362 530 +;
#X obj 1362 509 t b b;
#X obj 1361 569 -;
#X obj 1391 530 random 80;
#X obj 1391 551 random 80;
#X obj 1418 509 * 0.1;
#X msg 1361 551 1538;
#X msg 780 252 65 1 \$1;
#X msg 884 260 65 1 \$1;
#X msg 994 265 74 1 \$1;
#X msg 1102 264 65 1 \$1;
#X msg 1203 258 88 1 \$1;
#X msg 1319 259 82 1 \$1;
#X msg 767 406 65 1 \$1;
#X msg 871 415 65 1 \$1;
#X msg 981 420 74 1 \$1;
#X msg 1090 419 65 1 \$1;
#X msg 1190 413 98 1 \$1;
#X msg 1306 414 87 1 \$1;
#X msg 761 571 65 1 \$1;
#X msg 865 579 65 1 \$1;
#X msg 1083 583 110 1 \$1;
#X msg 1184 577 87 1 \$1;
#X msg 1300 578 82 1 \$1;
#X msg 1400 575 73 1 \$1;
#X msg 857 787 116 1 \$1;
#X msg 967 792 110 1 \$1;
#X msg 1075 791 87 1 \$1;
#X msg 1176 785 98 1 \$1;
#X msg 1292 786 87 1 \$1;
#X msg 1255 763 2000;
#X obj 750 812 s pack2;
#X msg 753 778 100 116 \$1;
#X obj 927 522 +;
#X obj 932 587 -;
#X obj 954 518 random 80;
#X obj 960 539 random 80;
#X obj 981 497 * 0.1;
#X obj 981 582 pack f f;
#X obj 973 630 s pack2;
#X msg 976 606 \$2 130 \$1;
#X obj 926 498 t b b;
#X msg 928 544 769;
#X floatatom 1042 631 5 0 0 0 - - -, f 5;
#X obj 957 559 random 60;
#X obj 1018 555 + 100;
#X connect 0 1 1 0;
#X connect 1 0 2 0;
#X connect 2 0 3 0;
#X connect 3 0 4 0;
#X connect 3 0 5 0;
#X connect 4 0 3 1;
#X connect 5 0 17 0;
#X connect 6 0 3 0;
#X connect 7 0 6 0;
#X connect 8 0 3 0;
#X connect 9 0 8 0;
#X connect 11 0 13 0;
#X connect 12 0 32 0;
#X connect 12 1 14 0;
#X connect 12 1 15 0;
#X connect 13 0 201 0;
#X connect 14 0 11 1;
#X connect 15 0 13 1;
#X connect 16 0 14 1;
#X connect 16 0 15 1;
#X connect 17 0 12 0;
#X connect 17 1 20 0;
#X connect 17 2 27 0;
#X connect 17 3 37 0;
#X connect 17 4 45 0;
#X connect 17 5 53 0;
#X connect 17 6 61 0;
#X connect 17 7 68 0;
#X connect 17 8 75 0;
#X connect 17 9 85 0;
#X connect 17 10 93 0;
#X connect 17 11 101 0;
#X connect 17 12 109 0;
#X connect 17 13 116 0;
#X connect 17 14 235 0;
#X connect 17 15 125 0;
#X connect 17 16 133 0;
#X connect 17 17 141 0;
#X connect 17 18 195 0;
#X connect 17 19 147 0;
#X connect 17 20 154 0;
#X connect 17 21 161 0;
#X connect 17 22 171 0;
#X connect 17 23 179 0;
#X connect 17 24 187 0;
#X connect 19 0 21 0;
#X connect 20 0 33 0;
#X connect 20 1 22 0;
#X connect 20 1 23 0;
#X connect 21 0 202 0;
#X connect 22 0 19 1;
#X connect 23 0 21 1;
#X connect 24 0 22 1;
#X connect 24 0 23 1;
#X connect 26 0 28 0;
#X connect 27 0 34 0;
#X connect 27 1 29 0;
#X connect 27 1 30 0;
#X connect 28 0 203 0;
#X connect 29 0 26 1;
#X connect 30 0 28 1;
#X connect 31 0 29 1;
#X connect 31 0 30 1;
#X connect 32 0 11 0;
#X connect 32 0 16 0;
#X connect 33 0 19 0;
#X connect 33 0 24 0;
#X connect 34 0 26 0;
#X connect 34 0 31 0;
#X connect 36 0 38 0;
#X connect 37 0 42 0;
#X connect 37 1 39 0;
#X connect 37 1 40 0;
#X connect 38 0 204 0;
#X connect 39 0 36 1;
#X connect 40 0 38 1;
#X connect 41 0 39 1;
#X connect 41 0 40 1;
#X connect 42 0 36 0;
#X connect 42 0 41 0;
#X connect 44 0 46 0;
#X connect 45 0 50 0;
#X connect 45 1 47 0;
#X connect 45 1 48 0;
#X connect 46 0 205 0;
#X connect 47 0 44 1;
#X connect 48 0 46 1;
#X connect 49 0 47 1;
#X connect 49 0 48 1;
#X connect 50 0 44 0;
#X connect 50 0 49 0;
#X connect 52 0 54 0;
#X connect 53 0 58 0;
#X connect 53 1 55 0;
#X connect 53 1 56 0;
#X connect 54 0 206 0;
#X connect 55 0 52 1;
#X connect 56 0 54 1;
#X connect 57 0 55 1;
#X connect 57 0 56 1;
#X connect 58 0 52 0;
#X connect 58 0 57 0;
#X connect 60 0 62 0;
#X connect 61 0 80 0;
#X connect 61 1 63 0;
#X connect 61 1 64 0;
#X connect 62 0 207 0;
#X connect 63 0 60 1;
#X connect 64 0 62 1;
#X connect 65 0 63 1;
#X connect 65 0 64 1;
#X connect 67 0 69 0;
#X connect 68 0 81 0;
#X connect 68 1 70 0;
#X connect 68 1 71 0;
#X connect 69 0 208 0;
#X connect 70 0 67 1;
#X connect 71 0 69 1;
#X connect 72 0 70 1;
#X connect 72 0 71 1;
#X connect 74 0 76 0;
#X connect 75 0 82 0;
#X connect 75 1 77 0;
#X connect 75 1 78 0;
#X connect 76 0 209 0;
#X connect 77 0 74 1;
#X connect 78 0 76 1;
#X connect 79 0 77 1;
#X connect 79 0 78 1;
#X connect 80 0 60 0;
#X connect 80 0 65 0;
#X connect 81 0 67 0;
#X connect 81 0 72 0;
#X connect 82 0 74 0;
#X connect 82 0 79 0;
#X connect 84 0 86 0;
#X connect 85 0 90 0;
#X connect 85 1 87 0;
#X connect 85 1 88 0;
#X connect 86 0 210 0;
#X connect 87 0 84 1;
#X connect 88 0 86 1;
#X connect 89 0 87 1;
#X connect 89 0 88 1;
#X connect 90 0 84 0;
#X connect 90 0 89 0;
#X connect 92 0 94 0;
#X connect 93 0 98 0;
#X connect 93 1 95 0;
#X connect 93 1 96 0;
#X connect 94 0 211 0;
#X connect 95 0 92 1;
#X connect 96 0 94 1;
#X connect 97 0 95 1;
#X connect 97 0 96 1;
#X connect 98 0 92 0;
#X connect 98 0 97 0;
#X connect 100 0 102 0;
#X connect 101 0 106 0;
#X connect 101 1 103 0;
#X connect 101 1 104 0;
#X connect 102 0 212 0;
#X connect 103 0 100 1;
#X connect 104 0 102 1;
#X connect 105 0 103 1;
#X connect 105 0 104 1;
#X connect 106 0 100 0;
#X connect 106 0 105 0;
#X connect 108 0 110 0;
#X connect 109 0 121 0;
#X connect 109 1 111 0;
#X connect 109 1 112 0;
#X connect 110 0 213 0;
#X connect 111 0 108 1;
#X connect 112 0 110 1;
#X connect 113 0 111 1;
#X connect 113 0 112 1;
#X connect 115 0 117 0;
#X connect 116 0 122 0;
#X connect 116 1 118 0;
#X connect 116 1 119 0;
#X connect 117 0 214 0;
#X connect 118 0 115 1;
#X connect 119 0 117 1;
#X connect 120 0 118 1;
#X connect 120 0 119 1;
#X connect 121 0 108 0;
#X connect 121 0 113 0;
#X connect 122 0 115 0;
#X connect 122 0 120 0;
#X connect 124 0 126 0;
#X connect 125 0 130 0;
#X connect 125 1 127 0;
#X connect 125 1 128 0;
#X connect 126 0 215 0;
#X connect 127 0 124 1;
#X connect 128 0 126 1;
#X connect 129 0 127 1;
#X connect 129 0 128 1;
#X connect 130 0 124 0;
#X connect 130 0 129 0;
#X connect 132 0 134 0;
#X connect 133 0 138 0;
#X connect 133 1 135 0;
#X connect 133 1 136 0;
#X connect 134 0 216 0;
#X connect 135 0 132 1;
#X connect 136 0 134 1;
#X connect 137 0 135 1;
#X connect 137 0 136 1;
#X connect 138 0 132 0;
#X connect 138 0 137 0;
#X connect 140 0 142 0;
#X connect 141 0 192 0;
#X connect 141 1 143 0;
#X connect 141 1 144 0;
#X connect 142 0 217 0;
#X connect 143 0 140 1;
#X connect 144 0 142 1;
#X connect 145 0 143 1;
#X connect 145 0 144 1;
#X connect 146 0 148 0;
#X connect 147 0 166 0;
#X connect 147 1 149 0;
#X connect 147 1 150 0;
#X connect 148 0 226 0;
#X connect 149 0 146 1;
#X connect 150 0 148 1;
#X connect 151 0 149 1;
#X connect 151 0 150 1;
#X connect 153 0 155 0;
#X connect 154 0 167 0;
#X connect 154 1 156 0;
#X connect 154 1 157 0;
#X connect 155 0 219 0;
#X connect 156 0 153 1;
#X connect 157 0 155 1;
#X connect 158 0 156 1;
#X connect 158 0 157 1;
#X connect 160 0 162 0;
#X connect 161 0 168 0;
#X connect 161 1 163 0;
#X connect 161 1 164 0;
#X connect 162 0 220 0;
#X connect 163 0 160 1;
#X connect 164 0 162 1;
#X connect 165 0 163 1;
#X connect 165 0 164 1;
#X connect 166 0 146 0;
#X connect 166 0 151 0;
#X connect 167 0 153 0;
#X connect 167 0 158 0;
#X connect 168 0 160 0;
#X connect 168 0 165 0;
#X connect 170 0 172 0;
#X connect 171 0 176 0;
#X connect 171 1 173 0;
#X connect 171 1 174 0;
#X connect 172 0 221 0;
#X connect 173 0 170 1;
#X connect 174 0 172 1;
#X connect 175 0 173 1;
#X connect 175 0 174 1;
#X connect 176 0 170 0;
#X connect 176 0 175 0;
#X connect 178 0 180 0;
#X connect 179 0 184 0;
#X connect 179 1 181 0;
#X connect 179 1 182 0;
#X connect 180 0 222 0;
#X connect 181 0 178 1;
#X connect 182 0 180 1;
#X connect 183 0 181 1;
#X connect 183 0 182 1;
#X connect 184 0 178 0;
#X connect 184 0 183 0;
#X connect 186 0 188 0;
#X connect 187 0 224 0;
#X connect 187 1 189 0;
#X connect 187 1 190 0;
#X connect 188 0 223 0;
#X connect 189 0 186 1;
#X connect 190 0 188 1;
#X connect 191 0 189 1;
#X connect 191 0 190 1;
#X connect 192 0 140 0;
#X connect 192 0 145 0;
#X connect 194 0 196 0;
#X connect 195 0 200 0;
#X connect 195 1 197 0;
#X connect 195 1 198 0;
#X connect 196 0 218 0;
#X connect 197 0 194 1;
#X connect 198 0 196 1;
#X connect 199 0 197 1;
#X connect 199 0 198 1;
#X connect 200 0 194 0;
#X connect 200 0 199 0;
#X connect 201 0 10 0;
#X connect 201 0 0 0;
#X connect 202 0 18 0;
#X connect 202 0 0 0;
#X connect 203 0 25 0;
#X connect 203 0 0 0;
#X connect 204 0 35 0;
#X connect 204 0 0 0;
#X connect 205 0 43 0;
#X connect 205 0 0 0;
#X connect 206 0 51 0;
#X connect 206 0 0 0;
#X connect 207 0 59 0;
#X connect 207 0 0 0;
#X connect 208 0 66 0;
#X connect 208 0 0 0;
#X connect 209 0 73 0;
#X connect 209 0 0 0;
#X connect 210 0 83 0;
#X connect 210 0 0 0;
#X connect 211 0 91 0;
#X connect 211 0 0 0;
#X connect 212 0 99 0;
#X connect 212 0 0 0;
#X connect 213 0 107 0;
#X connect 213 0 0 0;
#X connect 214 0 114 0;
#X connect 214 0 0 0;
#X connect 215 0 123 0;
#X connect 215 0 0 0;
#X connect 216 0 131 0;
#X connect 216 0 0 0;
#X connect 217 0 139 0;
#X connect 217 0 0 0;
#X connect 218 0 193 0;
#X connect 218 0 0 0;
#X connect 219 0 152 0;
#X connect 219 0 0 0;
#X connect 220 0 159 0;
#X connect 220 0 0 0;
#X connect 221 0 169 0;
#X connect 221 0 0 0;
#X connect 222 0 177 0;
#X connect 222 0 0 0;
#X connect 223 0 185 0;
#X connect 223 0 0 0;
#X connect 224 0 186 0;
#X connect 224 0 191 0;
#X connect 226 0 0 0;
#X connect 226 0 225 0;
#X connect 227 0 228 0;
#X connect 228 0 232 0;
#X connect 229 0 227 1;
#X connect 230 0 228 1;
#X connect 231 0 229 1;
#X connect 231 0 230 1;
#X connect 232 0 234 0;
#X connect 234 0 233 0;
#X connect 234 0 0 0;
#X connect 235 0 236 0;
#X connect 235 1 229 0;
#X connect 235 1 230 0;
#X connect 235 1 238 0;
#X connect 236 0 227 0;
#X connect 236 0 231 0;
#X connect 238 0 239 0;
#X connect 238 0 239 0;
#X connect 239 0 232 1;
#X connect 239 0 232 1;
#X connect 239 0 237 0;
