#N canvas 0 50 694 669 10;
#X obj 515 316 makenote 1 100;
#X obj 250 341 select 0;
#X obj 250 365 bng 15 250 50 0 empty empty empty 17 7 0 10 -262144
-1 -1;
#X obj 302 364 float;
#X obj 341 365 + 1;
#X floatatom 302 386 5 0 0 0 - - -, f 5;
#X msg 471 159 0;
#X obj 20 322 inlet;
#X msg 72 335 99;
#X obj 68 273 inlet;
#X obj 677 285 s pack;
#X obj 642 207 +;
#X obj 642 186 t b b;
#X obj 641 246 -;
#X obj 671 207 random 80;
#X obj 671 228 random 80;
#X obj 698 186 * 0.1;
#X msg 643 229 625;
#X obj 710 154 select 0 1 2 3 4 5 6 7 8 9 10 11 12 13 14 15 16 17 18
19 20 21 22 23 24 25 26 27 28, f 134;
#X obj 800 283 s pack;
#X obj 765 205 +;
#X obj 765 184 t b b;
#X obj 764 244 -;
#X obj 794 205 random 80;
#X obj 794 226 random 80;
#X obj 821 184 * 0.1;
#X msg 766 227 625;
#X obj 915 286 s pack;
#X obj 880 208 +;
#X obj 880 187 t b b;
#X obj 879 247 -;
#X obj 909 208 random 80;
#X obj 909 229 random 80;
#X obj 936 187 * 0.1;
#X msg 918 253 65 1 \$1;
#X msg 680 252 82 1 \$1;
#X msg 803 250 73 1 \$1;
#X msg 881 231 1250;
#X obj 665 441 s pack;
#X obj 630 363 +;
#X obj 630 342 t b b;
#X obj 629 402 -;
#X obj 659 363 random 80;
#X obj 659 384 random 80;
#X obj 686 342 * 0.1;
#X msg 631 385 625;
#X obj 788 439 s pack;
#X obj 753 361 +;
#X obj 753 340 t b b;
#X obj 752 400 -;
#X obj 782 361 random 80;
#X obj 782 382 random 80;
#X obj 809 340 * 0.1;
#X msg 754 383 625;
#X obj 903 442 s pack;
#X obj 868 364 +;
#X obj 868 343 t b b;
#X obj 867 403 -;
#X obj 897 364 random 80;
#X obj 897 385 random 80;
#X obj 924 343 * 0.1;
#X msg 906 409 65 1 \$1;
#X msg 668 408 82 1 \$1;
#X msg 791 406 73 1 \$1;
#X msg 869 387 1250;
#X obj 654 582 s pack;
#X obj 619 504 +;
#X obj 619 483 t b b;
#X obj 618 543 -;
#X obj 648 504 random 80;
#X obj 648 525 random 80;
#X obj 675 483 * 0.1;
#X obj 777 580 s pack;
#X obj 742 502 +;
#X obj 742 481 t b b;
#X obj 741 541 -;
#X obj 771 502 random 80;
#X obj 771 523 random 80;
#X obj 798 481 * 0.1;
#X obj 892 583 s pack;
#X obj 857 505 +;
#X obj 857 484 t b b;
#X obj 856 544 -;
#X obj 886 505 random 80;
#X obj 886 526 random 80;
#X obj 913 484 * 0.1;
#X msg 895 550 65 1 \$1;
#X msg 657 549 65 1 \$1;
#X msg 780 547 65 1 \$1;
#X msg 620 526 263;
#X msg 743 524 263;
#X msg 858 528 263;
#X obj 1011 579 s pack;
#X obj 976 501 +;
#X obj 976 480 t b b;
#X obj 975 540 -;
#X obj 1005 501 random 80;
#X obj 1005 522 random 80;
#X obj 1032 480 * 0.1;
#X msg 1014 546 65 1 \$1;
#X msg 977 524 263;
#X obj 645 713 s pack;
#X obj 610 635 +;
#X obj 610 614 t b b;
#X obj 609 674 -;
#X obj 639 635 random 80;
#X obj 639 656 random 80;
#X obj 666 614 * 0.1;
#X obj 768 711 s pack;
#X obj 733 633 +;
#X obj 733 612 t b b;
#X obj 732 672 -;
#X obj 762 633 random 80;
#X obj 762 654 random 80;
#X obj 789 612 * 0.1;
#X obj 883 714 s pack;
#X obj 848 636 +;
#X obj 848 615 t b b;
#X obj 847 675 -;
#X obj 877 636 random 80;
#X obj 877 657 random 80;
#X obj 904 615 * 0.1;
#X msg 611 657 263;
#X msg 734 655 263;
#X msg 849 659 263;
#X obj 1002 710 s pack;
#X obj 967 632 +;
#X obj 967 611 t b b;
#X obj 966 671 -;
#X obj 996 632 random 80;
#X obj 996 653 random 80;
#X obj 1023 611 * 0.1;
#X msg 968 655 263;
#X msg 648 680 72 1 \$1;
#X msg 771 678 72 1 \$1;
#X msg 886 679 72 1 \$1;
#X msg 1005 678 72 1 \$1;
#X obj 668 855 s pack;
#X obj 633 777 +;
#X obj 633 756 t b b;
#X obj 632 816 -;
#X obj 662 777 random 80;
#X obj 662 798 random 80;
#X obj 689 756 * 0.1;
#X msg 634 799 625;
#X obj 791 853 s pack;
#X obj 756 775 +;
#X obj 756 754 t b b;
#X obj 755 814 -;
#X obj 785 775 random 80;
#X obj 785 796 random 80;
#X obj 812 754 * 0.1;
#X msg 757 797 625;
#X obj 906 856 s pack;
#X obj 871 778 +;
#X obj 871 757 t b b;
#X obj 870 817 -;
#X obj 900 778 random 80;
#X obj 900 799 random 80;
#X obj 927 757 * 0.1;
#X msg 909 823 65 1 \$1;
#X msg 671 822 82 1 \$1;
#X msg 794 820 73 1 \$1;
#X msg 872 801 2500;
#X connect 0 1 1 0;
#X connect 1 0 2 0;
#X connect 2 0 3 0;
#X connect 3 0 4 0;
#X connect 3 0 5 0;
#X connect 4 0 3 1;
#X connect 5 0 18 0;
#X connect 6 0 3 0;
#X connect 7 0 6 0;
#X connect 8 0 3 0;
#X connect 9 0 8 0;
#X connect 11 0 13 0;
#X connect 12 0 17 0;
#X connect 12 1 14 0;
#X connect 12 1 15 0;
#X connect 13 0 35 0;
#X connect 14 0 11 1;
#X connect 15 0 13 1;
#X connect 16 0 14 1;
#X connect 16 0 15 1;
#X connect 17 0 11 0;
#X connect 17 0 16 0;
#X connect 18 0 12 0;
#X connect 18 1 21 0;
#X connect 18 2 29 0;
#X connect 18 3 40 0;
#X connect 18 4 48 0;
#X connect 18 5 56 0;
#X connect 18 6 67 0;
#X connect 18 7 74 0;
#X connect 18 8 81 0;
#X connect 18 9 94 0;
#X connect 18 10 103 0;
#X connect 18 11 110 0;
#X connect 18 12 117 0;
#X connect 18 13 127 0;
#X connect 18 14 139 0;
#X connect 18 15 147 0;
#X connect 18 16 155 0;
#X connect 20 0 22 0;
#X connect 21 0 26 0;
#X connect 21 1 23 0;
#X connect 21 1 24 0;
#X connect 22 0 36 0;
#X connect 23 0 20 1;
#X connect 24 0 22 1;
#X connect 25 0 23 1;
#X connect 25 0 24 1;
#X connect 26 0 20 0;
#X connect 26 0 25 0;
#X connect 28 0 30 0;
#X connect 29 0 37 0;
#X connect 29 1 31 0;
#X connect 29 1 32 0;
#X connect 30 0 34 0;
#X connect 31 0 28 1;
#X connect 32 0 30 1;
#X connect 33 0 31 1;
#X connect 33 0 32 1;
#X connect 34 0 27 0;
#X connect 34 0 0 0;
#X connect 35 0 10 0;
#X connect 35 0 0 0;
#X connect 36 0 19 0;
#X connect 36 0 0 0;
#X connect 37 0 28 0;
#X connect 37 0 33 0;
#X connect 39 0 41 0;
#X connect 40 0 45 0;
#X connect 40 1 42 0;
#X connect 40 1 43 0;
#X connect 41 0 62 0;
#X connect 42 0 39 1;
#X connect 43 0 41 1;
#X connect 44 0 42 1;
#X connect 44 0 43 1;
#X connect 45 0 39 0;
#X connect 45 0 44 0;
#X connect 47 0 49 0;
#X connect 48 0 53 0;
#X connect 48 1 50 0;
#X connect 48 1 51 0;
#X connect 49 0 63 0;
#X connect 50 0 47 1;
#X connect 51 0 49 1;
#X connect 52 0 50 1;
#X connect 52 0 51 1;
#X connect 53 0 47 0;
#X connect 53 0 52 0;
#X connect 55 0 57 0;
#X connect 56 0 64 0;
#X connect 56 1 58 0;
#X connect 56 1 59 0;
#X connect 57 0 61 0;
#X connect 58 0 55 1;
#X connect 59 0 57 1;
#X connect 60 0 58 1;
#X connect 60 0 59 1;
#X connect 61 0 54 0;
#X connect 61 0 0 0;
#X connect 62 0 38 0;
#X connect 62 0 0 0;
#X connect 63 0 46 0;
#X connect 63 0 0 0;
#X connect 64 0 55 0;
#X connect 64 0 60 0;
#X connect 66 0 68 0;
#X connect 67 0 89 0;
#X connect 67 1 69 0;
#X connect 67 1 70 0;
#X connect 68 0 87 0;
#X connect 69 0 66 1;
#X connect 70 0 68 1;
#X connect 71 0 69 1;
#X connect 71 0 70 1;
#X connect 73 0 75 0;
#X connect 74 0 90 0;
#X connect 74 1 76 0;
#X connect 74 1 77 0;
#X connect 75 0 88 0;
#X connect 76 0 73 1;
#X connect 77 0 75 1;
#X connect 78 0 76 1;
#X connect 78 0 77 1;
#X connect 80 0 82 0;
#X connect 81 0 91 0;
#X connect 81 1 83 0;
#X connect 81 1 84 0;
#X connect 82 0 86 0;
#X connect 83 0 80 1;
#X connect 84 0 82 1;
#X connect 85 0 83 1;
#X connect 85 0 84 1;
#X connect 86 0 79 0;
#X connect 86 0 0 0;
#X connect 87 0 65 0;
#X connect 87 0 0 0;
#X connect 88 0 72 0;
#X connect 88 0 0 0;
#X connect 89 0 66 0;
#X connect 89 0 71 0;
#X connect 90 0 73 0;
#X connect 90 0 78 0;
#X connect 91 0 80 0;
#X connect 91 0 85 0;
#X connect 93 0 95 0;
#X connect 94 0 100 0;
#X connect 94 1 96 0;
#X connect 94 1 97 0;
#X connect 95 0 99 0;
#X connect 96 0 93 1;
#X connect 97 0 95 1;
#X connect 98 0 96 1;
#X connect 98 0 97 1;
#X connect 99 0 92 0;
#X connect 99 0 0 0;
#X connect 100 0 93 0;
#X connect 100 0 98 0;
#X connect 102 0 104 0;
#X connect 103 0 122 0;
#X connect 103 1 105 0;
#X connect 103 1 106 0;
#X connect 104 0 133 0;
#X connect 105 0 102 1;
#X connect 106 0 104 1;
#X connect 107 0 105 1;
#X connect 107 0 106 1;
#X connect 109 0 111 0;
#X connect 110 0 123 0;
#X connect 110 1 112 0;
#X connect 110 1 113 0;
#X connect 111 0 134 0;
#X connect 112 0 109 1;
#X connect 113 0 111 1;
#X connect 114 0 112 1;
#X connect 114 0 113 1;
#X connect 116 0 118 0;
#X connect 117 0 124 0;
#X connect 117 1 119 0;
#X connect 117 1 120 0;
#X connect 118 0 135 0;
#X connect 119 0 116 1;
#X connect 120 0 118 1;
#X connect 121 0 119 1;
#X connect 121 0 120 1;
#X connect 122 0 102 0;
#X connect 122 0 107 0;
#X connect 123 0 109 0;
#X connect 123 0 114 0;
#X connect 124 0 116 0;
#X connect 124 0 121 0;
#X connect 126 0 128 0;
#X connect 127 0 132 0;
#X connect 127 1 129 0;
#X connect 127 1 130 0;
#X connect 128 0 136 0;
#X connect 129 0 126 1;
#X connect 130 0 128 1;
#X connect 131 0 129 1;
#X connect 131 0 130 1;
#X connect 132 0 126 0;
#X connect 132 0 131 0;
#X connect 133 0 101 0;
#X connect 133 0 0 0;
#X connect 134 0 108 0;
#X connect 134 0 0 0;
#X connect 135 0 115 0;
#X connect 135 0 0 0;
#X connect 136 0 125 0;
#X connect 136 0 0 0;
#X connect 138 0 140 0;
#X connect 139 0 144 0;
#X connect 139 1 141 0;
#X connect 139 1 142 0;
#X connect 140 0 161 0;
#X connect 141 0 138 1;
#X connect 142 0 140 1;
#X connect 143 0 141 1;
#X connect 143 0 142 1;
#X connect 144 0 138 0;
#X connect 144 0 143 0;
#X connect 146 0 148 0;
#X connect 147 0 152 0;
#X connect 147 1 149 0;
#X connect 147 1 150 0;
#X connect 148 0 162 0;
#X connect 149 0 146 1;
#X connect 150 0 148 1;
#X connect 151 0 149 1;
#X connect 151 0 150 1;
#X connect 152 0 146 0;
#X connect 152 0 151 0;
#X connect 154 0 156 0;
#X connect 155 0 163 0;
#X connect 155 1 157 0;
#X connect 155 1 158 0;
#X connect 156 0 160 0;
#X connect 157 0 154 1;
#X connect 158 0 156 1;
#X connect 159 0 157 1;
#X connect 159 0 158 1;
#X connect 160 0 153 0;
#X connect 160 0 0 0;
#X connect 161 0 137 0;
#X connect 161 0 0 0;
#X connect 162 0 145 0;
#X connect 162 0 0 0;
#X connect 163 0 154 0;
#X connect 163 0 159 0;
