#N canvas 953 0 958 988 10;
#X obj 168 310 makenote 1 100;
#X obj 250 341 select 0;
#X obj 250 365 bng 15 250 50 0 empty empty empty 17 7 0 10 -262144
-1 -1;
#X obj 302 364 float;
#X obj 341 365 + 1;
#X floatatom 302 386 5 0 0 0 - - -, f 5;
#X msg 16 363 0;
#X obj 20 322 inlet;
#X msg 72 335 99;
#X obj 68 273 inlet;
#X obj 677 285 s pack;
#X obj 642 207 +;
#X obj 642 186 t b b;
#X obj 641 246 -;
#X obj 671 207 random 80;
#X obj 671 228 random 80;
#X obj 698 186 * 0.1;
#X msg 680 252 65 1 \$1;
#X obj 793 282 s pack;
#X obj 758 204 +;
#X obj 758 183 t b b;
#X obj 757 243 -;
#X obj 787 204 random 80;
#X obj 787 225 random 80;
#X obj 814 183 * 0.1;
#X obj 894 283 s pack;
#X obj 859 205 +;
#X obj 859 184 t b b;
#X obj 858 244 -;
#X obj 888 205 random 80;
#X obj 888 226 random 80;
#X obj 915 184 * 0.1;
#X msg 796 249 82 1 \$1;
#X msg 897 250 98 1 \$1;
#X msg 643 229 625;
#X msg 759 226 624;
#X msg 860 227 936;
#X obj 1002 290 s pack;
#X obj 967 212 +;
#X obj 967 191 t b b;
#X obj 966 251 -;
#X obj 996 212 random 80;
#X obj 996 233 random 80;
#X obj 1023 191 * 0.1;
#X msg 1005 257 98 1 \$1;
#X msg 968 234 312;
#X obj 1113 294 s pack;
#X obj 1078 216 +;
#X obj 1078 195 t b b;
#X obj 1077 255 -;
#X obj 1107 216 random 80;
#X obj 1107 237 random 80;
#X obj 1134 195 * 0.1;
#X msg 1116 261 98 1 \$1;
#X msg 1079 238 1250;
#X obj 1285 295 s pack;
#X obj 1250 217 +;
#X obj 1250 196 t b b;
#X obj 1249 256 -;
#X obj 1279 217 random 80;
#X obj 1279 238 random 80;
#X obj 1306 196 * 0.1;
#X msg 1251 239 625;
#X msg 1288 262 110 1 \$1;
#X obj 1388 294 s pack;
#X obj 1353 216 +;
#X obj 1353 195 t b b;
#X obj 1352 255 -;
#X obj 1382 216 random 80;
#X obj 1382 237 random 80;
#X obj 1409 195 * 0.1;
#X msg 1354 238 625;
#X msg 1391 261 110 1 \$1;
#X obj 1480 218 +;
#X obj 1480 197 t b b;
#X obj 1479 257 -;
#X obj 1509 218 random 80;
#X obj 1509 239 random 80;
#X obj 1536 197 * 0.1;
#X msg 1481 240 3750;
#X obj 678 489 s pack;
#X obj 643 411 +;
#X obj 643 390 t b b;
#X obj 642 450 -;
#X obj 672 411 random 80;
#X obj 672 432 random 80;
#X obj 699 390 * 0.1;
#X msg 681 456 65 1 \$1;
#X obj 794 486 s pack;
#X obj 759 408 +;
#X obj 759 387 t b b;
#X obj 758 447 -;
#X obj 788 408 random 80;
#X obj 788 429 random 80;
#X obj 815 387 * 0.1;
#X obj 895 487 s pack;
#X obj 860 409 +;
#X obj 860 388 t b b;
#X obj 859 448 -;
#X obj 889 409 random 80;
#X obj 889 430 random 80;
#X obj 916 388 * 0.1;
#X msg 797 453 82 1 \$1;
#X msg 898 454 98 1 \$1;
#X msg 644 433 625;
#X msg 760 430 624;
#X msg 861 431 936;
#X obj 1003 494 s pack;
#X obj 968 416 +;
#X obj 968 395 t b b;
#X obj 967 455 -;
#X obj 997 416 random 80;
#X obj 997 437 random 80;
#X obj 1024 395 * 0.1;
#X msg 1006 461 98 1 \$1;
#X msg 969 438 312;
#X obj 1114 498 s pack;
#X obj 1079 420 +;
#X obj 1079 399 t b b;
#X obj 1078 459 -;
#X obj 1108 420 random 80;
#X obj 1108 441 random 80;
#X obj 1135 399 * 0.1;
#X msg 1117 465 98 1 \$1;
#X msg 1080 442 1250;
#X obj 1286 499 s pack;
#X obj 1251 421 +;
#X obj 1251 400 t b b;
#X obj 1250 460 -;
#X obj 1280 421 random 80;
#X obj 1280 442 random 80;
#X obj 1307 400 * 0.1;
#X msg 1252 443 625;
#X obj 1389 498 s pack;
#X obj 1354 420 +;
#X obj 1354 399 t b b;
#X obj 1353 459 -;
#X obj 1383 420 random 80;
#X obj 1383 441 random 80;
#X obj 1410 399 * 0.1;
#X msg 1355 442 625;
#X obj 1481 422 +;
#X obj 1481 401 t b b;
#X obj 1480 461 -;
#X obj 1510 422 random 80;
#X obj 1510 443 random 80;
#X obj 1537 401 * 0.1;
#X msg 1482 444 3750;
#X msg 1392 465 82 1 \$1;
#X msg 1289 466 87 1 \$1;
#X obj 669 692 s pack;
#X obj 634 614 +;
#X obj 634 593 t b b;
#X obj 633 653 -;
#X obj 663 614 random 80;
#X obj 663 635 random 80;
#X obj 690 593 * 0.1;
#X msg 672 659 65 1 \$1;
#X obj 785 689 s pack;
#X obj 750 611 +;
#X obj 750 590 t b b;
#X obj 749 650 -;
#X obj 779 611 random 80;
#X obj 779 632 random 80;
#X obj 806 590 * 0.1;
#X obj 886 690 s pack;
#X obj 851 612 +;
#X obj 851 591 t b b;
#X obj 850 651 -;
#X obj 880 612 random 80;
#X obj 880 633 random 80;
#X obj 907 591 * 0.1;
#X msg 788 656 82 1 \$1;
#X msg 889 657 98 1 \$1;
#X msg 634 634 625;
#X msg 751 633 624;
#X msg 852 634 936;
#X obj 994 697 s pack;
#X obj 959 619 +;
#X obj 959 598 t b b;
#X obj 958 658 -;
#X obj 988 619 random 80;
#X obj 988 640 random 80;
#X obj 1015 598 * 0.1;
#X msg 997 664 98 1 \$1;
#X msg 960 641 312;
#X obj 1105 701 s pack;
#X obj 1070 623 +;
#X obj 1070 602 t b b;
#X obj 1069 662 -;
#X obj 1099 623 random 80;
#X obj 1099 644 random 80;
#X obj 1126 602 * 0.1;
#X msg 1108 668 98 1 \$1;
#X msg 1071 645 1250;
#X obj 1277 702 s pack;
#X obj 1242 624 +;
#X obj 1242 603 t b b;
#X obj 1241 663 -;
#X obj 1271 624 random 80;
#X obj 1271 645 random 80;
#X obj 1298 603 * 0.1;
#X msg 1243 646 625;
#X msg 1280 669 110 1 \$1;
#X obj 1380 701 s pack;
#X obj 1345 623 +;
#X obj 1345 602 t b b;
#X obj 1344 662 -;
#X obj 1374 623 random 80;
#X obj 1374 644 random 80;
#X obj 1401 602 * 0.1;
#X msg 1346 645 625;
#X msg 1383 668 110 1 \$1;
#X obj 1472 625 +;
#X obj 1472 604 t b b;
#X obj 1471 664 -;
#X obj 1501 625 random 80;
#X obj 1501 646 random 80;
#X obj 1528 604 * 0.1;
#X msg 1473 647 3750;
#X obj 627 878 s pack;
#X obj 592 800 +;
#X obj 592 779 t b b;
#X obj 591 839 -;
#X obj 621 800 random 80;
#X obj 621 821 random 80;
#X obj 648 779 * 0.1;
#X obj 743 875 s pack;
#X obj 708 797 +;
#X obj 708 776 t b b;
#X obj 707 836 -;
#X obj 737 797 random 80;
#X obj 737 818 random 80;
#X obj 764 776 * 0.1;
#X obj 844 876 s pack;
#X obj 809 798 +;
#X obj 809 777 t b b;
#X obj 808 837 -;
#X obj 838 798 random 80;
#X obj 838 819 random 80;
#X obj 865 777 * 0.1;
#X msg 746 842 82 1 \$1;
#X obj 952 883 s pack;
#X obj 917 805 +;
#X obj 917 784 t b b;
#X obj 916 844 -;
#X obj 946 805 random 80;
#X obj 946 826 random 80;
#X obj 973 784 * 0.1;
#X obj 1028 809 +;
#X obj 1028 788 t b b;
#X obj 1027 848 -;
#X obj 1057 809 random 80;
#X obj 1057 830 random 80;
#X obj 1084 788 * 0.1;
#X obj 715 90 select 0 1 2 3 4 5 6 7 8 9 10 11 12 13 14 15 16 17 18
19 20 21 22 23 24 25 26 27 28, f 134;
#X msg 630 845 87 1 \$1;
#X msg 847 843 72 1 \$1;
#X msg 955 850 72 1 \$1;
#X msg 1029 831 3750;
#X msg 593 822 1300;
#X msg 709 819 1300;
#X msg 810 820 625;
#X msg 918 827 625;
#X obj 1063 887 s pack2;
#X msg 1066 854 65 34 \$1;
#X obj 1507 703 s pack2;
#X msg 1510 670 98 94 \$1;
#X obj 1515 296 s pack;
#X msg 1518 263 98 1 \$1;
#X obj 1516 500 s pack;
#X msg 1519 467 72 1 \$1;
#X connect 0 1 1 0;
#X connect 1 0 2 0;
#X connect 2 0 3 0;
#X connect 3 0 4 0;
#X connect 3 0 5 0;
#X connect 4 0 3 1;
#X connect 5 0 255 0;
#X connect 6 0 3 0;
#X connect 7 0 6 0;
#X connect 8 0 3 0;
#X connect 9 0 8 0;
#X connect 11 0 13 0;
#X connect 12 0 34 0;
#X connect 12 1 14 0;
#X connect 12 1 15 0;
#X connect 13 0 17 0;
#X connect 14 0 11 1;
#X connect 15 0 13 1;
#X connect 16 0 14 1;
#X connect 16 0 15 1;
#X connect 17 0 10 0;
#X connect 17 0 0 0;
#X connect 19 0 21 0;
#X connect 20 0 35 0;
#X connect 20 1 22 0;
#X connect 20 1 23 0;
#X connect 21 0 32 0;
#X connect 22 0 19 1;
#X connect 23 0 21 1;
#X connect 24 0 22 1;
#X connect 24 0 23 1;
#X connect 26 0 28 0;
#X connect 27 0 36 0;
#X connect 27 1 29 0;
#X connect 27 1 30 0;
#X connect 28 0 33 0;
#X connect 29 0 26 1;
#X connect 30 0 28 1;
#X connect 31 0 29 1;
#X connect 31 0 30 1;
#X connect 32 0 18 0;
#X connect 32 0 0 0;
#X connect 33 0 25 0;
#X connect 33 0 0 0;
#X connect 34 0 11 0;
#X connect 34 0 16 0;
#X connect 35 0 19 0;
#X connect 35 0 24 0;
#X connect 36 0 26 0;
#X connect 36 0 31 0;
#X connect 38 0 40 0;
#X connect 39 0 45 0;
#X connect 39 1 41 0;
#X connect 39 1 42 0;
#X connect 40 0 44 0;
#X connect 41 0 38 1;
#X connect 42 0 40 1;
#X connect 43 0 41 1;
#X connect 43 0 42 1;
#X connect 44 0 37 0;
#X connect 44 0 0 0;
#X connect 45 0 38 0;
#X connect 45 0 43 0;
#X connect 47 0 49 0;
#X connect 48 0 54 0;
#X connect 48 1 50 0;
#X connect 48 1 51 0;
#X connect 49 0 53 0;
#X connect 50 0 47 1;
#X connect 51 0 49 1;
#X connect 52 0 50 1;
#X connect 52 0 51 1;
#X connect 53 0 46 0;
#X connect 53 0 0 0;
#X connect 54 0 47 0;
#X connect 54 0 52 0;
#X connect 56 0 58 0;
#X connect 57 0 62 0;
#X connect 57 1 59 0;
#X connect 57 1 60 0;
#X connect 58 0 63 0;
#X connect 59 0 56 1;
#X connect 60 0 58 1;
#X connect 61 0 59 1;
#X connect 61 0 60 1;
#X connect 62 0 56 0;
#X connect 62 0 61 0;
#X connect 63 0 55 0;
#X connect 63 0 0 0;
#X connect 65 0 67 0;
#X connect 66 0 71 0;
#X connect 66 1 68 0;
#X connect 66 1 69 0;
#X connect 67 0 72 0;
#X connect 68 0 65 1;
#X connect 69 0 67 1;
#X connect 70 0 68 1;
#X connect 70 0 69 1;
#X connect 71 0 65 0;
#X connect 71 0 70 0;
#X connect 72 0 64 0;
#X connect 72 0 0 0;
#X connect 73 0 75 0;
#X connect 74 0 79 0;
#X connect 74 1 76 0;
#X connect 74 1 77 0;
#X connect 75 0 269 0;
#X connect 76 0 73 1;
#X connect 77 0 75 1;
#X connect 78 0 76 1;
#X connect 78 0 77 1;
#X connect 79 0 73 0;
#X connect 79 0 78 0;
#X connect 81 0 83 0;
#X connect 82 0 104 0;
#X connect 82 1 84 0;
#X connect 82 1 85 0;
#X connect 83 0 87 0;
#X connect 84 0 81 1;
#X connect 85 0 83 1;
#X connect 86 0 84 1;
#X connect 86 0 85 1;
#X connect 87 0 80 0;
#X connect 87 0 0 0;
#X connect 89 0 91 0;
#X connect 90 0 105 0;
#X connect 90 1 92 0;
#X connect 90 1 93 0;
#X connect 91 0 102 0;
#X connect 92 0 89 1;
#X connect 93 0 91 1;
#X connect 94 0 92 1;
#X connect 94 0 93 1;
#X connect 96 0 98 0;
#X connect 97 0 106 0;
#X connect 97 1 99 0;
#X connect 97 1 100 0;
#X connect 98 0 103 0;
#X connect 99 0 96 1;
#X connect 100 0 98 1;
#X connect 101 0 99 1;
#X connect 101 0 100 1;
#X connect 102 0 88 0;
#X connect 102 0 0 0;
#X connect 103 0 95 0;
#X connect 103 0 0 0;
#X connect 104 0 81 0;
#X connect 104 0 86 0;
#X connect 105 0 89 0;
#X connect 105 0 94 0;
#X connect 106 0 96 0;
#X connect 106 0 101 0;
#X connect 108 0 110 0;
#X connect 109 0 115 0;
#X connect 109 1 111 0;
#X connect 109 1 112 0;
#X connect 110 0 114 0;
#X connect 111 0 108 1;
#X connect 112 0 110 1;
#X connect 113 0 111 1;
#X connect 113 0 112 1;
#X connect 114 0 107 0;
#X connect 114 0 0 0;
#X connect 115 0 108 0;
#X connect 115 0 113 0;
#X connect 117 0 119 0;
#X connect 118 0 124 0;
#X connect 118 1 120 0;
#X connect 118 1 121 0;
#X connect 119 0 123 0;
#X connect 120 0 117 1;
#X connect 121 0 119 1;
#X connect 122 0 120 1;
#X connect 122 0 121 1;
#X connect 123 0 116 0;
#X connect 123 0 0 0;
#X connect 124 0 117 0;
#X connect 124 0 122 0;
#X connect 126 0 128 0;
#X connect 127 0 132 0;
#X connect 127 1 129 0;
#X connect 127 1 130 0;
#X connect 128 0 149 0;
#X connect 129 0 126 1;
#X connect 130 0 128 1;
#X connect 131 0 129 1;
#X connect 131 0 130 1;
#X connect 132 0 126 0;
#X connect 132 0 131 0;
#X connect 134 0 136 0;
#X connect 135 0 140 0;
#X connect 135 1 137 0;
#X connect 135 1 138 0;
#X connect 136 0 148 0;
#X connect 137 0 134 1;
#X connect 138 0 136 1;
#X connect 139 0 137 1;
#X connect 139 0 138 1;
#X connect 140 0 134 0;
#X connect 140 0 139 0;
#X connect 141 0 143 0;
#X connect 142 0 147 0;
#X connect 142 1 144 0;
#X connect 142 1 145 0;
#X connect 143 0 271 0;
#X connect 144 0 141 1;
#X connect 145 0 143 1;
#X connect 146 0 144 1;
#X connect 146 0 145 1;
#X connect 147 0 141 0;
#X connect 147 0 146 0;
#X connect 148 0 133 0;
#X connect 148 0 0 0;
#X connect 149 0 125 0;
#X connect 149 0 0 0;
#X connect 151 0 153 0;
#X connect 152 0 174 0;
#X connect 152 1 154 0;
#X connect 152 1 155 0;
#X connect 153 0 157 0;
#X connect 154 0 151 1;
#X connect 155 0 153 1;
#X connect 156 0 154 1;
#X connect 156 0 155 1;
#X connect 157 0 150 0;
#X connect 157 0 0 0;
#X connect 159 0 161 0;
#X connect 160 0 175 0;
#X connect 160 1 162 0;
#X connect 160 1 163 0;
#X connect 161 0 172 0;
#X connect 162 0 159 1;
#X connect 163 0 161 1;
#X connect 164 0 162 1;
#X connect 164 0 163 1;
#X connect 166 0 168 0;
#X connect 167 0 176 0;
#X connect 167 1 169 0;
#X connect 167 1 170 0;
#X connect 168 0 173 0;
#X connect 169 0 166 1;
#X connect 170 0 168 1;
#X connect 171 0 169 1;
#X connect 171 0 170 1;
#X connect 172 0 158 0;
#X connect 172 0 0 0;
#X connect 173 0 165 0;
#X connect 173 0 0 0;
#X connect 174 0 151 0;
#X connect 174 0 156 0;
#X connect 175 0 159 0;
#X connect 175 0 164 0;
#X connect 176 0 166 0;
#X connect 176 0 171 0;
#X connect 178 0 180 0;
#X connect 179 0 185 0;
#X connect 179 1 181 0;
#X connect 179 1 182 0;
#X connect 180 0 184 0;
#X connect 181 0 178 1;
#X connect 182 0 180 1;
#X connect 183 0 181 1;
#X connect 183 0 182 1;
#X connect 184 0 177 0;
#X connect 184 0 0 0;
#X connect 185 0 178 0;
#X connect 185 0 183 0;
#X connect 187 0 189 0;
#X connect 188 0 194 0;
#X connect 188 1 190 0;
#X connect 188 1 191 0;
#X connect 189 0 193 0;
#X connect 190 0 187 1;
#X connect 191 0 189 1;
#X connect 192 0 190 1;
#X connect 192 0 191 1;
#X connect 193 0 186 0;
#X connect 193 0 0 0;
#X connect 194 0 187 0;
#X connect 194 0 192 0;
#X connect 196 0 198 0;
#X connect 197 0 202 0;
#X connect 197 1 199 0;
#X connect 197 1 200 0;
#X connect 198 0 203 0;
#X connect 199 0 196 1;
#X connect 200 0 198 1;
#X connect 201 0 199 1;
#X connect 201 0 200 1;
#X connect 202 0 196 0;
#X connect 202 0 201 0;
#X connect 203 0 195 0;
#X connect 203 0 0 0;
#X connect 205 0 207 0;
#X connect 206 0 211 0;
#X connect 206 1 208 0;
#X connect 206 1 209 0;
#X connect 207 0 212 0;
#X connect 208 0 205 1;
#X connect 209 0 207 1;
#X connect 210 0 208 1;
#X connect 210 0 209 1;
#X connect 211 0 205 0;
#X connect 211 0 210 0;
#X connect 212 0 204 0;
#X connect 212 0 0 0;
#X connect 213 0 215 0;
#X connect 214 0 219 0;
#X connect 214 1 216 0;
#X connect 214 1 217 0;
#X connect 215 0 267 0;
#X connect 216 0 213 1;
#X connect 217 0 215 1;
#X connect 218 0 216 1;
#X connect 218 0 217 1;
#X connect 219 0 213 0;
#X connect 219 0 218 0;
#X connect 221 0 223 0;
#X connect 222 0 260 0;
#X connect 222 1 224 0;
#X connect 222 1 225 0;
#X connect 223 0 256 0;
#X connect 224 0 221 1;
#X connect 225 0 223 1;
#X connect 226 0 224 1;
#X connect 226 0 225 1;
#X connect 228 0 230 0;
#X connect 229 0 261 0;
#X connect 229 1 231 0;
#X connect 229 1 232 0;
#X connect 230 0 241 0;
#X connect 231 0 228 1;
#X connect 232 0 230 1;
#X connect 233 0 231 1;
#X connect 233 0 232 1;
#X connect 235 0 237 0;
#X connect 236 0 262 0;
#X connect 236 1 238 0;
#X connect 236 1 239 0;
#X connect 237 0 257 0;
#X connect 238 0 235 1;
#X connect 239 0 237 1;
#X connect 240 0 238 1;
#X connect 240 0 239 1;
#X connect 241 0 227 0;
#X connect 241 0 0 0;
#X connect 243 0 245 0;
#X connect 244 0 263 0;
#X connect 244 1 246 0;
#X connect 244 1 247 0;
#X connect 245 0 258 0;
#X connect 246 0 243 1;
#X connect 247 0 245 1;
#X connect 248 0 246 1;
#X connect 248 0 247 1;
#X connect 249 0 251 0;
#X connect 250 0 259 0;
#X connect 250 1 252 0;
#X connect 250 1 253 0;
#X connect 251 0 265 0;
#X connect 252 0 249 1;
#X connect 253 0 251 1;
#X connect 254 0 252 1;
#X connect 254 0 253 1;
#X connect 255 0 12 0;
#X connect 255 1 20 0;
#X connect 255 2 27 0;
#X connect 255 3 39 0;
#X connect 255 4 48 0;
#X connect 255 5 57 0;
#X connect 255 6 66 0;
#X connect 255 7 74 0;
#X connect 255 8 82 0;
#X connect 255 9 90 0;
#X connect 255 10 97 0;
#X connect 255 11 109 0;
#X connect 255 12 118 0;
#X connect 255 13 127 0;
#X connect 255 14 135 0;
#X connect 255 15 142 0;
#X connect 255 16 152 0;
#X connect 255 17 160 0;
#X connect 255 18 167 0;
#X connect 255 19 179 0;
#X connect 255 20 188 0;
#X connect 255 21 197 0;
#X connect 255 22 206 0;
#X connect 255 23 214 0;
#X connect 255 24 222 0;
#X connect 255 25 229 0;
#X connect 255 26 236 0;
#X connect 255 27 244 0;
#X connect 255 28 250 0;
#X connect 256 0 220 0;
#X connect 256 0 0 0;
#X connect 257 0 234 0;
#X connect 257 0 0 0;
#X connect 258 0 242 0;
#X connect 258 0 0 0;
#X connect 259 0 249 0;
#X connect 259 0 254 0;
#X connect 260 0 221 0;
#X connect 260 0 226 0;
#X connect 261 0 228 0;
#X connect 261 0 233 0;
#X connect 262 0 235 0;
#X connect 262 0 240 0;
#X connect 263 0 243 0;
#X connect 263 0 248 0;
#X connect 265 0 0 0;
#X connect 265 0 264 0;
#X connect 267 0 0 0;
#X connect 267 0 266 0;
#X connect 269 0 0 0;
#X connect 269 0 268 0;
#X connect 271 0 0 0;
#X connect 271 0 270 0;
