#N canvas 0 50 1916 997 10;
#X obj 168 310 makenote 1 100;
#X obj 250 341 select 0;
#X obj 250 365 bng 15 250 50 0 empty empty empty 17 7 0 10 -262144
-1 -1;
#X obj 302 364 float;
#X obj 341 365 + 1;
#X floatatom 302 386 5 0 0 0 - - -, f 5;
#X msg 16 363 0;
#X obj 20 322 inlet;
#X obj 715 90 select 0 1 2 3 4 5 6 7 8 9 10 11 12 13 14 15 16 17 18
19 20 21 22 23 24 25 26 27 28 29 30 31 32 33, f 134;
#X msg 72 335 99;
#X obj 68 273 inlet;
#X obj 777 349 s pack;
#X obj 742 271 +;
#X obj 742 250 t b b;
#X obj 741 310 -;
#X obj 771 271 random 80;
#X obj 771 292 random 80;
#X obj 872 348 s pack;
#X obj 837 270 +;
#X obj 837 249 t b b;
#X obj 836 309 -;
#X obj 866 270 random 80;
#X obj 866 291 random 80;
#X obj 972 347 s pack;
#X obj 937 269 +;
#X obj 937 248 t b b;
#X obj 936 308 -;
#X obj 966 269 random 80;
#X obj 966 290 random 80;
#X obj 1048 269 +;
#X obj 1048 248 t b b;
#X obj 1047 308 -;
#X obj 1077 269 random 80;
#X obj 1077 290 random 80;
#X obj 1104 248 * 0.1;
#X obj 1189 351 s pack;
#X obj 1154 273 +;
#X obj 1154 252 t b b;
#X obj 1153 312 -;
#X obj 1183 273 random 80;
#X obj 1183 294 random 80;
#X obj 1210 252 * 0.1;
#X msg 743 293 224;
#X msg 837 291 224;
#X msg 937 290 224;
#X msg 780 316 49 1 \$1;
#X msg 878 312 49 1 \$1;
#X msg 973 314 49 1 \$1;
#X msg 1191 323 90 1 \$1;
#X obj 1328 358 s pack;
#X obj 1293 280 +;
#X obj 1293 259 t b b;
#X obj 1292 319 -;
#X obj 1322 280 random 80;
#X obj 1322 301 random 80;
#X obj 1423 357 s pack;
#X obj 1388 279 +;
#X obj 1388 258 t b b;
#X obj 1387 318 -;
#X obj 1417 279 random 80;
#X obj 1417 300 random 80;
#X obj 1523 356 s pack;
#X obj 1488 278 +;
#X obj 1488 257 t b b;
#X obj 1487 317 -;
#X obj 1517 278 random 80;
#X obj 1517 299 random 80;
#X obj 1599 278 +;
#X obj 1599 257 t b b;
#X obj 1598 317 -;
#X obj 1628 278 random 80;
#X obj 1628 299 random 80;
#X obj 1655 257 * 0.1;
#X obj 1740 360 s pack;
#X obj 1705 282 +;
#X obj 1705 261 t b b;
#X obj 1704 321 -;
#X obj 1734 282 random 80;
#X obj 1734 303 random 80;
#X obj 1761 261 * 0.1;
#X msg 1294 302 224;
#X msg 1388 300 224;
#X msg 1488 299 224;
#X msg 1599 298 672;
#X msg 1331 325 49 1 \$1;
#X msg 1429 321 49 1 \$1;
#X msg 1524 323 49 1 \$1;
#X msg 1742 332 90 1 \$1;
#X msg 1154 294 448;
#X obj 760 529 s pack;
#X obj 725 451 +;
#X obj 725 430 t b b;
#X obj 724 490 -;
#X obj 754 451 random 80;
#X obj 754 472 random 80;
#X obj 855 528 s pack;
#X obj 820 450 +;
#X obj 820 429 t b b;
#X obj 819 489 -;
#X obj 849 450 random 80;
#X obj 849 471 random 80;
#X obj 955 527 s pack;
#X obj 920 449 +;
#X obj 920 428 t b b;
#X obj 919 488 -;
#X obj 949 449 random 80;
#X obj 949 470 random 80;
#X obj 1066 527 s pack;
#X obj 1031 449 +;
#X obj 1031 428 t b b;
#X obj 1030 488 -;
#X obj 1060 449 random 80;
#X obj 1060 470 random 80;
#X obj 1172 531 s pack;
#X obj 1137 453 +;
#X obj 1137 432 t b b;
#X obj 1136 492 -;
#X obj 1166 453 random 80;
#X obj 1166 474 random 80;
#X msg 726 473 224;
#X msg 820 471 224;
#X msg 920 470 224;
#X obj 1311 538 s pack;
#X obj 1276 460 +;
#X obj 1276 439 t b b;
#X obj 1275 499 -;
#X obj 1305 460 random 80;
#X obj 1305 481 random 80;
#X obj 1406 537 s pack;
#X obj 1371 459 +;
#X obj 1371 438 t b b;
#X obj 1370 498 -;
#X obj 1400 459 random 80;
#X obj 1400 480 random 80;
#X obj 1427 438 * 0.1;
#X msg 1277 482 224;
#X msg 1412 501 49 1 \$1;
#X msg 1048 290 672;
#X msg 1705 303 1344;
#X msg 763 496 65 1 \$1;
#X msg 861 492 65 1 \$1;
#X msg 956 494 60 1 \$1;
#X msg 1174 503 55 1 \$1;
#X msg 1314 505 55 1 \$1;
#X msg 1031 470 224;
#X msg 1137 474 224;
#X msg 1371 480 1344;
#X obj 750 725 s pack;
#X obj 715 647 +;
#X obj 715 626 t b b;
#X obj 714 686 -;
#X obj 744 647 random 80;
#X obj 744 668 random 80;
#X obj 845 724 s pack;
#X obj 810 646 +;
#X obj 810 625 t b b;
#X obj 809 685 -;
#X obj 839 646 random 80;
#X obj 839 667 random 80;
#X obj 945 723 s pack;
#X obj 910 645 +;
#X obj 910 624 t b b;
#X obj 909 684 -;
#X obj 939 645 random 80;
#X obj 939 666 random 80;
#X obj 1021 645 +;
#X obj 1021 624 t b b;
#X obj 1020 684 -;
#X obj 1050 645 random 80;
#X obj 1050 666 random 80;
#X obj 1162 727 s pack;
#X obj 1127 649 +;
#X obj 1127 628 t b b;
#X obj 1126 688 -;
#X obj 1156 649 random 80;
#X obj 1156 670 random 80;
#X obj 1183 628 * 0.1;
#X msg 716 669 224;
#X msg 810 667 224;
#X msg 910 666 224;
#X msg 753 692 49 1 \$1;
#X msg 851 688 49 1 \$1;
#X msg 946 690 49 1 \$1;
#X obj 1301 734 s pack;
#X obj 1266 656 +;
#X obj 1266 635 t b b;
#X obj 1265 695 -;
#X obj 1295 656 random 80;
#X obj 1295 677 random 80;
#X obj 1396 733 s pack;
#X obj 1361 655 +;
#X obj 1361 634 t b b;
#X obj 1360 694 -;
#X obj 1390 655 random 80;
#X obj 1390 676 random 80;
#X obj 1461 654 +;
#X obj 1461 633 t b b;
#X obj 1460 693 -;
#X obj 1490 654 random 80;
#X obj 1490 675 random 80;
#X obj 1572 654 +;
#X obj 1572 633 t b b;
#X obj 1571 693 -;
#X obj 1601 654 random 80;
#X obj 1601 675 random 80;
#X obj 1628 633 * 0.1;
#X obj 1713 736 s pack;
#X obj 1678 658 +;
#X obj 1678 637 t b b;
#X obj 1677 697 -;
#X obj 1707 658 random 80;
#X obj 1707 679 random 80;
#X obj 1734 637 * 0.1;
#X msg 1267 678 224;
#X msg 1361 676 224;
#X msg 1461 675 224;
#X msg 1572 674 672;
#X msg 1304 701 49 1 \$1;
#X msg 1402 697 49 1 \$1;
#X msg 1127 670 448;
#X obj 698 827 +;
#X obj 698 806 t b b;
#X obj 697 866 -;
#X obj 727 827 random 80;
#X obj 727 848 random 80;
#X obj 828 904 s pack;
#X obj 793 826 +;
#X obj 793 805 t b b;
#X obj 792 865 -;
#X obj 822 826 random 80;
#X obj 822 847 random 80;
#X obj 893 825 +;
#X obj 893 804 t b b;
#X obj 892 864 -;
#X obj 922 825 random 80;
#X obj 922 846 random 80;
#X obj 1004 825 +;
#X obj 1004 804 t b b;
#X obj 1003 864 -;
#X obj 1033 825 random 80;
#X obj 1033 846 random 80;
#X obj 1145 907 s pack;
#X obj 1110 829 +;
#X obj 1110 808 t b b;
#X obj 1109 868 -;
#X obj 1139 829 random 80;
#X obj 1139 850 random 80;
#X msg 699 849 224;
#X msg 793 847 224;
#X msg 893 846 224;
#X obj 1284 914 s pack;
#X obj 1249 836 +;
#X obj 1249 815 t b b;
#X obj 1248 875 -;
#X obj 1278 836 random 80;
#X obj 1278 857 random 80;
#X obj 1379 913 s pack;
#X obj 1344 835 +;
#X obj 1344 814 t b b;
#X obj 1343 874 -;
#X obj 1373 835 random 80;
#X obj 1373 856 random 80;
#X obj 1400 814 * 0.1;
#X msg 1250 858 224;
#X msg 1021 666 672;
#X msg 1678 679 1344;
#X msg 1004 846 224;
#X msg 1110 850 224;
#X msg 1715 708 73 1 \$1;
#X msg 834 868 109 1 \$1;
#X msg 1147 879 82 1 \$1;
#X msg 1287 881 73 1 \$1;
#X msg 1385 877 65 1 \$1;
#X floatatom 1248 897 5 0 0 0 - - -, f 5;
#X msg 1163 698 75 1 \$1;
#X msg 1064 500 62 1 \$1;
#X msg 1344 856 2600;
#X msg 1081 320 55 69 \$1;
#X msg 1632 329 58 69 \$1;
#X obj 1083 350 s pack2;
#X obj 1633 358 s pack2;
#X obj 1056 723 s pack2;
#X msg 1054 696 44 62 \$1;
#X msg 1605 704 54 62 \$1;
#X obj 1607 731 s pack2;
#X obj 1496 732 s pack;
#X msg 1497 699 49 1 \$1;
#X obj 733 905 s pack2;
#X msg 736 872 76 97 \$1;
#X obj 928 903 s pack2;
#X msg 929 870 104 98 \$1;
#X obj 1039 903 s pack2;
#X msg 1037 876 94 87 \$1;
#X obj 798 250 * 0.05;
#X obj 893 249 * 0.05;
#X obj 993 248 * 0.05;
#X obj 1349 259 * 0.05;
#X obj 1444 258 * 0.05;
#X obj 1544 257 * 0.05;
#X obj 781 430 * 0.05;
#X obj 876 429 * 0.05;
#X obj 976 428 * 0.05;
#X obj 1087 428 * 0.05;
#X obj 1193 432 * 0.05;
#X obj 1332 439 * 0.05;
#X obj 771 626 * 0.05;
#X obj 866 625 * 0.05;
#X obj 966 624 * 0.05;
#X obj 1077 624 * 0.1;
#X obj 1322 635 * 0.05;
#X obj 1417 634 * 0.05;
#X obj 1517 633 * 0.05;
#X obj 754 806 * 0.05;
#X obj 849 805 * 0.05;
#X obj 949 804 * 0.05;
#X obj 1060 804 * 0.05;
#X obj 1166 808 * 0.05;
#X obj 1305 815 * 0.05;
#X connect 0 1 1 0;
#X connect 1 0 2 0;
#X connect 2 0 3 0;
#X connect 3 0 4 0;
#X connect 3 0 5 0;
#X connect 4 0 3 1;
#X connect 5 0 8 0;
#X connect 6 0 3 0;
#X connect 7 0 6 0;
#X connect 8 0 13 0;
#X connect 8 1 19 0;
#X connect 8 2 25 0;
#X connect 8 3 30 0;
#X connect 8 4 37 0;
#X connect 8 5 51 0;
#X connect 8 6 57 0;
#X connect 8 7 63 0;
#X connect 8 8 68 0;
#X connect 8 9 75 0;
#X connect 8 10 91 0;
#X connect 8 11 97 0;
#X connect 8 12 103 0;
#X connect 8 13 109 0;
#X connect 8 14 115 0;
#X connect 8 15 124 0;
#X connect 8 16 130 0;
#X connect 8 17 149 0;
#X connect 8 18 155 0;
#X connect 8 19 161 0;
#X connect 8 20 166 0;
#X connect 8 21 172 0;
#X connect 8 22 185 0;
#X connect 8 23 191 0;
#X connect 8 24 196 0;
#X connect 8 25 201 0;
#X connect 8 26 208 0;
#X connect 8 27 221 0;
#X connect 8 28 227 0;
#X connect 8 29 232 0;
#X connect 8 30 237 0;
#X connect 8 31 243 0;
#X connect 8 32 252 0;
#X connect 8 33 258 0;
#X connect 9 0 3 0;
#X connect 10 0 9 0;
#X connect 12 0 14 0;
#X connect 13 0 42 0;
#X connect 13 1 15 0;
#X connect 13 1 16 0;
#X connect 14 0 45 0;
#X connect 15 0 12 1;
#X connect 16 0 14 1;
#X connect 18 0 20 0;
#X connect 19 0 43 0;
#X connect 19 1 21 0;
#X connect 19 1 22 0;
#X connect 20 0 46 0;
#X connect 21 0 18 1;
#X connect 22 0 20 1;
#X connect 24 0 26 0;
#X connect 25 0 44 0;
#X connect 25 1 27 0;
#X connect 25 1 28 0;
#X connect 26 0 47 0;
#X connect 27 0 24 1;
#X connect 28 0 26 1;
#X connect 29 0 31 0;
#X connect 30 0 137 0;
#X connect 30 1 32 0;
#X connect 30 1 33 0;
#X connect 31 0 277 0;
#X connect 32 0 29 1;
#X connect 33 0 31 1;
#X connect 34 0 32 1;
#X connect 34 0 33 1;
#X connect 36 0 38 0;
#X connect 37 0 88 0;
#X connect 37 1 39 0;
#X connect 37 1 40 0;
#X connect 38 0 48 0;
#X connect 39 0 36 1;
#X connect 40 0 38 1;
#X connect 41 0 39 1;
#X connect 41 0 40 1;
#X connect 42 0 12 0;
#X connect 42 0 293 0;
#X connect 43 0 18 0;
#X connect 43 0 294 0;
#X connect 44 0 24 0;
#X connect 44 0 295 0;
#X connect 45 0 11 0;
#X connect 45 0 0 0;
#X connect 46 0 17 0;
#X connect 46 0 0 0;
#X connect 47 0 23 0;
#X connect 47 0 0 0;
#X connect 48 0 35 0;
#X connect 48 0 0 0;
#X connect 50 0 52 0;
#X connect 51 0 80 0;
#X connect 51 1 53 0;
#X connect 51 1 54 0;
#X connect 52 0 84 0;
#X connect 53 0 50 1;
#X connect 54 0 52 1;
#X connect 56 0 58 0;
#X connect 57 0 81 0;
#X connect 57 1 59 0;
#X connect 57 1 60 0;
#X connect 58 0 85 0;
#X connect 59 0 56 1;
#X connect 60 0 58 1;
#X connect 62 0 64 0;
#X connect 63 0 82 0;
#X connect 63 1 65 0;
#X connect 63 1 66 0;
#X connect 64 0 86 0;
#X connect 65 0 62 1;
#X connect 66 0 64 1;
#X connect 67 0 69 0;
#X connect 68 0 83 0;
#X connect 68 1 70 0;
#X connect 68 1 71 0;
#X connect 69 0 278 0;
#X connect 70 0 67 1;
#X connect 71 0 69 1;
#X connect 72 0 70 1;
#X connect 72 0 71 1;
#X connect 74 0 76 0;
#X connect 75 0 138 0;
#X connect 75 1 77 0;
#X connect 75 1 78 0;
#X connect 76 0 87 0;
#X connect 77 0 74 1;
#X connect 78 0 76 1;
#X connect 79 0 77 1;
#X connect 79 0 78 1;
#X connect 80 0 50 0;
#X connect 80 0 296 0;
#X connect 81 0 56 0;
#X connect 81 0 297 0;
#X connect 82 0 62 0;
#X connect 82 0 298 0;
#X connect 83 0 67 0;
#X connect 83 0 72 0;
#X connect 84 0 49 0;
#X connect 84 0 0 0;
#X connect 85 0 55 0;
#X connect 85 0 0 0;
#X connect 86 0 61 0;
#X connect 86 0 0 0;
#X connect 87 0 73 0;
#X connect 87 0 0 0;
#X connect 88 0 36 0;
#X connect 88 0 41 0;
#X connect 90 0 92 0;
#X connect 91 0 119 0;
#X connect 91 1 93 0;
#X connect 91 1 94 0;
#X connect 92 0 139 0;
#X connect 93 0 90 1;
#X connect 94 0 92 1;
#X connect 96 0 98 0;
#X connect 97 0 120 0;
#X connect 97 1 99 0;
#X connect 97 1 100 0;
#X connect 98 0 140 0;
#X connect 99 0 96 1;
#X connect 100 0 98 1;
#X connect 102 0 104 0;
#X connect 103 0 121 0;
#X connect 103 1 105 0;
#X connect 103 1 106 0;
#X connect 104 0 141 0;
#X connect 105 0 102 1;
#X connect 106 0 104 1;
#X connect 108 0 110 0;
#X connect 109 0 144 0;
#X connect 109 1 111 0;
#X connect 109 1 112 0;
#X connect 110 0 275 0;
#X connect 111 0 108 1;
#X connect 112 0 110 1;
#X connect 114 0 116 0;
#X connect 115 0 145 0;
#X connect 115 1 117 0;
#X connect 115 1 118 0;
#X connect 116 0 142 0;
#X connect 117 0 114 1;
#X connect 118 0 116 1;
#X connect 119 0 90 0;
#X connect 119 0 299 0;
#X connect 120 0 96 0;
#X connect 120 0 300 0;
#X connect 121 0 102 0;
#X connect 121 0 301 0;
#X connect 123 0 125 0;
#X connect 124 0 135 0;
#X connect 124 1 126 0;
#X connect 124 1 127 0;
#X connect 125 0 143 0;
#X connect 126 0 123 1;
#X connect 127 0 125 1;
#X connect 129 0 131 0;
#X connect 130 0 146 0;
#X connect 130 1 132 0;
#X connect 130 1 133 0;
#X connect 131 0 136 0;
#X connect 132 0 129 1;
#X connect 133 0 131 1;
#X connect 134 0 132 1;
#X connect 134 0 133 1;
#X connect 135 0 123 0;
#X connect 135 0 304 0;
#X connect 136 0 128 0;
#X connect 136 0 0 0;
#X connect 137 0 29 0;
#X connect 137 0 34 0;
#X connect 138 0 74 0;
#X connect 138 0 79 0;
#X connect 139 0 89 0;
#X connect 139 0 0 0;
#X connect 140 0 95 0;
#X connect 140 0 0 0;
#X connect 141 0 101 0;
#X connect 141 0 0 0;
#X connect 142 0 113 0;
#X connect 142 0 0 0;
#X connect 143 0 122 0;
#X connect 143 0 0 0;
#X connect 144 0 108 0;
#X connect 144 0 302 0;
#X connect 145 0 114 0;
#X connect 145 0 303 0;
#X connect 146 0 129 0;
#X connect 146 0 134 0;
#X connect 148 0 150 0;
#X connect 149 0 177 0;
#X connect 149 1 151 0;
#X connect 149 1 152 0;
#X connect 150 0 180 0;
#X connect 151 0 148 1;
#X connect 152 0 150 1;
#X connect 154 0 156 0;
#X connect 155 0 178 0;
#X connect 155 1 157 0;
#X connect 155 1 158 0;
#X connect 156 0 181 0;
#X connect 157 0 154 1;
#X connect 158 0 156 1;
#X connect 160 0 162 0;
#X connect 161 0 179 0;
#X connect 161 1 163 0;
#X connect 161 1 164 0;
#X connect 162 0 182 0;
#X connect 163 0 160 1;
#X connect 164 0 162 1;
#X connect 165 0 167 0;
#X connect 166 0 264 0;
#X connect 166 1 168 0;
#X connect 166 1 169 0;
#X connect 167 0 282 0;
#X connect 168 0 165 1;
#X connect 169 0 167 1;
#X connect 171 0 173 0;
#X connect 172 0 219 0;
#X connect 172 1 174 0;
#X connect 172 1 175 0;
#X connect 173 0 274 0;
#X connect 174 0 171 1;
#X connect 175 0 173 1;
#X connect 176 0 174 1;
#X connect 176 0 175 1;
#X connect 177 0 148 0;
#X connect 177 0 305 0;
#X connect 178 0 154 0;
#X connect 178 0 306 0;
#X connect 179 0 160 0;
#X connect 179 0 307 0;
#X connect 180 0 147 0;
#X connect 180 0 0 0;
#X connect 181 0 153 0;
#X connect 181 0 0 0;
#X connect 182 0 159 0;
#X connect 182 0 0 0;
#X connect 184 0 186 0;
#X connect 185 0 213 0;
#X connect 185 1 187 0;
#X connect 185 1 188 0;
#X connect 186 0 217 0;
#X connect 187 0 184 1;
#X connect 188 0 186 1;
#X connect 190 0 192 0;
#X connect 191 0 214 0;
#X connect 191 1 193 0;
#X connect 191 1 194 0;
#X connect 192 0 218 0;
#X connect 193 0 190 1;
#X connect 194 0 192 1;
#X connect 195 0 197 0;
#X connect 196 0 215 0;
#X connect 196 1 198 0;
#X connect 196 1 199 0;
#X connect 197 0 286 0;
#X connect 198 0 195 1;
#X connect 199 0 197 1;
#X connect 200 0 202 0;
#X connect 201 0 216 0;
#X connect 201 1 203 0;
#X connect 201 1 204 0;
#X connect 202 0 283 0;
#X connect 203 0 200 1;
#X connect 204 0 202 1;
#X connect 205 0 203 1;
#X connect 205 0 204 1;
#X connect 207 0 209 0;
#X connect 208 0 265 0;
#X connect 208 1 210 0;
#X connect 208 1 211 0;
#X connect 209 0 268 0;
#X connect 210 0 207 1;
#X connect 211 0 209 1;
#X connect 212 0 210 1;
#X connect 212 0 211 1;
#X connect 213 0 184 0;
#X connect 213 0 309 0;
#X connect 214 0 190 0;
#X connect 214 0 310 0;
#X connect 215 0 195 0;
#X connect 215 0 311 0;
#X connect 216 0 200 0;
#X connect 216 0 205 0;
#X connect 217 0 183 0;
#X connect 217 0 0 0;
#X connect 218 0 189 0;
#X connect 218 0 0 0;
#X connect 219 0 171 0;
#X connect 219 0 176 0;
#X connect 220 0 222 0;
#X connect 221 0 247 0;
#X connect 221 1 223 0;
#X connect 221 1 224 0;
#X connect 222 0 288 0;
#X connect 223 0 220 1;
#X connect 224 0 222 1;
#X connect 226 0 228 0;
#X connect 227 0 248 0;
#X connect 227 1 229 0;
#X connect 227 1 230 0;
#X connect 228 0 269 0;
#X connect 229 0 226 1;
#X connect 230 0 228 1;
#X connect 231 0 233 0;
#X connect 232 0 249 0;
#X connect 232 1 234 0;
#X connect 232 1 235 0;
#X connect 233 0 290 0;
#X connect 234 0 231 1;
#X connect 235 0 233 1;
#X connect 236 0 238 0;
#X connect 237 0 266 0;
#X connect 237 1 239 0;
#X connect 237 1 240 0;
#X connect 238 0 292 0;
#X connect 239 0 236 1;
#X connect 240 0 238 1;
#X connect 242 0 244 0;
#X connect 243 0 267 0;
#X connect 243 1 245 0;
#X connect 243 1 246 0;
#X connect 244 0 270 0;
#X connect 245 0 242 1;
#X connect 246 0 244 1;
#X connect 247 0 220 0;
#X connect 247 0 312 0;
#X connect 248 0 226 0;
#X connect 248 0 313 0;
#X connect 249 0 231 0;
#X connect 249 0 314 0;
#X connect 251 0 253 0;
#X connect 252 0 263 0;
#X connect 252 1 254 0;
#X connect 252 1 255 0;
#X connect 253 0 271 0;
#X connect 253 0 273 0;
#X connect 254 0 251 1;
#X connect 255 0 253 1;
#X connect 257 0 259 0;
#X connect 258 0 276 0;
#X connect 258 1 260 0;
#X connect 258 1 261 0;
#X connect 259 0 272 0;
#X connect 260 0 257 1;
#X connect 261 0 259 1;
#X connect 262 0 260 1;
#X connect 262 0 261 1;
#X connect 263 0 251 0;
#X connect 263 0 317 0;
#X connect 264 0 165 0;
#X connect 264 0 308 0;
#X connect 265 0 207 0;
#X connect 265 0 212 0;
#X connect 266 0 236 0;
#X connect 266 0 315 0;
#X connect 267 0 242 0;
#X connect 267 0 316 0;
#X connect 268 0 206 0;
#X connect 268 0 0 0;
#X connect 269 0 225 0;
#X connect 269 0 0 0;
#X connect 270 0 241 0;
#X connect 270 0 0 0;
#X connect 271 0 250 0;
#X connect 271 0 0 0;
#X connect 272 0 256 0;
#X connect 272 0 0 0;
#X connect 274 0 170 0;
#X connect 274 0 0 0;
#X connect 275 0 107 0;
#X connect 275 0 0 0;
#X connect 276 0 257 0;
#X connect 276 0 262 0;
#X connect 277 0 0 0;
#X connect 277 0 279 0;
#X connect 278 0 0 0;
#X connect 278 0 280 0;
#X connect 282 0 0 0;
#X connect 282 0 281 0;
#X connect 283 0 0 0;
#X connect 283 0 284 0;
#X connect 286 0 0 0;
#X connect 286 0 285 0;
#X connect 288 0 0 0;
#X connect 288 0 287 0;
#X connect 290 0 0 0;
#X connect 290 0 289 0;
#X connect 292 0 0 0;
#X connect 292 0 291 0;
#X connect 293 0 15 1;
#X connect 293 0 16 1;
#X connect 294 0 21 1;
#X connect 294 0 22 1;
#X connect 295 0 27 1;
#X connect 295 0 28 1;
#X connect 296 0 53 1;
#X connect 296 0 54 1;
#X connect 297 0 59 1;
#X connect 297 0 60 1;
#X connect 298 0 65 1;
#X connect 298 0 66 1;
#X connect 299 0 93 1;
#X connect 299 0 94 1;
#X connect 300 0 99 1;
#X connect 300 0 100 1;
#X connect 301 0 105 1;
#X connect 301 0 106 1;
#X connect 302 0 111 1;
#X connect 302 0 112 1;
#X connect 303 0 117 1;
#X connect 303 0 118 1;
#X connect 304 0 126 1;
#X connect 304 0 127 1;
#X connect 305 0 151 1;
#X connect 305 0 152 1;
#X connect 306 0 157 1;
#X connect 306 0 158 1;
#X connect 307 0 163 1;
#X connect 307 0 164 1;
#X connect 308 0 168 1;
#X connect 308 0 169 1;
#X connect 309 0 187 1;
#X connect 309 0 188 1;
#X connect 310 0 193 1;
#X connect 310 0 194 1;
#X connect 311 0 198 1;
#X connect 311 0 199 1;
#X connect 312 0 223 1;
#X connect 312 0 224 1;
#X connect 313 0 229 1;
#X connect 313 0 230 1;
#X connect 314 0 234 1;
#X connect 314 0 235 1;
#X connect 315 0 239 1;
#X connect 315 0 240 1;
#X connect 316 0 245 1;
#X connect 316 0 246 1;
#X connect 317 0 254 1;
#X connect 317 0 255 1;
