#N canvas -7 0 958 988 10;
#X obj 250 341 select 0;
#X obj 250 365 bng 15 250 50 0 empty empty empty 17 7 0 10 -262144
-1 -1;
#X obj 302 364 float;
#X obj 341 365 + 1;
#X floatatom 302 386 5 0 0 0 - - -, f 5;
#X msg 471 159 0;
#X obj 20 322 inlet;
#X msg 72 335 99;
#X obj 68 273 inlet;
#X obj 677 285 s pack;
#X obj 642 207 +;
#X obj 642 186 t b b;
#X obj 641 246 -;
#X obj 671 207 random 80;
#X obj 671 228 random 80;
#X obj 698 186 * 0.1;
#X msg 643 229 625;
#X obj 762 94 select 0 1 2 3 4 5 6 7 8 9 10 11 12 13 14 15 16 17 18
19 20 21 22 23 24 25 26 27 28, f 134;
#X obj 787 296 s pack;
#X obj 752 218 +;
#X obj 752 197 t b b;
#X obj 751 257 -;
#X obj 781 218 random 80;
#X obj 781 239 random 80;
#X obj 808 197 * 0.1;
#X msg 753 240 625;
#X obj 856 228 +;
#X obj 856 207 t b b;
#X obj 855 267 -;
#X obj 885 228 random 80;
#X obj 885 249 random 80;
#X obj 912 207 * 0.1;
#X obj 481 311 makenote 1 100;
#X msg 680 252 65 1 \$1;
#X msg 790 263 65 1 \$1;
#X msg 894 273 65 1 \$1;
#X obj 891 306 s pack;
#X obj 966 233 +;
#X obj 966 212 t b b;
#X obj 965 272 -;
#X obj 995 233 random 80;
#X obj 995 254 random 80;
#X obj 1022 212 * 0.1;
#X obj 1001 311 s pack;
#X msg 1004 278 72 1 \$1;
#X obj 1092 236 +;
#X obj 1092 215 t b b;
#X obj 1091 275 -;
#X obj 1121 236 random 80;
#X obj 1121 257 random 80;
#X obj 1148 215 * 0.1;
#X obj 1127 314 s pack;
#X msg 1130 281 83 1 \$1;
#X msg 1093 258 525;
#X msg 857 250 400;
#X msg 967 255 200;
#X obj 670 428 +;
#X obj 670 407 t b b;
#X obj 669 467 -;
#X obj 699 428 random 80;
#X obj 699 449 random 80;
#X obj 726 407 * 0.1;
#X obj 705 506 s pack;
#X msg 708 473 83 1 \$1;
#X obj 780 426 +;
#X obj 780 405 t b b;
#X obj 779 465 -;
#X obj 809 426 random 80;
#X obj 809 447 random 80;
#X obj 836 405 * 0.1;
#X obj 815 504 s pack;
#X msg 819 471 72 1 \$1;
#X obj 891 426 +;
#X obj 891 405 t b b;
#X obj 890 465 -;
#X obj 920 426 random 80;
#X obj 920 447 random 80;
#X obj 947 405 * 0.1;
#X obj 926 504 s pack;
#X msg 930 471 83 1 \$1;
#X obj 1014 428 +;
#X obj 1014 407 t b b;
#X obj 1013 467 -;
#X obj 1043 428 random 80;
#X obj 1043 449 random 80;
#X obj 1070 407 * 0.1;
#X obj 1049 506 s pack;
#X msg 1053 473 87 1 \$1;
#X obj 1126 427 +;
#X obj 1126 406 t b b;
#X obj 1125 466 -;
#X obj 1155 427 random 80;
#X obj 1155 448 random 80;
#X obj 1182 406 * 0.1;
#X obj 1161 505 s pack;
#X msg 1165 472 98 1 \$1;
#X msg 671 450 400;
#X msg 782 448 200;
#X msg 893 447 400;
#X msg 1016 449 200;
#X msg 1128 448 1050;
#X obj 654 611 +;
#X obj 654 590 t b b;
#X obj 653 650 -;
#X obj 683 611 random 80;
#X obj 683 632 random 80;
#X obj 710 590 * 0.1;
#X msg 655 633 525;
#X obj 689 689 s pack2;
#X obj 795 613 +;
#X obj 795 592 t b b;
#X obj 794 652 -;
#X obj 824 613 random 80;
#X obj 824 634 random 80;
#X obj 851 592 * 0.1;
#X msg 796 635 525;
#X obj 830 691 s pack2;
#X obj 937 607 +;
#X obj 937 586 t b b;
#X obj 936 646 -;
#X obj 966 607 random 80;
#X obj 966 628 random 80;
#X obj 993 586 * 0.1;
#X msg 938 629 525;
#X obj 1096 614 +;
#X obj 1096 593 t b b;
#X obj 1095 653 -;
#X obj 1125 614 random 80;
#X obj 1125 635 random 80;
#X obj 1152 593 * 0.1;
#X msg 1097 636 525;
#X msg 833 658 104 98 \$1;
#X msg 975 652 83 1 \$1;
#X obj 972 685 s pack;
#X obj 1131 692 s pack;
#X msg 1134 659 65 1 \$1;
#X msg 692 656 100 130 \$1;
#X obj 645 770 +;
#X obj 645 749 t b b;
#X obj 644 809 -;
#X obj 674 770 random 80;
#X obj 674 791 random 80;
#X obj 701 749 * 0.1;
#X obj 755 768 +;
#X obj 755 747 t b b;
#X obj 754 807 -;
#X obj 784 768 random 80;
#X obj 784 789 random 80;
#X obj 811 747 * 0.1;
#X obj 790 846 s pack;
#X obj 866 768 +;
#X obj 866 747 t b b;
#X obj 865 807 -;
#X obj 895 768 random 80;
#X obj 895 789 random 80;
#X obj 922 747 * 0.1;
#X obj 901 846 s pack;
#X msg 905 813 83 1 \$1;
#X obj 989 770 +;
#X obj 989 749 t b b;
#X obj 988 809 -;
#X obj 1018 770 random 80;
#X obj 1018 791 random 80;
#X obj 1045 749 * 0.1;
#X obj 1024 848 s pack;
#X obj 1101 769 +;
#X obj 1101 748 t b b;
#X obj 1100 808 -;
#X obj 1130 769 random 80;
#X obj 1130 790 random 80;
#X obj 1157 748 * 0.1;
#X obj 1136 847 s pack;
#X msg 646 792 400;
#X msg 757 790 200;
#X msg 868 789 400;
#X msg 991 791 200;
#X msg 1103 790 1050;
#X obj 680 848 s pack2;
#X msg 683 815 98 104 \$1;
#X msg 794 813 87 1 \$1;
#X msg 1028 817 72 1 \$1;
#X msg 1140 814 65 1 \$1;
#X connect 0 0 1 0;
#X connect 1 0 2 0;
#X connect 2 0 3 0;
#X connect 2 0 4 0;
#X connect 3 0 2 1;
#X connect 4 0 17 0;
#X connect 5 0 2 0;
#X connect 6 0 5 0;
#X connect 7 0 2 0;
#X connect 8 0 7 0;
#X connect 10 0 12 0;
#X connect 11 0 16 0;
#X connect 11 1 13 0;
#X connect 11 1 14 0;
#X connect 12 0 33 0;
#X connect 13 0 10 1;
#X connect 14 0 12 1;
#X connect 15 0 13 1;
#X connect 15 0 14 1;
#X connect 16 0 10 0;
#X connect 16 0 15 0;
#X connect 17 0 11 0;
#X connect 17 1 20 0;
#X connect 17 2 27 0;
#X connect 17 3 38 0;
#X connect 17 4 46 0;
#X connect 17 5 57 0;
#X connect 17 6 65 0;
#X connect 17 7 73 0;
#X connect 17 8 81 0;
#X connect 17 9 89 0;
#X connect 17 10 102 0;
#X connect 17 11 110 0;
#X connect 17 12 118 0;
#X connect 17 13 125 0;
#X connect 17 14 138 0;
#X connect 17 15 144 0;
#X connect 17 16 151 0;
#X connect 17 17 159 0;
#X connect 17 18 166 0;
#X connect 19 0 21 0;
#X connect 20 0 25 0;
#X connect 20 1 22 0;
#X connect 20 1 23 0;
#X connect 21 0 34 0;
#X connect 22 0 19 1;
#X connect 23 0 21 1;
#X connect 24 0 22 1;
#X connect 24 0 23 1;
#X connect 25 0 19 0;
#X connect 25 0 24 0;
#X connect 26 0 28 0;
#X connect 27 0 54 0;
#X connect 27 1 29 0;
#X connect 27 1 30 0;
#X connect 28 0 35 0;
#X connect 29 0 26 1;
#X connect 30 0 28 1;
#X connect 31 0 29 1;
#X connect 31 0 30 1;
#X connect 32 1 0 0;
#X connect 33 0 9 0;
#X connect 33 0 32 0;
#X connect 34 0 18 0;
#X connect 34 0 32 0;
#X connect 35 0 32 0;
#X connect 35 0 36 0;
#X connect 37 0 39 0;
#X connect 38 0 55 0;
#X connect 38 1 40 0;
#X connect 38 1 41 0;
#X connect 39 0 44 0;
#X connect 40 0 37 1;
#X connect 41 0 39 1;
#X connect 42 0 40 1;
#X connect 42 0 41 1;
#X connect 44 0 43 0;
#X connect 44 0 32 0;
#X connect 45 0 47 0;
#X connect 46 0 53 0;
#X connect 46 1 48 0;
#X connect 46 1 49 0;
#X connect 47 0 52 0;
#X connect 48 0 45 1;
#X connect 49 0 47 1;
#X connect 50 0 48 1;
#X connect 50 0 49 1;
#X connect 52 0 51 0;
#X connect 52 0 32 0;
#X connect 53 0 45 0;
#X connect 53 0 50 0;
#X connect 54 0 26 0;
#X connect 54 0 31 0;
#X connect 55 0 37 0;
#X connect 55 0 42 0;
#X connect 56 0 58 0;
#X connect 57 0 96 0;
#X connect 57 1 59 0;
#X connect 57 1 60 0;
#X connect 58 0 63 0;
#X connect 59 0 56 1;
#X connect 60 0 58 1;
#X connect 61 0 59 1;
#X connect 61 0 60 1;
#X connect 63 0 62 0;
#X connect 63 0 32 0;
#X connect 64 0 66 0;
#X connect 65 0 97 0;
#X connect 65 1 67 0;
#X connect 65 1 68 0;
#X connect 66 0 71 0;
#X connect 67 0 64 1;
#X connect 68 0 66 1;
#X connect 69 0 67 1;
#X connect 69 0 68 1;
#X connect 71 0 70 0;
#X connect 71 0 32 0;
#X connect 72 0 74 0;
#X connect 73 0 98 0;
#X connect 73 1 75 0;
#X connect 73 1 76 0;
#X connect 74 0 79 0;
#X connect 75 0 72 1;
#X connect 76 0 74 1;
#X connect 77 0 75 1;
#X connect 77 0 76 1;
#X connect 79 0 78 0;
#X connect 79 0 32 0;
#X connect 80 0 82 0;
#X connect 81 0 99 0;
#X connect 81 1 83 0;
#X connect 81 1 84 0;
#X connect 82 0 87 0;
#X connect 83 0 80 1;
#X connect 84 0 82 1;
#X connect 85 0 83 1;
#X connect 85 0 84 1;
#X connect 87 0 86 0;
#X connect 87 0 32 0;
#X connect 88 0 90 0;
#X connect 89 0 100 0;
#X connect 89 1 91 0;
#X connect 89 1 92 0;
#X connect 90 0 95 0;
#X connect 91 0 88 1;
#X connect 92 0 90 1;
#X connect 93 0 91 1;
#X connect 93 0 92 1;
#X connect 95 0 94 0;
#X connect 95 0 32 0;
#X connect 96 0 56 0;
#X connect 96 0 61 0;
#X connect 97 0 64 0;
#X connect 97 0 69 0;
#X connect 98 0 72 0;
#X connect 98 0 77 0;
#X connect 99 0 80 0;
#X connect 99 0 85 0;
#X connect 100 0 88 0;
#X connect 100 0 93 0;
#X connect 101 0 103 0;
#X connect 102 0 107 0;
#X connect 102 1 104 0;
#X connect 102 1 105 0;
#X connect 103 0 136 0;
#X connect 104 0 101 1;
#X connect 105 0 103 1;
#X connect 106 0 104 1;
#X connect 106 0 105 1;
#X connect 107 0 101 0;
#X connect 107 0 106 0;
#X connect 109 0 111 0;
#X connect 110 0 115 0;
#X connect 110 1 112 0;
#X connect 110 1 113 0;
#X connect 111 0 131 0;
#X connect 112 0 109 1;
#X connect 113 0 111 1;
#X connect 114 0 112 1;
#X connect 114 0 113 1;
#X connect 115 0 109 0;
#X connect 115 0 114 0;
#X connect 117 0 119 0;
#X connect 118 0 123 0;
#X connect 118 1 120 0;
#X connect 118 1 121 0;
#X connect 119 0 132 0;
#X connect 120 0 117 1;
#X connect 121 0 119 1;
#X connect 122 0 120 1;
#X connect 122 0 121 1;
#X connect 123 0 117 0;
#X connect 123 0 122 0;
#X connect 124 0 126 0;
#X connect 125 0 130 0;
#X connect 125 1 127 0;
#X connect 125 1 128 0;
#X connect 126 0 135 0;
#X connect 127 0 124 1;
#X connect 128 0 126 1;
#X connect 129 0 127 1;
#X connect 129 0 128 1;
#X connect 130 0 124 0;
#X connect 130 0 129 0;
#X connect 131 0 116 0;
#X connect 131 0 32 0;
#X connect 132 0 32 0;
#X connect 132 0 133 0;
#X connect 135 0 32 0;
#X connect 135 0 134 0;
#X connect 136 0 32 0;
#X connect 136 0 108 0;
#X connect 137 0 139 0;
#X connect 138 0 172 0;
#X connect 138 1 140 0;
#X connect 138 1 141 0;
#X connect 139 0 178 0;
#X connect 140 0 137 1;
#X connect 141 0 139 1;
#X connect 142 0 140 1;
#X connect 142 0 141 1;
#X connect 143 0 145 0;
#X connect 144 0 173 0;
#X connect 144 1 146 0;
#X connect 144 1 147 0;
#X connect 145 0 179 0;
#X connect 146 0 143 1;
#X connect 147 0 145 1;
#X connect 148 0 146 1;
#X connect 148 0 147 1;
#X connect 150 0 152 0;
#X connect 151 0 174 0;
#X connect 151 1 153 0;
#X connect 151 1 154 0;
#X connect 152 0 157 0;
#X connect 153 0 150 1;
#X connect 154 0 152 1;
#X connect 155 0 153 1;
#X connect 155 0 154 1;
#X connect 157 0 156 0;
#X connect 157 0 32 0;
#X connect 158 0 160 0;
#X connect 159 0 175 0;
#X connect 159 1 161 0;
#X connect 159 1 162 0;
#X connect 160 0 180 0;
#X connect 161 0 158 1;
#X connect 162 0 160 1;
#X connect 163 0 161 1;
#X connect 163 0 162 1;
#X connect 165 0 167 0;
#X connect 166 0 176 0;
#X connect 166 1 168 0;
#X connect 166 1 169 0;
#X connect 167 0 181 0;
#X connect 168 0 165 1;
#X connect 169 0 167 1;
#X connect 170 0 168 1;
#X connect 170 0 169 1;
#X connect 172 0 137 0;
#X connect 172 0 142 0;
#X connect 173 0 143 0;
#X connect 173 0 148 0;
#X connect 174 0 150 0;
#X connect 174 0 155 0;
#X connect 175 0 158 0;
#X connect 175 0 163 0;
#X connect 176 0 165 0;
#X connect 176 0 170 0;
#X connect 178 0 32 0;
#X connect 178 0 177 0;
#X connect 179 0 149 0;
#X connect 179 0 32 0;
#X connect 180 0 164 0;
#X connect 180 0 32 0;
#X connect 181 0 171 0;
#X connect 181 0 32 0;
