#N canvas 0 50 1916 997 10;
#X obj 168 310 makenote 1 100;
#X obj 60 114 s pack;
#X obj 250 341 select 0;
#X obj 250 365 bng 15 250 50 0 empty empty empty 17 7 0 10 -262144
-1 -1;
#X obj 302 364 float;
#X obj 341 365 + 1;
#X floatatom 302 386 5 0 0 0 - - -, f 5;
#X msg 16 363 0;
#X obj 381 112 s pack;
#X obj 456 113 s pack;
#X obj 540 113 s pack;
#X obj 608 120 s pack;
#X obj 114 116 s pack;
#X obj 192 117 s pack;
#X obj 265 120 s pack;
#X obj 20 322 inlet;
#X obj 943 117 s pack;
#X obj 1018 118 s pack;
#X obj 1102 118 s pack;
#X obj 1170 125 s pack;
#X obj 1319 128 s pack;
#X obj 1401 126 s pack;
#X obj 1486 125 s pack;
#X obj 1573 127 s pack;
#X obj 879 441 s pack;
#X obj 961 445 s pack;
#X obj 1043 444 s pack;
#X obj 1124 446 s pack;
#X obj 1260 453 s pack;
#X obj 1339 452 s pack;
#X obj 1423 453 s pack;
#X obj 1504 455 s pack;
#X obj 1579 451 s pack;
#X obj 1657 456 s pack;
#X obj 911 741 s pack;
#X obj 986 742 s pack;
#X obj 1070 742 s pack;
#X obj 1138 749 s pack;
#X obj 1345 775 s pack;
#X obj 1427 773 s pack;
#X obj 1512 772 s pack;
#X obj 711 497 select 0 1 2 3 4 5 6 7 8 9 10 11 12 13 14 15 16 17 18
19 20 21 22 23 24 25 26 27 28 29 30 31 32 33, f 118;
#X msg 72 335 99;
#X obj 68 273 inlet;
#X obj 1599 774 s pack2;
#X obj 1593 689 random 10;
#X obj 3 -2 +;
#X obj 3 -23 t b b;
#X obj 3 40 -;
#X msg 44 80 65 1 \$1;
#X obj 100 -3 +;
#X obj 100 -24 t b b;
#X obj 100 39 -;
#X msg 119 78 82 1 \$1;
#X obj 196 -1 +;
#X obj 196 -22 t b b;
#X obj 196 41 -;
#X obj 291 -5 +;
#X obj 291 -26 t b b;
#X obj 291 37 -;
#X obj 385 -9 +;
#X obj 385 -30 t b b;
#X obj 385 33 -;
#X obj 480 -10 +;
#X obj 480 -31 t b b;
#X obj 480 32 -;
#X obj 577 -15 +;
#X obj 577 -36 t b b;
#X obj 577 27 -;
#X obj 674 -15 +;
#X obj 672 -37 t b b;
#X obj 674 27 -;
#X msg 192 81 87 1 \$1;
#X msg 259 83 98 1 \$1;
#X msg 386 78 66 1 \$1;
#X msg 461 76 83 1 \$1;
#X msg 534 79 87 1 \$1;
#X msg 601 81 98 1 \$1;
#X obj 326 -5 random 100;
#X obj 325 16 random 100;
#X obj 712 -19 random 100;
#X obj 707 5 random 100;
#X obj 39 -1 random 40;
#X obj 37 19 random 40;
#X obj 136 -4 random 40;
#X obj 134 18 random 40;
#X obj 231 -2 random 40;
#X obj 231 21 random 40;
#X obj 420 -9 random 40;
#X obj 421 14 random 40;
#X obj 515 -11 random 40;
#X obj 515 11 random 40;
#X obj 602 -14 random 40;
#X obj 604 8 random 40;
#X obj 898 -20 +;
#X obj 898 -41 t b b;
#X obj 898 22 -;
#X obj 933 -20 random 40;
#X obj 934 3 random 40;
#X obj 994 -19 +;
#X obj 994 -40 t b b;
#X obj 994 23 -;
#X obj 1029 -19 random 40;
#X obj 1030 4 random 40;
#X obj 1090 -19 +;
#X obj 1090 -40 t b b;
#X obj 1090 23 -;
#X obj 1184 -20 +;
#X obj 1184 -41 t b b;
#X obj 1184 22 -;
#X obj 1280 -25 +;
#X obj 1280 -46 t b b;
#X obj 1280 17 -;
#X obj 1381 -24 +;
#X obj 1381 -45 t b b;
#X obj 1381 18 -;
#X obj 1478 -28 +;
#X obj 1478 -49 t b b;
#X obj 1478 14 -;
#X obj 1577 -27 +;
#X obj 1573 -53 t b b;
#X obj 1577 15 -;
#X obj 1612 -27 random 40;
#X obj 1613 -4 random 40;
#X obj 1125 -19 random 80;
#X obj 1126 4 random 80;
#X obj 1219 -20 random 80;
#X obj 1220 3 random 80;
#X obj 1315 -25 random 80;
#X obj 1316 -2 random 80;
#X obj 1416 -25 random 80;
#X obj 1418 -1 random 80;
#X obj 1513 -30 random 80;
#X obj 1514 -4 random 80;
#X obj 1638 -49 * 0.1;
#X obj 1534 -51 * 0.1;
#X obj 831 310 +;
#X obj 831 289 t b b;
#X obj 831 352 -;
#X obj 866 310 random 40;
#X obj 867 333 random 40;
#X obj 928 311 +;
#X obj 928 290 t b b;
#X obj 928 353 -;
#X obj 963 311 random 40;
#X obj 964 334 random 40;
#X obj 1028 307 +;
#X obj 1028 286 t b b;
#X obj 1028 349 -;
#X obj 1063 307 random 40;
#X obj 1064 330 random 40;
#X obj 1130 303 +;
#X obj 1130 282 t b b;
#X obj 1130 345 -;
#X obj 1230 303 +;
#X obj 1230 282 t b b;
#X obj 1230 345 -;
#X obj 1265 303 random 40;
#X obj 1266 326 random 40;
#X obj 1330 304 +;
#X obj 1330 283 t b b;
#X obj 1330 346 -;
#X obj 1424 302 +;
#X obj 1424 281 t b b;
#X obj 1424 344 -;
#X obj 1459 302 random 40;
#X obj 1460 325 random 40;
#X obj 1520 297 +;
#X obj 1520 276 t b b;
#X obj 1520 339 -;
#X obj 1555 297 random 40;
#X obj 1556 320 random 40;
#X obj 1618 297 +;
#X obj 1618 276 t b b;
#X obj 1618 339 -;
#X obj 1653 297 random 40;
#X obj 1654 320 random 40;
#X obj 1716 294 +;
#X obj 1716 273 t b b;
#X obj 1716 336 -;
#X msg 949 82 64 1 \$1;
#X msg 1024 81 84 1 \$1;
#X msg 1097 85 88 1 \$1;
#X msg 1163 85 97 1 \$1;
#X msg 1311 89 83 1 \$1;
#X msg 1394 86 66 1 \$1;
#X msg 1479 86 82 1 \$1;
#X msg 1567 89 73 1 \$1;
#X obj 1165 303 random 80;
#X obj 1166 326 random 80;
#X obj 1365 304 random 80;
#X obj 1364 327 random 80;
#X obj 1751 294 random 100;
#X obj 1752 316 random 100;
#X msg 873 403 73 1 \$1;
#X msg 957 408 82 1 \$1;
#X msg 1037 405 74 1 \$1;
#X msg 1120 408 65 1 \$1;
#X msg 1255 415 62 1 \$1;
#X msg 1337 417 83 1 \$1;
#X msg 1419 414 99 1 \$1;
#X msg 1500 416 98 1 \$1;
#X msg 1574 412 98 1 \$1;
#X msg 1653 418 87 1 \$1;
#X obj 863 597 +;
#X obj 863 576 t b b;
#X obj 863 639 -;
#X obj 898 595 random 80;
#X obj 899 621 random 80;
#X obj 960 588 +;
#X obj 960 567 t b b;
#X obj 960 630 -;
#X obj 995 586 random 80;
#X obj 996 612 random 80;
#X obj 1065 582 +;
#X obj 1065 561 t b b;
#X obj 1065 624 -;
#X obj 1100 580 random 80;
#X obj 1101 606 random 80;
#X obj 1165 600 +;
#X obj 1165 579 t b b;
#X obj 1165 642 -;
#X obj 1200 598 random 80;
#X obj 1201 624 random 80;
#X obj 1221 577 * 0.1;
#X obj 1283 626 +;
#X obj 1283 605 t b b;
#X obj 1283 668 -;
#X obj 1318 624 random 80;
#X obj 1319 650 random 80;
#X obj 1339 603 * 0.1;
#X obj 1383 623 +;
#X obj 1383 602 t b b;
#X obj 1383 665 -;
#X obj 1418 621 random 80;
#X obj 1419 647 random 80;
#X obj 1439 600 * 0.1;
#X obj 1493 618 +;
#X obj 1493 597 t b b;
#X obj 1493 660 -;
#X obj 1528 616 random 80;
#X obj 1529 642 random 80;
#X obj 1549 595 * 0.1;
#X msg 917 706 87 1 \$1;
#X msg 991 705 82 1 \$1;
#X msg 1065 709 87 1 \$1;
#X msg 1131 710 97 1 \$1;
#X msg 1338 736 83 1 \$1;
#X msg 1420 735 66 1 \$1;
#X msg 1505 733 73 1 \$1;
#X msg 2 19 247;
#X msg 101 18 247;
#X msg 196 20 247;
#X msg 291 16 1222;
#X msg 385 12 247;
#X msg 480 11 247;
#X msg 578 6 247;
#X msg 674 6 1222;
#X msg 898 1 247;
#X msg 994 2 247;
#X msg 1090 2 247;
#X msg 1184 1 487;
#X msg 1279 -2 487;
#X msg 1381 -3 487;
#X msg 1478 -7 487;
#X msg 1577 -6 1222;
#X msg 831 331 247;
#X msg 928 332 247;
#X msg 1028 328 247;
#X msg 1131 324 733;
#X msg 1230 324 247;
#X msg 1330 325 487;
#X msg 1425 323 247;
#X msg 1518 318 247;
#X msg 1618 318 247;
#X msg 1716 315 977;
#X msg 863 618 247;
#X msg 960 609 247;
#X msg 1065 603 247;
#X msg 1168 621 487;
#X msg 1283 649 487;
#X msg 1383 644 487;
#X msg 1493 639 487;
#X msg 1595 736 \$1 66 2445;
#X obj 1595 713 + 56;
#X obj 1120 559 * 0.05;
#X obj 1016 565 * 0.05;
#X obj 919 574 * 0.05;
#X connect 0 1 2 0;
#X connect 2 0 3 0;
#X connect 3 0 4 0;
#X connect 4 0 5 0;
#X connect 4 0 6 0;
#X connect 5 0 4 1;
#X connect 6 0 41 0;
#X connect 7 0 4 0;
#X connect 15 0 7 0;
#X connect 41 0 47 0;
#X connect 41 1 51 0;
#X connect 41 2 55 0;
#X connect 41 3 58 0;
#X connect 41 4 61 0;
#X connect 41 5 64 0;
#X connect 41 6 67 0;
#X connect 41 7 70 0;
#X connect 41 8 95 0;
#X connect 41 9 100 0;
#X connect 41 10 105 0;
#X connect 41 11 108 0;
#X connect 41 12 111 0;
#X connect 41 13 114 0;
#X connect 41 14 117 0;
#X connect 41 15 120 0;
#X connect 41 16 137 0;
#X connect 41 17 142 0;
#X connect 41 18 147 0;
#X connect 41 19 152 0;
#X connect 41 20 155 0;
#X connect 41 21 160 0;
#X connect 41 22 163 0;
#X connect 41 23 168 0;
#X connect 41 24 173 0;
#X connect 41 25 178 0;
#X connect 41 26 205 0;
#X connect 41 27 210 0;
#X connect 41 28 215 0;
#X connect 41 29 220 0;
#X connect 41 30 226 0;
#X connect 41 31 232 0;
#X connect 41 32 238 0;
#X connect 41 33 45 0;
#X connect 42 0 4 0;
#X connect 43 0 42 0;
#X connect 45 0 284 0;
#X connect 46 0 48 0;
#X connect 47 0 250 0;
#X connect 47 1 82 0;
#X connect 47 1 83 0;
#X connect 48 0 49 0;
#X connect 49 0 1 0;
#X connect 49 0 0 0;
#X connect 50 0 52 0;
#X connect 51 0 251 0;
#X connect 51 1 84 0;
#X connect 51 1 85 0;
#X connect 52 0 53 0;
#X connect 53 0 0 0;
#X connect 53 0 12 0;
#X connect 54 0 56 0;
#X connect 55 0 252 0;
#X connect 55 1 86 0;
#X connect 55 1 87 0;
#X connect 56 0 72 0;
#X connect 57 0 59 0;
#X connect 58 0 253 0;
#X connect 58 1 78 0;
#X connect 58 1 79 0;
#X connect 59 0 73 0;
#X connect 60 0 62 0;
#X connect 61 0 254 0;
#X connect 61 1 88 0;
#X connect 61 1 89 0;
#X connect 62 0 74 0;
#X connect 63 0 65 0;
#X connect 64 0 255 0;
#X connect 64 1 90 0;
#X connect 64 1 91 0;
#X connect 65 0 75 0;
#X connect 66 0 68 0;
#X connect 67 0 256 0;
#X connect 67 1 92 0;
#X connect 67 1 93 0;
#X connect 68 0 76 0;
#X connect 69 0 71 0;
#X connect 70 0 257 0;
#X connect 70 1 80 0;
#X connect 70 1 81 0;
#X connect 71 0 77 0;
#X connect 72 0 0 0;
#X connect 72 0 13 0;
#X connect 73 0 0 0;
#X connect 73 0 14 0;
#X connect 74 0 8 0;
#X connect 74 0 0 0;
#X connect 75 0 9 0;
#X connect 75 0 0 0;
#X connect 76 0 10 0;
#X connect 76 0 0 0;
#X connect 77 0 11 0;
#X connect 77 0 0 0;
#X connect 78 0 57 1;
#X connect 79 0 59 1;
#X connect 80 0 69 1;
#X connect 81 0 71 1;
#X connect 82 0 46 1;
#X connect 83 0 48 1;
#X connect 84 0 50 1;
#X connect 85 0 52 1;
#X connect 86 0 54 1;
#X connect 87 0 56 1;
#X connect 88 0 60 1;
#X connect 89 0 62 1;
#X connect 90 0 63 1;
#X connect 91 0 65 1;
#X connect 92 0 66 1;
#X connect 93 0 68 1;
#X connect 94 0 96 0;
#X connect 95 0 258 0;
#X connect 95 1 97 0;
#X connect 95 1 98 0;
#X connect 96 0 180 0;
#X connect 97 0 94 1;
#X connect 98 0 96 1;
#X connect 99 0 101 0;
#X connect 100 0 259 0;
#X connect 100 1 102 0;
#X connect 100 1 103 0;
#X connect 101 0 181 0;
#X connect 102 0 99 1;
#X connect 103 0 101 1;
#X connect 104 0 106 0;
#X connect 105 0 260 0;
#X connect 105 1 124 0;
#X connect 105 1 125 0;
#X connect 106 0 182 0;
#X connect 107 0 109 0;
#X connect 108 0 261 0;
#X connect 108 1 126 0;
#X connect 108 1 127 0;
#X connect 109 0 183 0;
#X connect 110 0 112 0;
#X connect 111 0 262 0;
#X connect 111 1 128 0;
#X connect 111 1 129 0;
#X connect 112 0 184 0;
#X connect 113 0 115 0;
#X connect 114 0 263 0;
#X connect 114 1 130 0;
#X connect 114 1 131 0;
#X connect 115 0 185 0;
#X connect 116 0 118 0;
#X connect 117 0 264 0;
#X connect 117 1 132 0;
#X connect 117 1 133 0;
#X connect 118 0 186 0;
#X connect 119 0 121 0;
#X connect 120 0 265 0;
#X connect 120 1 122 0;
#X connect 120 1 123 0;
#X connect 121 0 187 0;
#X connect 122 0 119 1;
#X connect 123 0 121 1;
#X connect 124 0 104 1;
#X connect 125 0 106 1;
#X connect 126 0 107 1;
#X connect 127 0 109 1;
#X connect 128 0 110 1;
#X connect 129 0 112 1;
#X connect 130 0 113 1;
#X connect 131 0 115 1;
#X connect 132 0 116 1;
#X connect 133 0 118 1;
#X connect 134 0 122 1;
#X connect 134 0 123 1;
#X connect 135 0 132 1;
#X connect 135 0 133 1;
#X connect 136 0 138 0;
#X connect 137 0 266 0;
#X connect 137 1 139 0;
#X connect 137 1 140 0;
#X connect 138 0 194 0;
#X connect 139 0 136 1;
#X connect 140 0 138 1;
#X connect 141 0 143 0;
#X connect 142 0 267 0;
#X connect 142 1 144 0;
#X connect 142 1 145 0;
#X connect 143 0 195 0;
#X connect 144 0 141 1;
#X connect 145 0 143 1;
#X connect 146 0 148 0;
#X connect 147 0 268 0;
#X connect 147 1 149 0;
#X connect 147 1 150 0;
#X connect 148 0 196 0;
#X connect 149 0 146 1;
#X connect 150 0 148 1;
#X connect 151 0 153 0;
#X connect 152 0 269 0;
#X connect 152 1 188 0;
#X connect 152 1 189 0;
#X connect 153 0 197 0;
#X connect 154 0 156 0;
#X connect 155 0 270 0;
#X connect 155 1 157 0;
#X connect 155 1 158 0;
#X connect 156 0 198 0;
#X connect 157 0 154 1;
#X connect 158 0 156 1;
#X connect 159 0 161 0;
#X connect 160 0 271 0;
#X connect 160 1 190 0;
#X connect 160 1 191 0;
#X connect 161 0 199 0;
#X connect 162 0 164 0;
#X connect 163 0 272 0;
#X connect 163 1 165 0;
#X connect 163 1 166 0;
#X connect 164 0 200 0;
#X connect 165 0 162 1;
#X connect 166 0 164 1;
#X connect 167 0 169 0;
#X connect 168 0 273 0;
#X connect 168 1 170 0;
#X connect 168 1 171 0;
#X connect 169 0 201 0;
#X connect 170 0 167 1;
#X connect 171 0 169 1;
#X connect 172 0 174 0;
#X connect 173 0 274 0;
#X connect 173 1 175 0;
#X connect 173 1 176 0;
#X connect 174 0 202 0;
#X connect 175 0 172 1;
#X connect 176 0 174 1;
#X connect 177 0 179 0;
#X connect 178 0 275 0;
#X connect 178 1 192 0;
#X connect 178 1 193 0;
#X connect 179 0 203 0;
#X connect 180 0 16 0;
#X connect 180 0 0 0;
#X connect 181 0 17 0;
#X connect 181 0 0 0;
#X connect 182 0 18 0;
#X connect 182 0 0 0;
#X connect 183 0 19 0;
#X connect 183 0 0 0;
#X connect 184 0 20 0;
#X connect 184 0 0 0;
#X connect 185 0 21 0;
#X connect 185 0 0 0;
#X connect 186 0 22 0;
#X connect 186 0 0 0;
#X connect 187 0 23 0;
#X connect 187 0 0 0;
#X connect 188 0 151 1;
#X connect 189 0 153 1;
#X connect 190 0 159 1;
#X connect 191 0 161 1;
#X connect 192 0 177 1;
#X connect 193 0 179 1;
#X connect 194 0 24 0;
#X connect 194 0 0 0;
#X connect 195 0 25 0;
#X connect 195 0 0 0;
#X connect 196 0 26 0;
#X connect 196 0 0 0;
#X connect 197 0 27 0;
#X connect 197 0 0 0;
#X connect 198 0 28 0;
#X connect 198 0 0 0;
#X connect 199 0 29 0;
#X connect 199 0 0 0;
#X connect 200 0 30 0;
#X connect 200 0 0 0;
#X connect 201 0 31 0;
#X connect 201 0 0 0;
#X connect 202 0 32 0;
#X connect 202 0 0 0;
#X connect 203 0 33 0;
#X connect 203 0 0 0;
#X connect 204 0 206 0;
#X connect 205 0 276 0;
#X connect 205 1 207 0;
#X connect 205 1 208 0;
#X connect 206 0 243 0;
#X connect 207 0 204 1;
#X connect 208 0 206 1;
#X connect 209 0 211 0;
#X connect 210 0 277 0;
#X connect 210 1 212 0;
#X connect 210 1 213 0;
#X connect 211 0 244 0;
#X connect 212 0 209 1;
#X connect 213 0 211 1;
#X connect 214 0 216 0;
#X connect 215 0 278 0;
#X connect 215 1 217 0;
#X connect 215 1 218 0;
#X connect 216 0 245 0;
#X connect 217 0 214 1;
#X connect 218 0 216 1;
#X connect 219 0 221 0;
#X connect 220 0 279 0;
#X connect 220 1 222 0;
#X connect 220 1 223 0;
#X connect 221 0 246 0;
#X connect 222 0 219 1;
#X connect 223 0 221 1;
#X connect 224 0 222 1;
#X connect 224 0 223 1;
#X connect 225 0 227 0;
#X connect 226 0 280 0;
#X connect 226 1 228 0;
#X connect 226 1 229 0;
#X connect 227 0 247 0;
#X connect 228 0 225 1;
#X connect 229 0 227 1;
#X connect 230 0 228 1;
#X connect 230 0 229 1;
#X connect 231 0 233 0;
#X connect 232 0 281 0;
#X connect 232 1 234 0;
#X connect 232 1 235 0;
#X connect 233 0 248 0;
#X connect 234 0 231 1;
#X connect 235 0 233 1;
#X connect 236 0 234 1;
#X connect 236 0 235 1;
#X connect 237 0 239 0;
#X connect 238 0 282 0;
#X connect 238 1 240 0;
#X connect 238 1 241 0;
#X connect 239 0 249 0;
#X connect 240 0 237 1;
#X connect 241 0 239 1;
#X connect 242 0 240 1;
#X connect 242 0 241 1;
#X connect 243 0 34 0;
#X connect 243 0 0 0;
#X connect 244 0 35 0;
#X connect 244 0 0 0;
#X connect 245 0 36 0;
#X connect 245 0 0 0;
#X connect 246 0 37 0;
#X connect 246 0 0 0;
#X connect 247 0 38 0;
#X connect 247 0 0 0;
#X connect 248 0 39 0;
#X connect 248 0 0 0;
#X connect 249 0 40 0;
#X connect 249 0 0 0;
#X connect 250 0 46 0;
#X connect 251 0 50 0;
#X connect 252 0 54 0;
#X connect 253 0 57 0;
#X connect 254 0 60 0;
#X connect 255 0 63 0;
#X connect 256 0 66 0;
#X connect 257 0 69 0;
#X connect 258 0 94 0;
#X connect 259 0 99 0;
#X connect 260 0 104 0;
#X connect 261 0 107 0;
#X connect 262 0 110 0;
#X connect 263 0 113 0;
#X connect 264 0 116 0;
#X connect 264 0 135 0;
#X connect 265 0 119 0;
#X connect 265 0 134 0;
#X connect 266 0 136 0;
#X connect 267 0 141 0;
#X connect 268 0 146 0;
#X connect 269 0 151 0;
#X connect 270 0 154 0;
#X connect 271 0 159 0;
#X connect 272 0 162 0;
#X connect 273 0 167 0;
#X connect 274 0 172 0;
#X connect 275 0 177 0;
#X connect 276 0 204 0;
#X connect 276 0 287 0;
#X connect 277 0 209 0;
#X connect 277 0 286 0;
#X connect 278 0 214 0;
#X connect 278 0 285 0;
#X connect 279 0 219 0;
#X connect 279 0 224 0;
#X connect 280 0 225 0;
#X connect 280 0 230 0;
#X connect 281 0 231 0;
#X connect 281 0 236 0;
#X connect 282 0 237 0;
#X connect 282 0 242 0;
#X connect 283 0 0 0;
#X connect 283 0 44 0;
#X connect 284 0 283 0;
#X connect 285 0 217 1;
#X connect 285 0 218 1;
#X connect 286 0 212 1;
#X connect 286 0 213 1;
#X connect 287 0 207 1;
#X connect 287 0 208 1;
