#N canvas 0 50 1916 997 10;
#X obj 168 310 makenote 1 100;
#X obj 250 341 select 0;
#X obj 250 365 bng 15 250 50 0 empty empty empty 17 7 0 10 -262144
-1 -1;
#X obj 302 364 float;
#X obj 341 365 + 1;
#X floatatom 302 386 5 0 0 0 - - -, f 5;
#X msg 16 363 0;
#X obj 20 322 inlet;
#X msg 72 335 99;
#X obj 68 273 inlet;
#X obj 665 304 s pack;
#X obj 630 226 +;
#X obj 630 205 t b b;
#X obj 629 265 -;
#X obj 659 226 random 80;
#X obj 659 247 random 80;
#X obj 686 205 * 0.1;
#X msg 668 271 65 1 \$1;
#X msg 631 248 469;
#X obj 789 308 s pack;
#X obj 754 230 +;
#X obj 754 209 t b b;
#X obj 753 269 -;
#X obj 783 230 random 80;
#X obj 783 251 random 80;
#X obj 810 209 * 0.1;
#X msg 755 252 469;
#X msg 793 277 87 1 \$1;
#X obj 896 310 s pack;
#X obj 861 232 +;
#X obj 861 211 t b b;
#X obj 860 271 -;
#X obj 890 232 random 80;
#X obj 890 253 random 80;
#X obj 917 211 * 0.1;
#X msg 900 279 87 1 \$1;
#X msg 862 254 234;
#X obj 996 306 s pack;
#X obj 961 228 +;
#X obj 961 207 t b b;
#X obj 960 267 -;
#X obj 990 228 random 80;
#X obj 990 249 random 80;
#X obj 1017 207 * 0.1;
#X msg 1000 275 87 1 \$1;
#X msg 962 250 234;
#X obj 1096 302 s pack;
#X obj 1061 224 +;
#X obj 1061 203 t b b;
#X obj 1060 263 -;
#X obj 1090 224 random 80;
#X obj 1090 245 random 80;
#X obj 1117 203 * 0.1;
#X msg 1100 271 87 1 \$1;
#X msg 1062 246 469;
#X obj 1165 229 +;
#X obj 1165 208 t b b;
#X obj 1164 268 -;
#X obj 1194 229 random 80;
#X obj 1194 250 random 80;
#X obj 1221 208 * 0.1;
#X msg 1166 251 469;
#X msg 1202 276 98 110 \$1;
#X obj 1200 307 s pack2;
#X obj 1017 460 +;
#X obj 1017 439 t b b;
#X obj 1016 499 -;
#X obj 1046 460 random 80;
#X obj 1046 481 random 80;
#X obj 1073 439 * 0.1;
#X msg 1018 482 469;
#X obj 1052 538 s pack2;
#X obj 1133 461 +;
#X obj 1133 440 t b b;
#X obj 1132 500 -;
#X obj 1162 461 random 80;
#X obj 1162 482 random 80;
#X obj 1189 440 * 0.1;
#X msg 1134 483 469;
#X obj 1168 539 s pack2;
#X obj 1264 458 +;
#X obj 1264 437 t b b;
#X obj 1263 497 -;
#X obj 1293 458 random 80;
#X obj 1293 479 random 80;
#X obj 1312 435 * 0.1;
#X obj 1299 536 s pack2;
#X msg 1265 480 938;
#X obj 561 438 +;
#X obj 561 417 t b b;
#X obj 560 477 -;
#X obj 590 438 random 80;
#X obj 590 459 random 80;
#X obj 617 417 * 0.1;
#X msg 562 460 469;
#X obj 596 516 s pack2;
#X msg 598 485 114 130 \$1;
#X obj 677 439 +;
#X obj 677 418 t b b;
#X obj 676 478 -;
#X obj 706 439 random 80;
#X obj 706 460 random 80;
#X obj 733 418 * 0.1;
#X msg 678 461 469;
#X obj 712 517 s pack2;
#X msg 714 486 122 110 \$1;
#X obj 808 436 +;
#X obj 808 415 t b b;
#X obj 807 475 -;
#X obj 837 436 random 80;
#X obj 837 457 random 80;
#X obj 864 415 * 0.1;
#X obj 843 514 s pack2;
#X msg 845 483 100 87 \$1;
#X msg 809 458 938;
#X msg 1054 507 88 98 \$1;
#X msg 1170 508 78 82 \$1;
#X msg 1293 503 77 65 \$1;
#X obj 1426 457 +;
#X obj 1426 436 t b b;
#X obj 1425 496 -;
#X obj 1455 457 random 80;
#X obj 1455 478 random 80;
#X obj 1482 436 * 0.1;
#X msg 1427 479 469;
#X obj 1461 535 s pack2;
#X obj 1542 458 +;
#X obj 1542 437 t b b;
#X obj 1541 497 -;
#X obj 1571 458 random 80;
#X obj 1571 479 random 80;
#X obj 1598 437 * 0.1;
#X msg 1543 480 469;
#X obj 1577 536 s pack2;
#X obj 1673 455 +;
#X obj 1673 434 t b b;
#X obj 1672 494 -;
#X obj 1702 455 random 80;
#X obj 1702 476 random 80;
#X obj 1721 432 * 0.1;
#X obj 1708 533 s pack2;
#X msg 1463 504 100 130 \$1;
#X msg 1570 501 120 110 \$1;
#X msg 1702 500 77 87 \$1;
#X obj 578 698 s pack;
#X obj 543 620 +;
#X obj 543 599 t b b;
#X obj 542 659 -;
#X obj 572 620 random 80;
#X obj 572 641 random 80;
#X obj 599 599 * 0.1;
#X msg 581 665 65 1 \$1;
#X msg 544 642 469;
#X obj 702 702 s pack;
#X obj 667 624 +;
#X obj 667 603 t b b;
#X obj 666 663 -;
#X obj 696 624 random 80;
#X obj 696 645 random 80;
#X obj 723 603 * 0.1;
#X msg 668 646 469;
#X msg 706 671 87 1 \$1;
#X obj 809 704 s pack;
#X obj 774 626 +;
#X obj 774 605 t b b;
#X obj 773 665 -;
#X obj 803 626 random 80;
#X obj 803 647 random 80;
#X obj 830 605 * 0.1;
#X msg 813 673 87 1 \$1;
#X msg 775 648 234;
#X obj 909 700 s pack;
#X obj 874 622 +;
#X obj 874 601 t b b;
#X obj 873 661 -;
#X obj 903 622 random 80;
#X obj 903 643 random 80;
#X obj 930 601 * 0.1;
#X msg 913 669 87 1 \$1;
#X msg 875 644 234;
#X obj 1009 696 s pack;
#X obj 974 618 +;
#X obj 974 597 t b b;
#X obj 973 657 -;
#X obj 1003 618 random 80;
#X obj 1003 639 random 80;
#X obj 1030 597 * 0.1;
#X msg 1013 665 87 1 \$1;
#X msg 975 640 469;
#X obj 1078 623 +;
#X obj 1078 602 t b b;
#X obj 1077 662 -;
#X obj 1107 623 random 80;
#X obj 1107 644 random 80;
#X obj 1134 602 * 0.1;
#X msg 1079 645 469;
#X msg 1115 670 98 110 \$1;
#X obj 1113 701 s pack2;
#X obj 546 787 +;
#X obj 546 766 t b b;
#X obj 545 826 -;
#X obj 575 787 random 80;
#X obj 575 808 random 80;
#X obj 602 766 * 0.1;
#X msg 547 809 469;
#X obj 581 865 s pack2;
#X obj 662 788 +;
#X obj 662 767 t b b;
#X obj 661 827 -;
#X obj 691 788 random 80;
#X obj 691 809 random 80;
#X obj 718 767 * 0.1;
#X msg 663 810 469;
#X obj 697 866 s pack2;
#X obj 793 785 +;
#X obj 793 764 t b b;
#X obj 792 824 -;
#X obj 822 785 random 80;
#X obj 822 806 random 80;
#X obj 849 764 * 0.1;
#X obj 828 863 s pack2;
#X msg 794 807 938;
#X msg 584 834 100 130 \$1;
#X msg 699 835 90 110 \$1;
#X msg 830 832 92 87 \$1;
#X msg 1674 477 469;
#X obj 576 1002 s pack;
#X obj 541 924 +;
#X obj 541 903 t b b;
#X obj 540 963 -;
#X obj 570 924 random 80;
#X obj 570 945 random 80;
#X obj 597 903 * 0.1;
#X obj 700 1006 s pack;
#X obj 665 928 +;
#X obj 665 907 t b b;
#X obj 664 967 -;
#X obj 694 928 random 80;
#X obj 694 949 random 80;
#X obj 721 907 * 0.1;
#X msg 666 950 469;
#X obj 807 1008 s pack;
#X obj 772 930 +;
#X obj 772 909 t b b;
#X obj 771 969 -;
#X obj 801 930 random 80;
#X obj 801 951 random 80;
#X obj 828 909 * 0.1;
#X obj 907 1004 s pack;
#X obj 872 926 +;
#X obj 872 905 t b b;
#X obj 871 965 -;
#X obj 901 926 random 80;
#X obj 901 947 random 80;
#X obj 928 905 * 0.1;
#X msg 912 974 87 1 \$1;
#X msg 542 946 938;
#X msg 773 952 469;
#X msg 579 969 98 1 \$1;
#X msg 704 975 65 1 \$1;
#X msg 808 977 65 1 \$1;
#X obj 715 90 select 0 1 2 3 4 5 6 7 8 9 10 11 12 13 14 15 16 17 18
19 20 21 22 23 24 25 26 27, f 134;
#X msg 873 948 1876;
#X connect 0 1 1 0;
#X connect 1 0 2 0;
#X connect 2 0 3 0;
#X connect 3 0 4 0;
#X connect 3 0 5 0;
#X connect 4 0 3 1;
#X connect 5 0 261 0;
#X connect 6 0 3 0;
#X connect 7 0 6 0;
#X connect 8 0 3 0;
#X connect 9 0 8 0;
#X connect 11 0 13 0;
#X connect 12 0 18 0;
#X connect 12 1 14 0;
#X connect 12 1 15 0;
#X connect 13 0 17 0;
#X connect 14 0 11 1;
#X connect 15 0 13 1;
#X connect 16 0 14 1;
#X connect 16 0 15 1;
#X connect 17 0 10 0;
#X connect 17 0 0 0;
#X connect 18 0 11 0;
#X connect 18 0 16 0;
#X connect 20 0 22 0;
#X connect 21 0 26 0;
#X connect 21 1 23 0;
#X connect 21 1 24 0;
#X connect 22 0 27 0;
#X connect 23 0 20 1;
#X connect 24 0 22 1;
#X connect 25 0 23 1;
#X connect 25 0 24 1;
#X connect 26 0 20 0;
#X connect 26 0 25 0;
#X connect 27 0 19 0;
#X connect 27 0 0 0;
#X connect 29 0 31 0;
#X connect 30 0 36 0;
#X connect 30 1 32 0;
#X connect 30 1 33 0;
#X connect 31 0 35 0;
#X connect 32 0 29 1;
#X connect 33 0 31 1;
#X connect 34 0 32 1;
#X connect 34 0 33 1;
#X connect 35 0 28 0;
#X connect 35 0 0 0;
#X connect 36 0 29 0;
#X connect 36 0 34 0;
#X connect 38 0 40 0;
#X connect 39 0 45 0;
#X connect 39 1 41 0;
#X connect 39 1 42 0;
#X connect 40 0 44 0;
#X connect 41 0 38 1;
#X connect 42 0 40 1;
#X connect 43 0 41 1;
#X connect 43 0 42 1;
#X connect 44 0 37 0;
#X connect 44 0 0 0;
#X connect 45 0 38 0;
#X connect 45 0 43 0;
#X connect 47 0 49 0;
#X connect 48 0 54 0;
#X connect 48 1 50 0;
#X connect 48 1 51 0;
#X connect 49 0 53 0;
#X connect 50 0 47 1;
#X connect 51 0 49 1;
#X connect 52 0 50 1;
#X connect 52 0 51 1;
#X connect 53 0 46 0;
#X connect 53 0 0 0;
#X connect 54 0 47 0;
#X connect 54 0 52 0;
#X connect 55 0 57 0;
#X connect 56 0 61 0;
#X connect 56 1 58 0;
#X connect 56 1 59 0;
#X connect 57 0 62 0;
#X connect 58 0 55 1;
#X connect 59 0 57 1;
#X connect 60 0 58 1;
#X connect 60 0 59 1;
#X connect 61 0 55 0;
#X connect 61 0 60 0;
#X connect 62 0 0 0;
#X connect 62 0 63 0;
#X connect 64 0 66 0;
#X connect 65 0 70 0;
#X connect 65 1 67 0;
#X connect 65 1 68 0;
#X connect 66 0 115 0;
#X connect 67 0 64 1;
#X connect 68 0 66 1;
#X connect 69 0 67 1;
#X connect 69 0 68 1;
#X connect 70 0 64 0;
#X connect 70 0 69 0;
#X connect 72 0 74 0;
#X connect 73 0 78 0;
#X connect 73 1 75 0;
#X connect 73 1 76 0;
#X connect 74 0 116 0;
#X connect 75 0 72 1;
#X connect 76 0 74 1;
#X connect 77 0 75 1;
#X connect 77 0 76 1;
#X connect 78 0 72 0;
#X connect 78 0 77 0;
#X connect 80 0 82 0;
#X connect 81 0 87 0;
#X connect 81 1 83 0;
#X connect 81 1 84 0;
#X connect 82 0 117 0;
#X connect 83 0 80 1;
#X connect 84 0 82 1;
#X connect 85 0 83 1;
#X connect 85 0 84 1;
#X connect 87 0 80 0;
#X connect 87 0 85 0;
#X connect 88 0 90 0;
#X connect 89 0 94 0;
#X connect 89 1 91 0;
#X connect 89 1 92 0;
#X connect 90 0 96 0;
#X connect 91 0 88 1;
#X connect 92 0 90 1;
#X connect 93 0 91 1;
#X connect 93 0 92 1;
#X connect 94 0 88 0;
#X connect 94 0 93 0;
#X connect 96 0 95 0;
#X connect 96 0 0 0;
#X connect 97 0 99 0;
#X connect 98 0 103 0;
#X connect 98 1 100 0;
#X connect 98 1 101 0;
#X connect 99 0 105 0;
#X connect 100 0 97 1;
#X connect 101 0 99 1;
#X connect 102 0 100 1;
#X connect 102 0 101 1;
#X connect 103 0 97 0;
#X connect 103 0 102 0;
#X connect 105 0 104 0;
#X connect 105 0 0 0;
#X connect 106 0 108 0;
#X connect 107 0 114 0;
#X connect 107 1 109 0;
#X connect 107 1 110 0;
#X connect 108 0 113 0;
#X connect 109 0 106 1;
#X connect 110 0 108 1;
#X connect 111 0 109 1;
#X connect 111 0 110 1;
#X connect 113 0 112 0;
#X connect 113 0 0 0;
#X connect 114 0 106 0;
#X connect 114 0 111 0;
#X connect 115 0 71 0;
#X connect 115 0 0 0;
#X connect 116 0 79 0;
#X connect 116 0 0 0;
#X connect 117 0 86 0;
#X connect 117 0 0 0;
#X connect 118 0 120 0;
#X connect 119 0 124 0;
#X connect 119 1 121 0;
#X connect 119 1 122 0;
#X connect 120 0 141 0;
#X connect 121 0 118 1;
#X connect 122 0 120 1;
#X connect 123 0 121 1;
#X connect 123 0 122 1;
#X connect 124 0 118 0;
#X connect 124 0 123 0;
#X connect 126 0 128 0;
#X connect 127 0 132 0;
#X connect 127 1 129 0;
#X connect 127 1 130 0;
#X connect 128 0 142 0;
#X connect 129 0 126 1;
#X connect 130 0 128 1;
#X connect 131 0 129 1;
#X connect 131 0 130 1;
#X connect 132 0 126 0;
#X connect 132 0 131 0;
#X connect 134 0 136 0;
#X connect 135 0 225 0;
#X connect 135 1 137 0;
#X connect 135 1 138 0;
#X connect 136 0 143 0;
#X connect 137 0 134 1;
#X connect 138 0 136 1;
#X connect 139 0 137 1;
#X connect 139 0 138 1;
#X connect 141 0 125 0;
#X connect 141 0 0 0;
#X connect 142 0 133 0;
#X connect 142 0 0 0;
#X connect 143 0 140 0;
#X connect 143 0 0 0;
#X connect 145 0 147 0;
#X connect 146 0 152 0;
#X connect 146 1 148 0;
#X connect 146 1 149 0;
#X connect 147 0 151 0;
#X connect 148 0 145 1;
#X connect 149 0 147 1;
#X connect 150 0 148 1;
#X connect 150 0 149 1;
#X connect 151 0 144 0;
#X connect 151 0 0 0;
#X connect 152 0 145 0;
#X connect 152 0 150 0;
#X connect 154 0 156 0;
#X connect 155 0 160 0;
#X connect 155 1 157 0;
#X connect 155 1 158 0;
#X connect 156 0 161 0;
#X connect 157 0 154 1;
#X connect 158 0 156 1;
#X connect 159 0 157 1;
#X connect 159 0 158 1;
#X connect 160 0 154 0;
#X connect 160 0 159 0;
#X connect 161 0 153 0;
#X connect 161 0 0 0;
#X connect 163 0 165 0;
#X connect 164 0 170 0;
#X connect 164 1 166 0;
#X connect 164 1 167 0;
#X connect 165 0 169 0;
#X connect 166 0 163 1;
#X connect 167 0 165 1;
#X connect 168 0 166 1;
#X connect 168 0 167 1;
#X connect 169 0 162 0;
#X connect 169 0 0 0;
#X connect 170 0 163 0;
#X connect 170 0 168 0;
#X connect 172 0 174 0;
#X connect 173 0 179 0;
#X connect 173 1 175 0;
#X connect 173 1 176 0;
#X connect 174 0 178 0;
#X connect 175 0 172 1;
#X connect 176 0 174 1;
#X connect 177 0 175 1;
#X connect 177 0 176 1;
#X connect 178 0 171 0;
#X connect 178 0 0 0;
#X connect 179 0 172 0;
#X connect 179 0 177 0;
#X connect 181 0 183 0;
#X connect 182 0 188 0;
#X connect 182 1 184 0;
#X connect 182 1 185 0;
#X connect 183 0 187 0;
#X connect 184 0 181 1;
#X connect 185 0 183 1;
#X connect 186 0 184 1;
#X connect 186 0 185 1;
#X connect 187 0 180 0;
#X connect 187 0 0 0;
#X connect 188 0 181 0;
#X connect 188 0 186 0;
#X connect 189 0 191 0;
#X connect 190 0 195 0;
#X connect 190 1 192 0;
#X connect 190 1 193 0;
#X connect 191 0 196 0;
#X connect 192 0 189 1;
#X connect 193 0 191 1;
#X connect 194 0 192 1;
#X connect 194 0 193 1;
#X connect 195 0 189 0;
#X connect 195 0 194 0;
#X connect 196 0 197 0;
#X connect 196 0 0 0;
#X connect 198 0 200 0;
#X connect 199 0 204 0;
#X connect 199 1 201 0;
#X connect 199 1 202 0;
#X connect 200 0 222 0;
#X connect 201 0 198 1;
#X connect 202 0 200 1;
#X connect 203 0 201 1;
#X connect 203 0 202 1;
#X connect 204 0 198 0;
#X connect 204 0 203 0;
#X connect 206 0 208 0;
#X connect 207 0 212 0;
#X connect 207 1 209 0;
#X connect 207 1 210 0;
#X connect 208 0 223 0;
#X connect 209 0 206 1;
#X connect 210 0 208 1;
#X connect 211 0 209 1;
#X connect 211 0 210 1;
#X connect 212 0 206 0;
#X connect 212 0 211 0;
#X connect 214 0 216 0;
#X connect 215 0 221 0;
#X connect 215 1 217 0;
#X connect 215 1 218 0;
#X connect 216 0 224 0;
#X connect 217 0 214 1;
#X connect 218 0 216 1;
#X connect 219 0 217 1;
#X connect 219 0 218 1;
#X connect 221 0 214 0;
#X connect 221 0 219 0;
#X connect 222 0 205 0;
#X connect 222 0 0 0;
#X connect 223 0 213 0;
#X connect 223 0 0 0;
#X connect 224 0 220 0;
#X connect 224 0 0 0;
#X connect 225 0 134 0;
#X connect 225 0 139 0;
#X connect 227 0 229 0;
#X connect 228 0 256 0;
#X connect 228 1 230 0;
#X connect 228 1 231 0;
#X connect 229 0 258 0;
#X connect 230 0 227 1;
#X connect 231 0 229 1;
#X connect 232 0 230 1;
#X connect 232 0 231 1;
#X connect 234 0 236 0;
#X connect 235 0 240 0;
#X connect 235 1 237 0;
#X connect 235 1 238 0;
#X connect 236 0 259 0;
#X connect 237 0 234 1;
#X connect 238 0 236 1;
#X connect 239 0 237 1;
#X connect 239 0 238 1;
#X connect 240 0 234 0;
#X connect 240 0 239 0;
#X connect 242 0 244 0;
#X connect 243 0 257 0;
#X connect 243 1 245 0;
#X connect 243 1 246 0;
#X connect 244 0 260 0;
#X connect 245 0 242 1;
#X connect 246 0 244 1;
#X connect 247 0 245 1;
#X connect 247 0 246 1;
#X connect 249 0 251 0;
#X connect 250 0 262 0;
#X connect 250 1 252 0;
#X connect 250 1 253 0;
#X connect 251 0 255 0;
#X connect 252 0 249 1;
#X connect 253 0 251 1;
#X connect 254 0 252 1;
#X connect 254 0 253 1;
#X connect 255 0 248 0;
#X connect 255 0 0 0;
#X connect 256 0 227 0;
#X connect 256 0 232 0;
#X connect 257 0 242 0;
#X connect 257 0 247 0;
#X connect 258 0 226 0;
#X connect 258 0 0 0;
#X connect 259 0 233 0;
#X connect 259 0 0 0;
#X connect 260 0 241 0;
#X connect 260 0 0 0;
#X connect 261 0 12 0;
#X connect 261 1 21 0;
#X connect 261 2 30 0;
#X connect 261 3 39 0;
#X connect 261 4 48 0;
#X connect 261 5 56 0;
#X connect 261 6 89 0;
#X connect 261 7 98 0;
#X connect 261 8 107 0;
#X connect 261 9 65 0;
#X connect 261 10 73 0;
#X connect 261 11 81 0;
#X connect 261 12 119 0;
#X connect 261 13 127 0;
#X connect 261 14 135 0;
#X connect 261 15 146 0;
#X connect 261 16 155 0;
#X connect 261 17 164 0;
#X connect 261 18 173 0;
#X connect 261 19 182 0;
#X connect 261 20 190 0;
#X connect 261 21 199 0;
#X connect 261 22 207 0;
#X connect 261 23 215 0;
#X connect 261 24 228 0;
#X connect 261 25 235 0;
#X connect 261 26 243 0;
#X connect 261 27 250 0;
#X connect 262 0 249 0;
#X connect 262 0 254 0;
