#N canvas -7 0 958 988 10;
#X obj 514 333 makenote 1 100;
#X obj 250 341 select 0;
#X obj 250 365 bng 15 250 50 0 empty empty empty 17 7 0 10 -262144
-1 -1;
#X obj 302 364 float;
#X obj 341 365 + 1;
#X floatatom 302 386 5 0 0 0 - - -, f 5;
#X msg 16 363 0;
#X obj 20 322 inlet;
#X msg 72 335 99;
#X obj 68 273 inlet;
#X obj 665 304 s pack;
#X obj 630 226 +;
#X obj 630 205 t b b;
#X obj 629 265 -;
#X obj 659 226 random 80;
#X obj 659 247 random 80;
#X obj 686 205 * 0.1;
#X msg 668 271 65 1 \$1;
#X obj 781 307 s pack;
#X obj 746 229 +;
#X obj 746 208 t b b;
#X obj 745 268 -;
#X obj 775 229 random 80;
#X obj 775 250 random 80;
#X obj 802 208 * 0.1;
#X obj 881 305 s pack;
#X obj 846 227 +;
#X obj 846 206 t b b;
#X obj 845 266 -;
#X obj 875 227 random 80;
#X obj 875 248 random 80;
#X obj 902 206 * 0.1;
#X msg 784 274 73 1 \$1;
#X msg 884 272 82 1 \$1;
#X msg 631 248 333;
#X msg 747 251 333;
#X msg 847 249 333;
#X obj 1015 305 s pack;
#X obj 980 227 +;
#X obj 980 206 t b b;
#X obj 979 266 -;
#X obj 1009 227 random 80;
#X obj 1009 248 random 80;
#X obj 1036 206 * 0.1;
#X msg 981 249 666;
#X msg 1018 272 87 1 \$1;
#X obj 1116 310 s pack;
#X obj 1081 232 +;
#X obj 1081 211 t b b;
#X obj 1080 271 -;
#X obj 1110 232 random 80;
#X obj 1110 253 random 80;
#X obj 1137 211 * 0.1;
#X msg 1119 277 87 1 \$1;
#X obj 655 448 s pack;
#X obj 620 370 +;
#X obj 620 349 t b b;
#X obj 619 409 -;
#X obj 649 370 random 80;
#X obj 649 391 random 80;
#X obj 676 349 * 0.1;
#X obj 771 451 s pack;
#X obj 736 373 +;
#X obj 736 352 t b b;
#X obj 735 412 -;
#X obj 765 373 random 80;
#X obj 765 394 random 80;
#X obj 792 352 * 0.1;
#X obj 871 449 s pack;
#X obj 836 371 +;
#X obj 836 350 t b b;
#X obj 835 410 -;
#X obj 865 371 random 80;
#X obj 865 392 random 80;
#X obj 892 350 * 0.1;
#X msg 621 392 333;
#X msg 737 395 333;
#X msg 837 393 333;
#X obj 1005 449 s pack;
#X obj 970 371 +;
#X obj 970 350 t b b;
#X obj 969 410 -;
#X obj 999 371 random 80;
#X obj 999 392 random 80;
#X obj 1026 350 * 0.1;
#X msg 971 393 666;
#X obj 1106 454 s pack;
#X obj 1071 376 +;
#X obj 1071 355 t b b;
#X obj 1070 415 -;
#X obj 1100 376 random 80;
#X obj 1100 397 random 80;
#X obj 1127 355 * 0.1;
#X msg 1082 254 999;
#X msg 1072 398 999;
#X msg 658 415 87 1 \$1;
#X msg 774 418 65 1 \$1;
#X msg 874 416 73 1 \$1;
#X msg 1008 416 82 1 \$1;
#X msg 1109 421 82 1 \$1;
#X obj 646 614 s pack;
#X obj 611 536 +;
#X obj 611 515 t b b;
#X obj 610 575 -;
#X obj 640 536 random 80;
#X obj 640 557 random 80;
#X obj 667 515 * 0.1;
#X obj 762 617 s pack;
#X obj 727 539 +;
#X obj 727 518 t b b;
#X obj 726 578 -;
#X obj 756 539 random 80;
#X obj 756 560 random 80;
#X obj 783 518 * 0.1;
#X obj 862 615 s pack;
#X obj 827 537 +;
#X obj 827 516 t b b;
#X obj 826 576 -;
#X obj 856 537 random 80;
#X obj 856 558 random 80;
#X obj 883 516 * 0.1;
#X msg 612 558 333;
#X msg 728 561 333;
#X msg 828 559 333;
#X obj 996 615 s pack;
#X obj 961 537 +;
#X obj 961 516 t b b;
#X obj 960 576 -;
#X obj 990 537 random 80;
#X obj 990 558 random 80;
#X obj 1017 516 * 0.1;
#X msg 962 559 666;
#X obj 1097 620 s pack;
#X obj 1062 542 +;
#X obj 1062 521 t b b;
#X obj 1061 581 -;
#X obj 1091 542 random 80;
#X obj 1091 563 random 80;
#X obj 1118 521 * 0.1;
#X msg 1063 564 999;
#X msg 765 584 65 1 \$1;
#X msg 649 581 65 1 \$1;
#X msg 865 582 82 1 \$1;
#X msg 999 582 72 1 \$1;
#X msg 1100 587 72 1 \$1;
#X obj 653 753 s pack;
#X obj 618 675 +;
#X obj 618 654 t b b;
#X obj 617 714 -;
#X obj 647 675 random 80;
#X obj 647 696 random 80;
#X obj 674 654 * 0.1;
#X obj 769 756 s pack;
#X obj 734 678 +;
#X obj 734 657 t b b;
#X obj 733 717 -;
#X obj 763 678 random 80;
#X obj 763 699 random 80;
#X obj 790 657 * 0.1;
#X obj 869 754 s pack;
#X obj 834 676 +;
#X obj 834 655 t b b;
#X obj 833 715 -;
#X obj 863 676 random 80;
#X obj 863 697 random 80;
#X obj 890 655 * 0.1;
#X msg 619 697 333;
#X msg 735 700 333;
#X msg 835 698 333;
#X obj 1003 754 s pack;
#X obj 968 676 +;
#X obj 968 655 t b b;
#X obj 967 715 -;
#X obj 997 676 random 80;
#X obj 997 697 random 80;
#X obj 1024 655 * 0.1;
#X msg 969 698 666;
#X obj 1104 759 s pack;
#X obj 1069 681 +;
#X obj 1069 660 t b b;
#X obj 1068 720 -;
#X obj 1098 681 random 80;
#X obj 1098 702 random 80;
#X obj 1125 660 * 0.1;
#X msg 1070 703 999;
#X msg 772 723 65 1 \$1;
#X msg 656 720 72 1 \$1;
#X msg 872 721 72 1 \$1;
#X msg 1006 721 82 1 \$1;
#X msg 1107 726 82 1 \$1;
#X obj 660 908 s pack;
#X obj 625 830 +;
#X obj 625 809 t b b;
#X obj 624 869 -;
#X obj 654 830 random 80;
#X obj 654 851 random 80;
#X obj 681 809 * 0.1;
#X obj 776 911 s pack;
#X obj 741 833 +;
#X obj 741 812 t b b;
#X obj 740 872 -;
#X obj 770 833 random 80;
#X obj 770 854 random 80;
#X obj 797 812 * 0.1;
#X obj 876 909 s pack;
#X obj 841 831 +;
#X obj 841 810 t b b;
#X obj 840 870 -;
#X obj 870 831 random 80;
#X obj 870 852 random 80;
#X obj 897 810 * 0.1;
#X msg 626 852 333;
#X msg 742 855 333;
#X msg 842 853 333;
#X obj 1010 909 s pack;
#X obj 975 831 +;
#X obj 975 810 t b b;
#X obj 974 870 -;
#X obj 1004 831 random 80;
#X obj 1004 852 random 80;
#X obj 1031 810 * 0.1;
#X msg 976 853 666;
#X obj 1111 914 s pack;
#X obj 1076 836 +;
#X obj 1076 815 t b b;
#X obj 1075 875 -;
#X obj 1105 836 random 80;
#X obj 1105 857 random 80;
#X obj 1132 815 * 0.1;
#X msg 1077 858 999;
#X msg 663 875 65 1 \$1;
#X msg 779 878 72 1 \$1;
#X msg 879 876 82 1 \$1;
#X msg 1013 876 87 1 \$1;
#X msg 1109 882 87 1 \$1;
#X obj 669 1049 s pack;
#X obj 634 971 +;
#X obj 634 950 t b b;
#X obj 633 1010 -;
#X obj 663 971 random 80;
#X obj 663 992 random 80;
#X obj 690 950 * 0.1;
#X obj 785 1052 s pack;
#X obj 750 974 +;
#X obj 750 953 t b b;
#X obj 749 1013 -;
#X obj 779 974 random 80;
#X obj 779 995 random 80;
#X obj 806 953 * 0.1;
#X obj 885 1050 s pack;
#X obj 850 972 +;
#X obj 850 951 t b b;
#X obj 849 1011 -;
#X obj 879 972 random 80;
#X obj 879 993 random 80;
#X obj 906 951 * 0.1;
#X msg 635 993 333;
#X msg 751 996 333;
#X msg 851 994 333;
#X obj 1019 1050 s pack;
#X obj 984 972 +;
#X obj 984 951 t b b;
#X obj 983 1011 -;
#X obj 1013 972 random 80;
#X obj 1013 993 random 80;
#X obj 1040 951 * 0.1;
#X msg 985 994 666;
#X obj 1120 1055 s pack;
#X obj 1085 977 +;
#X obj 1085 956 t b b;
#X obj 1084 1016 -;
#X obj 1114 977 random 80;
#X obj 1114 998 random 80;
#X obj 1141 956 * 0.1;
#X msg 672 1016 87 1 \$1;
#X msg 788 1019 65 1 \$1;
#X msg 888 1017 73 1 \$1;
#X msg 1022 1017 82 1 \$1;
#X msg 1123 1022 82 1 \$1;
#X msg 1086 999 1998;
#X obj 552 184 select 0 1 2 3 4 5 6 7 8 9 10 11 12 13 14 15 16 17 18
19 20 21 22 23 24 25 26 27 28 29 30 31 32 33 34 35 36 37, f 134;
#X obj 679 1184 s pack;
#X obj 644 1106 +;
#X obj 644 1085 t b b;
#X obj 643 1145 -;
#X obj 673 1106 random 80;
#X obj 673 1127 random 80;
#X obj 700 1085 * 0.1;
#X obj 795 1187 s pack;
#X obj 760 1109 +;
#X obj 760 1088 t b b;
#X obj 759 1148 -;
#X obj 789 1109 random 80;
#X obj 789 1130 random 80;
#X obj 816 1088 * 0.1;
#X obj 895 1185 s pack;
#X obj 860 1107 +;
#X obj 860 1086 t b b;
#X obj 859 1146 -;
#X obj 889 1107 random 80;
#X obj 889 1128 random 80;
#X obj 916 1086 * 0.1;
#X msg 645 1128 333;
#X msg 861 1129 333;
#X obj 1029 1185 s pack;
#X obj 994 1107 +;
#X obj 994 1086 t b b;
#X obj 993 1146 -;
#X obj 1023 1107 random 80;
#X obj 1023 1128 random 80;
#X obj 1050 1086 * 0.1;
#X obj 1130 1190 s pack;
#X obj 1095 1112 +;
#X obj 1095 1091 t b b;
#X obj 1094 1151 -;
#X obj 1124 1112 random 80;
#X obj 1124 1133 random 80;
#X obj 1151 1091 * 0.1;
#X obj 1235 1193 s pack;
#X obj 1200 1115 +;
#X obj 1200 1094 t b b;
#X obj 1199 1154 -;
#X obj 1229 1115 random 80;
#X obj 1229 1136 random 80;
#X obj 1256 1094 * 0.1;
#X obj 1349 1193 s pack;
#X obj 1314 1115 +;
#X obj 1314 1094 t b b;
#X obj 1313 1154 -;
#X obj 1343 1115 random 80;
#X obj 1343 1136 random 80;
#X obj 1370 1094 * 0.1;
#X obj 1460 1194 s pack;
#X obj 1425 1116 +;
#X obj 1425 1095 t b b;
#X obj 1424 1155 -;
#X obj 1454 1116 random 80;
#X obj 1454 1137 random 80;
#X obj 1481 1095 * 0.1;
#X msg 1426 1138 1998;
#X msg 682 1151 72 1 \$1;
#X msg 798 1154 72 1 \$1;
#X msg 898 1152 65 1 \$1;
#X msg 1032 1152 61 1 \$1;
#X msg 1133 1157 61 1 \$1;
#X msg 1238 1160 65 1 \$1;
#X msg 1352 1160 72 1 \$1;
#X msg 1463 1161 65 1 \$1;
#X msg 761 1131 666;
#X msg 995 1129 333;
#X msg 1096 1134 333;
#X msg 1199 1136 333;
#X msg 1315 1137 333;
#X connect 0 1 1 0;
#X connect 1 0 2 0;
#X connect 2 0 3 0;
#X connect 3 0 4 0;
#X connect 3 0 5 0;
#X connect 4 0 3 1;
#X connect 5 0 280 0;
#X connect 6 0 3 0;
#X connect 7 0 6 0;
#X connect 8 0 3 0;
#X connect 9 0 8 0;
#X connect 11 0 13 0;
#X connect 12 0 34 0;
#X connect 12 1 14 0;
#X connect 12 1 15 0;
#X connect 13 0 17 0;
#X connect 14 0 11 1;
#X connect 15 0 13 1;
#X connect 16 0 14 1;
#X connect 16 0 15 1;
#X connect 17 0 10 0;
#X connect 17 0 0 0;
#X connect 19 0 21 0;
#X connect 20 0 35 0;
#X connect 20 1 22 0;
#X connect 20 1 23 0;
#X connect 21 0 32 0;
#X connect 22 0 19 1;
#X connect 23 0 21 1;
#X connect 24 0 22 1;
#X connect 24 0 23 1;
#X connect 26 0 28 0;
#X connect 27 0 36 0;
#X connect 27 1 29 0;
#X connect 27 1 30 0;
#X connect 28 0 33 0;
#X connect 29 0 26 1;
#X connect 30 0 28 1;
#X connect 31 0 29 1;
#X connect 31 0 30 1;
#X connect 32 0 18 0;
#X connect 32 0 0 0;
#X connect 33 0 25 0;
#X connect 33 0 0 0;
#X connect 34 0 11 0;
#X connect 34 0 16 0;
#X connect 35 0 19 0;
#X connect 35 0 24 0;
#X connect 36 0 26 0;
#X connect 36 0 31 0;
#X connect 38 0 40 0;
#X connect 39 0 44 0;
#X connect 39 1 41 0;
#X connect 39 1 42 0;
#X connect 40 0 45 0;
#X connect 41 0 38 1;
#X connect 42 0 40 1;
#X connect 43 0 41 1;
#X connect 43 0 42 1;
#X connect 44 0 38 0;
#X connect 44 0 43 0;
#X connect 45 0 37 0;
#X connect 45 0 0 0;
#X connect 47 0 49 0;
#X connect 48 0 93 0;
#X connect 48 1 50 0;
#X connect 48 1 51 0;
#X connect 49 0 53 0;
#X connect 50 0 47 1;
#X connect 51 0 49 1;
#X connect 52 0 50 1;
#X connect 52 0 51 1;
#X connect 53 0 46 0;
#X connect 53 0 0 0;
#X connect 55 0 57 0;
#X connect 56 0 75 0;
#X connect 56 1 58 0;
#X connect 56 1 59 0;
#X connect 57 0 95 0;
#X connect 58 0 55 1;
#X connect 59 0 57 1;
#X connect 60 0 58 1;
#X connect 60 0 59 1;
#X connect 62 0 64 0;
#X connect 63 0 76 0;
#X connect 63 1 65 0;
#X connect 63 1 66 0;
#X connect 64 0 96 0;
#X connect 65 0 62 1;
#X connect 66 0 64 1;
#X connect 67 0 65 1;
#X connect 67 0 66 1;
#X connect 69 0 71 0;
#X connect 70 0 77 0;
#X connect 70 1 72 0;
#X connect 70 1 73 0;
#X connect 71 0 97 0;
#X connect 72 0 69 1;
#X connect 73 0 71 1;
#X connect 74 0 72 1;
#X connect 74 0 73 1;
#X connect 75 0 55 0;
#X connect 75 0 60 0;
#X connect 76 0 62 0;
#X connect 76 0 67 0;
#X connect 77 0 69 0;
#X connect 77 0 74 0;
#X connect 79 0 81 0;
#X connect 80 0 85 0;
#X connect 80 1 82 0;
#X connect 80 1 83 0;
#X connect 81 0 98 0;
#X connect 82 0 79 1;
#X connect 83 0 81 1;
#X connect 84 0 82 1;
#X connect 84 0 83 1;
#X connect 85 0 79 0;
#X connect 85 0 84 0;
#X connect 87 0 89 0;
#X connect 88 0 94 0;
#X connect 88 1 90 0;
#X connect 88 1 91 0;
#X connect 89 0 99 0;
#X connect 90 0 87 1;
#X connect 91 0 89 1;
#X connect 92 0 90 1;
#X connect 92 0 91 1;
#X connect 93 0 47 0;
#X connect 93 0 52 0;
#X connect 94 0 87 0;
#X connect 94 0 92 0;
#X connect 95 0 54 0;
#X connect 95 0 0 0;
#X connect 96 0 61 0;
#X connect 96 0 0 0;
#X connect 97 0 68 0;
#X connect 97 0 0 0;
#X connect 98 0 78 0;
#X connect 98 0 0 0;
#X connect 99 0 86 0;
#X connect 99 0 0 0;
#X connect 101 0 103 0;
#X connect 102 0 121 0;
#X connect 102 1 104 0;
#X connect 102 1 105 0;
#X connect 103 0 141 0;
#X connect 104 0 101 1;
#X connect 105 0 103 1;
#X connect 106 0 104 1;
#X connect 106 0 105 1;
#X connect 108 0 110 0;
#X connect 109 0 122 0;
#X connect 109 1 111 0;
#X connect 109 1 112 0;
#X connect 110 0 140 0;
#X connect 111 0 108 1;
#X connect 112 0 110 1;
#X connect 113 0 111 1;
#X connect 113 0 112 1;
#X connect 115 0 117 0;
#X connect 116 0 123 0;
#X connect 116 1 118 0;
#X connect 116 1 119 0;
#X connect 117 0 142 0;
#X connect 118 0 115 1;
#X connect 119 0 117 1;
#X connect 120 0 118 1;
#X connect 120 0 119 1;
#X connect 121 0 101 0;
#X connect 121 0 106 0;
#X connect 122 0 108 0;
#X connect 122 0 113 0;
#X connect 123 0 115 0;
#X connect 123 0 120 0;
#X connect 125 0 127 0;
#X connect 126 0 131 0;
#X connect 126 1 128 0;
#X connect 126 1 129 0;
#X connect 127 0 143 0;
#X connect 128 0 125 1;
#X connect 129 0 127 1;
#X connect 130 0 128 1;
#X connect 130 0 129 1;
#X connect 131 0 125 0;
#X connect 131 0 130 0;
#X connect 133 0 135 0;
#X connect 134 0 139 0;
#X connect 134 1 136 0;
#X connect 134 1 137 0;
#X connect 135 0 144 0;
#X connect 136 0 133 1;
#X connect 137 0 135 1;
#X connect 138 0 136 1;
#X connect 138 0 137 1;
#X connect 139 0 133 0;
#X connect 139 0 138 0;
#X connect 140 0 107 0;
#X connect 140 0 0 0;
#X connect 141 0 100 0;
#X connect 141 0 0 0;
#X connect 142 0 114 0;
#X connect 142 0 0 0;
#X connect 143 0 124 0;
#X connect 143 0 0 0;
#X connect 144 0 132 0;
#X connect 144 0 0 0;
#X connect 146 0 148 0;
#X connect 147 0 166 0;
#X connect 147 1 149 0;
#X connect 147 1 150 0;
#X connect 148 0 186 0;
#X connect 149 0 146 1;
#X connect 150 0 148 1;
#X connect 151 0 149 1;
#X connect 151 0 150 1;
#X connect 153 0 155 0;
#X connect 154 0 167 0;
#X connect 154 1 156 0;
#X connect 154 1 157 0;
#X connect 155 0 185 0;
#X connect 156 0 153 1;
#X connect 157 0 155 1;
#X connect 158 0 156 1;
#X connect 158 0 157 1;
#X connect 160 0 162 0;
#X connect 161 0 168 0;
#X connect 161 1 163 0;
#X connect 161 1 164 0;
#X connect 162 0 187 0;
#X connect 163 0 160 1;
#X connect 164 0 162 1;
#X connect 165 0 163 1;
#X connect 165 0 164 1;
#X connect 166 0 146 0;
#X connect 166 0 151 0;
#X connect 167 0 153 0;
#X connect 167 0 158 0;
#X connect 168 0 160 0;
#X connect 168 0 165 0;
#X connect 170 0 172 0;
#X connect 171 0 176 0;
#X connect 171 1 173 0;
#X connect 171 1 174 0;
#X connect 172 0 188 0;
#X connect 173 0 170 1;
#X connect 174 0 172 1;
#X connect 175 0 173 1;
#X connect 175 0 174 1;
#X connect 176 0 170 0;
#X connect 176 0 175 0;
#X connect 178 0 180 0;
#X connect 179 0 184 0;
#X connect 179 1 181 0;
#X connect 179 1 182 0;
#X connect 180 0 189 0;
#X connect 181 0 178 1;
#X connect 182 0 180 1;
#X connect 183 0 181 1;
#X connect 183 0 182 1;
#X connect 184 0 178 0;
#X connect 184 0 183 0;
#X connect 185 0 152 0;
#X connect 185 0 0 0;
#X connect 186 0 145 0;
#X connect 186 0 0 0;
#X connect 187 0 159 0;
#X connect 187 0 0 0;
#X connect 188 0 169 0;
#X connect 188 0 0 0;
#X connect 189 0 177 0;
#X connect 189 0 0 0;
#X connect 191 0 193 0;
#X connect 192 0 211 0;
#X connect 192 1 194 0;
#X connect 192 1 195 0;
#X connect 193 0 230 0;
#X connect 194 0 191 1;
#X connect 195 0 193 1;
#X connect 196 0 194 1;
#X connect 196 0 195 1;
#X connect 198 0 200 0;
#X connect 199 0 212 0;
#X connect 199 1 201 0;
#X connect 199 1 202 0;
#X connect 200 0 231 0;
#X connect 201 0 198 1;
#X connect 202 0 200 1;
#X connect 203 0 201 1;
#X connect 203 0 202 1;
#X connect 205 0 207 0;
#X connect 206 0 213 0;
#X connect 206 1 208 0;
#X connect 206 1 209 0;
#X connect 207 0 232 0;
#X connect 208 0 205 1;
#X connect 209 0 207 1;
#X connect 210 0 208 1;
#X connect 210 0 209 1;
#X connect 211 0 191 0;
#X connect 211 0 196 0;
#X connect 212 0 198 0;
#X connect 212 0 203 0;
#X connect 213 0 205 0;
#X connect 213 0 210 0;
#X connect 215 0 217 0;
#X connect 216 0 221 0;
#X connect 216 1 218 0;
#X connect 216 1 219 0;
#X connect 217 0 233 0;
#X connect 218 0 215 1;
#X connect 219 0 217 1;
#X connect 220 0 218 1;
#X connect 220 0 219 1;
#X connect 221 0 215 0;
#X connect 221 0 220 0;
#X connect 223 0 225 0;
#X connect 224 0 229 0;
#X connect 224 1 226 0;
#X connect 224 1 227 0;
#X connect 225 0 234 0;
#X connect 226 0 223 1;
#X connect 227 0 225 1;
#X connect 228 0 226 1;
#X connect 228 0 227 1;
#X connect 229 0 223 0;
#X connect 229 0 228 0;
#X connect 230 0 190 0;
#X connect 230 0 0 0;
#X connect 231 0 197 0;
#X connect 231 0 0 0;
#X connect 232 0 204 0;
#X connect 232 0 0 0;
#X connect 233 0 214 0;
#X connect 233 0 0 0;
#X connect 234 0 222 0;
#X connect 234 0 0 0;
#X connect 236 0 238 0;
#X connect 237 0 256 0;
#X connect 237 1 239 0;
#X connect 237 1 240 0;
#X connect 238 0 274 0;
#X connect 239 0 236 1;
#X connect 240 0 238 1;
#X connect 241 0 239 1;
#X connect 241 0 240 1;
#X connect 243 0 245 0;
#X connect 244 0 257 0;
#X connect 244 1 246 0;
#X connect 244 1 247 0;
#X connect 245 0 275 0;
#X connect 246 0 243 1;
#X connect 247 0 245 1;
#X connect 248 0 246 1;
#X connect 248 0 247 1;
#X connect 250 0 252 0;
#X connect 251 0 258 0;
#X connect 251 1 253 0;
#X connect 251 1 254 0;
#X connect 252 0 276 0;
#X connect 253 0 250 1;
#X connect 254 0 252 1;
#X connect 255 0 253 1;
#X connect 255 0 254 1;
#X connect 256 0 236 0;
#X connect 256 0 241 0;
#X connect 257 0 243 0;
#X connect 257 0 248 0;
#X connect 258 0 250 0;
#X connect 258 0 255 0;
#X connect 260 0 262 0;
#X connect 261 0 266 0;
#X connect 261 1 263 0;
#X connect 261 1 264 0;
#X connect 262 0 277 0;
#X connect 263 0 260 1;
#X connect 264 0 262 1;
#X connect 265 0 263 1;
#X connect 265 0 264 1;
#X connect 266 0 260 0;
#X connect 266 0 265 0;
#X connect 268 0 270 0;
#X connect 269 0 279 0;
#X connect 269 1 271 0;
#X connect 269 1 272 0;
#X connect 270 0 278 0;
#X connect 271 0 268 1;
#X connect 272 0 270 1;
#X connect 273 0 271 1;
#X connect 273 0 272 1;
#X connect 274 0 235 0;
#X connect 274 0 0 0;
#X connect 275 0 242 0;
#X connect 275 0 0 0;
#X connect 276 0 249 0;
#X connect 276 0 0 0;
#X connect 277 0 259 0;
#X connect 277 0 0 0;
#X connect 278 0 267 0;
#X connect 278 0 0 0;
#X connect 279 0 268 0;
#X connect 279 0 273 0;
#X connect 280 0 12 0;
#X connect 280 1 20 0;
#X connect 280 2 27 0;
#X connect 280 3 39 0;
#X connect 280 4 48 0;
#X connect 280 5 56 0;
#X connect 280 6 63 0;
#X connect 280 7 70 0;
#X connect 280 8 80 0;
#X connect 280 9 88 0;
#X connect 280 10 102 0;
#X connect 280 11 109 0;
#X connect 280 12 116 0;
#X connect 280 13 126 0;
#X connect 280 14 134 0;
#X connect 280 15 147 0;
#X connect 280 16 154 0;
#X connect 280 17 161 0;
#X connect 280 18 171 0;
#X connect 280 19 179 0;
#X connect 280 20 192 0;
#X connect 280 21 199 0;
#X connect 280 22 206 0;
#X connect 280 23 216 0;
#X connect 280 24 224 0;
#X connect 280 25 237 0;
#X connect 280 26 244 0;
#X connect 280 27 251 0;
#X connect 280 28 261 0;
#X connect 280 29 269 0;
#X connect 280 30 283 0;
#X connect 280 31 290 0;
#X connect 280 32 297 0;
#X connect 280 33 306 0;
#X connect 280 34 313 0;
#X connect 280 35 320 0;
#X connect 280 36 327 0;
#X connect 280 37 334 0;
#X connect 282 0 284 0;
#X connect 283 0 302 0;
#X connect 283 1 285 0;
#X connect 283 1 286 0;
#X connect 284 0 340 0;
#X connect 285 0 282 1;
#X connect 286 0 284 1;
#X connect 287 0 285 1;
#X connect 287 0 286 1;
#X connect 289 0 291 0;
#X connect 290 0 348 0;
#X connect 290 1 292 0;
#X connect 290 1 293 0;
#X connect 291 0 341 0;
#X connect 292 0 289 1;
#X connect 293 0 291 1;
#X connect 294 0 292 1;
#X connect 294 0 293 1;
#X connect 296 0 298 0;
#X connect 297 0 303 0;
#X connect 297 1 299 0;
#X connect 297 1 300 0;
#X connect 298 0 342 0;
#X connect 299 0 296 1;
#X connect 300 0 298 1;
#X connect 301 0 299 1;
#X connect 301 0 300 1;
#X connect 302 0 282 0;
#X connect 302 0 287 0;
#X connect 303 0 296 0;
#X connect 303 0 301 0;
#X connect 305 0 307 0;
#X connect 306 0 349 0;
#X connect 306 1 308 0;
#X connect 306 1 309 0;
#X connect 307 0 343 0;
#X connect 308 0 305 1;
#X connect 309 0 307 1;
#X connect 310 0 308 1;
#X connect 310 0 309 1;
#X connect 312 0 314 0;
#X connect 313 0 350 0;
#X connect 313 1 315 0;
#X connect 313 1 316 0;
#X connect 314 0 344 0;
#X connect 315 0 312 1;
#X connect 316 0 314 1;
#X connect 317 0 315 1;
#X connect 317 0 316 1;
#X connect 319 0 321 0;
#X connect 320 0 351 0;
#X connect 320 1 322 0;
#X connect 320 1 323 0;
#X connect 321 0 345 0;
#X connect 322 0 319 1;
#X connect 323 0 321 1;
#X connect 324 0 322 1;
#X connect 324 0 323 1;
#X connect 326 0 328 0;
#X connect 327 0 352 0;
#X connect 327 1 329 0;
#X connect 327 1 330 0;
#X connect 328 0 346 0;
#X connect 329 0 326 1;
#X connect 330 0 328 1;
#X connect 331 0 329 1;
#X connect 331 0 330 1;
#X connect 333 0 335 0;
#X connect 334 0 339 0;
#X connect 334 1 336 0;
#X connect 334 1 337 0;
#X connect 335 0 347 0;
#X connect 336 0 333 1;
#X connect 337 0 335 1;
#X connect 338 0 336 1;
#X connect 338 0 337 1;
#X connect 339 0 333 0;
#X connect 339 0 338 0;
#X connect 340 0 281 0;
#X connect 340 0 0 0;
#X connect 341 0 288 0;
#X connect 341 0 0 0;
#X connect 342 0 295 0;
#X connect 342 0 0 0;
#X connect 343 0 304 0;
#X connect 343 0 0 0;
#X connect 344 0 311 0;
#X connect 344 0 0 0;
#X connect 345 0 318 0;
#X connect 345 0 0 0;
#X connect 346 0 325 0;
#X connect 346 0 0 0;
#X connect 347 0 332 0;
#X connect 347 0 0 0;
#X connect 348 0 289 0;
#X connect 348 0 294 0;
#X connect 349 0 305 0;
#X connect 349 0 310 0;
#X connect 350 0 312 0;
#X connect 350 0 317 0;
#X connect 351 0 319 0;
#X connect 351 0 324 0;
#X connect 352 0 326 0;
#X connect 352 0 331 0;
