#N canvas -8 -8 1920 997 10;
#X obj 168 310 makenote 1 100;
#X obj 250 341 select 0;
#X obj 250 365 bng 15 250 50 0 empty empty empty 17 7 0 10 -262144
-1 -1;
#X obj 302 364 float;
#X obj 341 365 + 1;
#X floatatom 302 386 5 0 0 0 - - -, f 5;
#X msg 16 363 0;
#X obj 20 322 inlet;
#X msg 72 335 99;
#X obj 68 273 inlet;
#X obj 651 328 s pack;
#X obj 616 250 +;
#X obj 616 229 t b b;
#X obj 615 289 -;
#X obj 645 250 random 80;
#X obj 645 271 random 80;
#X obj 672 229 * 0.1;
#X obj 746 328 s pack;
#X obj 711 250 +;
#X obj 711 229 t b b;
#X obj 710 289 -;
#X obj 740 250 random 80;
#X obj 740 271 random 80;
#X obj 767 229 * 0.1;
#X obj 867 329 s pack;
#X obj 832 251 +;
#X obj 832 230 t b b;
#X obj 831 290 -;
#X obj 861 251 random 80;
#X obj 861 272 random 80;
#X obj 888 230 * 0.1;
#X obj 964 331 s pack;
#X obj 929 253 +;
#X obj 929 232 t b b;
#X obj 928 292 -;
#X obj 958 253 random 80;
#X obj 958 274 random 80;
#X obj 985 232 * 0.1;
#X obj 1048 253 +;
#X obj 1048 232 t b b;
#X obj 1047 292 -;
#X obj 1077 253 random 80;
#X obj 1077 274 random 80;
#X obj 1104 232 * 0.1;
#X obj 1154 252 +;
#X obj 1154 231 t b b;
#X obj 1153 291 -;
#X obj 1183 252 random 80;
#X obj 1183 273 random 80;
#X obj 1210 231 * 0.1;
#X obj 1308 333 s pack;
#X obj 1273 255 +;
#X obj 1273 234 t b b;
#X obj 1272 294 -;
#X obj 1302 255 random 80;
#X obj 1302 276 random 80;
#X obj 1329 234 * 0.1;
#X obj 639 502 s pack;
#X obj 604 424 +;
#X obj 604 403 t b b;
#X obj 603 463 -;
#X obj 633 424 random 80;
#X obj 633 445 random 80;
#X obj 660 403 * 0.1;
#X obj 734 502 s pack;
#X obj 699 424 +;
#X obj 699 403 t b b;
#X obj 698 463 -;
#X obj 728 424 random 80;
#X obj 728 445 random 80;
#X obj 755 403 * 0.1;
#X obj 855 503 s pack;
#X obj 820 425 +;
#X obj 820 404 t b b;
#X obj 819 464 -;
#X obj 849 425 random 80;
#X obj 849 446 random 80;
#X obj 876 404 * 0.1;
#X obj 952 505 s pack;
#X obj 917 427 +;
#X obj 917 406 t b b;
#X obj 916 466 -;
#X obj 946 427 random 80;
#X obj 946 448 random 80;
#X obj 973 406 * 0.1;
#X obj 1071 505 s pack;
#X obj 1036 427 +;
#X obj 1036 406 t b b;
#X obj 1035 466 -;
#X obj 1065 427 random 80;
#X obj 1065 448 random 80;
#X obj 1092 406 * 0.1;
#X obj 1177 504 s pack;
#X obj 1142 426 +;
#X obj 1142 405 t b b;
#X obj 1141 465 -;
#X obj 1171 426 random 80;
#X obj 1171 447 random 80;
#X obj 1198 405 * 0.1;
#X obj 1261 429 +;
#X obj 1261 408 t b b;
#X obj 1260 468 -;
#X obj 1290 429 random 80;
#X obj 1290 450 random 80;
#X obj 1317 408 * 0.1;
#X msg 654 295 65 1 \$1;
#X msg 749 295 65 1 \$1;
#X msg 870 296 98 1 \$1;
#X msg 967 298 98 1 \$1;
#X msg 1192 297 110 1 \$1;
#X msg 1311 300 98 1 \$1;
#X msg 642 469 87 1 \$1;
#X msg 737 469 87 1 \$1;
#X msg 858 470 82 1 \$1;
#X msg 955 472 82 1 \$1;
#X msg 1073 472 73 1 \$1;
#X msg 1180 471 73 1 \$1;
#X obj 635 667 s pack;
#X obj 600 589 +;
#X obj 600 568 t b b;
#X obj 599 628 -;
#X obj 629 589 random 80;
#X obj 629 610 random 80;
#X obj 656 568 * 0.1;
#X obj 730 667 s pack;
#X obj 695 589 +;
#X obj 695 568 t b b;
#X obj 694 628 -;
#X obj 724 589 random 80;
#X obj 724 610 random 80;
#X obj 751 568 * 0.1;
#X obj 851 668 s pack;
#X obj 816 590 +;
#X obj 816 569 t b b;
#X obj 815 629 -;
#X obj 845 590 random 80;
#X obj 845 611 random 80;
#X obj 872 569 * 0.1;
#X obj 948 670 s pack;
#X obj 913 592 +;
#X obj 913 571 t b b;
#X obj 912 631 -;
#X obj 942 592 random 80;
#X obj 942 613 random 80;
#X obj 969 571 * 0.1;
#X obj 1067 670 s pack;
#X obj 1032 592 +;
#X obj 1032 571 t b b;
#X obj 1031 631 -;
#X obj 1061 592 random 80;
#X obj 1061 613 random 80;
#X obj 1088 571 * 0.1;
#X obj 1173 669 s pack;
#X obj 1138 591 +;
#X obj 1138 570 t b b;
#X obj 1137 630 -;
#X obj 1167 591 random 80;
#X obj 1167 612 random 80;
#X obj 1194 570 * 0.1;
#X obj 1292 672 s pack;
#X obj 1257 594 +;
#X obj 1257 573 t b b;
#X obj 1256 633 -;
#X obj 1286 594 random 80;
#X obj 1286 615 random 80;
#X obj 1313 573 * 0.1;
#X msg 638 634 98 1 \$1;
#X msg 733 634 98 1 \$1;
#X msg 854 635 87 1 \$1;
#X msg 951 637 87 1 \$1;
#X msg 1069 637 82 1 \$1;
#X msg 1176 636 82 1 \$1;
#X msg 1295 638 73 1 \$1;
#X obj 635 823 s pack;
#X obj 600 745 +;
#X obj 600 724 t b b;
#X obj 599 784 -;
#X obj 629 745 random 80;
#X obj 629 766 random 80;
#X obj 656 724 * 0.1;
#X obj 730 823 s pack;
#X obj 695 745 +;
#X obj 695 724 t b b;
#X obj 694 784 -;
#X obj 724 745 random 80;
#X obj 724 766 random 80;
#X obj 751 724 * 0.1;
#X obj 816 746 +;
#X obj 816 725 t b b;
#X obj 815 785 -;
#X obj 845 746 random 80;
#X obj 845 767 random 80;
#X obj 872 725 * 0.1;
#X obj 948 826 s pack;
#X obj 913 748 +;
#X obj 913 727 t b b;
#X obj 912 787 -;
#X obj 942 748 random 80;
#X obj 942 769 random 80;
#X obj 969 727 * 0.1;
#X obj 1067 826 s pack;
#X obj 1032 748 +;
#X obj 1032 727 t b b;
#X obj 1031 787 -;
#X obj 1061 748 random 80;
#X obj 1061 769 random 80;
#X obj 1088 727 * 0.1;
#X obj 1173 825 s pack;
#X obj 1138 747 +;
#X obj 1138 726 t b b;
#X obj 1137 786 -;
#X obj 1167 747 random 80;
#X obj 1167 768 random 80;
#X obj 1194 726 * 0.1;
#X obj 1292 828 s pack;
#X obj 1257 750 +;
#X obj 1257 729 t b b;
#X obj 1256 789 -;
#X obj 1286 750 random 80;
#X obj 1286 771 random 80;
#X obj 1313 729 * 0.1;
#X msg 638 790 98 1 \$1;
#X msg 733 790 98 1 \$1;
#X msg 951 793 87 1 \$1;
#X msg 1069 793 82 1 \$1;
#X msg 1176 792 82 1 \$1;
#X msg 1295 794 73 1 \$1;
#X obj 623 977 s pack;
#X obj 588 899 +;
#X obj 588 878 t b b;
#X obj 587 938 -;
#X obj 617 899 random 80;
#X obj 617 920 random 80;
#X obj 644 878 * 0.1;
#X obj 718 977 s pack;
#X obj 683 899 +;
#X obj 683 878 t b b;
#X obj 682 938 -;
#X obj 712 899 random 80;
#X obj 712 920 random 80;
#X obj 739 878 * 0.1;
#X obj 839 978 s pack;
#X obj 804 900 +;
#X obj 804 879 t b b;
#X obj 803 939 -;
#X obj 833 900 random 80;
#X obj 833 921 random 80;
#X obj 860 879 * 0.1;
#X obj 936 980 s pack;
#X obj 901 902 +;
#X obj 901 881 t b b;
#X obj 900 941 -;
#X obj 930 902 random 80;
#X obj 930 923 random 80;
#X obj 957 881 * 0.1;
#X obj 1020 902 +;
#X obj 1020 881 t b b;
#X obj 1019 941 -;
#X obj 1049 902 random 80;
#X obj 1049 923 random 80;
#X obj 1076 881 * 0.1;
#X obj 1126 901 +;
#X obj 1126 880 t b b;
#X obj 1125 940 -;
#X obj 1155 901 random 80;
#X obj 1155 922 random 80;
#X obj 1182 880 * 0.1;
#X obj 1280 982 s pack;
#X obj 1245 904 +;
#X obj 1245 883 t b b;
#X obj 1244 943 -;
#X obj 1274 904 random 80;
#X obj 1274 925 random 80;
#X obj 1301 883 * 0.1;
#X obj 611 1151 s pack;
#X obj 576 1073 +;
#X obj 576 1052 t b b;
#X obj 575 1112 -;
#X obj 605 1073 random 80;
#X obj 605 1094 random 80;
#X obj 632 1052 * 0.1;
#X obj 706 1151 s pack;
#X obj 671 1073 +;
#X obj 671 1052 t b b;
#X obj 670 1112 -;
#X obj 700 1073 random 80;
#X obj 700 1094 random 80;
#X obj 727 1052 * 0.1;
#X obj 827 1152 s pack;
#X obj 792 1074 +;
#X obj 792 1053 t b b;
#X obj 791 1113 -;
#X obj 821 1074 random 80;
#X obj 821 1095 random 80;
#X obj 848 1053 * 0.1;
#X obj 924 1154 s pack;
#X obj 889 1076 +;
#X obj 889 1055 t b b;
#X obj 888 1115 -;
#X obj 918 1076 random 80;
#X obj 918 1097 random 80;
#X obj 945 1055 * 0.1;
#X obj 1043 1154 s pack;
#X obj 1008 1076 +;
#X obj 1008 1055 t b b;
#X obj 1007 1115 -;
#X obj 1037 1076 random 80;
#X obj 1037 1097 random 80;
#X obj 1064 1055 * 0.1;
#X obj 1149 1153 s pack;
#X obj 1114 1075 +;
#X obj 1114 1054 t b b;
#X obj 1113 1114 -;
#X obj 1143 1075 random 80;
#X obj 1143 1096 random 80;
#X obj 1170 1054 * 0.1;
#X obj 1233 1078 +;
#X obj 1233 1057 t b b;
#X obj 1232 1117 -;
#X obj 1262 1078 random 80;
#X obj 1262 1099 random 80;
#X obj 1289 1057 * 0.1;
#X msg 626 944 65 1 \$1;
#X msg 721 944 65 1 \$1;
#X msg 842 945 98 1 \$1;
#X msg 939 947 98 1 \$1;
#X msg 1164 946 110 1 \$1;
#X msg 1283 949 98 1 \$1;
#X msg 614 1118 87 1 \$1;
#X msg 709 1118 87 1 \$1;
#X msg 830 1119 82 1 \$1;
#X msg 927 1121 82 1 \$1;
#X msg 1045 1121 73 1 \$1;
#X msg 1152 1120 73 1 \$1;
#X obj 585 139 select 0 1 2 3 4 5 6 7 8 9 10 11 12 13 14 15 16 17 18
19 20 21 22 23 24 25 26 27 28 29 30 31 32 33 34 35 36 37 38 39 40 41
, f 180;
#X msg 1155 274 500;
#X msg 617 272 400;
#X msg 711 270 400;
#X msg 833 272 400;
#X msg 930 275 400;
#X msg 1050 276 400;
#X msg 1274 277 800;
#X msg 1262 451 800;
#X msg 1258 616 800;
#X msg 1258 772 800;
#X msg 1246 926 800;
#X msg 605 446 400;
#X msg 601 611 400;
#X msg 601 767 400;
#X msg 589 921 400;
#X msg 577 1095 400;
#X msg 700 446 400;
#X msg 821 447 400;
#X msg 1037 449 400;
#X msg 1143 448 400;
#X msg 696 611 400;
#X msg 817 612 400;
#X msg 914 614 400;
#X msg 1033 614 400;
#X msg 1139 613 400;
#X msg 696 767 400;
#X msg 817 768 400;
#X msg 914 770 400;
#X msg 1033 770 400;
#X msg 1139 769 400;
#X msg 684 921 400;
#X msg 805 922 400;
#X msg 902 924 400;
#X msg 1021 924 400;
#X msg 1127 923 400;
#X msg 672 1095 400;
#X msg 793 1096 400;
#X msg 890 1098 400;
#X msg 1009 1098 400;
#X msg 1115 1097 400;
#X msg 918 449 400;
#X msg 1234 1101 1600;
#X msg 1085 299 90 110 \$1;
#X msg 1057 948 88 110 \$1;
#X obj 1296 507 s pack2;
#X msg 1299 474 72 65 \$1;
#X obj 1082 331 s pack2;
#X obj 1189 330 s pack;
#X obj 1055 980 s pack2;
#X obj 1161 979 s pack;
#X obj 1268 1156 s pack2;
#X obj 851 824 s pack2;
#X msg 854 791 95 87 \$1;
#X msg 1271 1123 71 65 \$1;
#X connect 0 1 1 0;
#X connect 1 0 2 0;
#X connect 2 0 3 0;
#X connect 3 0 4 0;
#X connect 3 0 5 0;
#X connect 4 0 3 1;
#X connect 5 0 334 0;
#X connect 6 0 3 0;
#X connect 7 0 6 0;
#X connect 8 0 3 0;
#X connect 9 0 8 0;
#X connect 11 0 13 0;
#X connect 12 0 336 0;
#X connect 12 1 14 0;
#X connect 12 1 15 0;
#X connect 13 0 105 0;
#X connect 14 0 11 1;
#X connect 15 0 13 1;
#X connect 16 0 14 1;
#X connect 16 0 15 1;
#X connect 18 0 20 0;
#X connect 19 0 337 0;
#X connect 19 1 21 0;
#X connect 19 1 22 0;
#X connect 20 0 106 0;
#X connect 21 0 18 1;
#X connect 22 0 20 1;
#X connect 23 0 21 1;
#X connect 23 0 22 1;
#X connect 25 0 27 0;
#X connect 26 0 338 0;
#X connect 26 1 28 0;
#X connect 26 1 29 0;
#X connect 27 0 107 0;
#X connect 28 0 25 1;
#X connect 29 0 27 1;
#X connect 30 0 28 1;
#X connect 30 0 29 1;
#X connect 32 0 34 0;
#X connect 33 0 339 0;
#X connect 33 1 35 0;
#X connect 33 1 36 0;
#X connect 34 0 108 0;
#X connect 35 0 32 1;
#X connect 36 0 34 1;
#X connect 37 0 35 1;
#X connect 37 0 36 1;
#X connect 38 0 40 0;
#X connect 39 0 340 0;
#X connect 39 1 41 0;
#X connect 39 1 42 0;
#X connect 40 0 377 0;
#X connect 41 0 38 1;
#X connect 42 0 40 1;
#X connect 43 0 41 1;
#X connect 43 0 42 1;
#X connect 44 0 46 0;
#X connect 45 0 335 0;
#X connect 45 1 47 0;
#X connect 45 1 48 0;
#X connect 46 0 109 0;
#X connect 47 0 44 1;
#X connect 48 0 46 1;
#X connect 49 0 47 1;
#X connect 49 0 48 1;
#X connect 51 0 53 0;
#X connect 52 0 341 0;
#X connect 52 1 54 0;
#X connect 52 1 55 0;
#X connect 53 0 110 0;
#X connect 54 0 51 1;
#X connect 55 0 53 1;
#X connect 56 0 54 1;
#X connect 56 0 55 1;
#X connect 58 0 60 0;
#X connect 59 0 346 0;
#X connect 59 1 61 0;
#X connect 59 1 62 0;
#X connect 60 0 111 0;
#X connect 61 0 58 1;
#X connect 62 0 60 1;
#X connect 63 0 61 1;
#X connect 63 0 62 1;
#X connect 65 0 67 0;
#X connect 66 0 351 0;
#X connect 66 1 68 0;
#X connect 66 1 69 0;
#X connect 67 0 112 0;
#X connect 68 0 65 1;
#X connect 69 0 67 1;
#X connect 70 0 68 1;
#X connect 70 0 69 1;
#X connect 72 0 74 0;
#X connect 73 0 352 0;
#X connect 73 1 75 0;
#X connect 73 1 76 0;
#X connect 74 0 113 0;
#X connect 75 0 72 1;
#X connect 76 0 74 1;
#X connect 77 0 75 1;
#X connect 77 0 76 1;
#X connect 79 0 81 0;
#X connect 80 0 375 0;
#X connect 80 1 82 0;
#X connect 80 1 83 0;
#X connect 81 0 114 0;
#X connect 82 0 79 1;
#X connect 83 0 81 1;
#X connect 84 0 82 1;
#X connect 84 0 83 1;
#X connect 86 0 88 0;
#X connect 87 0 353 0;
#X connect 87 1 89 0;
#X connect 87 1 90 0;
#X connect 88 0 115 0;
#X connect 89 0 86 1;
#X connect 90 0 88 1;
#X connect 91 0 89 1;
#X connect 91 0 90 1;
#X connect 93 0 95 0;
#X connect 94 0 354 0;
#X connect 94 1 96 0;
#X connect 94 1 97 0;
#X connect 95 0 116 0;
#X connect 96 0 93 1;
#X connect 97 0 95 1;
#X connect 98 0 96 1;
#X connect 98 0 97 1;
#X connect 99 0 101 0;
#X connect 100 0 342 0;
#X connect 100 1 102 0;
#X connect 100 1 103 0;
#X connect 101 0 380 0;
#X connect 102 0 99 1;
#X connect 103 0 101 1;
#X connect 104 0 102 1;
#X connect 104 0 103 1;
#X connect 105 0 10 0;
#X connect 105 0 0 0;
#X connect 106 0 17 0;
#X connect 106 0 0 0;
#X connect 107 0 24 0;
#X connect 107 0 0 0;
#X connect 108 0 31 0;
#X connect 108 0 0 0;
#X connect 109 0 0 0;
#X connect 109 0 382 0;
#X connect 110 0 50 0;
#X connect 110 0 0 0;
#X connect 111 0 57 0;
#X connect 111 0 0 0;
#X connect 112 0 64 0;
#X connect 112 0 0 0;
#X connect 113 0 71 0;
#X connect 113 0 0 0;
#X connect 114 0 78 0;
#X connect 114 0 0 0;
#X connect 115 0 85 0;
#X connect 115 0 0 0;
#X connect 116 0 92 0;
#X connect 116 0 0 0;
#X connect 118 0 120 0;
#X connect 119 0 347 0;
#X connect 119 1 121 0;
#X connect 119 1 122 0;
#X connect 120 0 166 0;
#X connect 121 0 118 1;
#X connect 122 0 120 1;
#X connect 123 0 121 1;
#X connect 123 0 122 1;
#X connect 125 0 127 0;
#X connect 126 0 355 0;
#X connect 126 1 128 0;
#X connect 126 1 129 0;
#X connect 127 0 167 0;
#X connect 128 0 125 1;
#X connect 129 0 127 1;
#X connect 130 0 128 1;
#X connect 130 0 129 1;
#X connect 132 0 134 0;
#X connect 133 0 356 0;
#X connect 133 1 135 0;
#X connect 133 1 136 0;
#X connect 134 0 168 0;
#X connect 135 0 132 1;
#X connect 136 0 134 1;
#X connect 137 0 135 1;
#X connect 137 0 136 1;
#X connect 139 0 141 0;
#X connect 140 0 357 0;
#X connect 140 1 142 0;
#X connect 140 1 143 0;
#X connect 141 0 169 0;
#X connect 142 0 139 1;
#X connect 143 0 141 1;
#X connect 144 0 142 1;
#X connect 144 0 143 1;
#X connect 146 0 148 0;
#X connect 147 0 358 0;
#X connect 147 1 149 0;
#X connect 147 1 150 0;
#X connect 148 0 170 0;
#X connect 149 0 146 1;
#X connect 150 0 148 1;
#X connect 151 0 149 1;
#X connect 151 0 150 1;
#X connect 153 0 155 0;
#X connect 154 0 359 0;
#X connect 154 1 156 0;
#X connect 154 1 157 0;
#X connect 155 0 171 0;
#X connect 156 0 153 1;
#X connect 157 0 155 1;
#X connect 158 0 156 1;
#X connect 158 0 157 1;
#X connect 160 0 162 0;
#X connect 161 0 343 0;
#X connect 161 1 163 0;
#X connect 161 1 164 0;
#X connect 162 0 172 0;
#X connect 163 0 160 1;
#X connect 164 0 162 1;
#X connect 165 0 163 1;
#X connect 165 0 164 1;
#X connect 166 0 117 0;
#X connect 166 0 0 0;
#X connect 167 0 124 0;
#X connect 167 0 0 0;
#X connect 168 0 131 0;
#X connect 168 0 0 0;
#X connect 169 0 138 0;
#X connect 169 0 0 0;
#X connect 170 0 145 0;
#X connect 170 0 0 0;
#X connect 171 0 152 0;
#X connect 171 0 0 0;
#X connect 172 0 159 0;
#X connect 172 0 0 0;
#X connect 174 0 176 0;
#X connect 175 0 348 0;
#X connect 175 1 177 0;
#X connect 175 1 178 0;
#X connect 176 0 221 0;
#X connect 177 0 174 1;
#X connect 178 0 176 1;
#X connect 179 0 177 1;
#X connect 179 0 178 1;
#X connect 181 0 183 0;
#X connect 182 0 360 0;
#X connect 182 1 184 0;
#X connect 182 1 185 0;
#X connect 183 0 222 0;
#X connect 184 0 181 1;
#X connect 185 0 183 1;
#X connect 186 0 184 1;
#X connect 186 0 185 1;
#X connect 187 0 189 0;
#X connect 188 0 361 0;
#X connect 188 1 190 0;
#X connect 188 1 191 0;
#X connect 189 0 387 0;
#X connect 190 0 187 1;
#X connect 191 0 189 1;
#X connect 192 0 190 1;
#X connect 192 0 191 1;
#X connect 194 0 196 0;
#X connect 195 0 362 0;
#X connect 195 1 197 0;
#X connect 195 1 198 0;
#X connect 196 0 223 0;
#X connect 197 0 194 1;
#X connect 198 0 196 1;
#X connect 199 0 197 1;
#X connect 199 0 198 1;
#X connect 201 0 203 0;
#X connect 202 0 363 0;
#X connect 202 1 204 0;
#X connect 202 1 205 0;
#X connect 203 0 224 0;
#X connect 204 0 201 1;
#X connect 205 0 203 1;
#X connect 206 0 204 1;
#X connect 206 0 205 1;
#X connect 208 0 210 0;
#X connect 209 0 364 0;
#X connect 209 1 211 0;
#X connect 209 1 212 0;
#X connect 210 0 225 0;
#X connect 211 0 208 1;
#X connect 212 0 210 1;
#X connect 213 0 211 1;
#X connect 213 0 212 1;
#X connect 215 0 217 0;
#X connect 216 0 344 0;
#X connect 216 1 218 0;
#X connect 216 1 219 0;
#X connect 217 0 226 0;
#X connect 218 0 215 1;
#X connect 219 0 217 1;
#X connect 220 0 218 1;
#X connect 220 0 219 1;
#X connect 221 0 173 0;
#X connect 221 0 0 0;
#X connect 222 0 180 0;
#X connect 222 0 0 0;
#X connect 223 0 193 0;
#X connect 223 0 0 0;
#X connect 224 0 200 0;
#X connect 224 0 0 0;
#X connect 225 0 207 0;
#X connect 225 0 0 0;
#X connect 226 0 214 0;
#X connect 226 0 0 0;
#X connect 228 0 230 0;
#X connect 229 0 349 0;
#X connect 229 1 231 0;
#X connect 229 1 232 0;
#X connect 230 0 322 0;
#X connect 231 0 228 1;
#X connect 232 0 230 1;
#X connect 233 0 231 1;
#X connect 233 0 232 1;
#X connect 235 0 237 0;
#X connect 236 0 365 0;
#X connect 236 1 238 0;
#X connect 236 1 239 0;
#X connect 237 0 323 0;
#X connect 238 0 235 1;
#X connect 239 0 237 1;
#X connect 240 0 238 1;
#X connect 240 0 239 1;
#X connect 242 0 244 0;
#X connect 243 0 366 0;
#X connect 243 1 245 0;
#X connect 243 1 246 0;
#X connect 244 0 324 0;
#X connect 245 0 242 1;
#X connect 246 0 244 1;
#X connect 247 0 245 1;
#X connect 247 0 246 1;
#X connect 249 0 251 0;
#X connect 250 0 367 0;
#X connect 250 1 252 0;
#X connect 250 1 253 0;
#X connect 251 0 325 0;
#X connect 252 0 249 1;
#X connect 253 0 251 1;
#X connect 254 0 252 1;
#X connect 254 0 253 1;
#X connect 255 0 257 0;
#X connect 256 0 368 0;
#X connect 256 1 258 0;
#X connect 256 1 259 0;
#X connect 257 0 378 0;
#X connect 258 0 255 1;
#X connect 259 0 257 1;
#X connect 260 0 258 1;
#X connect 260 0 259 1;
#X connect 261 0 263 0;
#X connect 262 0 369 0;
#X connect 262 1 264 0;
#X connect 262 1 265 0;
#X connect 263 0 326 0;
#X connect 264 0 261 1;
#X connect 265 0 263 1;
#X connect 266 0 264 1;
#X connect 266 0 265 1;
#X connect 268 0 270 0;
#X connect 269 0 345 0;
#X connect 269 1 271 0;
#X connect 269 1 272 0;
#X connect 270 0 327 0;
#X connect 271 0 268 1;
#X connect 272 0 270 1;
#X connect 273 0 271 1;
#X connect 273 0 272 1;
#X connect 275 0 277 0;
#X connect 276 0 350 0;
#X connect 276 1 278 0;
#X connect 276 1 279 0;
#X connect 277 0 328 0;
#X connect 278 0 275 1;
#X connect 279 0 277 1;
#X connect 280 0 278 1;
#X connect 280 0 279 1;
#X connect 282 0 284 0;
#X connect 283 0 370 0;
#X connect 283 1 285 0;
#X connect 283 1 286 0;
#X connect 284 0 329 0;
#X connect 285 0 282 1;
#X connect 286 0 284 1;
#X connect 287 0 285 1;
#X connect 287 0 286 1;
#X connect 289 0 291 0;
#X connect 290 0 371 0;
#X connect 290 1 292 0;
#X connect 290 1 293 0;
#X connect 291 0 330 0;
#X connect 292 0 289 1;
#X connect 293 0 291 1;
#X connect 294 0 292 1;
#X connect 294 0 293 1;
#X connect 296 0 298 0;
#X connect 297 0 372 0;
#X connect 297 1 299 0;
#X connect 297 1 300 0;
#X connect 298 0 331 0;
#X connect 299 0 296 1;
#X connect 300 0 298 1;
#X connect 301 0 299 1;
#X connect 301 0 300 1;
#X connect 303 0 305 0;
#X connect 304 0 373 0;
#X connect 304 1 306 0;
#X connect 304 1 307 0;
#X connect 305 0 332 0;
#X connect 306 0 303 1;
#X connect 307 0 305 1;
#X connect 308 0 306 1;
#X connect 308 0 307 1;
#X connect 310 0 312 0;
#X connect 311 0 374 0;
#X connect 311 1 313 0;
#X connect 311 1 314 0;
#X connect 312 0 333 0;
#X connect 313 0 310 1;
#X connect 314 0 312 1;
#X connect 315 0 313 1;
#X connect 315 0 314 1;
#X connect 316 0 318 0;
#X connect 317 0 376 0;
#X connect 317 1 319 0;
#X connect 317 1 320 0;
#X connect 318 0 388 0;
#X connect 319 0 316 1;
#X connect 320 0 318 1;
#X connect 321 0 319 1;
#X connect 321 0 320 1;
#X connect 322 0 227 0;
#X connect 322 0 0 0;
#X connect 323 0 234 0;
#X connect 323 0 0 0;
#X connect 324 0 241 0;
#X connect 324 0 0 0;
#X connect 325 0 248 0;
#X connect 325 0 0 0;
#X connect 326 0 0 0;
#X connect 326 0 384 0;
#X connect 327 0 267 0;
#X connect 327 0 0 0;
#X connect 328 0 274 0;
#X connect 328 0 0 0;
#X connect 329 0 281 0;
#X connect 329 0 0 0;
#X connect 330 0 288 0;
#X connect 330 0 0 0;
#X connect 331 0 295 0;
#X connect 331 0 0 0;
#X connect 332 0 302 0;
#X connect 332 0 0 0;
#X connect 333 0 309 0;
#X connect 333 0 0 0;
#X connect 334 0 12 0;
#X connect 334 1 19 0;
#X connect 334 2 26 0;
#X connect 334 3 33 0;
#X connect 334 4 39 0;
#X connect 334 5 45 0;
#X connect 334 6 52 0;
#X connect 334 7 59 0;
#X connect 334 8 66 0;
#X connect 334 9 73 0;
#X connect 334 10 80 0;
#X connect 334 11 87 0;
#X connect 334 12 94 0;
#X connect 334 13 100 0;
#X connect 334 14 119 0;
#X connect 334 15 126 0;
#X connect 334 16 133 0;
#X connect 334 17 140 0;
#X connect 334 18 147 0;
#X connect 334 19 154 0;
#X connect 334 20 161 0;
#X connect 334 21 175 0;
#X connect 334 22 182 0;
#X connect 334 23 188 0;
#X connect 334 24 195 0;
#X connect 334 25 202 0;
#X connect 334 26 209 0;
#X connect 334 27 216 0;
#X connect 334 28 229 0;
#X connect 334 29 236 0;
#X connect 334 30 243 0;
#X connect 334 31 250 0;
#X connect 334 32 256 0;
#X connect 334 33 262 0;
#X connect 334 34 269 0;
#X connect 334 35 276 0;
#X connect 334 36 283 0;
#X connect 334 37 290 0;
#X connect 334 38 297 0;
#X connect 334 39 304 0;
#X connect 334 40 311 0;
#X connect 334 41 317 0;
#X connect 335 0 44 0;
#X connect 335 0 49 0;
#X connect 336 0 11 0;
#X connect 336 0 16 0;
#X connect 337 0 18 0;
#X connect 337 0 23 0;
#X connect 338 0 25 0;
#X connect 338 0 30 0;
#X connect 339 0 32 0;
#X connect 339 0 37 0;
#X connect 340 0 38 0;
#X connect 340 0 43 0;
#X connect 341 0 51 0;
#X connect 341 0 56 0;
#X connect 342 0 99 0;
#X connect 342 0 104 0;
#X connect 343 0 160 0;
#X connect 343 0 165 0;
#X connect 344 0 215 0;
#X connect 344 0 220 0;
#X connect 345 0 268 0;
#X connect 345 0 273 0;
#X connect 346 0 58 0;
#X connect 346 0 63 0;
#X connect 347 0 118 0;
#X connect 347 0 123 0;
#X connect 348 0 174 0;
#X connect 348 0 179 0;
#X connect 349 0 228 0;
#X connect 349 0 233 0;
#X connect 350 0 275 0;
#X connect 350 0 280 0;
#X connect 351 0 65 0;
#X connect 351 0 70 0;
#X connect 352 0 72 0;
#X connect 352 0 77 0;
#X connect 353 0 86 0;
#X connect 353 0 91 0;
#X connect 354 0 93 0;
#X connect 354 0 98 0;
#X connect 355 0 125 0;
#X connect 355 0 130 0;
#X connect 356 0 132 0;
#X connect 356 0 137 0;
#X connect 357 0 139 0;
#X connect 357 0 144 0;
#X connect 358 0 146 0;
#X connect 358 0 151 0;
#X connect 359 0 153 0;
#X connect 359 0 158 0;
#X connect 360 0 181 0;
#X connect 360 0 186 0;
#X connect 361 0 187 0;
#X connect 361 0 192 0;
#X connect 362 0 194 0;
#X connect 362 0 199 0;
#X connect 363 0 201 0;
#X connect 363 0 206 0;
#X connect 364 0 208 0;
#X connect 364 0 213 0;
#X connect 365 0 235 0;
#X connect 365 0 240 0;
#X connect 366 0 242 0;
#X connect 366 0 247 0;
#X connect 367 0 249 0;
#X connect 367 0 254 0;
#X connect 368 0 255 0;
#X connect 368 0 260 0;
#X connect 369 0 261 0;
#X connect 369 0 266 0;
#X connect 370 0 282 0;
#X connect 370 0 287 0;
#X connect 371 0 289 0;
#X connect 371 0 294 0;
#X connect 372 0 296 0;
#X connect 372 0 301 0;
#X connect 373 0 303 0;
#X connect 373 0 308 0;
#X connect 374 0 310 0;
#X connect 374 0 315 0;
#X connect 375 0 79 0;
#X connect 375 0 84 0;
#X connect 376 0 316 0;
#X connect 376 0 321 0;
#X connect 377 0 0 0;
#X connect 377 0 381 0;
#X connect 378 0 0 0;
#X connect 378 0 383 0;
#X connect 380 0 0 0;
#X connect 380 0 379 0;
#X connect 387 0 0 0;
#X connect 387 0 386 0;
#X connect 388 0 0 0;
#X connect 388 0 385 0;
